<svg xmlns="http://www.w3.org/2000/svg" width="537" height="531"><polygon points="11 61 3 57 3 65"/><polygon points="19 61 11 57 11 65"/><rect width="70" height="32" x="33" y="47" rx="10"/><rect width="70" height="32" x="31" y="45" class="terminal" rx="10"/><text x="41" y="65" class="terminal">GRANT</text><rect width="76" height="32" x="163" y="47"/><rect width="76" height="32" x="161" y="45" class="nonterminal"/><text x="171" y="65" class="nonterminal">privilege</text><rect width="24" height="32" x="163" y="3" rx="10"/><rect width="24" height="32" x="161" y="1" class="terminal" rx="10"/><text x="171" y="21" class="terminal">,</text><rect width="46" height="32" x="143" y="91" rx="10"/><rect width="46" height="32" x="141" y="89" class="terminal" rx="10"/><text x="151" y="109" class="terminal">ALL</text><rect width="102" height="32" x="229" y="123" rx="10"/><rect width="102" height="32" x="227" y="121" class="terminal" rx="10"/><text x="237" y="141" class="terminal">PRIVILEGES</text><rect width="40" height="32" x="391" y="47" rx="10"/><rect width="40" height="32" x="389" y="45" class="terminal" rx="10"/><text x="399" y="65" class="terminal">ON</text><rect width="74" height="32" x="45" y="233" rx="10"/><rect width="74" height="32" x="43" y="231" class="terminal" rx="10"/><text x="53" y="251" class="terminal">TABLES</text><rect width="66" height="32" x="45" y="277" rx="10"/><rect width="66" height="32" x="43" y="275" class="terminal" rx="10"/><text x="53" y="295" class="terminal">TYPES</text><rect width="84" height="32" x="45" y="321" rx="10"/><rect width="84" height="32" x="43" y="319" class="terminal" rx="10"/><text x="53" y="339" class="terminal">SECRETS</text><rect width="124" height="32" x="45" y="365" rx="10"/><rect width="124" height="32" x="43" y="363" class="terminal" rx="10"/><text x="53" y="383" class="terminal">CONNECTIONS</text><rect width="106" height="32" x="45" y="409" rx="10"/><rect width="106" height="32" x="43" y="407" class="terminal" rx="10"/><text x="53" y="427" class="terminal">DATABASES</text><rect width="90" height="32" x="45" y="453" rx="10"/><rect width="90" height="32" x="43" y="451" class="terminal" rx="10"/><text x="53" y="471" class="terminal">SCHEMAS</text><rect width="94" height="32" x="45" y="497" rx="10"/><rect width="94" height="32" x="43" y="495" class="terminal" rx="10"/><text x="53" y="515" class="terminal">CLUSTERS</text><rect width="40" height="32" x="209" y="233" rx="10"/><rect width="40" height="32" x="207" y="231" class="terminal" rx="10"/><text x="217" y="251" class="terminal">TO</text><rect width="70" height="32" x="289" y="265" rx="10"/><rect width="70" height="32" x="287" y="263" class="terminal" rx="10"/><text x="297" y="283" class="terminal">GROUP</text><rect width="70" height="32" x="419" y="233"/><rect width="70" height="32" x="417" y="231" class="nonterminal"/><text x="427" y="251" class="nonterminal">grantee</text><rect width="24" height="32" x="419" y="189" rx="10"/><rect width="24" height="32" x="417" y="187" class="terminal" rx="10"/><text x="427" y="207" class="terminal">,</text><path d="m19 61 h2 m0 0 h10 m70 0 h10 m40 0 h10 m76 0 h10 m-116 0 l20 0 m-1 0 q-9 0 -9 -10 l0 -24 q0 -10 10 -10 m96 44 l20 0 m-20 0 q10 0 10 -10 l0 -24 q0 -10 -10 -10 m-96 0 h10 m24 0 h10 m0 0 h52 m20 44 h92 m-248 0 h20 m228 0 h20 m-268 0 q10 0 10 10 m248 0 q0 -10 10 -10 m-258 10 v24 m248 0 v-24 m-248 24 q0 10 10 10 m228 0 q10 0 10 -10 m-238 10 h10 m46 0 h10 m20 0 h10 m0 0 h112 m-142 0 h20 m122 0 h20 m-162 0 q10 0 10 10 m142 0 q0 -10 10 -10 m-152 10 v12 m142 0 v-12 m-142 12 q0 10 10 10 m122 0 q10 0 10 -10 m-132 10 h10 m102 0 h10 m40 -76 h10 m40 0 h10 m2 0 l2 0 m2 0 l2 0 m2 0 l2 0 m-450 186 l2 0 m2 0 l2 0 m2 0 l2 0 m22 0 h10 m74 0 h10 m0 0 h50 m-164 0 h20 m144 0 h20 m-184 0 q10 0 10 10 m164 0 q0 -10 10 -10 m-174 10 v24 m164 0 v-24 m-164 24 q0 10 10 10 m144 0 q10 0 10 -10 m-154 10 h10 m66 0 h10 m0 0 h58 m-154 -10 v20 m164 0 v-20 m-164 20 v24 m164 0 v-24 m-164 24 q0 10 10 10 m144 0 q10 0 10 -10 m-154 10 h10 m84 0 h10 m0 0 h40 m-154 -10 v20 m164 0 v-20 m-164 20 v24 m164 0 v-24 m-164 24 q0 10 10 10 m144 0 q10 0 10 -10 m-154 10 h10 m124 0 h10 m-154 -10 v20 m164 0 v-20 m-164 20 v24 m164 0 v-24 m-164 24 q0 10 10 10 m144 0 q10 0 10 -10 m-154 10 h10 m106 0 h10 m0 0 h18 m-154 -10 v20 m164 0 v-20 m-164 20 v24 m164 0 v-24 m-164 24 q0 10 10 10 m144 0 q10 0 10 -10 m-154 10 h10 m90 0 h10 m0 0 h34 m-154 -10 v20 m164 0 v-20 m-164 20 v24 m164 0 v-24 m-164 24 q0 10 10 10 m144 0 q10 0 10 -10 m-154 10 h10 m94 0 h10 m0 0 h30 m20 -264 h10 m40 0 h10 m20 0 h10 m0 0 h80 m-110 0 h20 m90 0 h20 m-130 0 q10 0 10 10 m110 0 q0 -10 10 -10 m-120 10 v12 m110 0 v-12 m-110 12 q0 10 10 10 m90 0 q10 0 10 -10 m-100 10 h10 m70 0 h10 m40 -32 h10 m70 0 h10 m-110 0 l20 0 m-1 0 q-9 0 -9 -10 l0 -24 q0 -10 10 -10 m90 44 l20 0 m-20 0 q10 0 10 -10 l0 -24 q0 -10 -10 -10 m-90 0 h10 m24 0 h10 m0 0 h46 m23 44 h-3" class="line"/><polygon points="527 247 535 243 535 251"/><polygon points="527 247 519 243 519 251"/></svg>