<svg xmlns="http://www.w3.org/2000/svg" width="459" height="123"><polygon points="11 17 3 13 3 21"/><polygon points="19 17 11 13 11 21"/><rect width="130" height="32" x="33" y="3"/><rect width="130" height="32" x="31" y="1" class="nonterminal"/><text x="41" y="21" class="nonterminal">aggregate_name</text><rect width="26" height="32" x="183" y="3" rx="10"/><rect width="26" height="32" x="181" y="1" class="terminal" rx="10"/><text x="191" y="21" class="terminal">(</text><rect width="92" height="32" x="229" y="3"/><rect width="92" height="32" x="227" y="1" class="nonterminal"/><text x="237" y="21" class="nonterminal">expression</text><rect width="26" height="32" x="341" y="3" rx="10"/><rect width="26" height="32" x="339" y="1" class="terminal" rx="10"/><text x="349" y="21" class="terminal">)</text><rect width="66" height="32" x="45" y="89" rx="10"/><rect width="66" height="32" x="43" y="87" class="terminal" rx="10"/><text x="53" y="107" class="terminal">FILTER</text><rect width="26" height="32" x="131" y="89" rx="10"/><rect width="26" height="32" x="129" y="87" class="terminal" rx="10"/><text x="139" y="107" class="terminal">(</text><rect width="70" height="32" x="177" y="89" rx="10"/><rect width="70" height="32" x="175" y="87" class="terminal" rx="10"/><text x="185" y="107" class="terminal">WHERE</text><rect width="98" height="32" x="267" y="89"/><rect width="98" height="32" x="265" y="87" class="nonterminal"/><text x="275" y="107" class="nonterminal">filter_clause</text><rect width="26" height="32" x="385" y="89" rx="10"/><rect width="26" height="32" x="383" y="87" class="terminal" rx="10"/><text x="393" y="107" class="terminal">)</text><path d="m19 17 h2 m0 0 h10 m130 0 h10 m0 0 h10 m26 0 h10 m0 0 h10 m92 0 h10 m0 0 h10 m26 0 h10 m2 0 l2 0 m2 0 l2 0 m2 0 l2 0 m-386 54 l2 0 m2 0 l2 0 m2 0 l2 0 m22 0 h10 m0 0 h376 m-406 0 h20 m386 0 h20 m-426 0 q10 0 10 10 m406 0 q0 -10 10 -10 m-416 10 v12 m406 0 v-12 m-406 12 q0 10 10 10 m386 0 q10 0 10 -10 m-396 10 h10 m66 0 h10 m0 0 h10 m26 0 h10 m0 0 h10 m70 0 h10 m0 0 h10 m98 0 h10 m0 0 h10 m26 0 h10 m23 -32 h-3" class="line"/><polygon points="449 71 457 67 457 75"/><polygon points="449 71 441 67 441 75"/></svg>