<svg xmlns="http://www.w3.org/2000/svg" width="383" height="37"><polygon points="9 17 1 13 1 21"/><polygon points="17 17 9 13 9 21"/><rect width="66" height="32" x="31" y="3" rx="10"/><rect width="66" height="32" x="29" y="1" class="terminal" rx="10"/><text x="39" y="21" class="terminal">ALTER</text><rect width="78" height="32" x="117" y="3" rx="10"/><rect width="78" height="32" x="115" y="1" class="terminal" rx="10"/><text x="125" y="21" class="terminal">SYSTEM</text><rect width="64" height="32" x="215" y="3" rx="10"/><rect width="64" height="32" x="213" y="1" class="terminal" rx="10"/><text x="223" y="21" class="terminal">RESET</text><rect width="56" height="32" x="299" y="3"/><rect width="56" height="32" x="297" y="1" class="nonterminal"/><text x="307" y="21" class="nonterminal">name</text><path d="m17 17 h2 m0 0 h10 m66 0 h10 m0 0 h10 m78 0 h10 m0 0 h10 m64 0 h10 m0 0 h10 m56 0 h10 m3 0 h-3" class="line"/><polygon points="373 17 381 13 381 21"/><polygon points="373 17 365 13 365 21"/></svg>