<svg xmlns="http://www.w3.org/2000/svg" width="411" height="221"><polygon points="9 17 1 13 1 21"/><polygon points="17 17 9 13 9 21"/><rect width="66" height="32" x="31" y="3" rx="10"/><rect width="66" height="32" x="29" y="1" class="terminal" rx="10"/><text x="39" y="21" class="terminal">ALTER</text><rect width="84" height="32" x="117" y="3" rx="10"/><rect width="84" height="32" x="115" y="1" class="terminal" rx="10"/><text x="125" y="21" class="terminal">CLUSTER</text><rect width="56" height="32" x="221" y="3"/><rect width="56" height="32" x="219" y="1" class="nonterminal"/><text x="229" y="21" class="nonterminal">name</text><rect width="46" height="32" x="297" y="3" rx="10"/><rect width="46" height="32" x="295" y="1" class="terminal" rx="10"/><text x="305" y="21" class="terminal">SET</text><rect width="26" height="32" x="363" y="3" rx="10"/><rect width="26" height="32" x="361" y="1" class="terminal" rx="10"/><text x="371" y="21" class="terminal">(</text><rect width="112" height="32" x="67" y="85"/><rect width="112" height="32" x="65" y="83" class="nonterminal"/><text x="75" y="103" class="nonterminal">cluster_option</text><rect width="28" height="32" x="199" y="85" rx="10"/><rect width="28" height="32" x="197" y="83" class="terminal" rx="10"/><text x="207" y="103" class="terminal">=</text><rect width="54" height="32" x="247" y="85"/><rect width="54" height="32" x="245" y="83" class="nonterminal"/><text x="255" y="103" class="nonterminal">value</text><rect width="26" height="32" x="361" y="85" rx="10"/><rect width="26" height="32" x="359" y="83" class="terminal" rx="10"/><text x="369" y="103" class="terminal">)</text><rect width="58" height="32" x="183" y="187" rx="10"/><rect width="58" height="32" x="181" y="185" class="terminal" rx="10"/><text x="191" y="205" class="terminal">WITH</text><rect width="102" height="32" x="261" y="187"/><rect width="102" height="32" x="259" y="185" class="nonterminal"/><text x="269" y="205" class="nonterminal">with_options</text><path d="m17 17 h2 m0 0 h10 m66 0 h10 m0 0 h10 m84 0 h10 m0 0 h10 m56 0 h10 m0 0 h10 m46 0 h10 m0 0 h10 m26 0 h10 m2 0 l2 0 m2 0 l2 0 m2 0 l2 0 m-406 82 l2 0 m2 0 l2 0 m2 0 l2 0 m42 0 h10 m112 0 h10 m0 0 h10 m28 0 h10 m0 0 h10 m54 0 h10 m-274 0 l20 0 m-1 0 q-9 0 -9 -10 l0 -12 q0 -10 10 -10 m254 32 l20 0 m-20 0 q10 0 10 -10 l0 -12 q0 -10 -10 -10 m-254 0 h10 m0 0 h244 m-294 32 h20 m294 0 h20 m-334 0 q10 0 10 10 m314 0 q0 -10 10 -10 m-324 10 v14 m314 0 v-14 m-314 14 q0 10 10 10 m294 0 q10 0 10 -10 m-304 10 h10 m0 0 h284 m20 -34 h10 m26 0 h10 m2 0 l2 0 m2 0 l2 0 m2 0 l2 0 m-268 70 l2 0 m2 0 l2 0 m2 0 l2 0 m22 0 h10 m0 0 h190 m-220 0 h20 m200 0 h20 m-240 0 q10 0 10 10 m220 0 q0 -10 10 -10 m-230 10 v12 m220 0 v-12 m-220 12 q0 10 10 10 m200 0 q10 0 10 -10 m-210 10 h10 m58 0 h10 m0 0 h10 m102 0 h10 m23 -32 h-3" class="line"/><polygon points="401 169 409 165 409 173"/><polygon points="401 169 393 165 393 173"/></svg>