<svg xmlns="http://www.w3.org/2000/svg" width="593" height="135"><polygon points="9 17 1 13 1 21"/><polygon points="17 17 9 13 9 21"/><rect width="66" height="32" x="31" y="3" rx="10"/><rect width="66" height="32" x="29" y="1" class="terminal" rx="10"/><text x="39" y="21" class="terminal">ALTER</text><rect width="166" height="32" x="117" y="3" rx="10"/><rect width="166" height="32" x="115" y="1" class="terminal" rx="10"/><text x="125" y="21" class="terminal">MATERIALIZED VIEW</text><rect width="86" height="32" x="323" y="35" rx="10"/><rect width="86" height="32" x="321" y="33" class="terminal" rx="10"/><text x="331" y="53" class="terminal">IF EXISTS</text><rect width="56" height="32" x="449" y="3"/><rect width="56" height="32" x="447" y="1" class="nonterminal"/><text x="457" y="21" class="nonterminal">name</text><rect width="46" height="32" x="525" y="3" rx="10"/><rect width="46" height="32" x="523" y="1" class="terminal" rx="10"/><text x="533" y="21" class="terminal">SET</text><rect width="34" height="32" x="299" y="101" rx="10"/><rect width="34" height="32" x="297" y="99" class="terminal" rx="10"/><text x="307" y="119" class="terminal">IN</text><rect width="84" height="32" x="353" y="101" rx="10"/><rect width="84" height="32" x="351" y="99" class="terminal" rx="10"/><text x="361" y="119" class="terminal">CLUSTER</text><rect width="108" height="32" x="457" y="101"/><rect width="108" height="32" x="455" y="99" class="nonterminal"/><text x="465" y="119" class="nonterminal">cluster_name</text><path d="m17 17 h2 m0 0 h10 m66 0 h10 m0 0 h10 m166 0 h10 m20 0 h10 m0 0 h96 m-126 0 h20 m106 0 h20 m-146 0 q10 0 10 10 m126 0 q0 -10 10 -10 m-136 10 v12 m126 0 v-12 m-126 12 q0 10 10 10 m106 0 q10 0 10 -10 m-116 10 h10 m86 0 h10 m20 -32 h10 m56 0 h10 m0 0 h10 m46 0 h10 m2 0 l2 0 m2 0 l2 0 m2 0 l2 0 m-316 98 l2 0 m2 0 l2 0 m2 0 l2 0 m2 0 h10 m34 0 h10 m0 0 h10 m84 0 h10 m0 0 h10 m108 0 h10 m3 0 h-3" class="line"/><polygon points="583 115 591 111 591 119"/><polygon points="583 115 575 111 575 119"/></svg>