<svg xmlns="http://www.w3.org/2000/svg" width="545" height="543"><polygon points="9 17 1 13 1 21"/><polygon points="17 17 9 13 9 21"/><rect width="66" height="32" x="31" y="3" rx="10"/><rect width="66" height="32" x="29" y="1" class="terminal" rx="10"/><text x="39" y="21" class="terminal">ALTER</text><rect width="116" height="32" x="137" y="3" rx="10"/><rect width="116" height="32" x="135" y="1" class="terminal" rx="10"/><text x="145" y="21" class="terminal">CONNECTION</text><rect width="84" height="32" x="137" y="47" rx="10"/><rect width="84" height="32" x="135" y="45" class="terminal" rx="10"/><text x="145" y="65" class="terminal">CLUSTER</text><rect width="148" height="32" x="137" y="91" rx="10"/><rect width="148" height="32" x="135" y="89" class="terminal" rx="10"/><text x="145" y="109" class="terminal">CLUSTER REPLICA</text><rect width="62" height="32" x="137" y="135" rx="10"/><rect width="62" height="32" x="135" y="133" class="terminal" rx="10"/><text x="145" y="153" class="terminal">INDEX</text><rect width="82" height="32" x="137" y="179" rx="10"/><rect width="82" height="32" x="135" y="177" class="terminal" rx="10"/><text x="145" y="197" class="terminal">SCHEMA</text><rect width="78" height="32" x="137" y="223" rx="10"/><rect width="78" height="32" x="135" y="221" class="terminal" rx="10"/><text x="145" y="241" class="terminal">SOURCE</text><rect width="52" height="32" x="137" y="267" rx="10"/><rect width="52" height="32" x="135" y="265" class="terminal" rx="10"/><text x="145" y="285" class="terminal">SINK</text><rect width="58" height="32" x="137" y="311" rx="10"/><rect width="58" height="32" x="135" y="309" class="terminal" rx="10"/><text x="145" y="329" class="terminal">VIEW</text><rect width="166" height="32" x="137" y="355" rx="10"/><rect width="166" height="32" x="135" y="353" class="terminal" rx="10"/><text x="145" y="373" class="terminal">MATERIALIZED VIEW</text><rect width="66" height="32" x="137" y="399" rx="10"/><rect width="66" height="32" x="135" y="397" class="terminal" rx="10"/><text x="145" y="417" class="terminal">TABLE</text><rect width="76" height="32" x="137" y="443" rx="10"/><rect width="76" height="32" x="135" y="441" class="terminal" rx="10"/><text x="145" y="461" class="terminal">SECRET</text><rect width="56" height="32" x="343" y="3"/><rect width="56" height="32" x="341" y="1" class="nonterminal"/><text x="351" y="21" class="nonterminal">name</text><rect width="104" height="32" x="419" y="3" rx="10"/><rect width="104" height="32" x="417" y="1" class="terminal" rx="10"/><text x="427" y="21" class="terminal">RENAME TO</text><rect width="90" height="32" x="427" y="509"/><rect width="90" height="32" x="425" y="507" class="nonterminal"/><text x="435" y="527" class="nonterminal">new_name</text><path d="m17 17 h2 m0 0 h10 m66 0 h10 m20 0 h10 m116 0 h10 m0 0 h50 m-206 0 h20 m186 0 h20 m-226 0 q10 0 10 10 m206 0 q0 -10 10 -10 m-216 10 v24 m206 0 v-24 m-206 24 q0 10 10 10 m186 0 q10 0 10 -10 m-196 10 h10 m84 0 h10 m0 0 h82 m-196 -10 v20 m206 0 v-20 m-206 20 v24 m206 0 v-24 m-206 24 q0 10 10 10 m186 0 q10 0 10 -10 m-196 10 h10 m148 0 h10 m0 0 h18 m-196 -10 v20 m206 0 v-20 m-206 20 v24 m206 0 v-24 m-206 24 q0 10 10 10 m186 0 q10 0 10 -10 m-196 10 h10 m62 0 h10 m0 0 h104 m-196 -10 v20 m206 0 v-20 m-206 20 v24 m206 0 v-24 m-206 24 q0 10 10 10 m186 0 q10 0 10 -10 m-196 10 h10 m82 0 h10 m0 0 h84 m-196 -10 v20 m206 0 v-20 m-206 20 v24 m206 0 v-24 m-206 24 q0 10 10 10 m186 0 q10 0 10 -10 m-196 10 h10 m78 0 h10 m0 0 h88 m-196 -10 v20 m206 0 v-20 m-206 20 v24 m206 0 v-24 m-206 24 q0 10 10 10 m186 0 q10 0 10 -10 m-196 10 h10 m52 0 h10 m0 0 h114 m-196 -10 v20 m206 0 v-20 m-206 20 v24 m206 0 v-24 m-206 24 q0 10 10 10 m186 0 q10 0 10 -10 m-196 10 h10 m58 0 h10 m0 0 h108 m-196 -10 v20 m206 0 v-20 m-206 20 v24 m206 0 v-24 m-206 24 q0 10 10 10 m186 0 q10 0 10 -10 m-196 10 h10 m166 0 h10 m-196 -10 v20 m206 0 v-20 m-206 20 v24 m206 0 v-24 m-206 24 q0 10 10 10 m186 0 q10 0 10 -10 m-196 10 h10 m66 0 h10 m0 0 h100 m-196 -10 v20 m206 0 v-20 m-206 20 v24 m206 0 v-24 m-206 24 q0 10 10 10 m186 0 q10 0 10 -10 m-196 10 h10 m76 0 h10 m0 0 h90 m20 -440 h10 m56 0 h10 m0 0 h10 m104 0 h10 m2 0 l2 0 m2 0 l2 0 m2 0 l2 0 m-140 506 l2 0 m2 0 l2 0 m2 0 l2 0 m2 0 h10 m90 0 h10 m3 0 h-3" class="line"/><polygon points="535 523 543 519 543 527"/><polygon points="535 523 527 519 527 527"/></svg>