<svg xmlns="http://www.w3.org/2000/svg" width="629" height="179"><polygon points="11 17 3 13 3 21"/><polygon points="19 17 11 13 11 21"/><rect width="66" height="32" x="33" y="3" rx="10"/><rect width="66" height="32" x="31" y="1" class="terminal" rx="10"/><text x="41" y="21" class="terminal">ALTER</text><rect width="62" height="32" x="119" y="3" rx="10"/><rect width="62" height="32" x="117" y="1" class="terminal" rx="10"/><text x="127" y="21" class="terminal">INDEX</text><rect width="56" height="32" x="201" y="3"/><rect width="56" height="32" x="199" y="1" class="nonterminal"/><text x="209" y="21" class="nonterminal">name</text><rect width="46" height="32" x="277" y="3" rx="10"/><rect width="46" height="32" x="275" y="1" class="terminal" rx="10"/><text x="285" y="21" class="terminal">SET</text><rect width="86" height="32" x="45" y="69" rx="10"/><rect width="86" height="32" x="43" y="67" class="terminal" rx="10"/><text x="53" y="87" class="terminal">ENABLED</text><rect width="26" height="32" x="45" y="113" rx="10"/><rect width="26" height="32" x="43" y="111" class="terminal" rx="10"/><text x="53" y="131" class="terminal">(</text><rect width="140" height="32" x="91" y="113" rx="10"/><rect width="140" height="32" x="89" y="111" class="terminal" rx="10"/><text x="99" y="131" class="terminal">RETAIN HISTORY</text><rect width="28" height="32" x="271" y="145" rx="10"/><rect width="28" height="32" x="269" y="143" class="terminal" rx="10"/><text x="279" y="163" class="terminal">=</text><rect width="48" height="32" x="339" y="113" rx="10"/><rect width="48" height="32" x="337" y="111" class="terminal" rx="10"/><text x="347" y="131" class="terminal">FOR</text><rect width="128" height="32" x="407" y="113"/><rect width="128" height="32" x="405" y="111" class="nonterminal"/><text x="415" y="131" class="nonterminal">retention_period</text><rect width="26" height="32" x="555" y="113" rx="10"/><rect width="26" height="32" x="553" y="111" class="terminal" rx="10"/><text x="563" y="131" class="terminal">)</text><path d="m19 17 h2 m0 0 h10 m66 0 h10 m0 0 h10 m62 0 h10 m0 0 h10 m56 0 h10 m0 0 h10 m46 0 h10 m2 0 l2 0 m2 0 l2 0 m2 0 l2 0 m-342 66 l2 0 m2 0 l2 0 m2 0 l2 0 m22 0 h10 m86 0 h10 m0 0 h450 m-576 0 h20 m556 0 h20 m-596 0 q10 0 10 10 m576 0 q0 -10 10 -10 m-586 10 v24 m576 0 v-24 m-576 24 q0 10 10 10 m556 0 q10 0 10 -10 m-566 10 h10 m26 0 h10 m0 0 h10 m140 0 h10 m20 0 h10 m0 0 h38 m-68 0 h20 m48 0 h20 m-88 0 q10 0 10 10 m68 0 q0 -10 10 -10 m-78 10 v12 m68 0 v-12 m-68 12 q0 10 10 10 m48 0 q10 0 10 -10 m-58 10 h10 m28 0 h10 m20 -32 h10 m48 0 h10 m0 0 h10 m128 0 h10 m0 0 h10 m26 0 h10 m23 -44 h-3" class="line"/><polygon points="619 83 627 79 627 87"/><polygon points="619 83 611 79 611 87"/></svg>