<svg xmlns="http://www.w3.org/2000/svg" width="463" height="559"><polygon points="9 17 1 13 1 21"/><polygon points="17 17 9 13 9 21"/><rect width="66" height="32" x="31" y="3" rx="10"/><rect width="66" height="32" x="29" y="1" class="terminal" rx="10"/><text x="39" y="21" class="terminal">ALTER</text><rect width="84" height="32" x="117" y="3" rx="10"/><rect width="84" height="32" x="115" y="1" class="terminal" rx="10"/><text x="125" y="21" class="terminal">DEFAULT</text><rect width="102" height="32" x="221" y="3" rx="10"/><rect width="102" height="32" x="219" y="1" class="terminal" rx="10"/><text x="229" y="21" class="terminal">PRIVILEGES</text><rect width="48" height="32" x="343" y="3" rx="10"/><rect width="48" height="32" x="341" y="1" class="terminal" rx="10"/><text x="351" y="21" class="terminal">FOR</text><rect width="56" height="32" x="130" y="113" rx="10"/><rect width="56" height="32" x="128" y="111" class="terminal" rx="10"/><text x="138" y="131" class="terminal">ROLE</text><rect width="56" height="32" x="130" y="157" rx="10"/><rect width="56" height="32" x="128" y="155" class="terminal" rx="10"/><text x="138" y="175" class="terminal">USER</text><rect width="90" height="32" x="246" y="113"/><rect width="90" height="32" x="244" y="111" class="nonterminal"/><text x="254" y="131" class="nonterminal">target_role</text><rect width="24" height="32" x="246" y="69" rx="10"/><rect width="24" height="32" x="244" y="67" class="terminal" rx="10"/><text x="254" y="87" class="terminal">,</text><rect width="46" height="32" x="110" y="201" rx="10"/><rect width="46" height="32" x="108" y="199" class="terminal" rx="10"/><text x="118" y="219" class="terminal">ALL</text><rect width="66" height="32" x="176" y="201" rx="10"/><rect width="66" height="32" x="174" y="199" class="terminal" rx="10"/><text x="184" y="219" class="terminal">ROLES</text><rect width="34" height="32" x="45" y="311" rx="10"/><rect width="34" height="32" x="43" y="309" class="terminal" rx="10"/><text x="53" y="329" class="terminal">IN</text><rect width="82" height="32" x="119" y="311" rx="10"/><rect width="82" height="32" x="117" y="309" class="terminal" rx="10"/><text x="127" y="329" class="terminal">SCHEMA</text><rect width="114" height="32" x="241" y="311"/><rect width="114" height="32" x="239" y="309" class="nonterminal"/><text x="249" y="329" class="nonterminal">schema_name</text><rect width="24" height="32" x="241" y="267" rx="10"/><rect width="24" height="32" x="239" y="265" class="terminal" rx="10"/><text x="249" y="285" class="terminal">,</text><rect width="98" height="32" x="119" y="399" rx="10"/><rect width="98" height="32" x="117" y="397" class="terminal" rx="10"/><text x="127" y="417" class="terminal">DATABASE</text><rect width="124" height="32" x="257" y="399"/><rect width="124" height="32" x="255" y="397" class="nonterminal"/><text x="265" y="417" class="nonterminal">database_name</text><rect width="24" height="32" x="257" y="355" rx="10"/><rect width="24" height="32" x="255" y="353" class="terminal" rx="10"/><text x="265" y="373" class="terminal">,</text><rect width="140" height="32" x="265" y="481"/><rect width="140" height="32" x="263" y="479" class="nonterminal"/><text x="273" y="499" class="nonterminal">abbreviated_grant</text><rect width="150" height="32" x="265" y="525"/><rect width="150" height="32" x="263" y="523" class="nonterminal"/><text x="273" y="543" class="nonterminal">abbreviated_revoke</text><path d="m17 17 h2 m0 0 h10 m66 0 h10 m0 0 h10 m84 0 h10 m0 0 h10 m102 0 h10 m0 0 h10 m48 0 h10 m2 0 l2 0 m2 0 l2 0 m2 0 l2 0 m-345 110 l2 0 m2 0 l2 0 m2 0 l2 0 m42 0 h10 m56 0 h10 m-96 0 h20 m76 0 h20 m-116 0 q10 0 10 10 m96 0 q0 -10 10 -10 m-106 10 v24 m96 0 v-24 m-96 24 q0 10 10 10 m76 0 q10 0 10 -10 m-86 10 h10 m56 0 h10 m40 -44 h10 m90 0 h10 m-130 0 l20 0 m-1 0 q-9 0 -9 -10 l0 -24 q0 -10 10 -10 m110 44 l20 0 m-20 0 q10 0 10 -10 l0 -24 q0 -10 -10 -10 m-110 0 h10 m24 0 h10 m0 0 h66 m-266 44 h20 m266 0 h20 m-306 0 q10 0 10 10 m286 0 q0 -10 10 -10 m-296 10 v68 m286 0 v-68 m-286 68 q0 10 10 10 m266 0 q10 0 10 -10 m-276 10 h10 m46 0 h10 m0 0 h10 m66 0 h10 m0 0 h114 m22 -88 l2 0 m2 0 l2 0 m2 0 l2 0 m-395 198 l2 0 m2 0 l2 0 m2 0 l2 0 m22 0 h10 m34 0 h10 m20 0 h10 m82 0 h10 m20 0 h10 m114 0 h10 m-154 0 l20 0 m-1 0 q-9 0 -9 -10 l0 -24 q0 -10 10 -10 m134 44 l20 0 m-20 0 q10 0 10 -10 l0 -24 q0 -10 -10 -10 m-134 0 h10 m24 0 h10 m0 0 h90 m20 44 h26 m-322 0 h20 m302 0 h20 m-342 0 q10 0 10 10 m322 0 q0 -10 10 -10 m-332 10 v68 m322 0 v-68 m-322 68 q0 10 10 10 m302 0 q10 0 10 -10 m-312 10 h10 m98 0 h10 m20 0 h10 m124 0 h10 m-164 0 l20 0 m-1 0 q-9 0 -9 -10 l0 -24 q0 -10 10 -10 m144 44 l20 0 m-20 0 q10 0 10 -10 l0 -24 q0 -10 -10 -10 m-144 0 h10 m24 0 h10 m0 0 h100 m-376 -44 h20 m396 0 h20 m-436 0 q10 0 10 10 m416 0 q0 -10 10 -10 m-426 10 v102 m416 0 v-102 m-416 102 q0 10 10 10 m396 0 q10 0 10 -10 m-406 10 h10 m0 0 h386 m22 -122 l2 0 m2 0 l2 0 m2 0 l2 0 m-240 170 l2 0 m2 0 l2 0 m2 0 l2 0 m22 0 h10 m140 0 h10 m0 0 h10 m-190 0 h20 m170 0 h20 m-210 0 q10 0 10 10 m190 0 q0 -10 10 -10 m-200 10 v24 m190 0 v-24 m-190 24 q0 10 10 10 m170 0 q10 0 10 -10 m-180 10 h10 m150 0 h10 m23 -44 h-3" class="line"/><polygon points="453 495 461 491 461 499"/><polygon points="453 495 445 491 445 499"/></svg>