<svg xmlns="http://www.w3.org/2000/svg" width="543" height="135"><polygon points="11 17 3 13 3 21"/><polygon points="19 17 11 13 11 21"/><rect width="66" height="32" x="33" y="3" rx="10"/><rect width="66" height="32" x="31" y="1" class="terminal" rx="10"/><text x="41" y="21" class="terminal">ALTER</text><rect width="166" height="32" x="119" y="3" rx="10"/><rect width="166" height="32" x="117" y="1" class="terminal" rx="10"/><text x="127" y="21" class="terminal">MATERIALIZED VIEW</text><rect width="56" height="32" x="305" y="3"/><rect width="56" height="32" x="303" y="1" class="nonterminal"/><text x="313" y="21" class="nonterminal">name</text><rect width="46" height="32" x="381" y="3" rx="10"/><rect width="46" height="32" x="379" y="1" class="terminal" rx="10"/><text x="389" y="21" class="terminal">SET</text><rect width="26" height="32" x="447" y="3" rx="10"/><rect width="26" height="32" x="445" y="1" class="terminal" rx="10"/><text x="455" y="21" class="terminal">(</text><rect width="140" height="32" x="25" y="69" rx="10"/><rect width="140" height="32" x="23" y="67" class="terminal" rx="10"/><text x="33" y="87" class="terminal">RETAIN HISTORY</text><rect width="28" height="32" x="205" y="101" rx="10"/><rect width="28" height="32" x="203" y="99" class="terminal" rx="10"/><text x="213" y="119" class="terminal">=</text><rect width="48" height="32" x="273" y="69" rx="10"/><rect width="48" height="32" x="271" y="67" class="terminal" rx="10"/><text x="281" y="87" class="terminal">FOR</text><rect width="128" height="32" x="341" y="69"/><rect width="128" height="32" x="339" y="67" class="nonterminal"/><text x="349" y="87" class="nonterminal">retention_period</text><rect width="26" height="32" x="489" y="69" rx="10"/><rect width="26" height="32" x="487" y="67" class="terminal" rx="10"/><text x="497" y="87" class="terminal">)</text><path d="m19 17 h2 m0 0 h10 m66 0 h10 m0 0 h10 m166 0 h10 m0 0 h10 m56 0 h10 m0 0 h10 m46 0 h10 m0 0 h10 m26 0 h10 m2 0 l2 0 m2 0 l2 0 m2 0 l2 0 m-492 66 l2 0 m2 0 l2 0 m2 0 l2 0 m2 0 h10 m140 0 h10 m20 0 h10 m0 0 h38 m-68 0 h20 m48 0 h20 m-88 0 q10 0 10 10 m68 0 q0 -10 10 -10 m-78 10 v12 m68 0 v-12 m-68 12 q0 10 10 10 m48 0 q10 0 10 -10 m-58 10 h10 m28 0 h10 m20 -32 h10 m48 0 h10 m0 0 h10 m128 0 h10 m0 0 h10 m26 0 h10 m3 0 h-3" class="line"/><polygon points="533 83 541 79 541 87"/><polygon points="533 83 525 79 525 87"/></svg>