<svg xmlns="http://www.w3.org/2000/svg" width="553" height="125"><polygon points="9 17 1 13 1 21"/><polygon points="17 17 9 13 9 21"/><rect width="46" height="32" x="51" y="3" rx="10"/><rect width="46" height="32" x="49" y="1" class="terminal" rx="10"/><text x="59" y="21" class="terminal">SET</text><rect width="114" height="32" x="117" y="3"/><rect width="114" height="32" x="115" y="1" class="nonterminal"/><text x="125" y="21" class="nonterminal">variable_name</text><rect width="40" height="32" x="271" y="3" rx="10"/><rect width="40" height="32" x="269" y="1" class="terminal" rx="10"/><text x="279" y="21" class="terminal">TO</text><rect width="28" height="32" x="271" y="47" rx="10"/><rect width="28" height="32" x="269" y="45" class="terminal" rx="10"/><text x="279" y="65" class="terminal">=</text><rect width="114" height="32" x="371" y="3"/><rect width="114" height="32" x="369" y="1" class="nonterminal"/><text x="379" y="21" class="nonterminal">variable_value</text><rect width="84" height="32" x="371" y="47" rx="10"/><rect width="84" height="32" x="369" y="45" class="terminal" rx="10"/><text x="379" y="65" class="terminal">DEFAULT</text><rect width="64" height="32" x="51" y="91" rx="10"/><rect width="64" height="32" x="49" y="89" class="terminal" rx="10"/><text x="59" y="109" class="terminal">RESET</text><rect width="114" height="32" x="135" y="91"/><rect width="114" height="32" x="133" y="89" class="nonterminal"/><text x="143" y="109" class="nonterminal">variable_name</text><path d="m17 17 h2 m20 0 h10 m46 0 h10 m0 0 h10 m114 0 h10 m20 0 h10 m40 0 h10 m-80 0 h20 m60 0 h20 m-100 0 q10 0 10 10 m80 0 q0 -10 10 -10 m-90 10 v24 m80 0 v-24 m-80 24 q0 10 10 10 m60 0 q10 0 10 -10 m-70 10 h10 m28 0 h10 m0 0 h12 m40 -44 h10 m114 0 h10 m-154 0 h20 m134 0 h20 m-174 0 q10 0 10 10 m154 0 q0 -10 10 -10 m-164 10 v24 m154 0 v-24 m-154 24 q0 10 10 10 m134 0 q10 0 10 -10 m-144 10 h10 m84 0 h10 m0 0 h30 m-474 -44 h20 m474 0 h20 m-514 0 q10 0 10 10 m494 0 q0 -10 10 -10 m-504 10 v68 m494 0 v-68 m-494 68 q0 10 10 10 m474 0 q10 0 10 -10 m-484 10 h10 m64 0 h10 m0 0 h10 m114 0 h10 m0 0 h256 m23 -88 h-3" class="line"/><polygon points="543 17 551 13 551 21"/><polygon points="543 17 535 13 535 21"/></svg>