<svg xmlns="http://www.w3.org/2000/svg" width="537" height="223"><polygon points="11 17 3 13 3 21"/><polygon points="19 17 11 13 11 21"/><rect width="50" height="32" x="33" y="3" rx="10"/><rect width="50" height="32" x="31" y="1" class="terminal" rx="10"/><text x="41" y="21" class="terminal">ADD</text><rect width="108" height="32" x="123" y="3" rx="10"/><rect width="108" height="32" x="121" y="1" class="terminal" rx="10"/><text x="131" y="21" class="terminal">SUBSOURCE</text><rect width="66" height="32" x="123" y="47" rx="10"/><rect width="66" height="32" x="121" y="45" class="terminal" rx="10"/><text x="131" y="65" class="terminal">TABLE</text><rect width="96" height="32" x="45" y="157"/><rect width="96" height="32" x="43" y="155" class="nonterminal"/><text x="53" y="175" class="nonterminal">table_name</text><rect width="40" height="32" x="181" y="189" rx="10"/><rect width="40" height="32" x="179" y="187" class="terminal" rx="10"/><text x="189" y="207" class="terminal">AS</text><rect width="106" height="32" x="241" y="189"/><rect width="106" height="32" x="239" y="187" class="nonterminal"/><text x="249" y="207" class="nonterminal">subsrc_name</text><rect width="24" height="32" x="45" y="113" rx="10"/><rect width="24" height="32" x="43" y="111" class="terminal" rx="10"/><text x="53" y="131" class="terminal">,</text><rect width="102" height="32" x="407" y="157"/><rect width="102" height="32" x="405" y="155" class="nonterminal"/><text x="415" y="175" class="nonterminal">with_options</text><path d="m19 17 h2 m0 0 h10 m50 0 h10 m20 0 h10 m108 0 h10 m-148 0 h20 m128 0 h20 m-168 0 q10 0 10 10 m148 0 q0 -10 10 -10 m-158 10 v24 m148 0 v-24 m-148 24 q0 10 10 10 m128 0 q10 0 10 -10 m-138 10 h10 m66 0 h10 m0 0 h42 m22 -44 l2 0 m2 0 l2 0 m2 0 l2 0 m-270 154 l2 0 m2 0 l2 0 m2 0 l2 0 m22 0 h10 m96 0 h10 m20 0 h10 m0 0 h176 m-206 0 h20 m186 0 h20 m-226 0 q10 0 10 10 m206 0 q0 -10 10 -10 m-216 10 v12 m206 0 v-12 m-206 12 q0 10 10 10 m186 0 q10 0 10 -10 m-196 10 h10 m40 0 h10 m0 0 h10 m106 0 h10 m-342 -32 l20 0 m-1 0 q-9 0 -9 -10 l0 -24 q0 -10 10 -10 m342 44 l20 0 m-20 0 q10 0 10 -10 l0 -24 q0 -10 -10 -10 m-342 0 h10 m24 0 h10 m0 0 h298 m20 44 h10 m102 0 h10 m3 0 h-3" class="line"/><polygon points="527 171 535 167 535 175"/><polygon points="527 171 519 167 519 175"/></svg>