<svg xmlns="http://www.w3.org/2000/svg" width="499" height="147"><polygon points="9 17 1 13 1 21"/><polygon points="17 17 9 13 9 21"/><rect width="66" height="32" x="31" y="3" rx="10"/><rect width="66" height="32" x="29" y="1" class="terminal" rx="10"/><text x="39" y="21" class="terminal">ALTER</text><rect width="84" height="32" x="137" y="3" rx="10"/><rect width="84" height="32" x="135" y="1" class="terminal" rx="10"/><text x="145" y="21" class="terminal">CLUSTER</text><rect width="82" height="32" x="137" y="47" rx="10"/><rect width="82" height="32" x="135" y="45" class="terminal" rx="10"/><text x="145" y="65" class="terminal">SCHEMA</text><rect width="56" height="32" x="261" y="3"/><rect width="56" height="32" x="259" y="1" class="nonterminal"/><text x="269" y="21" class="nonterminal">name</text><rect width="62" height="32" x="337" y="3" rx="10"/><rect width="62" height="32" x="335" y="1" class="terminal" rx="10"/><text x="345" y="21" class="terminal">SWAP</text><rect width="58" height="32" x="419" y="3" rx="10"/><rect width="58" height="32" x="417" y="1" class="terminal" rx="10"/><text x="427" y="21" class="terminal">WITH</text><rect width="102" height="32" x="369" y="113"/><rect width="102" height="32" x="367" y="111" class="nonterminal"/><text x="377" y="131" class="nonterminal">target_name</text><path d="m17 17 h2 m0 0 h10 m66 0 h10 m20 0 h10 m84 0 h10 m-124 0 h20 m104 0 h20 m-144 0 q10 0 10 10 m124 0 q0 -10 10 -10 m-134 10 v24 m124 0 v-24 m-124 24 q0 10 10 10 m104 0 q10 0 10 -10 m-114 10 h10 m82 0 h10 m0 0 h2 m20 -44 h10 m56 0 h10 m0 0 h10 m62 0 h10 m0 0 h10 m58 0 h10 m2 0 l2 0 m2 0 l2 0 m2 0 l2 0 m-152 110 l2 0 m2 0 l2 0 m2 0 l2 0 m2 0 h10 m102 0 h10 m3 0 h-3" class="line"/><polygon points="489 127 497 123 497 131"/><polygon points="489 127 481 123 481 131"/></svg>