<svg xmlns="http://www.w3.org/2000/svg" width="595" height="135"><polygon points="9 17 1 13 1 21"/><polygon points="17 17 9 13 9 21"/><rect width="66" height="32" x="31" y="3" rx="10"/><rect width="66" height="32" x="29" y="1" class="terminal" rx="10"/><text x="39" y="21" class="terminal">ALTER</text><rect width="52" height="32" x="117" y="3" rx="10"/><rect width="52" height="32" x="115" y="1" class="terminal" rx="10"/><text x="125" y="21" class="terminal">SINK</text><rect width="86" height="32" x="209" y="35" rx="10"/><rect width="86" height="32" x="207" y="33" class="terminal" rx="10"/><text x="217" y="53" class="terminal">IF EXISTS</text><rect width="56" height="32" x="335" y="3"/><rect width="56" height="32" x="333" y="1" class="nonterminal"/><text x="343" y="21" class="nonterminal">name</text><rect width="46" height="32" x="411" y="3" rx="10"/><rect width="46" height="32" x="409" y="1" class="terminal" rx="10"/><text x="419" y="21" class="terminal">SET</text><rect width="26" height="32" x="477" y="3" rx="10"/><rect width="26" height="32" x="475" y="1" class="terminal" rx="10"/><text x="485" y="21" class="terminal">(</text><rect width="50" height="32" x="523" y="3" rx="10"/><rect width="50" height="32" x="521" y="1" class="terminal" rx="10"/><text x="531" y="21" class="terminal">SIZE</text><rect width="54" height="32" x="467" y="101"/><rect width="54" height="32" x="465" y="99" class="nonterminal"/><text x="475" y="119" class="nonterminal">value</text><rect width="26" height="32" x="541" y="101" rx="10"/><rect width="26" height="32" x="539" y="99" class="terminal" rx="10"/><text x="549" y="119" class="terminal">)</text><path d="m17 17 h2 m0 0 h10 m66 0 h10 m0 0 h10 m52 0 h10 m20 0 h10 m0 0 h96 m-126 0 h20 m106 0 h20 m-146 0 q10 0 10 10 m126 0 q0 -10 10 -10 m-136 10 v12 m126 0 v-12 m-126 12 q0 10 10 10 m106 0 q10 0 10 -10 m-116 10 h10 m86 0 h10 m20 -32 h10 m56 0 h10 m0 0 h10 m46 0 h10 m0 0 h10 m26 0 h10 m0 0 h10 m50 0 h10 m2 0 l2 0 m2 0 l2 0 m2 0 l2 0 m-150 98 l2 0 m2 0 l2 0 m2 0 l2 0 m2 0 h10 m54 0 h10 m0 0 h10 m26 0 h10 m3 0 h-3" class="line"/><polygon points="585 115 593 111 593 119"/><polygon points="585 115 577 111 577 119"/></svg>