<svg xmlns="http://www.w3.org/2000/svg" width="529" height="37"><polygon points="9 17 1 13 1 21"/><polygon points="17 17 9 13 9 21"/><rect width="66" height="32" x="31" y="3" rx="10"/><rect width="66" height="32" x="29" y="1" class="terminal" rx="10"/><text x="39" y="21" class="terminal">ALTER</text><rect width="52" height="32" x="117" y="3" rx="10"/><rect width="52" height="32" x="115" y="1" class="terminal" rx="10"/><text x="125" y="21" class="terminal">SINK</text><rect width="56" height="32" x="189" y="3"/><rect width="56" height="32" x="187" y="1" class="nonterminal"/><text x="197" y="21" class="nonterminal">name</text><rect width="46" height="32" x="265" y="3" rx="10"/><rect width="46" height="32" x="263" y="1" class="terminal" rx="10"/><text x="273" y="21" class="terminal">SET</text><rect width="60" height="32" x="331" y="3" rx="10"/><rect width="60" height="32" x="329" y="1" class="terminal" rx="10"/><text x="339" y="21" class="terminal">FROM</text><rect width="90" height="32" x="411" y="3"/><rect width="90" height="32" x="409" y="1" class="nonterminal"/><text x="419" y="21" class="nonterminal">item_name</text><path d="m17 17 h2 m0 0 h10 m66 0 h10 m0 0 h10 m52 0 h10 m0 0 h10 m56 0 h10 m0 0 h10 m46 0 h10 m0 0 h10 m60 0 h10 m0 0 h10 m90 0 h10 m3 0 h-3" class="line"/><polygon points="519 17 527 13 527 21"/><polygon points="519 17 511 13 511 21"/></svg>