<svg xmlns="http://www.w3.org/2000/svg" width="455" height="37"><polygon points="9 17 1 13 1 21"/><polygon points="17 17 9 13 9 21"/><rect width="66" height="32" x="31" y="3" rx="10"/><rect width="66" height="32" x="29" y="1" class="terminal" rx="10"/><text x="39" y="21" class="terminal">ALTER</text><rect width="62" height="32" x="117" y="3" rx="10"/><rect width="62" height="32" x="115" y="1" class="terminal" rx="10"/><text x="125" y="21" class="terminal">INDEX</text><rect width="56" height="32" x="199" y="3"/><rect width="56" height="32" x="197" y="1" class="nonterminal"/><text x="207" y="21" class="nonterminal">name</text><rect width="46" height="32" x="275" y="3" rx="10"/><rect width="46" height="32" x="273" y="1" class="terminal" rx="10"/><text x="283" y="21" class="terminal">SET</text><rect width="86" height="32" x="341" y="3" rx="10"/><rect width="86" height="32" x="339" y="1" class="terminal" rx="10"/><text x="349" y="21" class="terminal">ENABLED</text><path d="m17 17 h2 m0 0 h10 m66 0 h10 m0 0 h10 m62 0 h10 m0 0 h10 m56 0 h10 m0 0 h10 m46 0 h10 m0 0 h10 m86 0 h10 m3 0 h-3" class="line"/><polygon points="445 17 453 13 453 21"/><polygon points="445 17 437 13 437 21"/></svg>