<svg xmlns="http://www.w3.org/2000/svg" width="495" height="163"><polygon points="9 17 1 13 1 21"/><polygon points="17 17 9 13 9 21"/><rect width="66" height="32" x="31" y="3" rx="10"/><rect width="66" height="32" x="29" y="1" class="terminal" rx="10"/><text x="39" y="21" class="terminal">ALTER</text><rect width="150" height="32" x="117" y="3" rx="10"/><rect width="150" height="32" x="115" y="1" class="terminal" rx="10"/><text x="125" y="21" class="terminal">NETWORK POLICY</text><rect width="56" height="32" x="287" y="3"/><rect width="56" height="32" x="285" y="1" class="nonterminal"/><text x="295" y="21" class="nonterminal">name</text><rect width="26" height="32" x="363" y="3" rx="10"/><rect width="26" height="32" x="361" y="1" class="terminal" rx="10"/><text x="371" y="21" class="terminal">(</text><rect width="64" height="32" x="409" y="3" rx="10"/><rect width="64" height="32" x="407" y="1" class="terminal" rx="10"/><text x="417" y="21" class="terminal">RULES</text><rect width="26" height="32" x="119" y="113" rx="10"/><rect width="26" height="32" x="117" y="111" class="terminal" rx="10"/><text x="127" y="131" class="terminal">(</text><rect width="150" height="32" x="185" y="113"/><rect width="150" height="32" x="183" y="111" class="nonterminal"/><text x="193" y="131" class="nonterminal">network_policy_rule</text><rect width="24" height="32" x="185" y="69" rx="10"/><rect width="24" height="32" x="183" y="67" class="terminal" rx="10"/><text x="193" y="87" class="terminal">,</text><rect width="26" height="32" x="375" y="113" rx="10"/><rect width="26" height="32" x="373" y="111" class="terminal" rx="10"/><text x="383" y="131" class="terminal">)</text><rect width="26" height="32" x="441" y="113" rx="10"/><rect width="26" height="32" x="439" y="111" class="terminal" rx="10"/><text x="449" y="131" class="terminal">)</text><path d="m17 17 h2 m0 0 h10 m66 0 h10 m0 0 h10 m150 0 h10 m0 0 h10 m56 0 h10 m0 0 h10 m26 0 h10 m0 0 h10 m64 0 h10 m2 0 l2 0 m2 0 l2 0 m2 0 l2 0 m-418 110 l2 0 m2 0 l2 0 m2 0 l2 0 m22 0 h10 m26 0 h10 m20 0 h10 m150 0 h10 m-190 0 l20 0 m-1 0 q-9 0 -9 -10 l0 -24 q0 -10 10 -10 m170 44 l20 0 m-20 0 q10 0 10 -10 l0 -24 q0 -10 -10 -10 m-170 0 h10 m24 0 h10 m0 0 h126 m20 44 h10 m26 0 h10 m-322 0 h20 m302 0 h20 m-342 0 q10 0 10 10 m322 0 q0 -10 10 -10 m-332 10 v14 m322 0 v-14 m-322 14 q0 10 10 10 m302 0 q10 0 10 -10 m-312 10 h10 m0 0 h292 m20 -34 h10 m26 0 h10 m3 0 h-3" class="line"/><polygon points="485 127 493 123 493 131"/><polygon points="485 127 477 123 477 131"/></svg>