<svg xmlns="http://www.w3.org/2000/svg" width="567" height="103"><polygon points="9 17 1 13 1 21"/><polygon points="17 17 9 13 9 21"/><rect width="66" height="32" x="31" y="3" rx="10"/><rect width="66" height="32" x="29" y="1" class="terminal" rx="10"/><text x="39" y="21" class="terminal">ALTER</text><rect width="62" height="32" x="117" y="3" rx="10"/><rect width="62" height="32" x="115" y="1" class="terminal" rx="10"/><text x="125" y="21" class="terminal">INDEX</text><rect width="56" height="32" x="199" y="3"/><rect width="56" height="32" x="197" y="1" class="nonterminal"/><text x="207" y="21" class="nonterminal">name</text><rect width="64" height="32" x="275" y="3" rx="10"/><rect width="64" height="32" x="273" y="1" class="terminal" rx="10"/><text x="283" y="21" class="terminal">RESET</text><rect width="26" height="32" x="359" y="3" rx="10"/><rect width="26" height="32" x="357" y="1" class="terminal" rx="10"/><text x="367" y="21" class="terminal">(</text><rect width="140" height="32" x="405" y="3" rx="10"/><rect width="140" height="32" x="403" y="1" class="terminal" rx="10"/><text x="413" y="21" class="terminal">RETAIN HISTORY</text><rect width="26" height="32" x="513" y="69" rx="10"/><rect width="26" height="32" x="511" y="67" class="terminal" rx="10"/><text x="521" y="87" class="terminal">)</text><path d="m17 17 h2 m0 0 h10 m66 0 h10 m0 0 h10 m62 0 h10 m0 0 h10 m56 0 h10 m0 0 h10 m64 0 h10 m0 0 h10 m26 0 h10 m0 0 h10 m140 0 h10 m2 0 l2 0 m2 0 l2 0 m2 0 l2 0 m-76 66 l2 0 m2 0 l2 0 m2 0 l2 0 m2 0 h10 m26 0 h10 m3 0 h-3" class="line"/><polygon points="557 83 565 79 565 87"/><polygon points="557 83 549 79 549 87"/></svg>