<svg xmlns="http://www.w3.org/2000/svg" width="459" height="191"><polygon points="9 17 1 13 1 21"/><polygon points="17 17 9 13 9 21"/><rect width="66" height="32" x="31" y="3" rx="10"/><rect width="66" height="32" x="29" y="1" class="terminal" rx="10"/><text x="39" y="21" class="terminal">ALTER</text><rect width="78" height="32" x="117" y="3" rx="10"/><rect width="78" height="32" x="115" y="1" class="terminal" rx="10"/><text x="125" y="21" class="terminal">SYSTEM</text><rect width="46" height="32" x="215" y="3" rx="10"/><rect width="46" height="32" x="213" y="1" class="terminal" rx="10"/><text x="223" y="21" class="terminal">SET</text><rect width="56" height="32" x="281" y="3"/><rect width="56" height="32" x="279" y="1" class="nonterminal"/><text x="289" y="21" class="nonterminal">name</text><rect width="40" height="32" x="377" y="3" rx="10"/><rect width="40" height="32" x="375" y="1" class="terminal" rx="10"/><text x="385" y="21" class="terminal">TO</text><rect width="28" height="32" x="377" y="47" rx="10"/><rect width="28" height="32" x="375" y="45" class="terminal" rx="10"/><text x="385" y="65" class="terminal">=</text><rect width="54" height="32" x="327" y="113"/><rect width="54" height="32" x="325" y="111" class="nonterminal"/><text x="335" y="131" class="nonterminal">value</text><rect width="84" height="32" x="327" y="157" rx="10"/><rect width="84" height="32" x="325" y="155" class="terminal" rx="10"/><text x="335" y="175" class="terminal">DEFAULT</text><path d="m17 17 h2 m0 0 h10 m66 0 h10 m0 0 h10 m78 0 h10 m0 0 h10 m46 0 h10 m0 0 h10 m56 0 h10 m20 0 h10 m40 0 h10 m-80 0 h20 m60 0 h20 m-100 0 q10 0 10 10 m80 0 q0 -10 10 -10 m-90 10 v24 m80 0 v-24 m-80 24 q0 10 10 10 m60 0 q10 0 10 -10 m-70 10 h10 m28 0 h10 m0 0 h12 m22 -44 l2 0 m2 0 l2 0 m2 0 l2 0 m-174 110 l2 0 m2 0 l2 0 m2 0 l2 0 m22 0 h10 m54 0 h10 m0 0 h30 m-124 0 h20 m104 0 h20 m-144 0 q10 0 10 10 m124 0 q0 -10 10 -10 m-134 10 v24 m124 0 v-24 m-124 24 q0 10 10 10 m104 0 q10 0 10 -10 m-114 10 h10 m84 0 h10 m23 -44 h-3" class="line"/><polygon points="449 127 457 123 457 131"/><polygon points="449 127 441 123 441 131"/></svg>