<svg xmlns="http://www.w3.org/2000/svg" width="511" height="103"><polygon points="9 17 1 13 1 21"/><polygon points="17 17 9 13 9 21"/><rect width="66" height="32" x="31" y="3" rx="10"/><rect width="66" height="32" x="29" y="1" class="terminal" rx="10"/><text x="39" y="21" class="terminal">ALTER</text><rect width="166" height="32" x="117" y="3" rx="10"/><rect width="166" height="32" x="115" y="1" class="terminal" rx="10"/><text x="125" y="21" class="terminal">MATERIALIZED VIEW</text><rect width="56" height="32" x="303" y="3"/><rect width="56" height="32" x="301" y="1" class="nonterminal"/><text x="311" y="21" class="nonterminal">name</text><rect width="64" height="32" x="379" y="3" rx="10"/><rect width="64" height="32" x="377" y="1" class="terminal" rx="10"/><text x="387" y="21" class="terminal">RESET</text><rect width="26" height="32" x="463" y="3" rx="10"/><rect width="26" height="32" x="461" y="1" class="terminal" rx="10"/><text x="471" y="21" class="terminal">(</text><rect width="140" height="32" x="297" y="69" rx="10"/><rect width="140" height="32" x="295" y="67" class="terminal" rx="10"/><text x="305" y="87" class="terminal">RETAIN HISTORY</text><rect width="26" height="32" x="457" y="69" rx="10"/><rect width="26" height="32" x="455" y="67" class="terminal" rx="10"/><text x="465" y="87" class="terminal">)</text><path d="m17 17 h2 m0 0 h10 m66 0 h10 m0 0 h10 m166 0 h10 m0 0 h10 m56 0 h10 m0 0 h10 m64 0 h10 m0 0 h10 m26 0 h10 m2 0 l2 0 m2 0 l2 0 m2 0 l2 0 m-236 66 l2 0 m2 0 l2 0 m2 0 l2 0 m2 0 h10 m140 0 h10 m0 0 h10 m26 0 h10 m3 0 h-3" class="line"/><polygon points="501 83 509 79 509 87"/><polygon points="501 83 493 79 493 87"/></svg>