<svg xmlns="http://www.w3.org/2000/svg" width="571" height="103"><polygon points="9 17 1 13 1 21"/><polygon points="17 17 9 13 9 21"/><rect width="66" height="32" x="31" y="3" rx="10"/><rect width="66" height="32" x="29" y="1" class="terminal" rx="10"/><text x="39" y="21" class="terminal">ALTER</text><rect width="66" height="32" x="117" y="3" rx="10"/><rect width="66" height="32" x="115" y="1" class="terminal" rx="10"/><text x="125" y="21" class="terminal">TABLE</text><rect width="56" height="32" x="203" y="3"/><rect width="56" height="32" x="201" y="1" class="nonterminal"/><text x="211" y="21" class="nonterminal">name</text><rect width="64" height="32" x="279" y="3" rx="10"/><rect width="64" height="32" x="277" y="1" class="terminal" rx="10"/><text x="287" y="21" class="terminal">RESET</text><rect width="26" height="32" x="363" y="3" rx="10"/><rect width="26" height="32" x="361" y="1" class="terminal" rx="10"/><text x="371" y="21" class="terminal">(</text><rect width="140" height="32" x="409" y="3" rx="10"/><rect width="140" height="32" x="407" y="1" class="terminal" rx="10"/><text x="417" y="21" class="terminal">RETAIN HISTORY</text><rect width="26" height="32" x="517" y="69" rx="10"/><rect width="26" height="32" x="515" y="67" class="terminal" rx="10"/><text x="525" y="87" class="terminal">)</text><path d="m17 17 h2 m0 0 h10 m66 0 h10 m0 0 h10 m66 0 h10 m0 0 h10 m56 0 h10 m0 0 h10 m64 0 h10 m0 0 h10 m26 0 h10 m0 0 h10 m140 0 h10 m2 0 l2 0 m2 0 l2 0 m2 0 l2 0 m-76 66 l2 0 m2 0 l2 0 m2 0 l2 0 m2 0 h10 m26 0 h10 m3 0 h-3" class="line"/><polygon points="561 83 569 79 569 87"/><polygon points="561 83 553 79 553 87"/></svg>