<svg xmlns="http://www.w3.org/2000/svg" width="553" height="135"><polygon points="9 17 1 13 1 21"/><polygon points="17 17 9 13 9 21"/><rect width="66" height="32" x="31" y="3" rx="10"/><rect width="66" height="32" x="29" y="1" class="terminal" rx="10"/><text x="39" y="21" class="terminal">ALTER</text><rect width="66" height="32" x="117" y="3" rx="10"/><rect width="66" height="32" x="115" y="1" class="terminal" rx="10"/><text x="125" y="21" class="terminal">TABLE</text><rect width="56" height="32" x="203" y="3"/><rect width="56" height="32" x="201" y="1" class="nonterminal"/><text x="211" y="21" class="nonterminal">name</text><rect width="46" height="32" x="279" y="3" rx="10"/><rect width="46" height="32" x="277" y="1" class="terminal" rx="10"/><text x="287" y="21" class="terminal">SET</text><rect width="26" height="32" x="345" y="3" rx="10"/><rect width="26" height="32" x="343" y="1" class="terminal" rx="10"/><text x="353" y="21" class="terminal">(</text><rect width="140" height="32" x="391" y="3" rx="10"/><rect width="140" height="32" x="389" y="1" class="terminal" rx="10"/><text x="399" y="21" class="terminal">RETAIN HISTORY</text><rect width="28" height="32" x="215" y="101" rx="10"/><rect width="28" height="32" x="213" y="99" class="terminal" rx="10"/><text x="223" y="119" class="terminal">=</text><rect width="48" height="32" x="283" y="69" rx="10"/><rect width="48" height="32" x="281" y="67" class="terminal" rx="10"/><text x="291" y="87" class="terminal">FOR</text><rect width="128" height="32" x="351" y="69"/><rect width="128" height="32" x="349" y="67" class="nonterminal"/><text x="359" y="87" class="nonterminal">retention_period</text><rect width="26" height="32" x="499" y="69" rx="10"/><rect width="26" height="32" x="497" y="67" class="terminal" rx="10"/><text x="507" y="87" class="terminal">)</text><path d="m17 17 h2 m0 0 h10 m66 0 h10 m0 0 h10 m66 0 h10 m0 0 h10 m56 0 h10 m0 0 h10 m46 0 h10 m0 0 h10 m26 0 h10 m0 0 h10 m140 0 h10 m2 0 l2 0 m2 0 l2 0 m2 0 l2 0 m-380 66 l2 0 m2 0 l2 0 m2 0 l2 0 m22 0 h10 m0 0 h38 m-68 0 h20 m48 0 h20 m-88 0 q10 0 10 10 m68 0 q0 -10 10 -10 m-78 10 v12 m68 0 v-12 m-68 12 q0 10 10 10 m48 0 q10 0 10 -10 m-58 10 h10 m28 0 h10 m20 -32 h10 m48 0 h10 m0 0 h10 m128 0 h10 m0 0 h10 m26 0 h10 m3 0 h-3" class="line"/><polygon points="543 83 551 79 551 87"/><polygon points="543 83 535 79 535 87"/></svg>