<svg xmlns="http://www.w3.org/2000/svg" width="531" height="69"><polygon points="9 17 1 13 1 21"/><polygon points="17 17 9 13 9 21"/><rect width="40" height="32" x="31" y="3" rx="10"/><rect width="40" height="32" x="29" y="1" class="terminal" rx="10"/><text x="39" y="21" class="terminal">AS</text><rect width="38" height="32" x="91" y="3" rx="10"/><rect width="38" height="32" x="89" y="1" class="terminal" rx="10"/><text x="99" y="21" class="terminal">OF</text><rect width="40" height="32" x="169" y="35" rx="10"/><rect width="40" height="32" x="167" y="33" class="terminal" rx="10"/><text x="177" y="53" class="terminal">AT</text><rect width="66" height="32" x="229" y="35" rx="10"/><rect width="66" height="32" x="227" y="33" class="terminal" rx="10"/><text x="237" y="53" class="terminal">LEAST</text><rect width="168" height="32" x="335" y="3"/><rect width="168" height="32" x="333" y="1" class="nonterminal"/><text x="343" y="21" class="nonterminal">timestamp_expression</text><path d="m17 17 h2 m0 0 h10 m40 0 h10 m0 0 h10 m38 0 h10 m20 0 h10 m0 0 h136 m-166 0 h20 m146 0 h20 m-186 0 q10 0 10 10 m166 0 q0 -10 10 -10 m-176 10 v12 m166 0 v-12 m-166 12 q0 10 10 10 m146 0 q10 0 10 -10 m-156 10 h10 m40 0 h10 m0 0 h10 m66 0 h10 m20 -32 h10 m168 0 h10 m3 0 h-3" class="line"/><polygon points="521 17 529 13 529 21"/><polygon points="521 17 513 13 513 21"/></svg>