<svg xmlns="http://www.w3.org/2000/svg" width="315" height="81"><polygon points="9 17 1 13 1 21"/><polygon points="17 17 9 13 9 21"/><rect width="58" height="32" x="51" y="3" rx="10"/><rect width="58" height="32" x="49" y="1" class="terminal" rx="10"/><text x="59" y="21" class="terminal">PORT</text><rect width="70" height="32" x="129" y="3"/><rect width="70" height="32" x="127" y="1" class="nonterminal"/><text x="137" y="21" class="nonterminal">number</text><rect width="162" height="32" x="51" y="47" rx="10"/><rect width="162" height="32" x="49" y="45" class="terminal" rx="10"/><text x="59" y="65" class="terminal">AVAILABILITY ZONE</text><rect width="34" height="32" x="233" y="47"/><rect width="34" height="32" x="231" y="45" class="nonterminal"/><text x="241" y="65" class="nonterminal">az</text><path d="m17 17 h2 m20 0 h10 m58 0 h10 m0 0 h10 m70 0 h10 m0 0 h68 m-256 0 h20 m236 0 h20 m-276 0 q10 0 10 10 m256 0 q0 -10 10 -10 m-266 10 v24 m256 0 v-24 m-256 24 q0 10 10 10 m236 0 q10 0 10 -10 m-246 10 h10 m162 0 h10 m0 0 h10 m34 0 h10 m23 -44 h-3" class="line"/><polygon points="305 17 313 13 313 21"/><polygon points="305 17 297 13 297 21"/></svg>