<svg xmlns="http://www.w3.org/2000/svg" width="575" height="851"><polygon points="9 17 1 13 1 21"/><polygon points="17 17 9 13 9 21"/><rect width="120" height="32" x="31" y="3" rx="10"/><rect width="120" height="32" x="29" y="1" class="terminal" rx="10"/><text x="39" y="21" class="terminal">COMMENT ON</text><rect width="84" height="32" x="191" y="3" rx="10"/><rect width="84" height="32" x="189" y="1" class="terminal" rx="10"/><text x="199" y="21" class="terminal">CLUSTER</text><rect width="148" height="32" x="191" y="47" rx="10"/><rect width="148" height="32" x="189" y="45" class="terminal" rx="10"/><text x="199" y="65" class="terminal">CLUSTER REPLICA</text><rect width="82" height="32" x="191" y="91" rx="10"/><rect width="82" height="32" x="189" y="89" class="terminal" rx="10"/><text x="199" y="109" class="terminal">COLUMN</text><rect width="116" height="32" x="191" y="135" rx="10"/><rect width="116" height="32" x="189" y="133" class="terminal" rx="10"/><text x="199" y="153" class="terminal">CONNECTION</text><rect width="98" height="32" x="191" y="179" rx="10"/><rect width="98" height="32" x="189" y="177" class="terminal" rx="10"/><text x="199" y="197" class="terminal">DATABASE</text><rect width="94" height="32" x="191" y="223" rx="10"/><rect width="94" height="32" x="189" y="221" class="terminal" rx="10"/><text x="199" y="241" class="terminal">FUNCTION</text><rect width="62" height="32" x="191" y="267" rx="10"/><rect width="62" height="32" x="189" y="265" class="terminal" rx="10"/><text x="199" y="285" class="terminal">INDEX</text><rect width="166" height="32" x="191" y="311" rx="10"/><rect width="166" height="32" x="189" y="309" class="terminal" rx="10"/><text x="199" y="329" class="terminal">MATERIALIZED VIEW</text><rect width="150" height="32" x="191" y="355" rx="10"/><rect width="150" height="32" x="189" y="353" class="terminal" rx="10"/><text x="199" y="373" class="terminal">NETWORK POLICY</text><rect width="56" height="32" x="191" y="399" rx="10"/><rect width="56" height="32" x="189" y="397" class="terminal" rx="10"/><text x="199" y="417" class="terminal">ROLE</text><rect width="82" height="32" x="191" y="443" rx="10"/><rect width="82" height="32" x="189" y="441" class="terminal" rx="10"/><text x="199" y="461" class="terminal">SCHEMA</text><rect width="76" height="32" x="191" y="487" rx="10"/><rect width="76" height="32" x="189" y="485" class="terminal" rx="10"/><text x="199" y="505" class="terminal">SECRET</text><rect width="52" height="32" x="191" y="531" rx="10"/><rect width="52" height="32" x="189" y="529" class="terminal" rx="10"/><text x="199" y="549" class="terminal">SINK</text><rect width="78" height="32" x="191" y="575" rx="10"/><rect width="78" height="32" x="189" y="573" class="terminal" rx="10"/><text x="199" y="593" class="terminal">SOURCE</text><rect width="66" height="32" x="191" y="619" rx="10"/><rect width="66" height="32" x="189" y="617" class="terminal" rx="10"/><text x="199" y="637" class="terminal">TABLE</text><rect width="56" height="32" x="191" y="663" rx="10"/><rect width="56" height="32" x="189" y="661" class="terminal" rx="10"/><text x="199" y="681" class="terminal">TYPE</text><rect width="58" height="32" x="191" y="707" rx="10"/><rect width="58" height="32" x="189" y="705" class="terminal" rx="10"/><text x="199" y="725" class="terminal">VIEW</text><rect width="104" height="32" x="397" y="3"/><rect width="104" height="32" x="395" y="1" class="nonterminal"/><text x="405" y="21" class="nonterminal">object_name</text><rect width="32" height="32" x="521" y="3" rx="10"/><rect width="32" height="32" x="519" y="1" class="terminal" rx="10"/><text x="529" y="21" class="terminal">IS</text><rect width="100" height="32" x="427" y="773"/><rect width="100" height="32" x="425" y="771" class="nonterminal"/><text x="435" y="791" class="nonterminal">string_literal</text><rect width="56" height="32" x="427" y="817" rx="10"/><rect width="56" height="32" x="425" y="815" class="terminal" rx="10"/><text x="435" y="835" class="terminal">NULL</text><path d="m17 17 h2 m0 0 h10 m120 0 h10 m20 0 h10 m84 0 h10 m0 0 h82 m-206 0 h20 m186 0 h20 m-226 0 q10 0 10 10 m206 0 q0 -10 10 -10 m-216 10 v24 m206 0 v-24 m-206 24 q0 10 10 10 m186 0 q10 0 10 -10 m-196 10 h10 m148 0 h10 m0 0 h18 m-196 -10 v20 m206 0 v-20 m-206 20 v24 m206 0 v-24 m-206 24 q0 10 10 10 m186 0 q10 0 10 -10 m-196 10 h10 m82 0 h10 m0 0 h84 m-196 -10 v20 m206 0 v-20 m-206 20 v24 m206 0 v-24 m-206 24 q0 10 10 10 m186 0 q10 0 10 -10 m-196 10 h10 m116 0 h10 m0 0 h50 m-196 -10 v20 m206 0 v-20 m-206 20 v24 m206 0 v-24 m-206 24 q0 10 10 10 m186 0 q10 0 10 -10 m-196 10 h10 m98 0 h10 m0 0 h68 m-196 -10 v20 m206 0 v-20 m-206 20 v24 m206 0 v-24 m-206 24 q0 10 10 10 m186 0 q10 0 10 -10 m-196 10 h10 m94 0 h10 m0 0 h72 m-196 -10 v20 m206 0 v-20 m-206 20 v24 m206 0 v-24 m-206 24 q0 10 10 10 m186 0 q10 0 10 -10 m-196 10 h10 m62 0 h10 m0 0 h104 m-196 -10 v20 m206 0 v-20 m-206 20 v24 m206 0 v-24 m-206 24 q0 10 10 10 m186 0 q10 0 10 -10 m-196 10 h10 m166 0 h10 m-196 -10 v20 m206 0 v-20 m-206 20 v24 m206 0 v-24 m-206 24 q0 10 10 10 m186 0 q10 0 10 -10 m-196 10 h10 m150 0 h10 m0 0 h16 m-196 -10 v20 m206 0 v-20 m-206 20 v24 m206 0 v-24 m-206 24 q0 10 10 10 m186 0 q10 0 10 -10 m-196 10 h10 m56 0 h10 m0 0 h110 m-196 -10 v20 m206 0 v-20 m-206 20 v24 m206 0 v-24 m-206 24 q0 10 10 10 m186 0 q10 0 10 -10 m-196 10 h10 m82 0 h10 m0 0 h84 m-196 -10 v20 m206 0 v-20 m-206 20 v24 m206 0 v-24 m-206 24 q0 10 10 10 m186 0 q10 0 10 -10 m-196 10 h10 m76 0 h10 m0 0 h90 m-196 -10 v20 m206 0 v-20 m-206 20 v24 m206 0 v-24 m-206 24 q0 10 10 10 m186 0 q10 0 10 -10 m-196 10 h10 m52 0 h10 m0 0 h114 m-196 -10 v20 m206 0 v-20 m-206 20 v24 m206 0 v-24 m-206 24 q0 10 10 10 m186 0 q10 0 10 -10 m-196 10 h10 m78 0 h10 m0 0 h88 m-196 -10 v20 m206 0 v-20 m-206 20 v24 m206 0 v-24 m-206 24 q0 10 10 10 m186 0 q10 0 10 -10 m-196 10 h10 m66 0 h10 m0 0 h100 m-196 -10 v20 m206 0 v-20 m-206 20 v24 m206 0 v-24 m-206 24 q0 10 10 10 m186 0 q10 0 10 -10 m-196 10 h10 m56 0 h10 m0 0 h110 m-196 -10 v20 m206 0 v-20 m-206 20 v24 m206 0 v-24 m-206 24 q0 10 10 10 m186 0 q10 0 10 -10 m-196 10 h10 m58 0 h10 m0 0 h108 m20 -704 h10 m104 0 h10 m0 0 h10 m32 0 h10 m2 0 l2 0 m2 0 l2 0 m2 0 l2 0 m-190 770 l2 0 m2 0 l2 0 m2 0 l2 0 m22 0 h10 m100 0 h10 m-140 0 h20 m120 0 h20 m-160 0 q10 0 10 10 m140 0 q0 -10 10 -10 m-150 10 v24 m140 0 v-24 m-140 24 q0 10 10 10 m120 0 q10 0 10 -10 m-130 10 h10 m56 0 h10 m0 0 h44 m23 -44 h-3" class="line"/><polygon points="565 787 573 783 573 791"/><polygon points="565 787 557 783 557 791"/></svg>