<svg xmlns="http://www.w3.org/2000/svg" width="603" height="337"><polygon points="9 61 1 57 1 65"/><polygon points="17 61 9 57 9 65"/><rect width="60" height="32" x="31" y="47" rx="10"/><rect width="60" height="32" x="29" y="45" class="terminal" rx="10"/><text x="39" y="65" class="terminal">COPY</text><rect width="54" height="32" x="131" y="79" rx="10"/><rect width="54" height="32" x="129" y="77" class="terminal" rx="10"/><text x="139" y="97" class="terminal">INTO</text><rect width="96" height="32" x="225" y="47"/><rect width="96" height="32" x="223" y="45" class="nonterminal"/><text x="233" y="65" class="nonterminal">table_name</text><rect width="26" height="32" x="361" y="47" rx="10"/><rect width="26" height="32" x="359" y="45" class="terminal" rx="10"/><text x="369" y="65" class="terminal">(</text><rect width="68" height="32" x="427" y="47"/><rect width="68" height="32" x="425" y="45" class="nonterminal"/><text x="435" y="65" class="nonterminal">column</text><rect width="24" height="32" x="427" y="3" rx="10"/><rect width="24" height="32" x="425" y="1" class="terminal" rx="10"/><text x="435" y="21" class="terminal">,</text><rect width="26" height="32" x="535" y="47" rx="10"/><rect width="26" height="32" x="533" y="45" class="terminal" rx="10"/><text x="543" y="65" class="terminal">)</text><rect width="60" height="32" x="232" y="145" rx="10"/><rect width="60" height="32" x="230" y="143" class="terminal" rx="10"/><text x="240" y="163" class="terminal">FROM</text><rect width="62" height="32" x="312" y="145" rx="10"/><rect width="62" height="32" x="310" y="143" class="terminal" rx="10"/><text x="320" y="163" class="terminal">STDIN</text><rect width="58" height="32" x="219" y="287" rx="10"/><rect width="58" height="32" x="217" y="285" class="terminal" rx="10"/><text x="227" y="305" class="terminal">WITH</text><rect width="26" height="32" x="317" y="255" rx="10"/><rect width="26" height="32" x="315" y="253" class="terminal" rx="10"/><text x="325" y="273" class="terminal">(</text><rect width="48" height="32" x="383" y="255"/><rect width="48" height="32" x="381" y="253" class="nonterminal"/><text x="391" y="273" class="nonterminal">field</text><rect width="38" height="32" x="451" y="255"/><rect width="38" height="32" x="449" y="253" class="nonterminal"/><text x="459" y="273" class="nonterminal">val</text><rect width="24" height="32" x="383" y="211" rx="10"/><rect width="24" height="32" x="381" y="209" class="terminal" rx="10"/><text x="391" y="229" class="terminal">,</text><rect width="26" height="32" x="529" y="255" rx="10"/><rect width="26" height="32" x="527" y="253" class="terminal" rx="10"/><text x="537" y="273" class="terminal">)</text><path d="m17 61 h2 m0 0 h10 m60 0 h10 m20 0 h10 m0 0 h64 m-94 0 h20 m74 0 h20 m-114 0 q10 0 10 10 m94 0 q0 -10 10 -10 m-104 10 v12 m94 0 v-12 m-94 12 q0 10 10 10 m74 0 q10 0 10 -10 m-84 10 h10 m54 0 h10 m20 -32 h10 m96 0 h10 m20 0 h10 m26 0 h10 m20 0 h10 m68 0 h10 m-108 0 l20 0 m-1 0 q-9 0 -9 -10 l0 -24 q0 -10 10 -10 m88 44 l20 0 m-20 0 q10 0 10 -10 l0 -24 q0 -10 -10 -10 m-88 0 h10 m24 0 h10 m0 0 h44 m20 44 h10 m26 0 h10 m-240 0 h20 m220 0 h20 m-260 0 q10 0 10 10 m240 0 q0 -10 10 -10 m-250 10 v14 m240 0 v-14 m-240 14 q0 10 10 10 m220 0 q10 0 10 -10 m-230 10 h10 m0 0 h210 m22 -34 l2 0 m2 0 l2 0 m2 0 l2 0 m-393 98 l2 0 m2 0 l2 0 m2 0 l2 0 m2 0 h10 m60 0 h10 m0 0 h10 m62 0 h10 m2 0 l2 0 m2 0 l2 0 m2 0 l2 0 m-239 110 l2 0 m2 0 l2 0 m2 0 l2 0 m42 0 h10 m0 0 h68 m-98 0 h20 m78 0 h20 m-118 0 q10 0 10 10 m98 0 q0 -10 10 -10 m-108 10 v12 m98 0 v-12 m-98 12 q0 10 10 10 m78 0 q10 0 10 -10 m-88 10 h10 m58 0 h10 m20 -32 h10 m26 0 h10 m20 0 h10 m48 0 h10 m0 0 h10 m38 0 h10 m-146 0 l20 0 m-1 0 q-9 0 -9 -10 l0 -24 q0 -10 10 -10 m126 44 l20 0 m-20 0 q10 0 10 -10 l0 -24 q0 -10 -10 -10 m-126 0 h10 m24 0 h10 m0 0 h82 m20 44 h10 m26 0 h10 m-396 0 h20 m376 0 h20 m-416 0 q10 0 10 10 m396 0 q0 -10 10 -10 m-406 10 v46 m396 0 v-46 m-396 46 q0 10 10 10 m376 0 q10 0 10 -10 m-386 10 h10 m0 0 h366 m23 -66 h-3" class="line"/><polygon points="593 269 601 265 601 273"/><polygon points="593 269 585 265 585 273"/></svg>