<svg xmlns="http://www.w3.org/2000/svg" width="539" height="273"><polygon points="9 17 1 13 1 21"/><polygon points="17 17 9 13 9 21"/><rect width="60" height="32" x="31" y="3" rx="10"/><rect width="60" height="32" x="29" y="1" class="terminal" rx="10"/><text x="39" y="21" class="terminal">COPY</text><rect width="58" height="32" x="131" y="3"/><rect width="58" height="32" x="129" y="1" class="nonterminal"/><text x="139" y="21" class="nonterminal">query</text><rect width="104" height="32" x="131" y="47"/><rect width="104" height="32" x="129" y="45" class="nonterminal"/><text x="139" y="65" class="nonterminal">object_name</text><rect width="40" height="32" x="275" y="3" rx="10"/><rect width="40" height="32" x="273" y="1" class="terminal" rx="10"/><text x="283" y="21" class="terminal">TO</text><rect width="58" height="32" x="335" y="3"/><rect width="58" height="32" x="333" y="1" class="nonterminal"/><text x="343" y="21" class="nonterminal">s3_uri</text><rect width="26" height="32" x="413" y="3" rx="10"/><rect width="26" height="32" x="411" y="1" class="terminal" rx="10"/><text x="421" y="21" class="terminal">(</text><rect width="58" height="32" x="459" y="3" rx="10"/><rect width="58" height="32" x="457" y="1" class="terminal" rx="10"/><text x="467" y="21" class="terminal">WITH</text><rect width="154" height="32" x="44" y="113" rx="10"/><rect width="154" height="32" x="42" y="111" class="terminal" rx="10"/><text x="52" y="131" class="terminal">AWS CONNECTION</text><rect width="136" height="32" x="218" y="113"/><rect width="136" height="32" x="216" y="111" class="nonterminal"/><text x="226" y="131" class="nonterminal">connection_name</text><rect width="24" height="32" x="374" y="113" rx="10"/><rect width="24" height="32" x="372" y="111" class="terminal" rx="10"/><text x="382" y="131" class="terminal">,</text><rect width="80" height="32" x="418" y="113" rx="10"/><rect width="80" height="32" x="416" y="111" class="terminal" rx="10"/><text x="426" y="131" class="terminal">FORMAT</text><rect width="42" height="32" x="125" y="195"/><rect width="42" height="32" x="123" y="193" class="nonterminal"/><text x="133" y="213" class="nonterminal">csv</text><rect width="70" height="32" x="125" y="239"/><rect width="70" height="32" x="123" y="237" class="nonterminal"/><text x="133" y="257" class="nonterminal">parquet</text><rect width="24" height="32" x="275" y="195" rx="10"/><rect width="24" height="32" x="273" y="193" class="terminal" rx="10"/><text x="283" y="213" class="terminal">,</text><rect width="48" height="32" x="319" y="195"/><rect width="48" height="32" x="317" y="193" class="nonterminal"/><text x="327" y="213" class="nonterminal">field</text><rect width="38" height="32" x="387" y="195"/><rect width="38" height="32" x="385" y="193" class="nonterminal"/><text x="395" y="213" class="nonterminal">val</text><rect width="26" height="32" x="485" y="195" rx="10"/><rect width="26" height="32" x="483" y="193" class="terminal" rx="10"/><text x="493" y="213" class="terminal">)</text><path d="m17 17 h2 m0 0 h10 m60 0 h10 m20 0 h10 m58 0 h10 m0 0 h46 m-144 0 h20 m124 0 h20 m-164 0 q10 0 10 10 m144 0 q0 -10 10 -10 m-154 10 v24 m144 0 v-24 m-144 24 q0 10 10 10 m124 0 q10 0 10 -10 m-134 10 h10 m104 0 h10 m20 -44 h10 m40 0 h10 m0 0 h10 m58 0 h10 m0 0 h10 m26 0 h10 m0 0 h10 m58 0 h10 m2 0 l2 0 m2 0 l2 0 m2 0 l2 0 m-517 110 l2 0 m2 0 l2 0 m2 0 l2 0 m2 0 h10 m154 0 h10 m0 0 h10 m136 0 h10 m0 0 h10 m24 0 h10 m0 0 h10 m80 0 h10 m2 0 l2 0 m2 0 l2 0 m2 0 l2 0 m-437 82 l2 0 m2 0 l2 0 m2 0 l2 0 m22 0 h10 m42 0 h10 m0 0 h28 m-110 0 h20 m90 0 h20 m-130 0 q10 0 10 10 m110 0 q0 -10 10 -10 m-120 10 v24 m110 0 v-24 m-110 24 q0 10 10 10 m90 0 q10 0 10 -10 m-100 10 h10 m70 0 h10 m60 -44 h10 m24 0 h10 m0 0 h10 m48 0 h10 m0 0 h10 m38 0 h10 m-190 0 l20 0 m-1 0 q-9 0 -9 -10 l0 -12 q0 -10 10 -10 m170 32 l20 0 m-20 0 q10 0 10 -10 l0 -12 q0 -10 -10 -10 m-170 0 h10 m0 0 h160 m-210 32 h20 m210 0 h20 m-250 0 q10 0 10 10 m230 0 q0 -10 10 -10 m-240 10 v14 m230 0 v-14 m-230 14 q0 10 10 10 m210 0 q10 0 10 -10 m-220 10 h10 m0 0 h200 m20 -34 h10 m26 0 h10 m3 0 h-3" class="line"/><polygon points="529 209 537 205 537 213"/><polygon points="529 209 521 205 521 213"/></svg>