<svg xmlns="http://www.w3.org/2000/svg" width="569" height="255"><polygon points="9 61 1 57 1 65"/><polygon points="17 61 9 57 9 65"/><rect width="60" height="32" x="31" y="47" rx="10"/><rect width="60" height="32" x="29" y="45" class="terminal" rx="10"/><text x="39" y="65" class="terminal">COPY</text><rect width="96" height="32" x="111" y="47"/><rect width="96" height="32" x="109" y="45" class="nonterminal"/><text x="119" y="65" class="nonterminal">table_name</text><rect width="26" height="32" x="247" y="47" rx="10"/><rect width="26" height="32" x="245" y="45" class="terminal" rx="10"/><text x="255" y="65" class="terminal">(</text><rect width="68" height="32" x="313" y="47"/><rect width="68" height="32" x="311" y="45" class="nonterminal"/><text x="321" y="65" class="nonterminal">column</text><rect width="24" height="32" x="313" y="3" rx="10"/><rect width="24" height="32" x="311" y="1" class="terminal" rx="10"/><text x="321" y="21" class="terminal">,</text><rect width="26" height="32" x="421" y="47" rx="10"/><rect width="26" height="32" x="419" y="45" class="terminal" rx="10"/><text x="429" y="65" class="terminal">)</text><rect width="60" height="32" x="487" y="47" rx="10"/><rect width="60" height="32" x="485" y="45" class="terminal" rx="10"/><text x="495" y="65" class="terminal">FROM</text><rect width="62" height="32" x="63" y="173" rx="10"/><rect width="62" height="32" x="61" y="171" class="terminal" rx="10"/><text x="71" y="191" class="terminal">STDIN</text><rect width="58" height="32" x="185" y="205" rx="10"/><rect width="58" height="32" x="183" y="203" class="terminal" rx="10"/><text x="193" y="223" class="terminal">WITH</text><rect width="26" height="32" x="283" y="173" rx="10"/><rect width="26" height="32" x="281" y="171" class="terminal" rx="10"/><text x="291" y="191" class="terminal">(</text><rect width="48" height="32" x="349" y="173"/><rect width="48" height="32" x="347" y="171" class="nonterminal"/><text x="357" y="191" class="nonterminal">field</text><rect width="38" height="32" x="417" y="173"/><rect width="38" height="32" x="415" y="171" class="nonterminal"/><text x="425" y="191" class="nonterminal">val</text><rect width="24" height="32" x="349" y="129" rx="10"/><rect width="24" height="32" x="347" y="127" class="terminal" rx="10"/><text x="357" y="147" class="terminal">,</text><rect width="26" height="32" x="495" y="173" rx="10"/><rect width="26" height="32" x="493" y="171" class="terminal" rx="10"/><text x="503" y="191" class="terminal">)</text><path d="m17 61 h2 m0 0 h10 m60 0 h10 m0 0 h10 m96 0 h10 m20 0 h10 m26 0 h10 m20 0 h10 m68 0 h10 m-108 0 l20 0 m-1 0 q-9 0 -9 -10 l0 -24 q0 -10 10 -10 m88 44 l20 0 m-20 0 q10 0 10 -10 l0 -24 q0 -10 -10 -10 m-88 0 h10 m24 0 h10 m0 0 h44 m20 44 h10 m26 0 h10 m-240 0 h20 m220 0 h20 m-260 0 q10 0 10 10 m240 0 q0 -10 10 -10 m-250 10 v14 m240 0 v-14 m-240 14 q0 10 10 10 m220 0 q10 0 10 -10 m-230 10 h10 m0 0 h210 m20 -34 h10 m60 0 h10 m2 0 l2 0 m2 0 l2 0 m2 0 l2 0 m-528 126 l2 0 m2 0 l2 0 m2 0 l2 0 m2 0 h10 m62 0 h10 m40 0 h10 m0 0 h68 m-98 0 h20 m78 0 h20 m-118 0 q10 0 10 10 m98 0 q0 -10 10 -10 m-108 10 v12 m98 0 v-12 m-98 12 q0 10 10 10 m78 0 q10 0 10 -10 m-88 10 h10 m58 0 h10 m20 -32 h10 m26 0 h10 m20 0 h10 m48 0 h10 m0 0 h10 m38 0 h10 m-146 0 l20 0 m-1 0 q-9 0 -9 -10 l0 -24 q0 -10 10 -10 m126 44 l20 0 m-20 0 q10 0 10 -10 l0 -24 q0 -10 -10 -10 m-126 0 h10 m24 0 h10 m0 0 h82 m20 44 h10 m26 0 h10 m-396 0 h20 m376 0 h20 m-416 0 q10 0 10 10 m396 0 q0 -10 10 -10 m-406 10 v46 m396 0 v-46 m-396 46 q0 10 10 10 m376 0 q10 0 10 -10 m-386 10 h10 m0 0 h366 m23 -66 h-3" class="line"/><polygon points="559 187 567 183 567 191"/><polygon points="559 187 551 183 551 191"/></svg>