<svg xmlns="http://www.w3.org/2000/svg" width="449" height="195"><polygon points="11 17 3 13 3 21"/><polygon points="19 17 11 13 11 21"/><rect width="60" height="32" x="33" y="3" rx="10"/><rect width="60" height="32" x="31" y="1" class="terminal" rx="10"/><text x="41" y="21" class="terminal">COPY</text><rect width="26" height="32" x="113" y="3" rx="10"/><rect width="26" height="32" x="111" y="1" class="terminal" rx="10"/><text x="121" y="21" class="terminal">(</text><rect width="58" height="32" x="159" y="3"/><rect width="58" height="32" x="157" y="1" class="nonterminal"/><text x="167" y="21" class="nonterminal">query</text><rect width="26" height="32" x="237" y="3" rx="10"/><rect width="26" height="32" x="235" y="1" class="terminal" rx="10"/><text x="245" y="21" class="terminal">)</text><rect width="40" height="32" x="283" y="3" rx="10"/><rect width="40" height="32" x="281" y="1" class="terminal" rx="10"/><text x="291" y="21" class="terminal">TO</text><rect width="78" height="32" x="343" y="3" rx="10"/><rect width="78" height="32" x="341" y="1" class="terminal" rx="10"/><text x="351" y="21" class="terminal">STDOUT</text><rect width="58" height="32" x="65" y="145" rx="10"/><rect width="58" height="32" x="63" y="143" class="terminal" rx="10"/><text x="73" y="163" class="terminal">WITH</text><rect width="26" height="32" x="163" y="113" rx="10"/><rect width="26" height="32" x="161" y="111" class="terminal" rx="10"/><text x="171" y="131" class="terminal">(</text><rect width="48" height="32" x="229" y="113"/><rect width="48" height="32" x="227" y="111" class="nonterminal"/><text x="237" y="131" class="nonterminal">field</text><rect width="38" height="32" x="297" y="113"/><rect width="38" height="32" x="295" y="111" class="nonterminal"/><text x="305" y="131" class="nonterminal">val</text><rect width="24" height="32" x="229" y="69" rx="10"/><rect width="24" height="32" x="227" y="67" class="terminal" rx="10"/><text x="237" y="87" class="terminal">,</text><rect width="26" height="32" x="375" y="113" rx="10"/><rect width="26" height="32" x="373" y="111" class="terminal" rx="10"/><text x="383" y="131" class="terminal">)</text><path d="m19 17 h2 m0 0 h10 m60 0 h10 m0 0 h10 m26 0 h10 m0 0 h10 m58 0 h10 m0 0 h10 m26 0 h10 m0 0 h10 m40 0 h10 m0 0 h10 m78 0 h10 m2 0 l2 0 m2 0 l2 0 m2 0 l2 0 m-440 110 l2 0 m2 0 l2 0 m2 0 l2 0 m42 0 h10 m0 0 h68 m-98 0 h20 m78 0 h20 m-118 0 q10 0 10 10 m98 0 q0 -10 10 -10 m-108 10 v12 m98 0 v-12 m-98 12 q0 10 10 10 m78 0 q10 0 10 -10 m-88 10 h10 m58 0 h10 m20 -32 h10 m26 0 h10 m20 0 h10 m48 0 h10 m0 0 h10 m38 0 h10 m-146 0 l20 0 m-1 0 q-9 0 -9 -10 l0 -24 q0 -10 10 -10 m126 44 l20 0 m-20 0 q10 0 10 -10 l0 -24 q0 -10 -10 -10 m-126 0 h10 m24 0 h10 m0 0 h82 m20 44 h10 m26 0 h10 m-396 0 h20 m376 0 h20 m-416 0 q10 0 10 10 m396 0 q0 -10 10 -10 m-406 10 v46 m396 0 v-46 m-396 46 q0 10 10 10 m376 0 q10 0 10 -10 m-386 10 h10 m0 0 h366 m23 -66 h-3" class="line"/><polygon points="439 127 447 123 447 131"/><polygon points="439 127 431 123 431 131"/></svg>