<svg xmlns="http://www.w3.org/2000/svg" width="541" height="135"><polygon points="9 17 1 13 1 21"/><polygon points="17 17 9 13 9 21"/><rect width="76" height="32" x="31" y="3" rx="10"/><rect width="76" height="32" x="29" y="1" class="terminal" rx="10"/><text x="39" y="21" class="terminal">CREATE</text><rect width="76" height="32" x="127" y="3" rx="10"/><rect width="76" height="32" x="125" y="1" class="terminal" rx="10"/><text x="135" y="21" class="terminal">SECRET</text><rect width="120" height="32" x="243" y="35" rx="10"/><rect width="120" height="32" x="241" y="33" class="terminal" rx="10"/><text x="251" y="53" class="terminal">IF NOT EXISTS</text><rect width="56" height="32" x="403" y="3"/><rect width="56" height="32" x="401" y="1" class="nonterminal"/><text x="411" y="21" class="nonterminal">name</text><rect width="40" height="32" x="479" y="3" rx="10"/><rect width="40" height="32" x="477" y="1" class="terminal" rx="10"/><text x="487" y="21" class="terminal">AS</text><rect width="54" height="32" x="459" y="101"/><rect width="54" height="32" x="457" y="99" class="nonterminal"/><text x="467" y="119" class="nonterminal">value</text><path d="m17 17 h2 m0 0 h10 m76 0 h10 m0 0 h10 m76 0 h10 m20 0 h10 m0 0 h130 m-160 0 h20 m140 0 h20 m-180 0 q10 0 10 10 m160 0 q0 -10 10 -10 m-170 10 v12 m160 0 v-12 m-160 12 q0 10 10 10 m140 0 q10 0 10 -10 m-150 10 h10 m120 0 h10 m20 -32 h10 m56 0 h10 m0 0 h10 m40 0 h10 m2 0 l2 0 m2 0 l2 0 m2 0 l2 0 m-104 98 l2 0 m2 0 l2 0 m2 0 l2 0 m2 0 h10 m54 0 h10 m3 0 h-3" class="line"/><polygon points="531 115 539 111 539 119"/><polygon points="531 115 523 111 523 119"/></svg>