<svg xmlns="http://www.w3.org/2000/svg" width="519" height="279"><polygon points="11 17 3 13 3 21"/><polygon points="19 17 11 13 11 21"/><rect width="76" height="32" x="33" y="3" rx="10"/><rect width="76" height="32" x="31" y="1" class="terminal" rx="10"/><text x="41" y="21" class="terminal">CREATE</text><rect width="56" height="32" x="129" y="3" rx="10"/><rect width="56" height="32" x="127" y="1" class="terminal" rx="10"/><text x="137" y="21" class="terminal">TYPE</text><rect width="92" height="32" x="205" y="3"/><rect width="92" height="32" x="203" y="1" class="nonterminal"/><text x="213" y="21" class="nonterminal">type_name</text><rect width="40" height="32" x="317" y="3" rx="10"/><rect width="40" height="32" x="315" y="1" class="terminal" rx="10"/><text x="325" y="21" class="terminal">AS</text><rect width="26" height="32" x="45" y="113" rx="10"/><rect width="26" height="32" x="43" y="111" class="terminal" rx="10"/><text x="53" y="131" class="terminal">(</text><rect width="90" height="32" x="111" y="113"/><rect width="90" height="32" x="109" y="111" class="nonterminal"/><text x="119" y="131" class="nonterminal">field_name</text><rect width="84" height="32" x="221" y="113"/><rect width="84" height="32" x="219" y="111" class="nonterminal"/><text x="229" y="131" class="nonterminal">field_type</text><rect width="24" height="32" x="111" y="69" rx="10"/><rect width="24" height="32" x="109" y="67" class="terminal" rx="10"/><text x="119" y="87" class="terminal">,</text><rect width="50" height="32" x="65" y="201" rx="10"/><rect width="50" height="32" x="63" y="199" class="terminal" rx="10"/><text x="73" y="219" class="terminal">LIST</text><rect width="52" height="32" x="65" y="245" rx="10"/><rect width="52" height="32" x="63" y="243" class="terminal" rx="10"/><text x="73" y="263" class="terminal">MAP</text><rect width="26" height="32" x="157" y="201" rx="10"/><rect width="26" height="32" x="155" y="199" class="terminal" rx="10"/><text x="165" y="219" class="terminal">(</text><rect width="76" height="32" x="223" y="201"/><rect width="76" height="32" x="221" y="199" class="nonterminal"/><text x="231" y="219" class="nonterminal">property</text><rect width="28" height="32" x="319" y="201" rx="10"/><rect width="28" height="32" x="317" y="199" class="terminal" rx="10"/><text x="327" y="219" class="terminal">=</text><rect width="38" height="32" x="367" y="201"/><rect width="38" height="32" x="365" y="199" class="nonterminal"/><text x="375" y="219" class="nonterminal">val</text><rect width="24" height="32" x="223" y="157" rx="10"/><rect width="24" height="32" x="221" y="155" class="terminal" rx="10"/><text x="231" y="175" class="terminal">,</text><rect width="26" height="32" x="465" y="113" rx="10"/><rect width="26" height="32" x="463" y="111" class="terminal" rx="10"/><text x="473" y="131" class="terminal">)</text><path d="m19 17 h2 m0 0 h10 m76 0 h10 m0 0 h10 m56 0 h10 m0 0 h10 m92 0 h10 m0 0 h10 m40 0 h10 m2 0 l2 0 m2 0 l2 0 m2 0 l2 0 m-376 110 l2 0 m2 0 l2 0 m2 0 l2 0 m22 0 h10 m26 0 h10 m20 0 h10 m90 0 h10 m0 0 h10 m84 0 h10 m-234 0 l20 0 m-1 0 q-9 0 -9 -10 l0 -24 q0 -10 10 -10 m214 44 l20 0 m-20 0 q10 0 10 -10 l0 -24 q0 -10 -10 -10 m-214 0 h10 m24 0 h10 m0 0 h170 m20 44 h100 m-420 0 h20 m400 0 h20 m-440 0 q10 0 10 10 m420 0 q0 -10 10 -10 m-430 10 v68 m420 0 v-68 m-420 68 q0 10 10 10 m400 0 q10 0 10 -10 m-390 10 h10 m50 0 h10 m0 0 h2 m-92 0 h20 m72 0 h20 m-112 0 q10 0 10 10 m92 0 q0 -10 10 -10 m-102 10 v24 m92 0 v-24 m-92 24 q0 10 10 10 m72 0 q10 0 10 -10 m-82 10 h10 m52 0 h10 m20 -44 h10 m26 0 h10 m20 0 h10 m76 0 h10 m0 0 h10 m28 0 h10 m0 0 h10 m38 0 h10 m-222 0 l20 0 m-1 0 q-9 0 -9 -10 l0 -24 q0 -10 10 -10 m202 44 l20 0 m-20 0 q10 0 10 -10 l0 -24 q0 -10 -10 -10 m-202 0 h10 m24 0 h10 m0 0 h158 m40 -44 h10 m26 0 h10 m3 0 h-3" class="line"/><polygon points="509 127 517 123 517 131"/><polygon points="509 127 501 123 501 131"/></svg>