<svg xmlns="http://www.w3.org/2000/svg" width="539" height="37"><polygon points="9 17 1 13 1 21"/><polygon points="17 17 9 13 9 21"/><rect width="90" height="32" x="31" y="3" rx="10"/><rect width="90" height="32" x="29" y="1" class="terminal" rx="10"/><text x="39" y="21" class="terminal">&apos;host:port&apos;</text><rect width="64" height="32" x="141" y="3" rx="10"/><rect width="64" height="32" x="139" y="1" class="terminal" rx="10"/><text x="149" y="21" class="terminal">USING</text><rect width="48" height="32" x="225" y="3" rx="10"/><rect width="48" height="32" x="223" y="1" class="terminal" rx="10"/><text x="233" y="21" class="terminal">SSH</text><rect width="76" height="32" x="293" y="3" rx="10"/><rect width="76" height="32" x="291" y="1" class="terminal" rx="10"/><text x="301" y="21" class="terminal">TUNNEL</text><rect width="122" height="32" x="389" y="3"/><rect width="122" height="32" x="387" y="1" class="nonterminal"/><text x="397" y="21" class="nonterminal">ssh_connection</text><path d="m17 17 h2 m0 0 h10 m90 0 h10 m0 0 h10 m64 0 h10 m0 0 h10 m48 0 h10 m0 0 h10 m76 0 h10 m0 0 h10 m122 0 h10 m3 0 h-3" class="line"/><polygon points="529 17 537 13 537 21"/><polygon points="529 17 521 13 521 21"/></svg>