<svg xmlns="http://www.w3.org/2000/svg" width="455" height="135"><polygon points="9 17 1 13 1 21"/><polygon points="17 17 9 13 9 21"/><rect width="114" height="32" x="31" y="3" rx="10"/><rect width="114" height="32" x="29" y="1" class="terminal" rx="10"/><text x="39" y="21" class="terminal">CREATE SINK</text><rect width="120" height="32" x="185" y="35" rx="10"/><rect width="120" height="32" x="183" y="33" class="terminal" rx="10"/><text x="193" y="53" class="terminal">IF NOT EXISTS</text><rect width="88" height="32" x="345" y="3"/><rect width="88" height="32" x="343" y="1" class="nonterminal"/><text x="353" y="21" class="nonterminal">sink_name</text><rect width="114" height="32" x="313" y="101"/><rect width="114" height="32" x="311" y="99" class="nonterminal"/><text x="321" y="119" class="nonterminal">sink_definition</text><path d="m17 17 h2 m0 0 h10 m114 0 h10 m20 0 h10 m0 0 h130 m-160 0 h20 m140 0 h20 m-180 0 q10 0 10 10 m160 0 q0 -10 10 -10 m-170 10 v12 m160 0 v-12 m-160 12 q0 10 10 10 m140 0 q10 0 10 -10 m-150 10 h10 m120 0 h10 m20 -32 h10 m88 0 h10 m2 0 l2 0 m2 0 l2 0 m2 0 l2 0 m-164 98 l2 0 m2 0 l2 0 m2 0 l2 0 m2 0 h10 m114 0 h10 m3 0 h-3" class="line"/><polygon points="445 115 453 111 453 119"/><polygon points="445 115 437 111 437 119"/></svg>