<svg xmlns="http://www.w3.org/2000/svg" width="561" height="561"><polygon points="11 17 3 13 3 21"/><polygon points="19 17 11 13 11 21"/><rect width="140" height="32" x="33" y="3" rx="10"/><rect width="140" height="32" x="31" y="1" class="terminal" rx="10"/><text x="41" y="21" class="terminal">CREATE SOURCE</text><rect width="120" height="32" x="213" y="35" rx="10"/><rect width="120" height="32" x="211" y="33" class="terminal" rx="10"/><text x="221" y="53" class="terminal">IF NOT EXISTS</text><rect width="82" height="32" x="373" y="3"/><rect width="82" height="32" x="371" y="1" class="nonterminal"/><text x="381" y="21" class="nonterminal">src_name</text><rect width="104" height="32" x="59" y="133" rx="10"/><rect width="104" height="32" x="57" y="131" class="terminal" rx="10"/><text x="67" y="151" class="terminal">IN CLUSTER</text><rect width="108" height="32" x="183" y="133"/><rect width="108" height="32" x="181" y="131" class="nonterminal"/><text x="191" y="151" class="nonterminal">cluster_name</text><rect width="196" height="32" x="331" y="101" rx="10"/><rect width="196" height="32" x="329" y="99" class="terminal" rx="10"/><text x="339" y="119" class="terminal">FROM LOAD GENERATOR</text><rect width="86" height="32" x="52" y="243" rx="10"/><rect width="86" height="32" x="50" y="241" class="terminal" rx="10"/><text x="60" y="261" class="terminal">AUCTION</text><rect width="88" height="32" x="52" y="287" rx="10"/><rect width="88" height="32" x="50" y="285" class="terminal" rx="10"/><text x="60" y="305" class="terminal">COUNTER</text><rect width="104" height="32" x="52" y="331" rx="10"/><rect width="104" height="32" x="50" y="329" class="terminal" rx="10"/><text x="60" y="349" class="terminal">MARKETING</text><rect width="60" height="32" x="52" y="375" rx="10"/><rect width="60" height="32" x="50" y="373" class="terminal" rx="10"/><text x="60" y="393" class="terminal">TPCH</text><rect width="26" height="32" x="216" y="243" rx="10"/><rect width="26" height="32" x="214" y="241" class="terminal" rx="10"/><text x="224" y="261" class="terminal">(</text><rect width="166" height="32" x="282" y="243"/><rect width="166" height="32" x="280" y="241" class="nonterminal"/><text x="290" y="261" class="nonterminal">load_generator_option</text><rect width="24" height="32" x="282" y="199" rx="10"/><rect width="24" height="32" x="280" y="197" class="terminal" rx="10"/><text x="290" y="217" class="terminal">,</text><rect width="26" height="32" x="488" y="243" rx="10"/><rect width="26" height="32" x="486" y="241" class="terminal" rx="10"/><text x="496" y="261" class="terminal">)</text><rect width="138" height="32" x="214" y="441" rx="10"/><rect width="138" height="32" x="212" y="439" class="terminal" rx="10"/><text x="222" y="459" class="terminal">FOR ALL TABLES</text><rect width="76" height="32" x="45" y="527" rx="10"/><rect width="76" height="32" x="43" y="525" class="terminal" rx="10"/><text x="53" y="545" class="terminal">EXPOSE</text><rect width="96" height="32" x="141" y="527" rx="10"/><rect width="96" height="32" x="139" y="525" class="terminal" rx="10"/><text x="149" y="545" class="terminal">PROGRESS</text><rect width="40" height="32" x="257" y="527" rx="10"/><rect width="40" height="32" x="255" y="525" class="terminal" rx="10"/><text x="265" y="545" class="terminal">AS</text><rect width="196" height="32" x="317" y="527"/><rect width="196" height="32" x="315" y="525" class="nonterminal"/><text x="325" y="545" class="nonterminal">progress_subsource_name</text><path d="m19 17 h2 m0 0 h10 m140 0 h10 m20 0 h10 m0 0 h130 m-160 0 h20 m140 0 h20 m-180 0 q10 0 10 10 m160 0 q0 -10 10 -10 m-170 10 v12 m160 0 v-12 m-160 12 q0 10 10 10 m140 0 q10 0 10 -10 m-150 10 h10 m120 0 h10 m20 -32 h10 m82 0 h10 m2 0 l2 0 m2 0 l2 0 m2 0 l2 0 m-460 98 l2 0 m2 0 l2 0 m2 0 l2 0 m22 0 h10 m0 0 h242 m-272 0 h20 m252 0 h20 m-292 0 q10 0 10 10 m272 0 q0 -10 10 -10 m-282 10 v12 m272 0 v-12 m-272 12 q0 10 10 10 m252 0 q10 0 10 -10 m-262 10 h10 m104 0 h10 m0 0 h10 m108 0 h10 m20 -32 h10 m196 0 h10 m2 0 l2 0 m2 0 l2 0 m2 0 l2 0 m-539 142 l2 0 m2 0 l2 0 m2 0 l2 0 m22 0 h10 m86 0 h10 m0 0 h18 m-144 0 h20 m124 0 h20 m-164 0 q10 0 10 10 m144 0 q0 -10 10 -10 m-154 10 v24 m144 0 v-24 m-144 24 q0 10 10 10 m124 0 q10 0 10 -10 m-134 10 h10 m88 0 h10 m0 0 h16 m-134 -10 v20 m144 0 v-20 m-144 20 v24 m144 0 v-24 m-144 24 q0 10 10 10 m124 0 q10 0 10 -10 m-134 10 h10 m104 0 h10 m-134 -10 v20 m144 0 v-20 m-144 20 v24 m144 0 v-24 m-144 24 q0 10 10 10 m124 0 q10 0 10 -10 m-134 10 h10 m60 0 h10 m0 0 h44 m40 -132 h10 m26 0 h10 m20 0 h10 m166 0 h10 m-206 0 l20 0 m-1 0 q-9 0 -9 -10 l0 -24 q0 -10 10 -10 m186 44 l20 0 m-20 0 q10 0 10 -10 l0 -24 q0 -10 -10 -10 m-186 0 h10 m24 0 h10 m0 0 h142 m20 44 h10 m26 0 h10 m-338 0 h20 m318 0 h20 m-358 0 q10 0 10 10 m338 0 q0 -10 10 -10 m-348 10 v14 m338 0 v-14 m-338 14 q0 10 10 10 m318 0 q10 0 10 -10 m-328 10 h10 m0 0 h308 m22 -34 l2 0 m2 0 l2 0 m2 0 l2 0 m-364 198 l2 0 m2 0 l2 0 m2 0 l2 0 m2 0 h10 m138 0 h10 m2 0 l2 0 m2 0 l2 0 m2 0 l2 0 m-371 54 l2 0 m2 0 l2 0 m2 0 l2 0 m22 0 h10 m0 0 h478 m-508 0 h20 m488 0 h20 m-528 0 q10 0 10 10 m508 0 q0 -10 10 -10 m-518 10 v12 m508 0 v-12 m-508 12 q0 10 10 10 m488 0 q10 0 10 -10 m-498 10 h10 m76 0 h10 m0 0 h10 m96 0 h10 m0 0 h10 m40 0 h10 m0 0 h10 m196 0 h10 m23 -32 h-3" class="line"/><polygon points="551 509 559 505 559 513"/><polygon points="551 509 543 505 543 513"/></svg>