<svg xmlns="http://www.w3.org/2000/svg" width="551" height="69"><polygon points="9 17 1 13 1 21"/><polygon points="17 17 9 13 9 21"/><rect width="76" height="32" x="31" y="3" rx="10"/><rect width="76" height="32" x="29" y="1" class="terminal" rx="10"/><text x="39" y="21" class="terminal">CREATE</text><rect width="82" height="32" x="127" y="3" rx="10"/><rect width="82" height="32" x="125" y="1" class="terminal" rx="10"/><text x="135" y="21" class="terminal">SCHEMA</text><rect width="120" height="32" x="249" y="35" rx="10"/><rect width="120" height="32" x="247" y="33" class="terminal" rx="10"/><text x="257" y="53" class="terminal">IF NOT EXISTS</text><rect width="114" height="32" x="409" y="3"/><rect width="114" height="32" x="407" y="1" class="nonterminal"/><text x="417" y="21" class="nonterminal">schema_name</text><path d="m17 17 h2 m0 0 h10 m76 0 h10 m0 0 h10 m82 0 h10 m20 0 h10 m0 0 h130 m-160 0 h20 m140 0 h20 m-180 0 q10 0 10 10 m160 0 q0 -10 10 -10 m-170 10 v12 m160 0 v-12 m-160 12 q0 10 10 10 m140 0 q10 0 10 -10 m-150 10 h10 m120 0 h10 m20 -32 h10 m114 0 h10 m3 0 h-3" class="line"/><polygon points="541 17 549 13 549 21"/><polygon points="541 17 533 13 533 21"/></svg>