<svg xmlns="http://www.w3.org/2000/svg" width="707" height="959"><polygon points="9 17 1 13 1 21"/><polygon points="17 17 9 13 9 21"/><rect width="140" height="32" x="31" y="3" rx="10"/><rect width="140" height="32" x="29" y="1" class="terminal" rx="10"/><text x="39" y="21" class="terminal">CREATE SOURCE</text><rect width="120" height="32" x="211" y="35" rx="10"/><rect width="120" height="32" x="209" y="33" class="terminal" rx="10"/><text x="219" y="53" class="terminal">IF NOT EXISTS</text><rect width="82" height="32" x="371" y="3"/><rect width="82" height="32" x="369" y="1" class="nonterminal"/><text x="379" y="21" class="nonterminal">src_name</text><rect width="104" height="32" x="154" y="133" rx="10"/><rect width="104" height="32" x="152" y="131" class="terminal" rx="10"/><text x="162" y="151" class="terminal">IN CLUSTER</text><rect width="108" height="32" x="278" y="133"/><rect width="108" height="32" x="276" y="131" class="nonterminal"/><text x="286" y="151" class="nonterminal">cluster_name</text><rect width="60" height="32" x="426" y="101" rx="10"/><rect width="60" height="32" x="424" y="99" class="terminal" rx="10"/><text x="434" y="119" class="terminal">FROM</text><rect width="70" height="32" x="506" y="101" rx="10"/><rect width="70" height="32" x="504" y="99" class="terminal" rx="10"/><text x="514" y="119" class="terminal">MYSQL</text><rect width="116" height="32" x="219" y="199" rx="10"/><rect width="116" height="32" x="217" y="197" class="terminal" rx="10"/><text x="227" y="217" class="terminal">CONNECTION</text><rect width="136" height="32" x="355" y="199"/><rect width="136" height="32" x="353" y="197" class="nonterminal"/><text x="363" y="217" class="nonterminal">connection_name</text><rect width="26" height="32" x="114" y="309" rx="10"/><rect width="26" height="32" x="112" y="307" class="terminal" rx="10"/><text x="122" y="327" class="terminal">(</text><rect width="134" height="32" x="160" y="309" rx="10"/><rect width="134" height="32" x="158" y="307" class="terminal" rx="10"/><text x="168" y="327" class="terminal">TEXT COLUMNS</text><rect width="26" height="32" x="334" y="309" rx="10"/><rect width="26" height="32" x="332" y="307" class="terminal" rx="10"/><text x="342" y="327" class="terminal">(</text><rect width="110" height="32" x="400" y="309"/><rect width="110" height="32" x="398" y="307" class="nonterminal"/><text x="408" y="327" class="nonterminal">column_name</text><rect width="24" height="32" x="400" y="265" rx="10"/><rect width="24" height="32" x="398" y="263" class="terminal" rx="10"/><text x="408" y="283" class="terminal">,</text><rect width="26" height="32" x="550" y="309" rx="10"/><rect width="26" height="32" x="548" y="307" class="terminal" rx="10"/><text x="558" y="327" class="terminal">)</text><rect width="24" height="32" x="78" y="451" rx="10"/><rect width="24" height="32" x="76" y="449" class="terminal" rx="10"/><text x="86" y="469" class="terminal">,</text><rect width="162" height="32" x="122" y="451" rx="10"/><rect width="162" height="32" x="120" y="449" class="terminal" rx="10"/><text x="130" y="469" class="terminal">EXCLUDE COLUMNS</text><rect width="26" height="32" x="324" y="451" rx="10"/><rect width="26" height="32" x="322" y="449" class="terminal" rx="10"/><text x="332" y="469" class="terminal">(</text><rect width="110" height="32" x="390" y="451"/><rect width="110" height="32" x="388" y="449" class="nonterminal"/><text x="398" y="469" class="nonterminal">column_name</text><rect width="24" height="32" x="390" y="407" rx="10"/><rect width="24" height="32" x="388" y="405" class="terminal" rx="10"/><text x="398" y="425" class="terminal">,</text><rect width="26" height="32" x="540" y="451" rx="10"/><rect width="26" height="32" x="538" y="449" class="terminal" rx="10"/><text x="548" y="469" class="terminal">)</text><rect width="26" height="32" x="606" y="451" rx="10"/><rect width="26" height="32" x="604" y="449" class="terminal" rx="10"/><text x="614" y="469" class="terminal">)</text><rect width="138" height="32" x="45" y="549" rx="10"/><rect width="138" height="32" x="43" y="547" class="terminal" rx="10"/><text x="53" y="567" class="terminal">FOR ALL TABLES</text><rect width="106" height="32" x="65" y="637" rx="10"/><rect width="106" height="32" x="63" y="635" class="terminal" rx="10"/><text x="73" y="655" class="terminal">FOR TABLES</text><rect width="26" height="32" x="191" y="637" rx="10"/><rect width="26" height="32" x="189" y="635" class="terminal" rx="10"/><text x="199" y="655" class="terminal">(</text><rect width="96" height="32" x="257" y="637"/><rect width="96" height="32" x="255" y="635" class="nonterminal"/><text x="265" y="655" class="nonterminal">table_name</text><rect width="40" height="32" x="393" y="669" rx="10"/><rect width="40" height="32" x="391" y="667" class="terminal" rx="10"/><text x="401" y="687" class="terminal">AS</text><rect width="106" height="32" x="453" y="669"/><rect width="106" height="32" x="451" y="667" class="nonterminal"/><text x="461" y="687" class="nonterminal">subsrc_name</text><rect width="24" height="32" x="257" y="593" rx="10"/><rect width="24" height="32" x="255" y="591" class="terminal" rx="10"/><text x="265" y="611" class="terminal">,</text><rect width="124" height="32" x="65" y="757" rx="10"/><rect width="124" height="32" x="63" y="755" class="terminal" rx="10"/><text x="73" y="775" class="terminal">FOR SCHEMAS</text><rect width="26" height="32" x="209" y="757" rx="10"/><rect width="26" height="32" x="207" y="755" class="terminal" rx="10"/><text x="217" y="775" class="terminal">(</text><rect width="114" height="32" x="275" y="757"/><rect width="114" height="32" x="273" y="755" class="nonterminal"/><text x="283" y="775" class="nonterminal">schema_name</text><rect width="24" height="32" x="275" y="713" rx="10"/><rect width="24" height="32" x="273" y="711" class="terminal" rx="10"/><text x="283" y="731" class="terminal">,</text><rect width="26" height="32" x="639" y="637" rx="10"/><rect width="26" height="32" x="637" y="635" class="terminal" rx="10"/><text x="647" y="655" class="terminal">)</text><rect width="76" height="32" x="121" y="839" rx="10"/><rect width="76" height="32" x="119" y="837" class="terminal" rx="10"/><text x="129" y="857" class="terminal">EXPOSE</text><rect width="96" height="32" x="217" y="839" rx="10"/><rect width="96" height="32" x="215" y="837" class="terminal" rx="10"/><text x="225" y="857" class="terminal">PROGRESS</text><rect width="40" height="32" x="333" y="839" rx="10"/><rect width="40" height="32" x="331" y="837" class="terminal" rx="10"/><text x="341" y="857" class="terminal">AS</text><rect width="196" height="32" x="393" y="839"/><rect width="196" height="32" x="391" y="837" class="nonterminal"/><text x="401" y="857" class="nonterminal">progress_subsource_name</text><rect width="102" height="32" x="557" y="925"/><rect width="102" height="32" x="555" y="923" class="nonterminal"/><text x="565" y="943" class="nonterminal">with_options</text><path d="m17 17 h2 m0 0 h10 m140 0 h10 m20 0 h10 m0 0 h130 m-160 0 h20 m140 0 h20 m-180 0 q10 0 10 10 m160 0 q0 -10 10 -10 m-170 10 v12 m160 0 v-12 m-160 12 q0 10 10 10 m140 0 q10 0 10 -10 m-150 10 h10 m120 0 h10 m20 -32 h10 m82 0 h10 m2 0 l2 0 m2 0 l2 0 m2 0 l2 0 m-363 98 l2 0 m2 0 l2 0 m2 0 l2 0 m22 0 h10 m0 0 h242 m-272 0 h20 m252 0 h20 m-292 0 q10 0 10 10 m272 0 q0 -10 10 -10 m-282 10 v12 m272 0 v-12 m-272 12 q0 10 10 10 m252 0 q10 0 10 -10 m-262 10 h10 m104 0 h10 m0 0 h10 m108 0 h10 m20 -32 h10 m60 0 h10 m0 0 h10 m70 0 h10 m2 0 l2 0 m2 0 l2 0 m2 0 l2 0 m-401 98 l2 0 m2 0 l2 0 m2 0 l2 0 m2 0 h10 m116 0 h10 m0 0 h10 m136 0 h10 m2 0 l2 0 m2 0 l2 0 m2 0 l2 0 m-441 110 l2 0 m2 0 l2 0 m2 0 l2 0 m22 0 h10 m26 0 h10 m0 0 h10 m134 0 h10 m20 0 h10 m26 0 h10 m20 0 h10 m110 0 h10 m-150 0 l20 0 m-1 0 q-9 0 -9 -10 l0 -24 q0 -10 10 -10 m130 44 l20 0 m-20 0 q10 0 10 -10 l0 -24 q0 -10 -10 -10 m-130 0 h10 m24 0 h10 m0 0 h86 m20 44 h10 m26 0 h10 m-282 0 h20 m262 0 h20 m-302 0 q10 0 10 10 m282 0 q0 -10 10 -10 m-292 10 v14 m282 0 v-14 m-282 14 q0 10 10 10 m262 0 q10 0 10 -10 m-272 10 h10 m0 0 h252 m-502 -34 h20 m502 0 h20 m-542 0 q10 0 10 10 m522 0 q0 -10 10 -10 m-532 10 v30 m522 0 v-30 m-522 30 q0 10 10 10 m502 0 q10 0 10 -10 m-512 10 h10 m0 0 h492 m22 -50 l2 0 m2 0 l2 0 m2 0 l2 0 m-602 142 l2 0 m2 0 l2 0 m2 0 l2 0 m22 0 h10 m24 0 h10 m0 0 h10 m162 0 h10 m20 0 h10 m26 0 h10 m20 0 h10 m110 0 h10 m-150 0 l20 0 m-1 0 q-9 0 -9 -10 l0 -24 q0 -10 10 -10 m130 44 l20 0 m-20 0 q10 0 10 -10 l0 -24 q0 -10 -10 -10 m-130 0 h10 m24 0 h10 m0 0 h86 m20 44 h10 m26 0 h10 m-282 0 h20 m262 0 h20 m-302 0 q10 0 10 10 m282 0 q0 -10 10 -10 m-292 10 v14 m282 0 v-14 m-282 14 q0 10 10 10 m262 0 q10 0 10 -10 m-272 10 h10 m0 0 h252 m20 -34 h10 m26 0 h10 m-594 0 h20 m574 0 h20 m-614 0 q10 0 10 10 m594 0 q0 -10 10 -10 m-604 10 v30 m594 0 v-30 m-594 30 q0 10 10 10 m574 0 q10 0 10 -10 m-584 10 h10 m0 0 h564 m22 -50 l2 0 m2 0 l2 0 m2 0 l2 0 m-671 98 l2 0 m2 0 l2 0 m2 0 l2 0 m22 0 h10 m138 0 h10 m0 0 h482 m-660 0 h20 m640 0 h20 m-680 0 q10 0 10 10 m660 0 q0 -10 10 -10 m-670 10 v68 m660 0 v-68 m-660 68 q0 10 10 10 m640 0 q10 0 10 -10 m-630 10 h10 m106 0 h10 m0 0 h10 m26 0 h10 m20 0 h10 m96 0 h10 m20 0 h10 m0 0 h176 m-206 0 h20 m186 0 h20 m-226 0 q10 0 10 10 m206 0 q0 -10 10 -10 m-216 10 v12 m206 0 v-12 m-206 12 q0 10 10 10 m186 0 q10 0 10 -10 m-196 10 h10 m40 0 h10 m0 0 h10 m106 0 h10 m-342 -32 l20 0 m-1 0 q-9 0 -9 -10 l0 -24 q0 -10 10 -10 m342 44 l20 0 m-20 0 q10 0 10 -10 l0 -24 q0 -10 -10 -10 m-342 0 h10 m24 0 h10 m0 0 h298 m-554 44 h20 m554 0 h20 m-594 0 q10 0 10 10 m574 0 q0 -10 10 -10 m-584 10 v100 m574 0 v-100 m-574 100 q0 10 10 10 m554 0 q10 0 10 -10 m-564 10 h10 m124 0 h10 m0 0 h10 m26 0 h10 m20 0 h10 m114 0 h10 m-154 0 l20 0 m-1 0 q-9 0 -9 -10 l0 -24 q0 -10 10 -10 m134 44 l20 0 m-20 0 q10 0 10 -10 l0 -24 q0 -10 -10 -10 m-134 0 h10 m24 0 h10 m0 0 h90 m20 44 h190 m20 -120 h10 m26 0 h10 m22 -88 l2 0 m2 0 l2 0 m2 0 l2 0 m-628 258 l2 0 m2 0 l2 0 m2 0 l2 0 m22 0 h10 m0 0 h478 m-508 0 h20 m488 0 h20 m-528 0 q10 0 10 10 m508 0 q0 -10 10 -10 m-518 10 v12 m508 0 v-12 m-508 12 q0 10 10 10 m488 0 q10 0 10 -10 m-498 10 h10 m76 0 h10 m0 0 h10 m96 0 h10 m0 0 h10 m40 0 h10 m0 0 h10 m196 0 h10 m22 -32 l2 0 m2 0 l2 0 m2 0 l2 0 m-116 86 l2 0 m2 0 l2 0 m2 0 l2 0 m22 0 h10 m0 0 h112 m-142 0 h20 m122 0 h20 m-162 0 q10 0 10 10 m142 0 q0 -10 10 -10 m-152 10 v12 m142 0 v-12 m-142 12 q0 10 10 10 m122 0 q10 0 10 -10 m-132 10 h10 m102 0 h10 m23 -32 h-3" class="line"/><polygon points="697 907 705 903 705 911"/><polygon points="697 907 689 903 689 911"/></svg>