<svg xmlns="http://www.w3.org/2000/svg" width="505" height="163"><polygon points="9 17 1 13 1 21"/><polygon points="17 17 9 13 9 21"/><rect width="76" height="32" x="31" y="3" rx="10"/><rect width="76" height="32" x="29" y="1" class="terminal" rx="10"/><text x="39" y="21" class="terminal">CREATE</text><rect width="84" height="32" x="127" y="3" rx="10"/><rect width="84" height="32" x="125" y="1" class="terminal" rx="10"/><text x="135" y="21" class="terminal">CLUSTER</text><rect width="80" height="32" x="231" y="3" rx="10"/><rect width="80" height="32" x="229" y="1" class="terminal" rx="10"/><text x="239" y="21" class="terminal">REPLICA</text><rect width="108" height="32" x="331" y="3"/><rect width="108" height="32" x="329" y="1" class="nonterminal"/><text x="339" y="21" class="nonterminal">cluster_name</text><rect width="24" height="32" x="459" y="3" rx="10"/><rect width="24" height="32" x="457" y="1" class="terminal" rx="10"/><text x="467" y="21" class="terminal">.</text><rect width="106" height="32" x="87" y="113"/><rect width="106" height="32" x="85" y="111" class="nonterminal"/><text x="95" y="131" class="nonterminal">replica_name</text><rect width="62" height="32" x="253" y="113"/><rect width="62" height="32" x="251" y="111" class="nonterminal"/><text x="261" y="131" class="nonterminal">option</text><rect width="28" height="32" x="335" y="113" rx="10"/><rect width="28" height="32" x="333" y="111" class="terminal" rx="10"/><text x="343" y="131" class="terminal">=</text><rect width="54" height="32" x="383" y="113"/><rect width="54" height="32" x="381" y="111" class="nonterminal"/><text x="391" y="131" class="nonterminal">value</text><rect width="24" height="32" x="253" y="69" rx="10"/><rect width="24" height="32" x="251" y="67" class="terminal" rx="10"/><text x="261" y="87" class="terminal">,</text><path d="m17 17 h2 m0 0 h10 m76 0 h10 m0 0 h10 m84 0 h10 m0 0 h10 m80 0 h10 m0 0 h10 m108 0 h10 m0 0 h10 m24 0 h10 m2 0 l2 0 m2 0 l2 0 m2 0 l2 0 m-440 110 l2 0 m2 0 l2 0 m2 0 l2 0 m2 0 h10 m106 0 h10 m40 0 h10 m62 0 h10 m0 0 h10 m28 0 h10 m0 0 h10 m54 0 h10 m-224 0 l20 0 m-1 0 q-9 0 -9 -10 l0 -24 q0 -10 10 -10 m204 44 l20 0 m-20 0 q10 0 10 -10 l0 -24 q0 -10 -10 -10 m-204 0 h10 m24 0 h10 m0 0 h160 m-244 44 h20 m244 0 h20 m-284 0 q10 0 10 10 m264 0 q0 -10 10 -10 m-274 10 v14 m264 0 v-14 m-264 14 q0 10 10 10 m244 0 q10 0 10 -10 m-254 10 h10 m0 0 h234 m23 -34 h-3" class="line"/><polygon points="495 127 503 123 503 131"/><polygon points="495 127 487 123 487 131"/></svg>