<svg xmlns="http://www.w3.org/2000/svg" width="585" height="529"><polygon points="9 17 1 13 1 21"/><polygon points="17 17 9 13 9 21"/><rect width="76" height="32" x="31" y="3" rx="10"/><rect width="76" height="32" x="29" y="1" class="terminal" rx="10"/><text x="39" y="21" class="terminal">CREATE</text><rect width="166" height="32" x="147" y="3" rx="10"/><rect width="166" height="32" x="145" y="1" class="terminal" rx="10"/><text x="155" y="21" class="terminal">MATERIALIZED VIEW</text><rect width="120" height="32" x="353" y="35" rx="10"/><rect width="120" height="32" x="351" y="33" class="terminal" rx="10"/><text x="361" y="53" class="terminal">IF NOT EXISTS</text><rect width="108" height="32" x="147" y="79" rx="10"/><rect width="108" height="32" x="145" y="77" class="terminal" rx="10"/><text x="155" y="97" class="terminal">OR REPLACE</text><rect width="166" height="32" x="275" y="79" rx="10"/><rect width="166" height="32" x="273" y="77" class="terminal" rx="10"/><text x="283" y="97" class="terminal">MATERIALIZED VIEW</text><rect width="92" height="32" x="113" y="189"/><rect width="92" height="32" x="111" y="187" class="nonterminal"/><text x="121" y="207" class="nonterminal">view_name</text><rect width="26" height="32" x="245" y="189" rx="10"/><rect width="26" height="32" x="243" y="187" class="terminal" rx="10"/><text x="253" y="207" class="terminal">(</text><rect width="78" height="32" x="311" y="189"/><rect width="78" height="32" x="309" y="187" class="nonterminal"/><text x="319" y="207" class="nonterminal">col_ident</text><rect width="24" height="32" x="311" y="145" rx="10"/><rect width="24" height="32" x="309" y="143" class="terminal" rx="10"/><text x="319" y="163" class="terminal">,</text><rect width="26" height="32" x="429" y="189" rx="10"/><rect width="26" height="32" x="427" y="187" class="terminal" rx="10"/><text x="437" y="207" class="terminal">)</text><rect width="104" height="32" x="178" y="287" rx="10"/><rect width="104" height="32" x="176" y="285" class="terminal" rx="10"/><text x="186" y="305" class="terminal">IN CLUSTER</text><rect width="108" height="32" x="302" y="287"/><rect width="108" height="32" x="300" y="285" class="nonterminal"/><text x="310" y="305" class="nonterminal">cluster_name</text><rect width="58" height="32" x="45" y="397" rx="10"/><rect width="58" height="32" x="43" y="395" class="terminal" rx="10"/><text x="53" y="415" class="terminal">WITH</text><rect width="26" height="32" x="123" y="397" rx="10"/><rect width="26" height="32" x="121" y="395" class="terminal" rx="10"/><text x="131" y="415" class="terminal">(</text><rect width="150" height="32" x="209" y="397" rx="10"/><rect width="150" height="32" x="207" y="395" class="terminal" rx="10"/><text x="217" y="415" class="terminal">ASSERT NOT NULL</text><rect width="78" height="32" x="379" y="397"/><rect width="78" height="32" x="377" y="395" class="nonterminal"/><text x="387" y="415" class="nonterminal">col_ident</text><rect width="24" height="32" x="209" y="353" rx="10"/><rect width="24" height="32" x="207" y="351" class="terminal" rx="10"/><text x="217" y="371" class="terminal">,</text><rect width="26" height="32" x="517" y="397" rx="10"/><rect width="26" height="32" x="515" y="395" class="terminal" rx="10"/><text x="525" y="415" class="terminal">)</text><rect width="40" height="32" x="401" y="495" rx="10"/><rect width="40" height="32" x="399" y="493" class="terminal" rx="10"/><text x="409" y="513" class="terminal">AS</text><rect width="96" height="32" x="461" y="495"/><rect width="96" height="32" x="459" y="493" class="nonterminal"/><text x="469" y="513" class="nonterminal">select_stmt</text><path d="m17 17 h2 m0 0 h10 m76 0 h10 m20 0 h10 m166 0 h10 m20 0 h10 m0 0 h130 m-160 0 h20 m140 0 h20 m-180 0 q10 0 10 10 m160 0 q0 -10 10 -10 m-170 10 v12 m160 0 v-12 m-160 12 q0 10 10 10 m140 0 q10 0 10 -10 m-150 10 h10 m120 0 h10 m-366 -32 h20 m366 0 h20 m-406 0 q10 0 10 10 m386 0 q0 -10 10 -10 m-396 10 v56 m386 0 v-56 m-386 56 q0 10 10 10 m366 0 q10 0 10 -10 m-376 10 h10 m108 0 h10 m0 0 h10 m166 0 h10 m0 0 h52 m22 -76 l2 0 m2 0 l2 0 m2 0 l2 0 m-444 186 l2 0 m2 0 l2 0 m2 0 l2 0 m2 0 h10 m92 0 h10 m20 0 h10 m26 0 h10 m20 0 h10 m78 0 h10 m-118 0 l20 0 m-1 0 q-9 0 -9 -10 l0 -24 q0 -10 10 -10 m98 44 l20 0 m-20 0 q10 0 10 -10 l0 -24 q0 -10 -10 -10 m-98 0 h10 m24 0 h10 m0 0 h54 m20 44 h10 m26 0 h10 m-250 0 h20 m230 0 h20 m-270 0 q10 0 10 10 m250 0 q0 -10 10 -10 m-260 10 v14 m250 0 v-14 m-250 14 q0 10 10 10 m230 0 q10 0 10 -10 m-240 10 h10 m0 0 h220 m22 -34 l2 0 m2 0 l2 0 m2 0 l2 0 m-361 66 l2 0 m2 0 l2 0 m2 0 l2 0 m22 0 h10 m0 0 h242 m-272 0 h20 m252 0 h20 m-292 0 q10 0 10 10 m272 0 q0 -10 10 -10 m-282 10 v12 m272 0 v-12 m-272 12 q0 10 10 10 m252 0 q10 0 10 -10 m-262 10 h10 m104 0 h10 m0 0 h10 m108 0 h10 m22 -32 l2 0 m2 0 l2 0 m2 0 l2 0 m-449 142 l2 0 m2 0 l2 0 m2 0 l2 0 m22 0 h10 m58 0 h10 m0 0 h10 m26 0 h10 m40 0 h10 m150 0 h10 m0 0 h10 m78 0 h10 m-288 0 l20 0 m-1 0 q-9 0 -9 -10 l0 -24 q0 -10 10 -10 m268 44 l20 0 m-20 0 q10 0 10 -10 l0 -24 q0 -10 -10 -10 m-268 0 h10 m24 0 h10 m0 0 h224 m-308 44 h20 m308 0 h20 m-348 0 q10 0 10 10 m328 0 q0 -10 10 -10 m-338 10 v14 m328 0 v-14 m-328 14 q0 10 10 10 m308 0 q10 0 10 -10 m-318 10 h10 m0 0 h298 m20 -34 h10 m26 0 h10 m-538 0 h20 m518 0 h20 m-558 0 q10 0 10 10 m538 0 q0 -10 10 -10 m-548 10 v30 m538 0 v-30 m-538 30 q0 10 10 10 m518 0 q10 0 10 -10 m-528 10 h10 m0 0 h508 m22 -50 l2 0 m2 0 l2 0 m2 0 l2 0 m-206 98 l2 0 m2 0 l2 0 m2 0 l2 0 m2 0 h10 m40 0 h10 m0 0 h10 m96 0 h10 m3 0 h-3" class="line"/><polygon points="575 509 583 505 583 513"/><polygon points="575 509 567 505 567 513"/></svg>