<svg xmlns="http://www.w3.org/2000/svg" width="915" height="1265"><polygon points="9 17 1 13 1 21"/><polygon points="17 17 9 13 9 21"/><rect width="140" height="32" x="31" y="3" rx="10"/><rect width="140" height="32" x="29" y="1" class="terminal" rx="10"/><text x="39" y="21" class="terminal">CREATE SOURCE</text><rect width="120" height="32" x="211" y="35" rx="10"/><rect width="120" height="32" x="209" y="33" class="terminal" rx="10"/><text x="219" y="53" class="terminal">IF NOT EXISTS</text><rect width="82" height="32" x="371" y="3"/><rect width="82" height="32" x="369" y="1" class="nonterminal"/><text x="379" y="21" class="nonterminal">src_name</text><rect width="26" height="32" x="206" y="145" rx="10"/><rect width="26" height="32" x="204" y="143" class="terminal" rx="10"/><text x="214" y="163" class="terminal">(</text><rect width="82" height="32" x="272" y="145"/><rect width="82" height="32" x="270" y="143" class="nonterminal"/><text x="280" y="163" class="nonterminal">col_name</text><rect width="24" height="32" x="272" y="101" rx="10"/><rect width="24" height="32" x="270" y="99" class="terminal" rx="10"/><text x="280" y="119" class="terminal">,</text><rect width="26" height="32" x="394" y="145" rx="10"/><rect width="26" height="32" x="392" y="143" class="terminal" rx="10"/><text x="402" y="163" class="terminal">)</text><rect width="104" height="32" x="480" y="177" rx="10"/><rect width="104" height="32" x="478" y="175" class="terminal" rx="10"/><text x="488" y="195" class="terminal">IN CLUSTER</text><rect width="108" height="32" x="604" y="177"/><rect width="108" height="32" x="602" y="175" class="nonterminal"/><text x="612" y="195" class="nonterminal">cluster_name</text><rect width="60" height="32" x="216" y="243" rx="10"/><rect width="60" height="32" x="214" y="241" class="terminal" rx="10"/><text x="224" y="261" class="terminal">FROM</text><rect width="68" height="32" x="296" y="243" rx="10"/><rect width="68" height="32" x="294" y="241" class="terminal" rx="10"/><text x="304" y="261" class="terminal">KAFKA</text><rect width="116" height="32" x="384" y="243" rx="10"/><rect width="116" height="32" x="382" y="241" class="terminal" rx="10"/><text x="392" y="261" class="terminal">CONNECTION</text><rect width="136" height="32" x="520" y="243"/><rect width="136" height="32" x="518" y="241" class="nonterminal"/><text x="528" y="261" class="nonterminal">connection_name</text><rect width="26" height="32" x="676" y="243" rx="10"/><rect width="26" height="32" x="674" y="241" class="terminal" rx="10"/><text x="684" y="261" class="terminal">(</text><rect width="64" height="32" x="246" y="309" rx="10"/><rect width="64" height="32" x="244" y="307" class="terminal" rx="10"/><text x="254" y="327" class="terminal">TOPIC</text><rect width="52" height="32" x="330" y="309"/><rect width="52" height="32" x="328" y="307" class="nonterminal"/><text x="338" y="327" class="nonterminal">topic</text><rect width="24" height="32" x="422" y="341" rx="10"/><rect width="24" height="32" x="420" y="339" class="terminal" rx="10"/><text x="430" y="359" class="terminal">,</text><rect width="140" height="32" x="466" y="341"/><rect width="140" height="32" x="464" y="339" class="nonterminal"/><text x="474" y="359" class="nonterminal">connection_option</text><rect width="26" height="32" x="646" y="309" rx="10"/><rect width="26" height="32" x="644" y="307" class="terminal" rx="10"/><text x="654" y="327" class="terminal">)</text><rect width="114" height="32" x="204" y="407" rx="10"/><rect width="114" height="32" x="202" y="405" class="terminal" rx="10"/><text x="212" y="425" class="terminal">KEY FORMAT</text><rect width="102" height="32" x="338" y="407"/><rect width="102" height="32" x="336" y="405" class="nonterminal"/><text x="346" y="425" class="nonterminal">format_spec</text><rect width="132" height="32" x="460" y="407" rx="10"/><rect width="132" height="32" x="458" y="405" class="terminal" rx="10"/><text x="468" y="425" class="terminal">VALUE FORMAT</text><rect width="80" height="32" x="204" y="451" rx="10"/><rect width="80" height="32" x="202" y="449" class="terminal" rx="10"/><text x="212" y="469" class="terminal">FORMAT</text><rect width="102" height="32" x="632" y="407"/><rect width="102" height="32" x="630" y="405" class="nonterminal"/><text x="640" y="425" class="nonterminal">format_spec</text><rect width="82" height="32" x="166" y="561" rx="10"/><rect width="82" height="32" x="164" y="559" class="terminal" rx="10"/><text x="174" y="579" class="terminal">INCLUDE</text><rect width="48" height="32" x="328" y="561" rx="10"/><rect width="48" height="32" x="326" y="559" class="terminal" rx="10"/><text x="336" y="579" class="terminal">KEY</text><rect width="96" height="32" x="328" y="605" rx="10"/><rect width="96" height="32" x="326" y="603" class="terminal" rx="10"/><text x="336" y="623" class="terminal">PARTITION</text><rect width="74" height="32" x="328" y="649" rx="10"/><rect width="74" height="32" x="326" y="647" class="terminal" rx="10"/><text x="336" y="667" class="terminal">OFFSET</text><rect width="106" height="32" x="328" y="693" rx="10"/><rect width="106" height="32" x="326" y="691" class="terminal" rx="10"/><text x="336" y="711" class="terminal">TIMESTAMP</text><rect width="86" height="32" x="328" y="737" rx="10"/><rect width="86" height="32" x="326" y="735" class="terminal" rx="10"/><text x="336" y="755" class="terminal">HEADERS</text><rect width="40" height="32" x="494" y="593" rx="10"/><rect width="40" height="32" x="492" y="591" class="terminal" rx="10"/><text x="502" y="611" class="terminal">AS</text><rect width="56" height="32" x="554" y="593"/><rect width="56" height="32" x="552" y="591" class="nonterminal"/><text x="562" y="611" class="nonterminal">name</text><rect width="78" height="32" x="308" y="781" rx="10"/><rect width="78" height="32" x="306" y="779" class="terminal" rx="10"/><text x="316" y="799" class="terminal">HEADER</text><rect width="44" height="32" x="406" y="781"/><rect width="44" height="32" x="404" y="779" class="nonterminal"/><text x="414" y="799" class="nonterminal">key</text><rect width="40" height="32" x="470" y="781" rx="10"/><rect width="40" height="32" x="468" y="779" class="terminal" rx="10"/><text x="478" y="799" class="terminal">AS</text><rect width="56" height="32" x="530" y="781"/><rect width="56" height="32" x="528" y="779" class="nonterminal"/><text x="538" y="799" class="nonterminal">name</text><rect width="66" height="32" x="626" y="813" rx="10"/><rect width="66" height="32" x="624" y="811" class="terminal" rx="10"/><text x="634" y="831" class="terminal">BYTES</text><rect width="24" height="32" x="288" y="517" rx="10"/><rect width="24" height="32" x="286" y="515" class="terminal" rx="10"/><text x="296" y="535" class="terminal">,</text><rect width="94" height="32" x="45" y="911" rx="10"/><rect width="94" height="32" x="43" y="909" class="terminal" rx="10"/><text x="53" y="929" class="terminal">ENVELOPE</text><rect width="60" height="32" x="179" y="911" rx="10"/><rect width="60" height="32" x="177" y="909" class="terminal" rx="10"/><text x="187" y="929" class="terminal">NONE</text><rect width="92" height="32" x="179" y="955" rx="10"/><rect width="92" height="32" x="177" y="953" class="terminal" rx="10"/><text x="187" y="973" class="terminal">DEBEZIUM</text><rect width="76" height="32" x="179" y="999" rx="10"/><rect width="76" height="32" x="177" y="997" class="terminal" rx="10"/><text x="187" y="1017" class="terminal">UPSERT</text><rect width="26" height="32" x="295" y="1031" rx="10"/><rect width="26" height="32" x="293" y="1029" class="terminal" rx="10"/><text x="303" y="1049" class="terminal">(</text><rect width="270" height="32" x="341" y="1031" rx="10"/><rect width="270" height="32" x="339" y="1029" class="terminal" rx="10"/><text x="349" y="1049" class="terminal">VALUE DECODING ERRORS = INLINE</text><rect width="40" height="32" x="651" y="1063" rx="10"/><rect width="40" height="32" x="649" y="1061" class="terminal" rx="10"/><text x="659" y="1081" class="terminal">AS</text><rect width="56" height="32" x="711" y="1063"/><rect width="56" height="32" x="709" y="1061" class="nonterminal"/><text x="719" y="1081" class="nonterminal">name</text><rect width="26" height="32" x="807" y="1031" rx="10"/><rect width="26" height="32" x="805" y="1029" class="terminal" rx="10"/><text x="815" y="1049" class="terminal">)</text><rect width="76" height="32" x="225" y="1145" rx="10"/><rect width="76" height="32" x="223" y="1143" class="terminal" rx="10"/><text x="233" y="1163" class="terminal">EXPOSE</text><rect width="96" height="32" x="321" y="1145" rx="10"/><rect width="96" height="32" x="319" y="1143" class="terminal" rx="10"/><text x="329" y="1163" class="terminal">PROGRESS</text><rect width="40" height="32" x="437" y="1145" rx="10"/><rect width="40" height="32" x="435" y="1143" class="terminal" rx="10"/><text x="445" y="1163" class="terminal">AS</text><rect width="196" height="32" x="497" y="1145"/><rect width="196" height="32" x="495" y="1143" class="nonterminal"/><text x="505" y="1163" class="nonterminal">progress_subsource_name</text><rect width="102" height="32" x="765" y="1231"/><rect width="102" height="32" x="763" y="1229" class="nonterminal"/><text x="773" y="1249" class="nonterminal">with_options</text><path d="m17 17 h2 m0 0 h10 m140 0 h10 m20 0 h10 m0 0 h130 m-160 0 h20 m140 0 h20 m-180 0 q10 0 10 10 m160 0 q0 -10 10 -10 m-170 10 v12 m160 0 v-12 m-160 12 q0 10 10 10 m140 0 q10 0 10 -10 m-150 10 h10 m120 0 h10 m20 -32 h10 m82 0 h10 m2 0 l2 0 m2 0 l2 0 m2 0 l2 0 m-311 142 l2 0 m2 0 l2 0 m2 0 l2 0 m22 0 h10 m26 0 h10 m20 0 h10 m82 0 h10 m-122 0 l20 0 m-1 0 q-9 0 -9 -10 l0 -24 q0 -10 10 -10 m102 44 l20 0 m-20 0 q10 0 10 -10 l0 -24 q0 -10 -10 -10 m-102 0 h10 m24 0 h10 m0 0 h58 m20 44 h10 m26 0 h10 m-254 0 h20 m234 0 h20 m-274 0 q10 0 10 10 m254 0 q0 -10 10 -10 m-264 10 v14 m254 0 v-14 m-254 14 q0 10 10 10 m234 0 q10 0 10 -10 m-244 10 h10 m0 0 h224 m40 -34 h10 m0 0 h242 m-272 0 h20 m252 0 h20 m-292 0 q10 0 10 10 m272 0 q0 -10 10 -10 m-282 10 v12 m272 0 v-12 m-272 12 q0 10 10 10 m252 0 q10 0 10 -10 m-262 10 h10 m104 0 h10 m0 0 h10 m108 0 h10 m22 -32 l2 0 m2 0 l2 0 m2 0 l2 0 m-560 98 l2 0 m2 0 l2 0 m2 0 l2 0 m2 0 h10 m60 0 h10 m0 0 h10 m68 0 h10 m0 0 h10 m116 0 h10 m0 0 h10 m136 0 h10 m0 0 h10 m26 0 h10 m2 0 l2 0 m2 0 l2 0 m2 0 l2 0 m-500 66 l2 0 m2 0 l2 0 m2 0 l2 0 m2 0 h10 m64 0 h10 m0 0 h10 m52 0 h10 m20 0 h10 m0 0 h194 m-224 0 h20 m204 0 h20 m-244 0 q10 0 10 10 m224 0 q0 -10 10 -10 m-234 10 v12 m224 0 v-12 m-224 12 q0 10 10 10 m204 0 q10 0 10 -10 m-214 10 h10 m24 0 h10 m0 0 h10 m140 0 h10 m20 -32 h10 m26 0 h10 m2 0 l2 0 m2 0 l2 0 m2 0 l2 0 m-532 98 l2 0 m2 0 l2 0 m2 0 l2 0 m22 0 h10 m114 0 h10 m0 0 h10 m102 0 h10 m0 0 h10 m132 0 h10 m-428 0 h20 m408 0 h20 m-448 0 q10 0 10 10 m428 0 q0 -10 10 -10 m-438 10 v24 m428 0 v-24 m-428 24 q0 10 10 10 m408 0 q10 0 10 -10 m-418 10 h10 m80 0 h10 m0 0 h308 m20 -44 h10 m102 0 h10 m2 0 l2 0 m2 0 l2 0 m2 0 l2 0 m-632 154 l2 0 m2 0 l2 0 m2 0 l2 0 m22 0 h10 m82 0 h10 m60 0 h10 m48 0 h10 m0 0 h58 m-146 0 h20 m126 0 h20 m-166 0 q10 0 10 10 m146 0 q0 -10 10 -10 m-156 10 v24 m146 0 v-24 m-146 24 q0 10 10 10 m126 0 q10 0 10 -10 m-136 10 h10 m96 0 h10 m0 0 h10 m-136 -10 v20 m146 0 v-20 m-146 20 v24 m146 0 v-24 m-146 24 q0 10 10 10 m126 0 q10 0 10 -10 m-136 10 h10 m74 0 h10 m0 0 h32 m-136 -10 v20 m146 0 v-20 m-146 20 v24 m146 0 v-24 m-146 24 q0 10 10 10 m126 0 q10 0 10 -10 m-136 10 h10 m106 0 h10 m-136 -10 v20 m146 0 v-20 m-146 20 v24 m146 0 v-24 m-146 24 q0 10 10 10 m126 0 q10 0 10 -10 m-136 10 h10 m86 0 h10 m0 0 h20 m40 -176 h10 m0 0 h126 m-156 0 h20 m136 0 h20 m-176 0 q10 0 10 10 m156 0 q0 -10 10 -10 m-166 10 v12 m156 0 v-12 m-156 12 q0 10 10 10 m136 0 q10 0 10 -10 m-146 10 h10 m40 0 h10 m0 0 h10 m56 0 h10 m20 -32 h82 m-444 0 h20 m424 0 h20 m-464 0 q10 0 10 10 m444 0 q0 -10 10 -10 m-454 10 v200 m444 0 v-200 m-444 200 q0 10 10 10 m424 0 q10 0 10 -10 m-434 10 h10 m78 0 h10 m0 0 h10 m44 0 h10 m0 0 h10 m40 0 h10 m0 0 h10 m56 0 h10 m20 0 h10 m0 0 h76 m-106 0 h20 m86 0 h20 m-126 0 q10 0 10 10 m106 0 q0 -10 10 -10 m-116 10 v12 m106 0 v-12 m-106 12 q0 10 10 10 m86 0 q10 0 10 -10 m-96 10 h10 m66 0 h10 m-444 -252 l20 0 m-1 0 q-9 0 -9 -10 l0 -24 q0 -10 10 -10 m464 44 l20 0 m-20 0 q10 0 10 -10 l0 -24 q0 -10 -10 -10 m-464 0 h10 m24 0 h10 m0 0 h420 m-606 44 h20 m606 0 h20 m-646 0 q10 0 10 10 m626 0 q0 -10 10 -10 m-636 10 v266 m626 0 v-266 m-626 266 q0 10 10 10 m606 0 q10 0 10 -10 m-616 10 h10 m0 0 h596 m22 -286 l2 0 m2 0 l2 0 m2 0 l2 0 m-791 318 l2 0 m2 0 l2 0 m2 0 l2 0 m22 0 h10 m0 0 h838 m-868 0 h20 m848 0 h20 m-888 0 q10 0 10 10 m868 0 q0 -10 10 -10 m-878 10 v12 m868 0 v-12 m-868 12 q0 10 10 10 m848 0 q10 0 10 -10 m-858 10 h10 m94 0 h10 m20 0 h10 m60 0 h10 m0 0 h614 m-714 0 h20 m694 0 h20 m-734 0 q10 0 10 10 m714 0 q0 -10 10 -10 m-724 10 v24 m714 0 v-24 m-714 24 q0 10 10 10 m694 0 q10 0 10 -10 m-704 10 h10 m92 0 h10 m0 0 h582 m-704 -10 v20 m714 0 v-20 m-714 20 v24 m714 0 v-24 m-714 24 q0 10 10 10 m694 0 q10 0 10 -10 m-704 10 h10 m76 0 h10 m20 0 h10 m0 0 h548 m-578 0 h20 m558 0 h20 m-598 0 q10 0 10 10 m578 0 q0 -10 10 -10 m-588 10 v12 m578 0 v-12 m-578 12 q0 10 10 10 m558 0 q10 0 10 -10 m-568 10 h10 m26 0 h10 m0 0 h10 m270 0 h10 m20 0 h10 m0 0 h126 m-156 0 h20 m136 0 h20 m-176 0 q10 0 10 10 m156 0 q0 -10 10 -10 m-166 10 v12 m156 0 v-12 m-156 12 q0 10 10 10 m136 0 q10 0 10 -10 m-146 10 h10 m40 0 h10 m0 0 h10 m56 0 h10 m20 -32 h10 m26 0 h10 m62 -152 l2 0 m2 0 l2 0 m2 0 l2 0 m-732 234 l2 0 m2 0 l2 0 m2 0 l2 0 m22 0 h10 m0 0 h478 m-508 0 h20 m488 0 h20 m-528 0 q10 0 10 10 m508 0 q0 -10 10 -10 m-518 10 v12 m508 0 v-12 m-508 12 q0 10 10 10 m488 0 q10 0 10 -10 m-498 10 h10 m76 0 h10 m0 0 h10 m96 0 h10 m0 0 h10 m40 0 h10 m0 0 h10 m196 0 h10 m22 -32 l2 0 m2 0 l2 0 m2 0 l2 0 m-12 86 l2 0 m2 0 l2 0 m2 0 l2 0 m22 0 h10 m0 0 h112 m-142 0 h20 m122 0 h20 m-162 0 q10 0 10 10 m142 0 q0 -10 10 -10 m-152 10 v12 m142 0 v-12 m-142 12 q0 10 10 10 m122 0 q10 0 10 -10 m-132 10 h10 m102 0 h10 m23 -32 h-3" class="line"/><polygon points="905 1213 913 1209 913 1217"/><polygon points="905 1213 897 1209 897 1217"/></svg>