<svg xmlns="http://www.w3.org/2000/svg" width="555" height="599"><polygon points="9 17 1 13 1 21"/><polygon points="17 17 9 13 9 21"/><rect width="140" height="32" x="31" y="3" rx="10"/><rect width="140" height="32" x="29" y="1" class="terminal" rx="10"/><text x="39" y="21" class="terminal">CREATE SOURCE</text><rect width="120" height="32" x="211" y="35" rx="10"/><rect width="120" height="32" x="209" y="33" class="terminal" rx="10"/><text x="219" y="53" class="terminal">IF NOT EXISTS</text><rect width="82" height="32" x="371" y="3"/><rect width="82" height="32" x="369" y="1" class="nonterminal"/><text x="379" y="21" class="nonterminal">src_name</text><rect width="104" height="32" x="55" y="133" rx="10"/><rect width="104" height="32" x="53" y="131" class="terminal" rx="10"/><text x="63" y="151" class="terminal">IN CLUSTER</text><rect width="108" height="32" x="179" y="133"/><rect width="108" height="32" x="177" y="131" class="nonterminal"/><text x="187" y="151" class="nonterminal">cluster_name</text><rect width="196" height="32" x="327" y="101" rx="10"/><rect width="196" height="32" x="325" y="99" class="terminal" rx="10"/><text x="335" y="119" class="terminal">FROM LOAD GENERATOR</text><rect width="86" height="32" x="48" y="243" rx="10"/><rect width="86" height="32" x="46" y="241" class="terminal" rx="10"/><text x="56" y="261" class="terminal">AUCTION</text><rect width="104" height="32" x="48" y="287" rx="10"/><rect width="104" height="32" x="46" y="285" class="terminal" rx="10"/><text x="56" y="305" class="terminal">MARKETING</text><rect width="60" height="32" x="48" y="331" rx="10"/><rect width="60" height="32" x="46" y="329" class="terminal" rx="10"/><text x="56" y="349" class="terminal">TPCH</text><rect width="26" height="32" x="212" y="243" rx="10"/><rect width="26" height="32" x="210" y="241" class="terminal" rx="10"/><text x="220" y="261" class="terminal">(</text><rect width="166" height="32" x="278" y="243"/><rect width="166" height="32" x="276" y="241" class="nonterminal"/><text x="286" y="261" class="nonterminal">load_generator_option</text><rect width="24" height="32" x="278" y="199" rx="10"/><rect width="24" height="32" x="276" y="197" class="terminal" rx="10"/><text x="286" y="217" class="terminal">,</text><rect width="26" height="32" x="484" y="243" rx="10"/><rect width="26" height="32" x="482" y="241" class="terminal" rx="10"/><text x="492" y="261" class="terminal">)</text><rect width="138" height="32" x="210" y="397" rx="10"/><rect width="138" height="32" x="208" y="395" class="terminal" rx="10"/><text x="218" y="415" class="terminal">FOR ALL TABLES</text><rect width="76" height="32" x="45" y="479" rx="10"/><rect width="76" height="32" x="43" y="477" class="terminal" rx="10"/><text x="53" y="497" class="terminal">EXPOSE</text><rect width="96" height="32" x="141" y="479" rx="10"/><rect width="96" height="32" x="139" y="477" class="terminal" rx="10"/><text x="149" y="497" class="terminal">PROGRESS</text><rect width="40" height="32" x="257" y="479" rx="10"/><rect width="40" height="32" x="255" y="477" class="terminal" rx="10"/><text x="265" y="497" class="terminal">AS</text><rect width="196" height="32" x="317" y="479"/><rect width="196" height="32" x="315" y="477" class="nonterminal"/><text x="325" y="497" class="nonterminal">progress_subsource_name</text><rect width="102" height="32" x="405" y="565"/><rect width="102" height="32" x="403" y="563" class="nonterminal"/><text x="413" y="583" class="nonterminal">with_options</text><path d="m17 17 h2 m0 0 h10 m140 0 h10 m20 0 h10 m0 0 h130 m-160 0 h20 m140 0 h20 m-180 0 q10 0 10 10 m160 0 q0 -10 10 -10 m-170 10 v12 m160 0 v-12 m-160 12 q0 10 10 10 m140 0 q10 0 10 -10 m-150 10 h10 m120 0 h10 m20 -32 h10 m82 0 h10 m2 0 l2 0 m2 0 l2 0 m2 0 l2 0 m-462 98 l2 0 m2 0 l2 0 m2 0 l2 0 m22 0 h10 m0 0 h242 m-272 0 h20 m252 0 h20 m-292 0 q10 0 10 10 m272 0 q0 -10 10 -10 m-282 10 v12 m272 0 v-12 m-272 12 q0 10 10 10 m252 0 q10 0 10 -10 m-262 10 h10 m104 0 h10 m0 0 h10 m108 0 h10 m20 -32 h10 m196 0 h10 m2 0 l2 0 m2 0 l2 0 m2 0 l2 0 m-539 142 l2 0 m2 0 l2 0 m2 0 l2 0 m22 0 h10 m86 0 h10 m0 0 h18 m-144 0 h20 m124 0 h20 m-164 0 q10 0 10 10 m144 0 q0 -10 10 -10 m-154 10 v24 m144 0 v-24 m-144 24 q0 10 10 10 m124 0 q10 0 10 -10 m-134 10 h10 m104 0 h10 m-134 -10 v20 m144 0 v-20 m-144 20 v24 m144 0 v-24 m-144 24 q0 10 10 10 m124 0 q10 0 10 -10 m-134 10 h10 m60 0 h10 m0 0 h44 m40 -88 h10 m26 0 h10 m20 0 h10 m166 0 h10 m-206 0 l20 0 m-1 0 q-9 0 -9 -10 l0 -24 q0 -10 10 -10 m186 44 l20 0 m-20 0 q10 0 10 -10 l0 -24 q0 -10 -10 -10 m-186 0 h10 m24 0 h10 m0 0 h142 m20 44 h10 m26 0 h10 m-338 0 h20 m318 0 h20 m-358 0 q10 0 10 10 m338 0 q0 -10 10 -10 m-348 10 v14 m338 0 v-14 m-338 14 q0 10 10 10 m318 0 q10 0 10 -10 m-328 10 h10 m0 0 h308 m22 -34 l2 0 m2 0 l2 0 m2 0 l2 0 m-364 154 l2 0 m2 0 l2 0 m2 0 l2 0 m2 0 h10 m138 0 h10 m2 0 l2 0 m2 0 l2 0 m2 0 l2 0 m-367 50 l2 0 m2 0 l2 0 m2 0 l2 0 m22 0 h10 m0 0 h478 m-508 0 h20 m488 0 h20 m-528 0 q10 0 10 10 m508 0 q0 -10 10 -10 m-518 10 v12 m508 0 v-12 m-508 12 q0 10 10 10 m488 0 q10 0 10 -10 m-498 10 h10 m76 0 h10 m0 0 h10 m96 0 h10 m0 0 h10 m40 0 h10 m0 0 h10 m196 0 h10 m22 -32 l2 0 m2 0 l2 0 m2 0 l2 0 m-192 86 l2 0 m2 0 l2 0 m2 0 l2 0 m22 0 h10 m0 0 h112 m-142 0 h20 m122 0 h20 m-162 0 q10 0 10 10 m142 0 q0 -10 10 -10 m-152 10 v12 m142 0 v-12 m-142 12 q0 10 10 10 m122 0 q10 0 10 -10 m-132 10 h10 m102 0 h10 m23 -32 h-3" class="line"/><polygon points="545 547 553 543 553 551"/><polygon points="545 547 537 543 537 551"/></svg>