<svg xmlns="http://www.w3.org/2000/svg" width="547" height="359"><polygon points="9 17 1 13 1 21"/><polygon points="17 17 9 13 9 21"/><rect width="76" height="32" x="31" y="3" rx="10"/><rect width="76" height="32" x="29" y="1" class="terminal" rx="10"/><text x="39" y="21" class="terminal">CREATE</text><rect width="60" height="32" x="147" y="35" rx="10"/><rect width="60" height="32" x="145" y="33" class="terminal" rx="10"/><text x="155" y="53" class="terminal">TEMP</text><rect width="110" height="32" x="147" y="79" rx="10"/><rect width="110" height="32" x="145" y="77" class="terminal" rx="10"/><text x="155" y="97" class="terminal">TEMPORARY</text><rect width="66" height="32" x="297" y="3" rx="10"/><rect width="66" height="32" x="295" y="1" class="terminal" rx="10"/><text x="305" y="21" class="terminal">TABLE</text><rect width="96" height="32" x="383" y="3"/><rect width="96" height="32" x="381" y="1" class="nonterminal"/><text x="391" y="21" class="nonterminal">table_name</text><rect width="26" height="32" x="499" y="3" rx="10"/><rect width="26" height="32" x="497" y="1" class="terminal" rx="10"/><text x="507" y="21" class="terminal">(</text><rect width="82" height="32" x="91" y="223"/><rect width="82" height="32" x="89" y="221" class="nonterminal"/><text x="99" y="241" class="nonterminal">col_name</text><rect width="74" height="32" x="193" y="223"/><rect width="74" height="32" x="191" y="221" class="nonterminal"/><text x="201" y="241" class="nonterminal">col_type</text><rect width="86" height="32" x="307" y="189"/><rect width="86" height="32" x="305" y="187" class="nonterminal"/><text x="315" y="207" class="nonterminal">col_option</text><rect width="24" height="32" x="91" y="145" rx="10"/><rect width="24" height="32" x="89" y="143" class="terminal" rx="10"/><text x="99" y="163" class="terminal">,</text><rect width="26" height="32" x="473" y="223" rx="10"/><rect width="26" height="32" x="471" y="221" class="terminal" rx="10"/><text x="481" y="241" class="terminal">)</text><rect width="102" height="32" x="397" y="325"/><rect width="102" height="32" x="395" y="323" class="nonterminal"/><text x="405" y="343" class="nonterminal">with_options</text><path d="m17 17 h2 m0 0 h10 m76 0 h10 m20 0 h10 m0 0 h120 m-150 0 h20 m130 0 h20 m-170 0 q10 0 10 10 m150 0 q0 -10 10 -10 m-160 10 v12 m150 0 v-12 m-150 12 q0 10 10 10 m130 0 q10 0 10 -10 m-140 10 h10 m60 0 h10 m0 0 h50 m-140 -10 v20 m150 0 v-20 m-150 20 v24 m150 0 v-24 m-150 24 q0 10 10 10 m130 0 q10 0 10 -10 m-140 10 h10 m110 0 h10 m20 -76 h10 m66 0 h10 m0 0 h10 m96 0 h10 m0 0 h10 m26 0 h10 m2 0 l2 0 m2 0 l2 0 m2 0 l2 0 m-518 220 l2 0 m2 0 l2 0 m2 0 l2 0 m42 0 h10 m82 0 h10 m0 0 h10 m74 0 h10 m20 0 h10 m0 0 h96 m-126 0 l20 0 m-1 0 q-9 0 -9 -10 l0 -14 q0 -10 10 -10 m106 34 l20 0 m-20 0 q10 0 10 -10 l0 -14 q0 -10 -10 -10 m-106 0 h10 m86 0 h10 m-342 34 l20 0 m-1 0 q-9 0 -9 -10 l0 -58 q0 -10 10 -10 m342 78 l20 0 m-20 0 q10 0 10 -10 l0 -58 q0 -10 -10 -10 m-342 0 h10 m24 0 h10 m0 0 h298 m-382 78 h20 m382 0 h20 m-422 0 q10 0 10 10 m402 0 q0 -10 10 -10 m-412 10 v14 m402 0 v-14 m-402 14 q0 10 10 10 m382 0 q10 0 10 -10 m-392 10 h10 m0 0 h372 m20 -34 h10 m26 0 h10 m2 0 l2 0 m2 0 l2 0 m2 0 l2 0 m-166 70 l2 0 m2 0 l2 0 m2 0 l2 0 m22 0 h10 m0 0 h112 m-142 0 h20 m122 0 h20 m-162 0 q10 0 10 10 m142 0 q0 -10 10 -10 m-152 10 v12 m142 0 v-12 m-142 12 q0 10 10 10 m122 0 q10 0 10 -10 m-132 10 h10 m102 0 h10 m23 -32 h-3" class="line"/><polygon points="537 307 545 303 545 311"/><polygon points="537 307 529 303 529 311"/></svg>