<svg xmlns="http://www.w3.org/2000/svg" width="535" height="163"><polygon points="11 17 3 13 3 21"/><polygon points="19 17 11 13 11 21"/><rect width="76" height="32" x="33" y="3" rx="10"/><rect width="76" height="32" x="31" y="1" class="terminal" rx="10"/><text x="41" y="21" class="terminal">CREATE</text><rect width="84" height="32" x="129" y="3" rx="10"/><rect width="84" height="32" x="127" y="1" class="terminal" rx="10"/><text x="137" y="21" class="terminal">CLUSTER</text><rect width="80" height="32" x="233" y="3" rx="10"/><rect width="80" height="32" x="231" y="1" class="terminal" rx="10"/><text x="241" y="21" class="terminal">REPLICA</text><rect width="108" height="32" x="333" y="3"/><rect width="108" height="32" x="331" y="1" class="nonterminal"/><text x="341" y="21" class="nonterminal">cluster_name</text><rect width="24" height="32" x="461" y="3" rx="10"/><rect width="24" height="32" x="459" y="1" class="terminal" rx="10"/><text x="469" y="21" class="terminal">.</text><rect width="106" height="32" x="25" y="113"/><rect width="106" height="32" x="23" y="111" class="nonterminal"/><text x="33" y="131" class="nonterminal">replica_name</text><rect width="26" height="32" x="151" y="113" rx="10"/><rect width="26" height="32" x="149" y="111" class="terminal" rx="10"/><text x="159" y="131" class="terminal">(</text><rect width="62" height="32" x="237" y="113"/><rect width="62" height="32" x="235" y="111" class="nonterminal"/><text x="245" y="131" class="nonterminal">option</text><rect width="28" height="32" x="319" y="113" rx="10"/><rect width="28" height="32" x="317" y="111" class="terminal" rx="10"/><text x="327" y="131" class="terminal">=</text><rect width="54" height="32" x="367" y="113"/><rect width="54" height="32" x="365" y="111" class="nonterminal"/><text x="375" y="131" class="nonterminal">value</text><rect width="24" height="32" x="237" y="69" rx="10"/><rect width="24" height="32" x="235" y="67" class="terminal" rx="10"/><text x="245" y="87" class="terminal">,</text><rect width="26" height="32" x="481" y="113" rx="10"/><rect width="26" height="32" x="479" y="111" class="terminal" rx="10"/><text x="489" y="131" class="terminal">)</text><path d="m19 17 h2 m0 0 h10 m76 0 h10 m0 0 h10 m84 0 h10 m0 0 h10 m80 0 h10 m0 0 h10 m108 0 h10 m0 0 h10 m24 0 h10 m2 0 l2 0 m2 0 l2 0 m2 0 l2 0 m-504 110 l2 0 m2 0 l2 0 m2 0 l2 0 m2 0 h10 m106 0 h10 m0 0 h10 m26 0 h10 m40 0 h10 m62 0 h10 m0 0 h10 m28 0 h10 m0 0 h10 m54 0 h10 m-224 0 l20 0 m-1 0 q-9 0 -9 -10 l0 -24 q0 -10 10 -10 m204 44 l20 0 m-20 0 q10 0 10 -10 l0 -24 q0 -10 -10 -10 m-204 0 h10 m24 0 h10 m0 0 h160 m-244 44 h20 m244 0 h20 m-284 0 q10 0 10 10 m264 0 q0 -10 10 -10 m-274 10 v14 m264 0 v-14 m-264 14 q0 10 10 10 m244 0 q10 0 10 -10 m-254 10 h10 m0 0 h234 m20 -34 h10 m26 0 h10 m3 0 h-3" class="line"/><polygon points="525 127 533 123 533 131"/><polygon points="525 127 517 123 517 131"/></svg>