<svg xmlns="http://www.w3.org/2000/svg" width="589" height="359"><polygon points="9 17 1 13 1 21"/><polygon points="17 17 9 13 9 21"/><rect width="76" height="32" x="31" y="3" rx="10"/><rect width="76" height="32" x="29" y="1" class="terminal" rx="10"/><text x="39" y="21" class="terminal">CREATE</text><rect width="108" height="32" x="147" y="35" rx="10"/><rect width="108" height="32" x="145" y="33" class="terminal" rx="10"/><text x="155" y="53" class="terminal">OR REPLACE</text><rect width="166" height="32" x="295" y="3" rx="10"/><rect width="166" height="32" x="293" y="1" class="terminal" rx="10"/><text x="303" y="21" class="terminal">MATERIALIZED VIEW</text><rect width="120" height="32" x="45" y="177" rx="10"/><rect width="120" height="32" x="43" y="175" class="terminal" rx="10"/><text x="53" y="195" class="terminal">IF NOT EXISTS</text><rect width="92" height="32" x="205" y="145"/><rect width="92" height="32" x="203" y="143" class="nonterminal"/><text x="213" y="163" class="nonterminal">view_name</text><rect width="26" height="32" x="337" y="145" rx="10"/><rect width="26" height="32" x="335" y="143" class="terminal" rx="10"/><text x="345" y="163" class="terminal">(</text><rect width="78" height="32" x="403" y="145"/><rect width="78" height="32" x="401" y="143" class="nonterminal"/><text x="411" y="163" class="nonterminal">col_ident</text><rect width="24" height="32" x="403" y="101" rx="10"/><rect width="24" height="32" x="401" y="99" class="terminal" rx="10"/><text x="411" y="119" class="terminal">,</text><rect width="26" height="32" x="521" y="145" rx="10"/><rect width="26" height="32" x="519" y="143" class="terminal" rx="10"/><text x="529" y="163" class="terminal">)</text><rect width="104" height="32" x="60" y="259" rx="10"/><rect width="104" height="32" x="58" y="257" class="terminal" rx="10"/><text x="68" y="277" class="terminal">IN CLUSTER</text><rect width="108" height="32" x="184" y="259"/><rect width="108" height="32" x="182" y="257" class="nonterminal"/><text x="192" y="277" class="nonterminal">cluster_name</text><rect width="58" height="32" x="352" y="259" rx="10"/><rect width="58" height="32" x="350" y="257" class="terminal" rx="10"/><text x="360" y="277" class="terminal">WITH</text><rect width="102" height="32" x="430" y="259"/><rect width="102" height="32" x="428" y="257" class="nonterminal"/><text x="438" y="277" class="nonterminal">with_options</text><rect width="40" height="32" x="405" y="325" rx="10"/><rect width="40" height="32" x="403" y="323" class="terminal" rx="10"/><text x="413" y="343" class="terminal">AS</text><rect width="96" height="32" x="465" y="325"/><rect width="96" height="32" x="463" y="323" class="nonterminal"/><text x="473" y="343" class="nonterminal">select_stmt</text><path d="m17 17 h2 m0 0 h10 m76 0 h10 m20 0 h10 m0 0 h118 m-148 0 h20 m128 0 h20 m-168 0 q10 0 10 10 m148 0 q0 -10 10 -10 m-158 10 v12 m148 0 v-12 m-148 12 q0 10 10 10 m128 0 q10 0 10 -10 m-138 10 h10 m108 0 h10 m20 -32 h10 m166 0 h10 m2 0 l2 0 m2 0 l2 0 m2 0 l2 0 m-480 142 l2 0 m2 0 l2 0 m2 0 l2 0 m22 0 h10 m0 0 h130 m-160 0 h20 m140 0 h20 m-180 0 q10 0 10 10 m160 0 q0 -10 10 -10 m-170 10 v12 m160 0 v-12 m-160 12 q0 10 10 10 m140 0 q10 0 10 -10 m-150 10 h10 m120 0 h10 m20 -32 h10 m92 0 h10 m20 0 h10 m26 0 h10 m20 0 h10 m78 0 h10 m-118 0 l20 0 m-1 0 q-9 0 -9 -10 l0 -24 q0 -10 10 -10 m98 44 l20 0 m-20 0 q10 0 10 -10 l0 -24 q0 -10 -10 -10 m-98 0 h10 m24 0 h10 m0 0 h54 m20 44 h10 m26 0 h10 m-250 0 h20 m230 0 h20 m-270 0 q10 0 10 10 m250 0 q0 -10 10 -10 m-260 10 v14 m250 0 v-14 m-250 14 q0 10 10 10 m230 0 q10 0 10 -10 m-240 10 h10 m0 0 h220 m22 -34 l2 0 m2 0 l2 0 m2 0 l2 0 m-571 82 l2 0 m2 0 l2 0 m2 0 l2 0 m22 0 h10 m0 0 h242 m-272 0 h20 m252 0 h20 m-292 0 q10 0 10 10 m272 0 q0 -10 10 -10 m-282 10 v12 m272 0 v-12 m-272 12 q0 10 10 10 m252 0 q10 0 10 -10 m-262 10 h10 m104 0 h10 m0 0 h10 m108 0 h10 m40 -32 h10 m0 0 h190 m-220 0 h20 m200 0 h20 m-240 0 q10 0 10 10 m220 0 q0 -10 10 -10 m-230 10 v12 m220 0 v-12 m-220 12 q0 10 10 10 m200 0 q10 0 10 -10 m-210 10 h10 m58 0 h10 m0 0 h10 m102 0 h10 m22 -32 l2 0 m2 0 l2 0 m2 0 l2 0 m-191 98 l2 0 m2 0 l2 0 m2 0 l2 0 m2 0 h10 m40 0 h10 m0 0 h10 m96 0 h10 m3 0 h-3" class="line"/><polygon points="579 339 587 335 587 343"/><polygon points="579 339 571 335 571 343"/></svg>