<svg xmlns="http://www.w3.org/2000/svg" width="401" height="81"><polygon points="9 61 1 57 1 65"/><polygon points="17 61 9 57 9 65"/><rect width="86" height="32" x="31" y="47" rx="10"/><rect width="86" height="32" x="29" y="45" class="terminal" rx="10"/><text x="39" y="65" class="terminal">BROKERS</text><rect width="26" height="32" x="137" y="47" rx="10"/><rect width="26" height="32" x="135" y="45" class="terminal" rx="10"/><text x="145" y="65" class="terminal">(</text><rect width="104" height="32" x="203" y="47"/><rect width="104" height="32" x="201" y="45" class="nonterminal"/><text x="211" y="65" class="nonterminal">kafka_broker</text><rect width="24" height="32" x="203" y="3" rx="10"/><rect width="24" height="32" x="201" y="1" class="terminal" rx="10"/><text x="211" y="21" class="terminal">,</text><rect width="26" height="32" x="347" y="47" rx="10"/><rect width="26" height="32" x="345" y="45" class="terminal" rx="10"/><text x="355" y="65" class="terminal">)</text><path d="m17 61 h2 m0 0 h10 m86 0 h10 m0 0 h10 m26 0 h10 m20 0 h10 m104 0 h10 m-144 0 l20 0 m-1 0 q-9 0 -9 -10 l0 -24 q0 -10 10 -10 m124 44 l20 0 m-20 0 q10 0 10 -10 l0 -24 q0 -10 -10 -10 m-124 0 h10 m24 0 h10 m0 0 h80 m20 44 h10 m26 0 h10 m3 0 h-3" class="line"/><polygon points="391 61 399 57 399 65"/><polygon points="391 61 383 57 383 65"/></svg>