<svg xmlns="http://www.w3.org/2000/svg" width="373" height="147"><polygon points="11 17 3 13 3 21"/><polygon points="19 17 11 13 11 21"/><rect width="76" height="32" x="33" y="3" rx="10"/><rect width="76" height="32" x="31" y="1" class="terminal" rx="10"/><text x="41" y="21" class="terminal">CREATE</text><rect width="84" height="32" x="129" y="3" rx="10"/><rect width="84" height="32" x="127" y="1" class="terminal" rx="10"/><text x="137" y="21" class="terminal">CLUSTER</text><rect width="56" height="32" x="233" y="3"/><rect width="56" height="32" x="231" y="1" class="nonterminal"/><text x="241" y="21" class="nonterminal">name</text><rect width="26" height="32" x="309" y="3" rx="10"/><rect width="26" height="32" x="307" y="1" class="terminal" rx="10"/><text x="317" y="21" class="terminal">(</text><rect width="112" height="32" x="45" y="113"/><rect width="112" height="32" x="43" y="111" class="nonterminal"/><text x="53" y="131" class="nonterminal">cluster_option</text><rect width="28" height="32" x="177" y="113" rx="10"/><rect width="28" height="32" x="175" y="111" class="terminal" rx="10"/><text x="185" y="131" class="terminal">=</text><rect width="54" height="32" x="225" y="113"/><rect width="54" height="32" x="223" y="111" class="nonterminal"/><text x="233" y="131" class="nonterminal">value</text><rect width="24" height="32" x="45" y="69" rx="10"/><rect width="24" height="32" x="43" y="67" class="terminal" rx="10"/><text x="53" y="87" class="terminal">,</text><rect width="26" height="32" x="319" y="113" rx="10"/><rect width="26" height="32" x="317" y="111" class="terminal" rx="10"/><text x="327" y="131" class="terminal">)</text><path d="m19 17 h2 m0 0 h10 m76 0 h10 m0 0 h10 m84 0 h10 m0 0 h10 m56 0 h10 m0 0 h10 m26 0 h10 m2 0 l2 0 m2 0 l2 0 m2 0 l2 0 m-354 110 l2 0 m2 0 l2 0 m2 0 l2 0 m22 0 h10 m112 0 h10 m0 0 h10 m28 0 h10 m0 0 h10 m54 0 h10 m-274 0 l20 0 m-1 0 q-9 0 -9 -10 l0 -24 q0 -10 10 -10 m254 44 l20 0 m-20 0 q10 0 10 -10 l0 -24 q0 -10 -10 -10 m-254 0 h10 m24 0 h10 m0 0 h210 m20 44 h10 m26 0 h10 m3 0 h-3" class="line"/><polygon points="363 127 371 123 371 131"/><polygon points="363 127 355 123 355 131"/></svg>