<svg xmlns="http://www.w3.org/2000/svg" width="529" height="211"><polygon points="9 17 1 13 1 21"/><polygon points="17 17 9 13 9 21"/><rect width="48" height="32" x="51" y="35" rx="10"/><rect width="48" height="32" x="49" y="33" class="terminal" rx="10"/><text x="59" y="53" class="terminal">KEY</text><rect width="68" height="32" x="51" y="79" rx="10"/><rect width="68" height="32" x="49" y="77" class="terminal" rx="10"/><text x="59" y="97" class="terminal">VALUE</text><rect width="76" height="32" x="159" y="3" rx="10"/><rect width="76" height="32" x="157" y="1" class="terminal" rx="10"/><text x="167" y="21" class="terminal">DOC ON</text><rect width="56" height="32" x="275" y="3" rx="10"/><rect width="56" height="32" x="273" y="1" class="terminal" rx="10"/><text x="283" y="21" class="terminal">TYPE</text><rect width="92" height="32" x="351" y="3"/><rect width="92" height="32" x="349" y="1" class="nonterminal"/><text x="359" y="21" class="nonterminal">type_name</text><rect width="82" height="32" x="275" y="47" rx="10"/><rect width="82" height="32" x="273" y="45" class="terminal" rx="10"/><text x="283" y="65" class="terminal">COLUMN</text><rect width="110" height="32" x="377" y="47"/><rect width="110" height="32" x="375" y="45" class="nonterminal"/><text x="385" y="65" class="nonterminal">column_name</text><rect width="28" height="32" x="375" y="177" rx="10"/><rect width="28" height="32" x="373" y="175" class="terminal" rx="10"/><text x="383" y="195" class="terminal">=</text><rect width="58" height="32" x="443" y="145"/><rect width="58" height="32" x="441" y="143" class="nonterminal"/><text x="451" y="163" class="nonterminal">string</text><path d="m17 17 h2 m20 0 h10 m0 0 h78 m-108 0 h20 m88 0 h20 m-128 0 q10 0 10 10 m108 0 q0 -10 10 -10 m-118 10 v12 m108 0 v-12 m-108 12 q0 10 10 10 m88 0 q10 0 10 -10 m-98 10 h10 m48 0 h10 m0 0 h20 m-98 -10 v20 m108 0 v-20 m-108 20 v24 m108 0 v-24 m-108 24 q0 10 10 10 m88 0 q10 0 10 -10 m-98 10 h10 m68 0 h10 m20 -76 h10 m76 0 h10 m20 0 h10 m56 0 h10 m0 0 h10 m92 0 h10 m0 0 h44 m-252 0 h20 m232 0 h20 m-272 0 q10 0 10 10 m252 0 q0 -10 10 -10 m-262 10 v24 m252 0 v-24 m-252 24 q0 10 10 10 m232 0 q10 0 10 -10 m-242 10 h10 m82 0 h10 m0 0 h10 m110 0 h10 m22 -44 l2 0 m2 0 l2 0 m2 0 l2 0 m-196 142 l2 0 m2 0 l2 0 m2 0 l2 0 m22 0 h10 m0 0 h38 m-68 0 h20 m48 0 h20 m-88 0 q10 0 10 10 m68 0 q0 -10 10 -10 m-78 10 v12 m68 0 v-12 m-68 12 q0 10 10 10 m48 0 q10 0 10 -10 m-58 10 h10 m28 0 h10 m20 -32 h10 m58 0 h10 m3 0 h-3" class="line"/><polygon points="519 159 527 155 527 163"/><polygon points="519 159 511 155 511 163"/></svg>