<svg xmlns="http://www.w3.org/2000/svg" width="505" height="179"><polygon points="11 17 3 13 3 21"/><polygon points="19 17 11 13 11 21"/><rect width="76" height="32" x="33" y="3" rx="10"/><rect width="76" height="32" x="31" y="1" class="terminal" rx="10"/><text x="41" y="21" class="terminal">CREATE</text><rect width="84" height="32" x="129" y="3" rx="10"/><rect width="84" height="32" x="127" y="1" class="terminal" rx="10"/><text x="137" y="21" class="terminal">CLUSTER</text><rect width="56" height="32" x="233" y="3"/><rect width="56" height="32" x="231" y="1" class="nonterminal"/><text x="241" y="21" class="nonterminal">name</text><rect width="88" height="32" x="45" y="113" rx="10"/><rect width="88" height="32" x="43" y="111" class="terminal" rx="10"/><text x="53" y="131" class="terminal">REPLICAS</text><rect width="26" height="32" x="153" y="113" rx="10"/><rect width="26" height="32" x="151" y="111" class="terminal" rx="10"/><text x="161" y="131" class="terminal">(</text><rect width="132" height="32" x="239" y="113"/><rect width="132" height="32" x="237" y="111" class="nonterminal"/><text x="247" y="131" class="nonterminal">replica_definition</text><rect width="24" height="32" x="239" y="69" rx="10"/><rect width="24" height="32" x="237" y="67" class="terminal" rx="10"/><text x="247" y="87" class="terminal">,</text><rect width="26" height="32" x="431" y="113" rx="10"/><rect width="26" height="32" x="429" y="111" class="terminal" rx="10"/><text x="439" y="131" class="terminal">)</text><path d="m19 17 h2 m0 0 h10 m76 0 h10 m0 0 h10 m84 0 h10 m0 0 h10 m56 0 h10 m2 0 l2 0 m2 0 l2 0 m2 0 l2 0 m-308 110 l2 0 m2 0 l2 0 m2 0 l2 0 m22 0 h10 m88 0 h10 m0 0 h10 m26 0 h10 m40 0 h10 m132 0 h10 m-172 0 l20 0 m-1 0 q-9 0 -9 -10 l0 -24 q0 -10 10 -10 m152 44 l20 0 m-20 0 q10 0 10 -10 l0 -24 q0 -10 -10 -10 m-152 0 h10 m24 0 h10 m0 0 h108 m-192 44 h20 m192 0 h20 m-232 0 q10 0 10 10 m212 0 q0 -10 10 -10 m-222 10 v14 m212 0 v-14 m-212 14 q0 10 10 10 m192 0 q10 0 10 -10 m-202 10 h10 m0 0 h182 m20 -34 h10 m26 0 h10 m-452 0 h20 m432 0 h20 m-472 0 q10 0 10 10 m452 0 q0 -10 10 -10 m-462 10 v30 m452 0 v-30 m-452 30 q0 10 10 10 m432 0 q10 0 10 -10 m-442 10 h10 m0 0 h422 m23 -50 h-3" class="line"/><polygon points="495 127 503 123 503 131"/><polygon points="495 127 487 123 487 131"/></svg>