<svg xmlns="http://www.w3.org/2000/svg" width="379" height="147"><polygon points="9 17 1 13 1 21"/><polygon points="17 17 9 13 9 21"/><rect width="76" height="32" x="31" y="3" rx="10"/><rect width="76" height="32" x="29" y="1" class="terminal" rx="10"/><text x="39" y="21" class="terminal">CREATE</text><rect width="84" height="32" x="127" y="3" rx="10"/><rect width="84" height="32" x="125" y="1" class="terminal" rx="10"/><text x="135" y="21" class="terminal">CLUSTER</text><rect width="56" height="32" x="231" y="3"/><rect width="56" height="32" x="229" y="1" class="nonterminal"/><text x="239" y="21" class="nonterminal">name</text><rect width="50" height="32" x="307" y="3" rx="10"/><rect width="50" height="32" x="305" y="1" class="terminal" rx="10"/><text x="315" y="21" class="terminal">SIZE</text><rect width="28" height="32" x="175" y="113" rx="10"/><rect width="28" height="32" x="173" y="111" class="terminal" rx="10"/><text x="183" y="131" class="terminal">=</text><rect width="54" height="32" x="223" y="113"/><rect width="54" height="32" x="221" y="111" class="nonterminal"/><text x="231" y="131" class="nonterminal">value</text><rect width="112" height="32" x="175" y="69"/><rect width="112" height="32" x="173" y="67" class="nonterminal"/><text x="183" y="87" class="nonterminal">cluster_option</text><rect width="24" height="32" x="307" y="69" rx="10"/><rect width="24" height="32" x="305" y="67" class="terminal" rx="10"/><text x="315" y="87" class="terminal">,</text><path d="m17 17 h2 m0 0 h10 m76 0 h10 m0 0 h10 m84 0 h10 m0 0 h10 m56 0 h10 m0 0 h10 m50 0 h10 m2 0 l2 0 m2 0 l2 0 m2 0 l2 0 m-246 110 l2 0 m2 0 l2 0 m2 0 l2 0 m22 0 h10 m28 0 h10 m0 0 h10 m54 0 h10 m0 0 h54 m-196 0 l20 0 m-1 0 q-9 0 -9 -10 l0 -24 q0 -10 10 -10 m176 44 l20 0 m-20 0 q10 0 10 -10 l0 -24 q0 -10 -10 -10 m-176 0 h10 m112 0 h10 m0 0 h10 m24 0 h10 m23 44 h-3" class="line"/><polygon points="369 127 377 123 377 131"/><polygon points="369 127 361 123 361 131"/></svg>