<svg xmlns="http://www.w3.org/2000/svg" width="579" height="163"><polygon points="9 17 1 13 1 21"/><polygon points="17 17 9 13 9 21"/><rect width="90" height="32" x="31" y="3" rx="10"/><rect width="90" height="32" x="29" y="1" class="terminal" rx="10"/><text x="39" y="21" class="terminal">&apos;host:port&apos;</text><rect width="64" height="32" x="141" y="3" rx="10"/><rect width="64" height="32" x="139" y="1" class="terminal" rx="10"/><text x="149" y="21" class="terminal">USING</text><rect width="54" height="32" x="225" y="3" rx="10"/><rect width="54" height="32" x="223" y="1" class="terminal" rx="10"/><text x="233" y="21" class="terminal">AWS</text><rect width="112" height="32" x="299" y="3" rx="10"/><rect width="112" height="32" x="297" y="1" class="terminal" rx="10"/><text x="307" y="21" class="terminal">PRIVATELINK</text><rect width="126" height="32" x="431" y="3"/><rect width="126" height="32" x="429" y="1" class="nonterminal"/><text x="439" y="21" class="nonterminal">aws_connection</text><rect width="26" height="32" x="289" y="113" rx="10"/><rect width="26" height="32" x="287" y="111" class="terminal" rx="10"/><text x="297" y="131" class="terminal">(</text><rect width="110" height="32" x="355" y="113"/><rect width="110" height="32" x="353" y="111" class="nonterminal"/><text x="363" y="131" class="nonterminal">broker_option</text><rect width="24" height="32" x="355" y="69" rx="10"/><rect width="24" height="32" x="353" y="67" class="terminal" rx="10"/><text x="363" y="87" class="terminal">,</text><rect width="26" height="32" x="505" y="113" rx="10"/><rect width="26" height="32" x="503" y="111" class="terminal" rx="10"/><text x="513" y="131" class="terminal">)</text><path d="m17 17 h2 m0 0 h10 m90 0 h10 m0 0 h10 m64 0 h10 m0 0 h10 m54 0 h10 m0 0 h10 m112 0 h10 m0 0 h10 m126 0 h10 m2 0 l2 0 m2 0 l2 0 m2 0 l2 0 m-332 110 l2 0 m2 0 l2 0 m2 0 l2 0 m22 0 h10 m26 0 h10 m20 0 h10 m110 0 h10 m-150 0 l20 0 m-1 0 q-9 0 -9 -10 l0 -24 q0 -10 10 -10 m130 44 l20 0 m-20 0 q10 0 10 -10 l0 -24 q0 -10 -10 -10 m-130 0 h10 m24 0 h10 m0 0 h86 m20 44 h10 m26 0 h10 m-282 0 h20 m262 0 h20 m-302 0 q10 0 10 10 m282 0 q0 -10 10 -10 m-292 10 v14 m282 0 v-14 m-282 14 q0 10 10 10 m262 0 q10 0 10 -10 m-272 10 h10 m0 0 h252 m23 -34 h-3" class="line"/><polygon points="569 127 577 123 577 131"/><polygon points="569 127 561 123 561 131"/></svg>