<svg xmlns="http://www.w3.org/2000/svg" width="505" height="163"><polygon points="9 17 1 13 1 21"/><polygon points="17 17 9 13 9 21"/><rect width="76" height="32" x="31" y="3" rx="10"/><rect width="76" height="32" x="29" y="1" class="terminal" rx="10"/><text x="39" y="21" class="terminal">CREATE</text><rect width="150" height="32" x="127" y="3" rx="10"/><rect width="150" height="32" x="125" y="1" class="terminal" rx="10"/><text x="135" y="21" class="terminal">NETWORK POLICY</text><rect width="56" height="32" x="297" y="3"/><rect width="56" height="32" x="295" y="1" class="nonterminal"/><text x="305" y="21" class="nonterminal">name</text><rect width="26" height="32" x="373" y="3" rx="10"/><rect width="26" height="32" x="371" y="1" class="terminal" rx="10"/><text x="381" y="21" class="terminal">(</text><rect width="64" height="32" x="419" y="3" rx="10"/><rect width="64" height="32" x="417" y="1" class="terminal" rx="10"/><text x="427" y="21" class="terminal">RULES</text><rect width="26" height="32" x="129" y="113" rx="10"/><rect width="26" height="32" x="127" y="111" class="terminal" rx="10"/><text x="137" y="131" class="terminal">(</text><rect width="150" height="32" x="195" y="113"/><rect width="150" height="32" x="193" y="111" class="nonterminal"/><text x="203" y="131" class="nonterminal">network_policy_rule</text><rect width="24" height="32" x="195" y="69" rx="10"/><rect width="24" height="32" x="193" y="67" class="terminal" rx="10"/><text x="203" y="87" class="terminal">,</text><rect width="26" height="32" x="385" y="113" rx="10"/><rect width="26" height="32" x="383" y="111" class="terminal" rx="10"/><text x="393" y="131" class="terminal">)</text><rect width="26" height="32" x="451" y="113" rx="10"/><rect width="26" height="32" x="449" y="111" class="terminal" rx="10"/><text x="459" y="131" class="terminal">)</text><path d="m17 17 h2 m0 0 h10 m76 0 h10 m0 0 h10 m150 0 h10 m0 0 h10 m56 0 h10 m0 0 h10 m26 0 h10 m0 0 h10 m64 0 h10 m2 0 l2 0 m2 0 l2 0 m2 0 l2 0 m-418 110 l2 0 m2 0 l2 0 m2 0 l2 0 m22 0 h10 m26 0 h10 m20 0 h10 m150 0 h10 m-190 0 l20 0 m-1 0 q-9 0 -9 -10 l0 -24 q0 -10 10 -10 m170 44 l20 0 m-20 0 q10 0 10 -10 l0 -24 q0 -10 -10 -10 m-170 0 h10 m24 0 h10 m0 0 h126 m20 44 h10 m26 0 h10 m-322 0 h20 m302 0 h20 m-342 0 q10 0 10 10 m322 0 q0 -10 10 -10 m-332 10 v14 m322 0 v-14 m-322 14 q0 10 10 10 m302 0 q10 0 10 -10 m-312 10 h10 m0 0 h292 m20 -34 h10 m26 0 h10 m3 0 h-3" class="line"/><polygon points="495 127 503 123 503 131"/><polygon points="495 127 487 123 487 131"/></svg>