<svg xmlns="http://www.w3.org/2000/svg" width="577" height="69"><polygon points="9 17 1 13 1 21"/><polygon points="17 17 9 13 9 21"/><rect width="76" height="32" x="31" y="3" rx="10"/><rect width="76" height="32" x="29" y="1" class="terminal" rx="10"/><text x="39" y="21" class="terminal">CREATE</text><rect width="98" height="32" x="127" y="3" rx="10"/><rect width="98" height="32" x="125" y="1" class="terminal" rx="10"/><text x="135" y="21" class="terminal">DATABASE</text><rect width="120" height="32" x="265" y="35" rx="10"/><rect width="120" height="32" x="263" y="33" class="terminal" rx="10"/><text x="273" y="53" class="terminal">IF NOT EXISTS</text><rect width="124" height="32" x="425" y="3"/><rect width="124" height="32" x="423" y="1" class="nonterminal"/><text x="433" y="21" class="nonterminal">database_name</text><path d="m17 17 h2 m0 0 h10 m76 0 h10 m0 0 h10 m98 0 h10 m20 0 h10 m0 0 h130 m-160 0 h20 m140 0 h20 m-180 0 q10 0 10 10 m160 0 q0 -10 10 -10 m-170 10 v12 m160 0 v-12 m-160 12 q0 10 10 10 m140 0 q10 0 10 -10 m-150 10 h10 m120 0 h10 m20 -32 h10 m124 0 h10 m3 0 h-3" class="line"/><polygon points="567 17 575 13 575 21"/><polygon points="567 17 559 13 559 21"/></svg>