<svg xmlns="http://www.w3.org/2000/svg" width="573" height="101"><polygon points="9 17 1 13 1 21"/><polygon points="17 17 9 13 9 21"/><rect width="76" height="32" x="31" y="3" rx="10"/><rect width="76" height="32" x="29" y="1" class="terminal" rx="10"/><text x="39" y="21" class="terminal">CREATE</text><rect width="56" height="32" x="127" y="3" rx="10"/><rect width="56" height="32" x="125" y="1" class="terminal" rx="10"/><text x="135" y="21" class="terminal">ROLE</text><rect width="88" height="32" x="203" y="3"/><rect width="88" height="32" x="201" y="1" class="nonterminal"/><text x="211" y="21" class="nonterminal">role_name</text><rect width="58" height="32" x="351" y="67" rx="10"/><rect width="58" height="32" x="349" y="65" class="terminal" rx="10"/><text x="359" y="85" class="terminal">WITH</text><rect width="76" height="32" x="449" y="35" rx="10"/><rect width="76" height="32" x="447" y="33" class="terminal" rx="10"/><text x="457" y="53" class="terminal">INHERIT</text><path d="m17 17 h2 m0 0 h10 m76 0 h10 m0 0 h10 m56 0 h10 m0 0 h10 m88 0 h10 m20 0 h10 m0 0 h204 m-234 0 h20 m214 0 h20 m-254 0 q10 0 10 10 m234 0 q0 -10 10 -10 m-244 10 v12 m234 0 v-12 m-234 12 q0 10 10 10 m214 0 q10 0 10 -10 m-204 10 h10 m0 0 h68 m-98 0 h20 m78 0 h20 m-118 0 q10 0 10 10 m98 0 q0 -10 10 -10 m-108 10 v12 m98 0 v-12 m-98 12 q0 10 10 10 m78 0 q10 0 10 -10 m-88 10 h10 m58 0 h10 m20 -32 h10 m76 0 h10 m23 -32 h-3" class="line"/><polygon points="563 17 571 13 571 21"/><polygon points="563 17 555 13 555 21"/></svg>