<svg xmlns="http://www.w3.org/2000/svg" width="601" height="309"><polygon points="9 17 1 13 1 21"/><polygon points="17 17 9 13 9 21"/><rect width="76" height="32" x="31" y="3" rx="10"/><rect width="76" height="32" x="29" y="1" class="terminal" rx="10"/><text x="39" y="21" class="terminal">CREATE</text><rect width="116" height="32" x="127" y="3" rx="10"/><rect width="116" height="32" x="125" y="1" class="terminal" rx="10"/><text x="135" y="21" class="terminal">CONNECTION</text><rect width="120" height="32" x="283" y="35" rx="10"/><rect width="120" height="32" x="281" y="33" class="terminal" rx="10"/><text x="291" y="53" class="terminal">IF NOT EXISTS</text><rect width="136" height="32" x="443" y="3"/><rect width="136" height="32" x="441" y="1" class="nonterminal"/><text x="451" y="21" class="nonterminal">connection_name</text><rect width="40" height="32" x="29" y="145" rx="10"/><rect width="40" height="32" x="27" y="143" class="terminal" rx="10"/><text x="37" y="163" class="terminal">TO</text><rect width="54" height="32" x="89" y="145" rx="10"/><rect width="54" height="32" x="87" y="143" class="terminal" rx="10"/><text x="97" y="163" class="terminal">AWS</text><rect width="112" height="32" x="163" y="145" rx="10"/><rect width="112" height="32" x="161" y="143" class="terminal" rx="10"/><text x="171" y="163" class="terminal">PRIVATELINK</text><rect width="26" height="32" x="295" y="145" rx="10"/><rect width="26" height="32" x="293" y="143" class="terminal" rx="10"/><text x="303" y="163" class="terminal">(</text><rect width="48" height="32" x="361" y="145"/><rect width="48" height="32" x="359" y="143" class="nonterminal"/><text x="369" y="163" class="nonterminal">field</text><rect width="28" height="32" x="449" y="177" rx="10"/><rect width="28" height="32" x="447" y="175" class="terminal" rx="10"/><text x="457" y="195" class="terminal">=</text><rect width="38" height="32" x="517" y="145"/><rect width="38" height="32" x="515" y="143" class="nonterminal"/><text x="525" y="163" class="nonterminal">val</text><rect width="24" height="32" x="361" y="101" rx="10"/><rect width="24" height="32" x="359" y="99" class="terminal" rx="10"/><text x="369" y="119" class="terminal">,</text><rect width="26" height="32" x="307" y="243" rx="10"/><rect width="26" height="32" x="305" y="241" class="terminal" rx="10"/><text x="315" y="261" class="terminal">)</text><rect width="58" height="32" x="373" y="275" rx="10"/><rect width="58" height="32" x="371" y="273" class="terminal" rx="10"/><text x="381" y="293" class="terminal">WITH</text><rect width="102" height="32" x="451" y="275"/><rect width="102" height="32" x="449" y="273" class="nonterminal"/><text x="459" y="293" class="nonterminal">with_options</text><path d="m17 17 h2 m0 0 h10 m76 0 h10 m0 0 h10 m116 0 h10 m20 0 h10 m0 0 h130 m-160 0 h20 m140 0 h20 m-180 0 q10 0 10 10 m160 0 q0 -10 10 -10 m-170 10 v12 m160 0 v-12 m-160 12 q0 10 10 10 m140 0 q10 0 10 -10 m-150 10 h10 m120 0 h10 m20 -32 h10 m136 0 h10 m2 0 l2 0 m2 0 l2 0 m2 0 l2 0 m-594 142 l2 0 m2 0 l2 0 m2 0 l2 0 m2 0 h10 m40 0 h10 m0 0 h10 m54 0 h10 m0 0 h10 m112 0 h10 m0 0 h10 m26 0 h10 m20 0 h10 m48 0 h10 m20 0 h10 m0 0 h38 m-68 0 h20 m48 0 h20 m-88 0 q10 0 10 10 m68 0 q0 -10 10 -10 m-78 10 v12 m68 0 v-12 m-68 12 q0 10 10 10 m48 0 q10 0 10 -10 m-58 10 h10 m28 0 h10 m20 -32 h10 m38 0 h10 m-234 0 l20 0 m-1 0 q-9 0 -9 -10 l0 -24 q0 -10 10 -10 m214 44 l20 0 m-20 0 q10 0 10 -10 l0 -24 q0 -10 -10 -10 m-214 0 h10 m24 0 h10 m0 0 h170 m22 44 l2 0 m2 0 l2 0 m2 0 l2 0 m-312 98 l2 0 m2 0 l2 0 m2 0 l2 0 m2 0 h10 m26 0 h10 m20 0 h10 m0 0 h190 m-220 0 h20 m200 0 h20 m-240 0 q10 0 10 10 m220 0 q0 -10 10 -10 m-230 10 v12 m220 0 v-12 m-220 12 q0 10 10 10 m200 0 q10 0 10 -10 m-210 10 h10 m58 0 h10 m0 0 h10 m102 0 h10 m23 -32 h-3" class="line"/><polygon points="591 257 599 253 599 261"/><polygon points="591 257 583 253 583 261"/></svg>