<svg xmlns="http://www.w3.org/2000/svg" width="509" height="163"><polygon points="9 61 1 57 1 65"/><polygon points="17 61 9 57 9 65"/><rect width="80" height="32" x="31" y="47"/><rect width="80" height="32" x="29" y="45" class="nonterminal"/><text x="39" y="65" class="nonterminal">cte_ident</text><rect width="26" height="32" x="151" y="47" rx="10"/><rect width="26" height="32" x="149" y="45" class="terminal" rx="10"/><text x="159" y="65" class="terminal">(</text><rect width="78" height="32" x="217" y="47"/><rect width="78" height="32" x="215" y="45" class="nonterminal"/><text x="225" y="65" class="nonterminal">col_ident</text><rect width="24" height="32" x="217" y="3" rx="10"/><rect width="24" height="32" x="215" y="1" class="terminal" rx="10"/><text x="225" y="21" class="terminal">,</text><rect width="26" height="32" x="335" y="47" rx="10"/><rect width="26" height="32" x="333" y="45" class="terminal" rx="10"/><text x="343" y="65" class="terminal">)</text><rect width="40" height="32" x="401" y="47" rx="10"/><rect width="40" height="32" x="399" y="45" class="terminal" rx="10"/><text x="409" y="65" class="terminal">AS</text><rect width="26" height="32" x="461" y="47" rx="10"/><rect width="26" height="32" x="459" y="45" class="terminal" rx="10"/><text x="469" y="65" class="terminal">(</text><rect width="96" height="32" x="339" y="129"/><rect width="96" height="32" x="337" y="127" class="nonterminal"/><text x="347" y="147" class="nonterminal">select_stmt</text><rect width="26" height="32" x="455" y="129" rx="10"/><rect width="26" height="32" x="453" y="127" class="terminal" rx="10"/><text x="463" y="147" class="terminal">)</text><path d="m17 61 h2 m0 0 h10 m80 0 h10 m20 0 h10 m26 0 h10 m20 0 h10 m78 0 h10 m-118 0 l20 0 m-1 0 q-9 0 -9 -10 l0 -24 q0 -10 10 -10 m98 44 l20 0 m-20 0 q10 0 10 -10 l0 -24 q0 -10 -10 -10 m-98 0 h10 m24 0 h10 m0 0 h54 m20 44 h10 m26 0 h10 m-250 0 h20 m230 0 h20 m-270 0 q10 0 10 10 m250 0 q0 -10 10 -10 m-260 10 v14 m250 0 v-14 m-250 14 q0 10 10 10 m230 0 q10 0 10 -10 m-240 10 h10 m0 0 h220 m20 -34 h10 m40 0 h10 m0 0 h10 m26 0 h10 m2 0 l2 0 m2 0 l2 0 m2 0 l2 0 m-192 82 l2 0 m2 0 l2 0 m2 0 l2 0 m2 0 h10 m96 0 h10 m0 0 h10 m26 0 h10 m3 0 h-3" class="line"/><polygon points="499 143 507 139 507 147"/><polygon points="499 143 491 139 491 147"/></svg>