<svg xmlns="http://www.w3.org/2000/svg" width="433" height="113"><polygon points="9 17 1 13 1 21"/><polygon points="17 17 9 13 9 21"/><rect width="114" height="32" x="31" y="3" rx="10"/><rect width="114" height="32" x="29" y="1" class="terminal" rx="10"/><text x="39" y="21" class="terminal">DEALLOCATE</text><rect width="84" height="32" x="185" y="35" rx="10"/><rect width="84" height="32" x="183" y="33" class="terminal" rx="10"/><text x="193" y="53" class="terminal">PREPARE</text><rect width="56" height="32" x="329" y="35"/><rect width="56" height="32" x="327" y="33" class="nonterminal"/><text x="337" y="53" class="nonterminal">name</text><rect width="46" height="32" x="329" y="79" rx="10"/><rect width="46" height="32" x="327" y="77" class="terminal" rx="10"/><text x="337" y="97" class="terminal">ALL</text><path d="m17 17 h2 m0 0 h10 m114 0 h10 m20 0 h10 m0 0 h94 m-124 0 h20 m104 0 h20 m-144 0 q10 0 10 10 m124 0 q0 -10 10 -10 m-134 10 v12 m124 0 v-12 m-124 12 q0 10 10 10 m104 0 q10 0 10 -10 m-114 10 h10 m84 0 h10 m40 -32 h10 m0 0 h66 m-96 0 h20 m76 0 h20 m-116 0 q10 0 10 10 m96 0 q0 -10 10 -10 m-106 10 v12 m96 0 v-12 m-96 12 q0 10 10 10 m76 0 q10 0 10 -10 m-86 10 h10 m56 0 h10 m-86 -10 v20 m96 0 v-20 m-96 20 v24 m96 0 v-24 m-96 24 q0 10 10 10 m76 0 q10 0 10 -10 m-86 10 h10 m46 0 h10 m0 0 h10 m23 -76 h-3" class="line"/><polygon points="423 17 431 13 431 21"/><polygon points="423 17 415 13 415 21"/></svg>