<svg xmlns="http://www.w3.org/2000/svg" width="581" height="211"><polygon points="9 17 1 13 1 21"/><polygon points="17 17 9 13 9 21"/><rect width="118" height="32" x="31" y="3" rx="10"/><rect width="118" height="32" x="29" y="1" class="terminal" rx="10"/><text x="39" y="21" class="terminal">DELETE FROM</text><rect width="96" height="32" x="169" y="3"/><rect width="96" height="32" x="167" y="1" class="nonterminal"/><text x="177" y="21" class="nonterminal">table_name</text><rect width="40" height="32" x="325" y="67" rx="10"/><rect width="40" height="32" x="323" y="65" class="terminal" rx="10"/><text x="333" y="85" class="terminal">AS</text><rect width="50" height="32" x="405" y="35"/><rect width="50" height="32" x="403" y="33" class="nonterminal"/><text x="413" y="53" class="nonterminal">alias</text><rect width="64" height="32" x="495" y="3" rx="10"/><rect width="64" height="32" x="493" y="1" class="terminal" rx="10"/><text x="503" y="21" class="terminal">USING</text><rect width="86" height="32" x="257" y="177"/><rect width="86" height="32" x="255" y="175" class="nonterminal"/><text x="265" y="195" class="nonterminal">from_item</text><rect width="24" height="32" x="257" y="133" rx="10"/><rect width="24" height="32" x="255" y="131" class="terminal" rx="10"/><text x="265" y="151" class="terminal">,</text><rect width="70" height="32" x="383" y="177" rx="10"/><rect width="70" height="32" x="381" y="175" class="terminal" rx="10"/><text x="391" y="195" class="terminal">WHERE</text><rect width="80" height="32" x="473" y="177"/><rect width="80" height="32" x="471" y="175" class="nonterminal"/><text x="481" y="195" class="nonterminal">condition</text><path d="m17 17 h2 m0 0 h10 m118 0 h10 m0 0 h10 m96 0 h10 m20 0 h10 m0 0 h160 m-190 0 h20 m170 0 h20 m-210 0 q10 0 10 10 m190 0 q0 -10 10 -10 m-200 10 v12 m190 0 v-12 m-190 12 q0 10 10 10 m170 0 q10 0 10 -10 m-160 10 h10 m0 0 h50 m-80 0 h20 m60 0 h20 m-100 0 q10 0 10 10 m80 0 q0 -10 10 -10 m-90 10 v12 m80 0 v-12 m-80 12 q0 10 10 10 m60 0 q10 0 10 -10 m-70 10 h10 m40 0 h10 m20 -32 h10 m50 0 h10 m20 -32 h10 m64 0 h10 m2 0 l2 0 m2 0 l2 0 m2 0 l2 0 m-366 174 l2 0 m2 0 l2 0 m2 0 l2 0 m22 0 h10 m86 0 h10 m-126 0 l20 0 m-1 0 q-9 0 -9 -10 l0 -24 q0 -10 10 -10 m106 44 l20 0 m-20 0 q10 0 10 -10 l0 -24 q0 -10 -10 -10 m-106 0 h10 m24 0 h10 m0 0 h62 m20 44 h10 m70 0 h10 m0 0 h10 m80 0 h10 m3 0 h-3" class="line"/><polygon points="571 191 579 187 579 195"/><polygon points="571 191 563 187 563 195"/></svg>