<svg xmlns="http://www.w3.org/2000/svg" width="313" height="125"><polygon points="9 17 1 13 1 21"/><polygon points="17 17 9 13 9 21"/><rect width="84" height="32" x="31" y="3" rx="10"/><rect width="84" height="32" x="29" y="1" class="terminal" rx="10"/><text x="39" y="21" class="terminal">DISCARD</text><rect width="60" height="32" x="155" y="3" rx="10"/><rect width="60" height="32" x="153" y="1" class="terminal" rx="10"/><text x="163" y="21" class="terminal">TEMP</text><rect width="110" height="32" x="155" y="47" rx="10"/><rect width="110" height="32" x="153" y="45" class="terminal" rx="10"/><text x="163" y="65" class="terminal">TEMPORARY</text><rect width="46" height="32" x="155" y="91" rx="10"/><rect width="46" height="32" x="153" y="89" class="terminal" rx="10"/><text x="163" y="109" class="terminal">ALL</text><path d="m17 17 h2 m0 0 h10 m84 0 h10 m20 0 h10 m60 0 h10 m0 0 h50 m-150 0 h20 m130 0 h20 m-170 0 q10 0 10 10 m150 0 q0 -10 10 -10 m-160 10 v24 m150 0 v-24 m-150 24 q0 10 10 10 m130 0 q10 0 10 -10 m-140 10 h10 m110 0 h10 m-140 -10 v20 m150 0 v-20 m-150 20 v24 m150 0 v-24 m-150 24 q0 10 10 10 m130 0 q10 0 10 -10 m-140 10 h10 m46 0 h10 m0 0 h64 m23 -88 h-3" class="line"/><polygon points="303 17 311 13 311 21"/><polygon points="303 17 295 13 295 21"/></svg>