<svg xmlns="http://www.w3.org/2000/svg" width="449" height="69"><polygon points="9 17 1 13 1 21"/><polygon points="17 17 9 13 9 21"/><rect width="60" height="32" x="31" y="3" rx="10"/><rect width="60" height="32" x="29" y="1" class="terminal" rx="10"/><text x="39" y="21" class="terminal">DROP</text><rect width="56" height="32" x="111" y="3" rx="10"/><rect width="56" height="32" x="109" y="1" class="terminal" rx="10"/><text x="119" y="21" class="terminal">USER</text><rect width="86" height="32" x="207" y="35" rx="10"/><rect width="86" height="32" x="205" y="33" class="terminal" rx="10"/><text x="215" y="53" class="terminal">IF EXISTS</text><rect width="88" height="32" x="333" y="3"/><rect width="88" height="32" x="331" y="1" class="nonterminal"/><text x="341" y="21" class="nonterminal">role_name</text><path d="m17 17 h2 m0 0 h10 m60 0 h10 m0 0 h10 m56 0 h10 m20 0 h10 m0 0 h96 m-126 0 h20 m106 0 h20 m-146 0 q10 0 10 10 m126 0 q0 -10 10 -10 m-136 10 v12 m126 0 v-12 m-126 12 q0 10 10 10 m106 0 q10 0 10 -10 m-116 10 h10 m86 0 h10 m20 -32 h10 m88 0 h10 m3 0 h-3" class="line"/><polygon points="439 17 447 13 447 21"/><polygon points="439 17 431 13 431 21"/></svg>