<svg xmlns="http://www.w3.org/2000/svg" width="571" height="157"><polygon points="9 61 1 57 1 65"/><polygon points="17 61 9 57 9 65"/><rect width="60" height="32" x="31" y="47" rx="10"/><rect width="60" height="32" x="29" y="45" class="terminal" rx="10"/><text x="39" y="65" class="terminal">DROP</text><rect width="74" height="32" x="111" y="47" rx="10"/><rect width="74" height="32" x="109" y="45" class="terminal" rx="10"/><text x="119" y="65" class="terminal">OWNED</text><rect width="40" height="32" x="205" y="47" rx="10"/><rect width="40" height="32" x="203" y="45" class="terminal" rx="10"/><text x="213" y="65" class="terminal">BY</text><rect width="88" height="32" x="285" y="47"/><rect width="88" height="32" x="283" y="45" class="nonterminal"/><text x="293" y="65" class="nonterminal">role_name</text><rect width="24" height="32" x="285" y="3" rx="10"/><rect width="24" height="32" x="283" y="1" class="terminal" rx="10"/><text x="293" y="21" class="terminal">,</text><rect width="90" height="32" x="433" y="79" rx="10"/><rect width="90" height="32" x="431" y="77" class="terminal" rx="10"/><text x="441" y="97" class="terminal">RESTRICT</text><rect width="90" height="32" x="433" y="123" rx="10"/><rect width="90" height="32" x="431" y="121" class="terminal" rx="10"/><text x="441" y="141" class="terminal">CASCADE</text><path d="m17 61 h2 m0 0 h10 m60 0 h10 m0 0 h10 m74 0 h10 m0 0 h10 m40 0 h10 m20 0 h10 m88 0 h10 m-128 0 l20 0 m-1 0 q-9 0 -9 -10 l0 -24 q0 -10 10 -10 m108 44 l20 0 m-20 0 q10 0 10 -10 l0 -24 q0 -10 -10 -10 m-108 0 h10 m24 0 h10 m0 0 h64 m40 44 h10 m0 0 h100 m-130 0 h20 m110 0 h20 m-150 0 q10 0 10 10 m130 0 q0 -10 10 -10 m-140 10 v12 m130 0 v-12 m-130 12 q0 10 10 10 m110 0 q10 0 10 -10 m-120 10 h10 m90 0 h10 m-120 -10 v20 m130 0 v-20 m-130 20 v24 m130 0 v-24 m-130 24 q0 10 10 10 m110 0 q10 0 10 -10 m-120 10 h10 m90 0 h10 m23 -76 h-3" class="line"/><polygon points="561 61 569 57 569 65"/><polygon points="561 61 553 57 553 65"/></svg>