<svg xmlns="http://www.w3.org/2000/svg" width="497" height="199"><polygon points="9 17 1 13 1 21"/><polygon points="17 17 9 13 9 21"/><rect width="60" height="32" x="31" y="3" rx="10"/><rect width="60" height="32" x="29" y="1" class="terminal" rx="10"/><text x="39" y="21" class="terminal">DROP</text><rect width="66" height="32" x="111" y="3" rx="10"/><rect width="66" height="32" x="109" y="1" class="terminal" rx="10"/><text x="119" y="21" class="terminal">TABLE</text><rect width="32" height="32" x="217" y="35" rx="10"/><rect width="32" height="32" x="215" y="33" class="terminal" rx="10"/><text x="225" y="53" class="terminal">IF</text><rect width="70" height="32" x="269" y="35" rx="10"/><rect width="70" height="32" x="267" y="33" class="terminal" rx="10"/><text x="277" y="53" class="terminal">EXISTS</text><rect width="96" height="32" x="379" y="3"/><rect width="96" height="32" x="377" y="1" class="nonterminal"/><text x="387" y="21" class="nonterminal">table_name</text><rect width="90" height="32" x="359" y="121" rx="10"/><rect width="90" height="32" x="357" y="119" class="terminal" rx="10"/><text x="367" y="139" class="terminal">RESTRICT</text><rect width="90" height="32" x="359" y="165" rx="10"/><rect width="90" height="32" x="357" y="163" class="terminal" rx="10"/><text x="367" y="183" class="terminal">CASCADE</text><path d="m17 17 h2 m0 0 h10 m60 0 h10 m0 0 h10 m66 0 h10 m20 0 h10 m0 0 h132 m-162 0 h20 m142 0 h20 m-182 0 q10 0 10 10 m162 0 q0 -10 10 -10 m-172 10 v12 m162 0 v-12 m-162 12 q0 10 10 10 m142 0 q10 0 10 -10 m-152 10 h10 m32 0 h10 m0 0 h10 m70 0 h10 m20 -32 h10 m96 0 h10 m2 0 l2 0 m2 0 l2 0 m2 0 l2 0 m-180 86 l2 0 m2 0 l2 0 m2 0 l2 0 m22 0 h10 m0 0 h100 m-130 0 h20 m110 0 h20 m-150 0 q10 0 10 10 m130 0 q0 -10 10 -10 m-140 10 v12 m130 0 v-12 m-130 12 q0 10 10 10 m110 0 q10 0 10 -10 m-120 10 h10 m90 0 h10 m-120 -10 v20 m130 0 v-20 m-130 20 v24 m130 0 v-24 m-130 24 q0 10 10 10 m110 0 q10 0 10 -10 m-120 10 h10 m90 0 h10 m23 -76 h-3" class="line"/><polygon points="487 103 495 99 495 107"/><polygon points="487 103 479 99 479 107"/></svg>