<svg xmlns="http://www.w3.org/2000/svg" width="463" height="135"><polygon points="9 17 1 13 1 21"/><polygon points="17 17 9 13 9 21"/><rect width="60" height="32" x="31" y="3" rx="10"/><rect width="60" height="32" x="29" y="1" class="terminal" rx="10"/><text x="39" y="21" class="terminal">DROP</text><rect width="84" height="32" x="111" y="3" rx="10"/><rect width="84" height="32" x="109" y="1" class="terminal" rx="10"/><text x="119" y="21" class="terminal">CLUSTER</text><rect width="80" height="32" x="215" y="3" rx="10"/><rect width="80" height="32" x="213" y="1" class="terminal" rx="10"/><text x="223" y="21" class="terminal">REPLICA</text><rect width="86" height="32" x="335" y="35" rx="10"/><rect width="86" height="32" x="333" y="33" class="terminal" rx="10"/><text x="343" y="53" class="terminal">IF EXISTS</text><rect width="198" height="32" x="237" y="101"/><rect width="198" height="32" x="235" y="99" class="nonterminal"/><text x="245" y="119" class="nonterminal">cluster_name.replica_name</text><path d="m17 17 h2 m0 0 h10 m60 0 h10 m0 0 h10 m84 0 h10 m0 0 h10 m80 0 h10 m20 0 h10 m0 0 h96 m-126 0 h20 m106 0 h20 m-146 0 q10 0 10 10 m126 0 q0 -10 10 -10 m-136 10 v12 m126 0 v-12 m-126 12 q0 10 10 10 m106 0 q10 0 10 -10 m-116 10 h10 m86 0 h10 m22 -32 l2 0 m2 0 l2 0 m2 0 l2 0 m-248 98 l2 0 m2 0 l2 0 m2 0 l2 0 m2 0 h10 m198 0 h10 m3 0 h-3" class="line"/><polygon points="453 115 461 111 461 119"/><polygon points="453 115 445 111 445 119"/></svg>