<svg xmlns="http://www.w3.org/2000/svg" width="459" height="199"><polygon points="9 17 1 13 1 21"/><polygon points="17 17 9 13 9 21"/><rect width="60" height="32" x="31" y="3" rx="10"/><rect width="60" height="32" x="29" y="1" class="terminal" rx="10"/><text x="39" y="21" class="terminal">DROP</text><rect width="62" height="32" x="111" y="3" rx="10"/><rect width="62" height="32" x="109" y="1" class="terminal" rx="10"/><text x="119" y="21" class="terminal">INDEX</text><rect width="86" height="32" x="213" y="35" rx="10"/><rect width="86" height="32" x="211" y="33" class="terminal" rx="10"/><text x="221" y="53" class="terminal">IF EXISTS</text><rect width="98" height="32" x="339" y="3"/><rect width="98" height="32" x="337" y="1" class="nonterminal"/><text x="347" y="21" class="nonterminal">index_name</text><rect width="90" height="32" x="321" y="121" rx="10"/><rect width="90" height="32" x="319" y="119" class="terminal" rx="10"/><text x="329" y="139" class="terminal">CASCADE</text><rect width="90" height="32" x="321" y="165" rx="10"/><rect width="90" height="32" x="319" y="163" class="terminal" rx="10"/><text x="329" y="183" class="terminal">RESTRICT</text><path d="m17 17 h2 m0 0 h10 m60 0 h10 m0 0 h10 m62 0 h10 m20 0 h10 m0 0 h96 m-126 0 h20 m106 0 h20 m-146 0 q10 0 10 10 m126 0 q0 -10 10 -10 m-136 10 v12 m126 0 v-12 m-126 12 q0 10 10 10 m106 0 q10 0 10 -10 m-116 10 h10 m86 0 h10 m20 -32 h10 m98 0 h10 m2 0 l2 0 m2 0 l2 0 m2 0 l2 0 m-180 86 l2 0 m2 0 l2 0 m2 0 l2 0 m22 0 h10 m0 0 h100 m-130 0 h20 m110 0 h20 m-150 0 q10 0 10 10 m130 0 q0 -10 10 -10 m-140 10 v12 m130 0 v-12 m-130 12 q0 10 10 10 m110 0 q10 0 10 -10 m-120 10 h10 m90 0 h10 m-120 -10 v20 m130 0 v-20 m-130 20 v24 m130 0 v-24 m-130 24 q0 10 10 10 m110 0 q10 0 10 -10 m-120 10 h10 m90 0 h10 m23 -76 h-3" class="line"/><polygon points="449 103 457 99 457 107"/><polygon points="449 103 441 99 441 107"/></svg>