<svg xmlns="http://www.w3.org/2000/svg" width="543" height="97"><polygon points="9 61 1 57 1 65"/><polygon points="17 61 9 57 9 65"/><rect width="86" height="32" x="31" y="47" rx="10"/><rect width="86" height="32" x="29" y="45" class="terminal" rx="10"/><text x="39" y="65" class="terminal">EXECUTE</text><rect width="56" height="32" x="137" y="47"/><rect width="56" height="32" x="135" y="45" class="nonterminal"/><text x="145" y="65" class="nonterminal">name</text><rect width="26" height="32" x="233" y="47" rx="10"/><rect width="26" height="32" x="231" y="45" class="terminal" rx="10"/><text x="241" y="65" class="terminal">(</text><rect width="130" height="32" x="299" y="47"/><rect width="130" height="32" x="297" y="45" class="nonterminal"/><text x="307" y="65" class="nonterminal">parameter_value</text><rect width="24" height="32" x="299" y="3" rx="10"/><rect width="24" height="32" x="297" y="1" class="terminal" rx="10"/><text x="307" y="21" class="terminal">,</text><rect width="26" height="32" x="469" y="47" rx="10"/><rect width="26" height="32" x="467" y="45" class="terminal" rx="10"/><text x="477" y="65" class="terminal">)</text><path d="m17 61 h2 m0 0 h10 m86 0 h10 m0 0 h10 m56 0 h10 m20 0 h10 m26 0 h10 m20 0 h10 m130 0 h10 m-170 0 l20 0 m-1 0 q-9 0 -9 -10 l0 -24 q0 -10 10 -10 m150 44 l20 0 m-20 0 q10 0 10 -10 l0 -24 q0 -10 -10 -10 m-150 0 h10 m24 0 h10 m0 0 h106 m20 44 h10 m26 0 h10 m-302 0 h20 m282 0 h20 m-322 0 q10 0 10 10 m302 0 q0 -10 10 -10 m-312 10 v14 m302 0 v-14 m-302 14 q0 10 10 10 m282 0 q10 0 10 -10 m-292 10 h10 m0 0 h272 m23 -34 h-3" class="line"/><polygon points="533 61 541 57 541 65"/><polygon points="533 61 525 57 525 65"/></svg>