<svg xmlns="http://www.w3.org/2000/svg" width="603" height="661"><polygon points="9 17 1 13 1 21"/><polygon points="17 17 9 13 9 21"/><rect width="80" height="32" x="31" y="3" rx="10"/><rect width="80" height="32" x="29" y="1" class="terminal" rx="10"/><text x="39" y="21" class="terminal">EXPLAIN</text><rect width="54" height="32" x="171" y="67" rx="10"/><rect width="54" height="32" x="169" y="65" class="terminal" rx="10"/><text x="179" y="85" class="terminal">RAW</text><rect width="134" height="32" x="171" y="111" rx="10"/><rect width="134" height="32" x="169" y="109" class="terminal" rx="10"/><text x="179" y="129" class="terminal">DECORRELATED</text><rect width="98" height="32" x="171" y="155" rx="10"/><rect width="98" height="32" x="169" y="153" class="terminal" rx="10"/><text x="179" y="173" class="terminal">OPTIMIZED</text><rect width="92" height="32" x="171" y="199" rx="10"/><rect width="92" height="32" x="169" y="197" class="terminal" rx="10"/><text x="179" y="217" class="terminal">PHYSICAL</text><rect width="58" height="32" x="345" y="35" rx="10"/><rect width="58" height="32" x="343" y="33" class="terminal" rx="10"/><text x="353" y="53" class="terminal">PLAN</text><rect width="68" height="32" x="45" y="309" rx="10"/><rect width="68" height="32" x="43" y="307" class="terminal" rx="10"/><text x="53" y="327" class="terminal">WITH (</text><rect width="124" height="32" x="153" y="309"/><rect width="124" height="32" x="151" y="307" class="nonterminal"/><text x="161" y="327" class="nonterminal">output_modifier</text><rect width="24" height="32" x="153" y="265" rx="10"/><rect width="24" height="32" x="151" y="263" class="terminal" rx="10"/><text x="161" y="283" class="terminal">,</text><rect width="26" height="32" x="317" y="309" rx="10"/><rect width="26" height="32" x="315" y="307" class="terminal" rx="10"/><text x="325" y="327" class="terminal">)</text><rect width="40" height="32" x="403" y="341" rx="10"/><rect width="40" height="32" x="401" y="339" class="terminal" rx="10"/><text x="411" y="359" class="terminal">AS</text><rect width="56" height="32" x="483" y="341" rx="10"/><rect width="56" height="32" x="481" y="339" class="terminal" rx="10"/><text x="491" y="359" class="terminal">TEXT</text><rect width="58" height="32" x="483" y="385" rx="10"/><rect width="58" height="32" x="481" y="383" class="terminal" rx="10"/><text x="491" y="403" class="terminal">JSON</text><rect width="48" height="32" x="169" y="483" rx="10"/><rect width="48" height="32" x="167" y="481" class="terminal" rx="10"/><text x="177" y="501" class="terminal">FOR</text><rect width="96" height="32" x="277" y="451"/><rect width="96" height="32" x="275" y="449" class="nonterminal"/><text x="285" y="469" class="nonterminal">select_stmt</text><rect width="104" height="32" x="277" y="495"/><rect width="104" height="32" x="275" y="493" class="nonterminal"/><text x="285" y="513" class="nonterminal">create_index</text><rect width="186" height="32" x="277" y="539"/><rect width="186" height="32" x="275" y="537" class="nonterminal"/><text x="285" y="557" class="nonterminal">create_materialized_view</text><rect width="62" height="32" x="277" y="583" rx="10"/><rect width="62" height="32" x="275" y="581" class="terminal" rx="10"/><text x="285" y="601" class="terminal">INDEX</text><rect width="98" height="32" x="359" y="583"/><rect width="98" height="32" x="357" y="581" class="nonterminal"/><text x="367" y="601" class="nonterminal">index_name</text><rect width="166" height="32" x="277" y="627" rx="10"/><rect width="166" height="32" x="275" y="625" class="terminal" rx="10"/><text x="285" y="645" class="terminal">MATERIALIZED VIEW</text><rect width="92" height="32" x="463" y="627"/><rect width="92" height="32" x="461" y="625" class="nonterminal"/><text x="471" y="645" class="nonterminal">view_name</text><path d="m17 17 h2 m0 0 h10 m80 0 h10 m20 0 h10 m0 0 h262 m-292 0 h20 m272 0 h20 m-312 0 q10 0 10 10 m292 0 q0 -10 10 -10 m-302 10 v12 m292 0 v-12 m-292 12 q0 10 10 10 m272 0 q10 0 10 -10 m-262 10 h10 m0 0 h144 m-174 0 h20 m154 0 h20 m-194 0 q10 0 10 10 m174 0 q0 -10 10 -10 m-184 10 v12 m174 0 v-12 m-174 12 q0 10 10 10 m154 0 q10 0 10 -10 m-164 10 h10 m54 0 h10 m0 0 h80 m-164 -10 v20 m174 0 v-20 m-174 20 v24 m174 0 v-24 m-174 24 q0 10 10 10 m154 0 q10 0 10 -10 m-164 10 h10 m134 0 h10 m-164 -10 v20 m174 0 v-20 m-174 20 v24 m174 0 v-24 m-174 24 q0 10 10 10 m154 0 q10 0 10 -10 m-164 10 h10 m98 0 h10 m0 0 h36 m-164 -10 v20 m174 0 v-20 m-174 20 v24 m174 0 v-24 m-174 24 q0 10 10 10 m154 0 q10 0 10 -10 m-164 10 h10 m92 0 h10 m0 0 h42 m20 -164 h10 m58 0 h10 m22 -32 l2 0 m2 0 l2 0 m2 0 l2 0 m-442 306 l2 0 m2 0 l2 0 m2 0 l2 0 m22 0 h10 m68 0 h10 m20 0 h10 m124 0 h10 m-164 0 l20 0 m-1 0 q-9 0 -9 -10 l0 -24 q0 -10 10 -10 m144 44 l20 0 m-20 0 q10 0 10 -10 l0 -24 q0 -10 -10 -10 m-144 0 h10 m24 0 h10 m0 0 h100 m20 44 h10 m26 0 h10 m-338 0 h20 m318 0 h20 m-358 0 q10 0 10 10 m338 0 q0 -10 10 -10 m-348 10 v14 m338 0 v-14 m-338 14 q0 10 10 10 m318 0 q10 0 10 -10 m-328 10 h10 m0 0 h308 m40 -34 h10 m0 0 h168 m-198 0 h20 m178 0 h20 m-218 0 q10 0 10 10 m198 0 q0 -10 10 -10 m-208 10 v12 m198 0 v-12 m-198 12 q0 10 10 10 m178 0 q10 0 10 -10 m-188 10 h10 m40 0 h10 m20 0 h10 m56 0 h10 m0 0 h2 m-98 0 h20 m78 0 h20 m-118 0 q10 0 10 10 m98 0 q0 -10 10 -10 m-108 10 v24 m98 0 v-24 m-98 24 q0 10 10 10 m78 0 q10 0 10 -10 m-88 10 h10 m58 0 h10 m42 -76 l2 0 m2 0 l2 0 m2 0 l2 0 m-476 142 l2 0 m2 0 l2 0 m2 0 l2 0 m22 0 h10 m0 0 h58 m-88 0 h20 m68 0 h20 m-108 0 q10 0 10 10 m88 0 q0 -10 10 -10 m-98 10 v12 m88 0 v-12 m-88 12 q0 10 10 10 m68 0 q10 0 10 -10 m-78 10 h10 m48 0 h10 m40 -32 h10 m96 0 h10 m0 0 h182 m-318 0 h20 m298 0 h20 m-338 0 q10 0 10 10 m318 0 q0 -10 10 -10 m-328 10 v24 m318 0 v-24 m-318 24 q0 10 10 10 m298 0 q10 0 10 -10 m-308 10 h10 m104 0 h10 m0 0 h174 m-308 -10 v20 m318 0 v-20 m-318 20 v24 m318 0 v-24 m-318 24 q0 10 10 10 m298 0 q10 0 10 -10 m-308 10 h10 m186 0 h10 m0 0 h92 m-308 -10 v20 m318 0 v-20 m-318 20 v24 m318 0 v-24 m-318 24 q0 10 10 10 m298 0 q10 0 10 -10 m-308 10 h10 m62 0 h10 m0 0 h10 m98 0 h10 m0 0 h98 m-308 -10 v20 m318 0 v-20 m-318 20 v24 m318 0 v-24 m-318 24 q0 10 10 10 m298 0 q10 0 10 -10 m-308 10 h10 m166 0 h10 m0 0 h10 m92 0 h10 m23 -176 h-3" class="line"/><polygon points="593 465 601 461 601 469"/><polygon points="593 465 585 461 585 469"/></svg>