<svg xmlns="http://www.w3.org/2000/svg" width="341" height="147"><polygon points="9 17 1 13 1 21"/><polygon points="17 17 9 13 9 21"/><rect width="220" height="32" x="31" y="3" rx="10"/><rect width="220" height="32" x="29" y="1" class="terminal" rx="10"/><text x="39" y="21" class="terminal">EXPLAIN FILTER PUSHDOWN</text><rect width="48" height="32" x="271" y="3" rx="10"/><rect width="48" height="32" x="269" y="1" class="terminal" rx="10"/><text x="279" y="21" class="terminal">FOR</text><rect width="96" height="32" x="51" y="69"/><rect width="96" height="32" x="49" y="67" class="nonterminal"/><text x="59" y="87" class="nonterminal">select_stmt</text><rect width="166" height="32" x="51" y="113" rx="10"/><rect width="166" height="32" x="49" y="111" class="terminal" rx="10"/><text x="59" y="131" class="terminal">MATERIALIZED VIEW</text><rect width="56" height="32" x="237" y="113"/><rect width="56" height="32" x="235" y="111" class="nonterminal"/><text x="245" y="131" class="nonterminal">name</text><path d="m17 17 h2 m0 0 h10 m220 0 h10 m0 0 h10 m48 0 h10 m2 0 l2 0 m2 0 l2 0 m2 0 l2 0 m-332 66 l2 0 m2 0 l2 0 m2 0 l2 0 m22 0 h10 m96 0 h10 m0 0 h146 m-282 0 h20 m262 0 h20 m-302 0 q10 0 10 10 m282 0 q0 -10 10 -10 m-292 10 v24 m282 0 v-24 m-282 24 q0 10 10 10 m262 0 q10 0 10 -10 m-272 10 h10 m166 0 h10 m0 0 h10 m56 0 h10 m23 -44 h-3" class="line"/><polygon points="331 83 339 79 339 87"/><polygon points="331 83 323 79 323 87"/></svg>