<svg xmlns="http://www.w3.org/2000/svg" width="573" height="179"><polygon points="9 17 1 13 1 21"/><polygon points="17 17 9 13 9 21"/><rect width="80" height="32" x="31" y="3" rx="10"/><rect width="80" height="32" x="29" y="1" class="terminal" rx="10"/><text x="39" y="21" class="terminal">EXPLAIN</text><rect width="48" height="32" x="151" y="3" rx="10"/><rect width="48" height="32" x="149" y="1" class="terminal" rx="10"/><text x="159" y="21" class="terminal">KEY</text><rect width="68" height="32" x="151" y="47" rx="10"/><rect width="68" height="32" x="149" y="45" class="terminal" rx="10"/><text x="159" y="65" class="terminal">VALUE</text><rect width="82" height="32" x="259" y="3" rx="10"/><rect width="82" height="32" x="257" y="1" class="terminal" rx="10"/><text x="267" y="21" class="terminal">SCHEMA</text><rect width="82" height="32" x="381" y="35" rx="10"/><rect width="82" height="32" x="379" y="33" class="terminal" rx="10"/><text x="389" y="53" class="terminal">AS JSON</text><rect width="48" height="32" x="503" y="3" rx="10"/><rect width="48" height="32" x="501" y="1" class="terminal" rx="10"/><text x="511" y="21" class="terminal">FOR</text><rect width="114" height="32" x="149" y="113" rx="10"/><rect width="114" height="32" x="147" y="111" class="terminal" rx="10"/><text x="157" y="131" class="terminal">CREATE SINK</text><rect width="88" height="32" x="303" y="145"/><rect width="88" height="32" x="301" y="143" class="nonterminal"/><text x="311" y="163" class="nonterminal">sink_name</text><rect width="114" height="32" x="431" y="113"/><rect width="114" height="32" x="429" y="111" class="nonterminal"/><text x="439" y="131" class="nonterminal">sink_definition</text><path d="m17 17 h2 m0 0 h10 m80 0 h10 m20 0 h10 m48 0 h10 m0 0 h20 m-108 0 h20 m88 0 h20 m-128 0 q10 0 10 10 m108 0 q0 -10 10 -10 m-118 10 v24 m108 0 v-24 m-108 24 q0 10 10 10 m88 0 q10 0 10 -10 m-98 10 h10 m68 0 h10 m20 -44 h10 m82 0 h10 m20 0 h10 m0 0 h92 m-122 0 h20 m102 0 h20 m-142 0 q10 0 10 10 m122 0 q0 -10 10 -10 m-132 10 v12 m122 0 v-12 m-122 12 q0 10 10 10 m102 0 q10 0 10 -10 m-112 10 h10 m82 0 h10 m20 -32 h10 m48 0 h10 m2 0 l2 0 m2 0 l2 0 m2 0 l2 0 m-446 110 l2 0 m2 0 l2 0 m2 0 l2 0 m2 0 h10 m114 0 h10 m20 0 h10 m0 0 h98 m-128 0 h20 m108 0 h20 m-148 0 q10 0 10 10 m128 0 q0 -10 10 -10 m-138 10 v12 m128 0 v-12 m-128 12 q0 10 10 10 m108 0 q10 0 10 -10 m-118 10 h10 m88 0 h10 m20 -32 h10 m114 0 h10 m3 0 h-3" class="line"/><polygon points="563 127 571 123 571 131"/><polygon points="563 127 555 123 555 131"/></svg>