<svg xmlns="http://www.w3.org/2000/svg" width="399" height="37"><polygon points="9 17 1 13 1 21"/><polygon points="17 17 9 13 9 21"/><rect width="60" height="32" x="31" y="3" rx="10"/><rect width="60" height="32" x="29" y="1" class="terminal" rx="10"/><text x="39" y="21" class="terminal">CAST</text><rect width="26" height="32" x="111" y="3" rx="10"/><rect width="26" height="32" x="109" y="1" class="terminal" rx="10"/><text x="119" y="21" class="terminal">(</text><rect width="38" height="32" x="157" y="3"/><rect width="38" height="32" x="155" y="1" class="nonterminal"/><text x="165" y="21" class="nonterminal">val</text><rect width="40" height="32" x="215" y="3" rx="10"/><rect width="40" height="32" x="213" y="1" class="terminal" rx="10"/><text x="223" y="21" class="terminal">AS</text><rect width="50" height="32" x="275" y="3"/><rect width="50" height="32" x="273" y="1" class="nonterminal"/><text x="283" y="21" class="nonterminal">type</text><rect width="26" height="32" x="345" y="3" rx="10"/><rect width="26" height="32" x="343" y="1" class="terminal" rx="10"/><text x="353" y="21" class="terminal">)</text><path d="m17 17 h2 m0 0 h10 m60 0 h10 m0 0 h10 m26 0 h10 m0 0 h10 m38 0 h10 m0 0 h10 m40 0 h10 m0 0 h10 m50 0 h10 m0 0 h10 m26 0 h10 m3 0 h-3" class="line"/><polygon points="389 17 397 13 397 21"/><polygon points="389 17 381 13 381 21"/></svg>