<svg xmlns="http://www.w3.org/2000/svg" width="593" height="147"><polygon points="9 17 1 13 1 21"/><polygon points="17 17 9 13 9 21"/><rect width="94" height="32" x="31" y="3" rx="10"/><rect width="94" height="32" x="29" y="1" class="terminal" rx="10"/><text x="39" y="21" class="terminal">TIMEZONE</text><rect width="26" height="32" x="145" y="3" rx="10"/><rect width="26" height="32" x="143" y="1" class="terminal" rx="10"/><text x="153" y="21" class="terminal">(</text><rect width="52" height="32" x="191" y="3"/><rect width="52" height="32" x="189" y="1" class="nonterminal"/><text x="199" y="21" class="nonterminal">zone</text><rect width="28" height="32" x="263" y="3" rx="10"/><rect width="28" height="32" x="261" y="1" class="terminal" rx="10"/><text x="271" y="21" class="terminal">::</text><rect width="50" height="32" x="311" y="3"/><rect width="50" height="32" x="309" y="1" class="nonterminal"/><text x="319" y="21" class="nonterminal">type</text><rect width="24" height="32" x="381" y="3" rx="10"/><rect width="24" height="32" x="379" y="1" class="terminal" rx="10"/><text x="389" y="21" class="terminal">,</text><rect width="94" height="32" x="445" y="3" rx="10"/><rect width="94" height="32" x="443" y="1" class="terminal" rx="10"/><text x="453" y="21" class="terminal">timestamp</text><rect width="106" height="32" x="445" y="47" rx="10"/><rect width="106" height="32" x="443" y="45" class="terminal" rx="10"/><text x="453" y="65" class="terminal">timestamptz</text><rect width="26" height="32" x="539" y="113" rx="10"/><rect width="26" height="32" x="537" y="111" class="terminal" rx="10"/><text x="547" y="131" class="terminal">)</text><path d="m17 17 h2 m0 0 h10 m94 0 h10 m0 0 h10 m26 0 h10 m0 0 h10 m52 0 h10 m0 0 h10 m28 0 h10 m0 0 h10 m50 0 h10 m0 0 h10 m24 0 h10 m20 0 h10 m94 0 h10 m0 0 h12 m-146 0 h20 m126 0 h20 m-166 0 q10 0 10 10 m146 0 q0 -10 10 -10 m-156 10 v24 m146 0 v-24 m-146 24 q0 10 10 10 m126 0 q10 0 10 -10 m-136 10 h10 m106 0 h10 m22 -44 l2 0 m2 0 l2 0 m2 0 l2 0 m-76 110 l2 0 m2 0 l2 0 m2 0 l2 0 m2 0 h10 m26 0 h10 m3 0 h-3" class="line"/><polygon points="583 127 591 123 591 131"/><polygon points="583 127 575 123 575 131"/></svg>