<svg xmlns="http://www.w3.org/2000/svg" width="477" height="147"><polygon points="9 17 1 13 1 21"/><polygon points="17 17 9 13 9 21"/><rect width="74" height="32" x="31" y="3" rx="10"/><rect width="74" height="32" x="29" y="1" class="terminal" rx="10"/><text x="39" y="21" class="terminal">SELECT</text><rect width="106" height="32" x="145" y="3" rx="10"/><rect width="106" height="32" x="143" y="1" class="terminal" rx="10"/><text x="153" y="21" class="terminal">TIMESTAMP</text><rect width="124" height="32" x="145" y="47" rx="10"/><rect width="124" height="32" x="143" y="45" class="terminal" rx="10"/><text x="153" y="65" class="terminal">TIMESTAMPTZ</text><rect width="94" height="32" x="329" y="3" rx="10"/><rect width="94" height="32" x="327" y="1" class="terminal" rx="10"/><text x="337" y="21" class="terminal">timestamp</text><rect width="106" height="32" x="329" y="47" rx="10"/><rect width="106" height="32" x="327" y="45" class="terminal" rx="10"/><text x="337" y="65" class="terminal">timestamptz</text><rect width="122" height="32" x="215" y="113" rx="10"/><rect width="122" height="32" x="213" y="111" class="terminal" rx="10"/><text x="223" y="131" class="terminal">AT TIME ZONE</text><rect width="92" height="32" x="357" y="113" rx="10"/><rect width="92" height="32" x="355" y="111" class="terminal" rx="10"/><text x="365" y="131" class="terminal">zone::type</text><path d="m17 17 h2 m0 0 h10 m74 0 h10 m20 0 h10 m106 0 h10 m0 0 h18 m-164 0 h20 m144 0 h20 m-184 0 q10 0 10 10 m164 0 q0 -10 10 -10 m-174 10 v24 m164 0 v-24 m-164 24 q0 10 10 10 m144 0 q10 0 10 -10 m-154 10 h10 m124 0 h10 m40 -44 h10 m94 0 h10 m0 0 h12 m-146 0 h20 m126 0 h20 m-166 0 q10 0 10 10 m146 0 q0 -10 10 -10 m-156 10 v24 m146 0 v-24 m-146 24 q0 10 10 10 m126 0 q10 0 10 -10 m-136 10 h10 m106 0 h10 m22 -44 l2 0 m2 0 l2 0 m2 0 l2 0 m-284 110 l2 0 m2 0 l2 0 m2 0 l2 0 m2 0 h10 m122 0 h10 m0 0 h10 m92 0 h10 m3 0 h-3" class="line"/><polygon points="467 127 475 123 475 131"/><polygon points="467 127 459 123 459 131"/></svg>