<svg xmlns="http://www.w3.org/2000/svg" width="349" height="37"><polygon points="9 17 1 13 1 21"/><polygon points="17 17 9 13 9 21"/><rect width="110" height="32" x="31" y="3" rx="10"/><rect width="110" height="32" x="29" y="1" class="terminal" rx="10"/><text x="39" y="21" class="terminal">justify_hours</text><rect width="26" height="32" x="161" y="3" rx="10"/><rect width="26" height="32" x="159" y="1" class="terminal" rx="10"/><text x="169" y="21" class="terminal">(</text><rect width="68" height="32" x="207" y="3"/><rect width="68" height="32" x="205" y="1" class="nonterminal"/><text x="215" y="21" class="nonterminal">interval</text><rect width="26" height="32" x="295" y="3" rx="10"/><rect width="26" height="32" x="293" y="1" class="terminal" rx="10"/><text x="303" y="21" class="terminal">)</text><path d="m17 17 h2 m0 0 h10 m110 0 h10 m0 0 h10 m26 0 h10 m0 0 h10 m68 0 h10 m0 0 h10 m26 0 h10 m3 0 h-3" class="line"/><polygon points="339 17 347 13 347 21"/><polygon points="339 17 331 13 331 21"/></svg>