<svg xmlns="http://www.w3.org/2000/svg" width="501" height="69"><polygon points="9 17 1 13 1 21"/><polygon points="17 17 9 13 9 21"/><rect width="64" height="32" x="31" y="3" rx="10"/><rect width="64" height="32" x="29" y="1" class="terminal" rx="10"/><text x="39" y="21" class="terminal">length</text><rect width="26" height="32" x="115" y="3" rx="10"/><rect width="26" height="32" x="113" y="1" class="terminal" rx="10"/><text x="123" y="21" class="terminal">(</text><rect width="38" height="32" x="161" y="3"/><rect width="38" height="32" x="159" y="1" class="nonterminal"/><text x="169" y="21" class="nonterminal">str</text><rect width="24" height="32" x="239" y="35" rx="10"/><rect width="24" height="32" x="237" y="33" class="terminal" rx="10"/><text x="247" y="53" class="terminal">,</text><rect width="124" height="32" x="283" y="35"/><rect width="124" height="32" x="281" y="33" class="nonterminal"/><text x="291" y="53" class="nonterminal">encoding_name</text><rect width="26" height="32" x="447" y="3" rx="10"/><rect width="26" height="32" x="445" y="1" class="terminal" rx="10"/><text x="455" y="21" class="terminal">)</text><path d="m17 17 h2 m0 0 h10 m64 0 h10 m0 0 h10 m26 0 h10 m0 0 h10 m38 0 h10 m20 0 h10 m0 0 h178 m-208 0 h20 m188 0 h20 m-228 0 q10 0 10 10 m208 0 q0 -10 10 -10 m-218 10 v12 m208 0 v-12 m-208 12 q0 10 10 10 m188 0 q10 0 10 -10 m-198 10 h10 m24 0 h10 m0 0 h10 m124 0 h10 m20 -32 h10 m26 0 h10 m3 0 h-3" class="line"/><polygon points="491 17 499 13 499 21"/><polygon points="491 17 483 13 483 21"/></svg>