<svg xmlns="http://www.w3.org/2000/svg" width="541" height="807"><polygon points="9 17 1 13 1 21"/><polygon points="17 17 9 13 9 21"/><rect width="86" height="32" x="31" y="3" rx="10"/><rect width="86" height="32" x="29" y="1" class="terminal" rx="10"/><text x="39" y="21" class="terminal">date_part</text><rect width="26" height="32" x="137" y="3" rx="10"/><rect width="26" height="32" x="135" y="1" class="terminal" rx="10"/><text x="145" y="21" class="terminal">(</text><rect width="22" height="32" x="183" y="3" rx="10"/><rect width="22" height="32" x="181" y="1" class="terminal" rx="10"/><text x="191" y="21" class="terminal">&apos;</text><rect width="62" height="32" x="245" y="3" rx="10"/><rect width="62" height="32" x="243" y="1" class="terminal" rx="10"/><text x="253" y="21" class="terminal">epoch</text><rect width="94" height="32" x="245" y="47" rx="10"/><rect width="94" height="32" x="243" y="45" class="terminal" rx="10"/><text x="253" y="65" class="terminal">millennium</text><rect width="74" height="32" x="245" y="91" rx="10"/><rect width="74" height="32" x="243" y="89" class="terminal" rx="10"/><text x="253" y="109" class="terminal">century</text><rect width="70" height="32" x="245" y="135" rx="10"/><rect width="70" height="32" x="243" y="133" class="terminal" rx="10"/><text x="253" y="153" class="terminal">decade</text><rect width="50" height="32" x="245" y="179" rx="10"/><rect width="50" height="32" x="243" y="177" class="terminal" rx="10"/><text x="253" y="197" class="terminal">year</text><rect width="70" height="32" x="245" y="223" rx="10"/><rect width="70" height="32" x="243" y="221" class="terminal" rx="10"/><text x="253" y="241" class="terminal">quarter</text><rect width="64" height="32" x="245" y="267" rx="10"/><rect width="64" height="32" x="243" y="265" class="terminal" rx="10"/><text x="253" y="285" class="terminal">month</text><rect width="56" height="32" x="245" y="311" rx="10"/><rect width="56" height="32" x="243" y="309" class="terminal" rx="10"/><text x="253" y="329" class="terminal">week</text><rect width="42" height="32" x="245" y="355" rx="10"/><rect width="42" height="32" x="243" y="353" class="terminal" rx="10"/><text x="253" y="373" class="terminal">dat</text><rect width="52" height="32" x="245" y="399" rx="10"/><rect width="52" height="32" x="243" y="397" class="terminal" rx="10"/><text x="253" y="417" class="terminal">hour</text><rect width="68" height="32" x="245" y="443" rx="10"/><rect width="68" height="32" x="243" y="441" class="terminal" rx="10"/><text x="253" y="461" class="terminal">minute</text><rect width="70" height="32" x="245" y="487" rx="10"/><rect width="70" height="32" x="243" y="485" class="terminal" rx="10"/><text x="253" y="505" class="terminal">second</text><rect width="110" height="32" x="245" y="531" rx="10"/><rect width="110" height="32" x="243" y="529" class="terminal" rx="10"/><text x="253" y="549" class="terminal">microsecond</text><rect width="98" height="32" x="245" y="575" rx="10"/><rect width="98" height="32" x="243" y="573" class="terminal" rx="10"/><text x="253" y="593" class="terminal">millisecond</text><rect width="48" height="32" x="245" y="619" rx="10"/><rect width="48" height="32" x="243" y="617" class="terminal" rx="10"/><text x="253" y="637" class="terminal">dow</text><rect width="70" height="32" x="245" y="663" rx="10"/><rect width="70" height="32" x="243" y="661" class="terminal" rx="10"/><text x="253" y="681" class="terminal">isodow</text><rect width="46" height="32" x="245" y="707" rx="10"/><rect width="46" height="32" x="243" y="705" class="terminal" rx="10"/><text x="253" y="725" class="terminal">doy</text><rect width="22" height="32" x="395" y="3" rx="10"/><rect width="22" height="32" x="393" y="1" class="terminal" rx="10"/><text x="403" y="21" class="terminal">&apos;</text><rect width="24" height="32" x="437" y="3" rx="10"/><rect width="24" height="32" x="435" y="1" class="terminal" rx="10"/><text x="445" y="21" class="terminal">,</text><rect width="38" height="32" x="481" y="3"/><rect width="38" height="32" x="479" y="1" class="nonterminal"/><text x="489" y="21" class="nonterminal">val</text><rect width="26" height="32" x="487" y="773" rx="10"/><rect width="26" height="32" x="485" y="771" class="terminal" rx="10"/><text x="495" y="791" class="terminal">)</text><path d="m17 17 h2 m0 0 h10 m86 0 h10 m0 0 h10 m26 0 h10 m0 0 h10 m22 0 h10 m20 0 h10 m62 0 h10 m0 0 h48 m-150 0 h20 m130 0 h20 m-170 0 q10 0 10 10 m150 0 q0 -10 10 -10 m-160 10 v24 m150 0 v-24 m-150 24 q0 10 10 10 m130 0 q10 0 10 -10 m-140 10 h10 m94 0 h10 m0 0 h16 m-140 -10 v20 m150 0 v-20 m-150 20 v24 m150 0 v-24 m-150 24 q0 10 10 10 m130 0 q10 0 10 -10 m-140 10 h10 m74 0 h10 m0 0 h36 m-140 -10 v20 m150 0 v-20 m-150 20 v24 m150 0 v-24 m-150 24 q0 10 10 10 m130 0 q10 0 10 -10 m-140 10 h10 m70 0 h10 m0 0 h40 m-140 -10 v20 m150 0 v-20 m-150 20 v24 m150 0 v-24 m-150 24 q0 10 10 10 m130 0 q10 0 10 -10 m-140 10 h10 m50 0 h10 m0 0 h60 m-140 -10 v20 m150 0 v-20 m-150 20 v24 m150 0 v-24 m-150 24 q0 10 10 10 m130 0 q10 0 10 -10 m-140 10 h10 m70 0 h10 m0 0 h40 m-140 -10 v20 m150 0 v-20 m-150 20 v24 m150 0 v-24 m-150 24 q0 10 10 10 m130 0 q10 0 10 -10 m-140 10 h10 m64 0 h10 m0 0 h46 m-140 -10 v20 m150 0 v-20 m-150 20 v24 m150 0 v-24 m-150 24 q0 10 10 10 m130 0 q10 0 10 -10 m-140 10 h10 m56 0 h10 m0 0 h54 m-140 -10 v20 m150 0 v-20 m-150 20 v24 m150 0 v-24 m-150 24 q0 10 10 10 m130 0 q10 0 10 -10 m-140 10 h10 m42 0 h10 m0 0 h68 m-140 -10 v20 m150 0 v-20 m-150 20 v24 m150 0 v-24 m-150 24 q0 10 10 10 m130 0 q10 0 10 -10 m-140 10 h10 m52 0 h10 m0 0 h58 m-140 -10 v20 m150 0 v-20 m-150 20 v24 m150 0 v-24 m-150 24 q0 10 10 10 m130 0 q10 0 10 -10 m-140 10 h10 m68 0 h10 m0 0 h42 m-140 -10 v20 m150 0 v-20 m-150 20 v24 m150 0 v-24 m-150 24 q0 10 10 10 m130 0 q10 0 10 -10 m-140 10 h10 m70 0 h10 m0 0 h40 m-140 -10 v20 m150 0 v-20 m-150 20 v24 m150 0 v-24 m-150 24 q0 10 10 10 m130 0 q10 0 10 -10 m-140 10 h10 m110 0 h10 m-140 -10 v20 m150 0 v-20 m-150 20 v24 m150 0 v-24 m-150 24 q0 10 10 10 m130 0 q10 0 10 -10 m-140 10 h10 m98 0 h10 m0 0 h12 m-140 -10 v20 m150 0 v-20 m-150 20 v24 m150 0 v-24 m-150 24 q0 10 10 10 m130 0 q10 0 10 -10 m-140 10 h10 m48 0 h10 m0 0 h62 m-140 -10 v20 m150 0 v-20 m-150 20 v24 m150 0 v-24 m-150 24 q0 10 10 10 m130 0 q10 0 10 -10 m-140 10 h10 m70 0 h10 m0 0 h40 m-140 -10 v20 m150 0 v-20 m-150 20 v24 m150 0 v-24 m-150 24 q0 10 10 10 m130 0 q10 0 10 -10 m-140 10 h10 m46 0 h10 m0 0 h64 m20 -704 h10 m22 0 h10 m0 0 h10 m24 0 h10 m0 0 h10 m38 0 h10 m2 0 l2 0 m2 0 l2 0 m2 0 l2 0 m-76 770 l2 0 m2 0 l2 0 m2 0 l2 0 m2 0 h10 m26 0 h10 m3 0 h-3" class="line"/><polygon points="531 787 539 783 539 791"/><polygon points="531 787 523 783 523 791"/></svg>