<svg xmlns="http://www.w3.org/2000/svg" width="557" height="631"><polygon points="9 17 1 13 1 21"/><polygon points="17 17 9 13 9 21"/><rect width="94" height="32" x="31" y="3" rx="10"/><rect width="94" height="32" x="29" y="1" class="terminal" rx="10"/><text x="39" y="21" class="terminal">date_trunc</text><rect width="26" height="32" x="145" y="3" rx="10"/><rect width="26" height="32" x="143" y="1" class="terminal" rx="10"/><text x="153" y="21" class="terminal">(</text><rect width="22" height="32" x="191" y="3" rx="10"/><rect width="22" height="32" x="189" y="1" class="terminal" rx="10"/><text x="199" y="21" class="terminal">&apos;</text><rect width="118" height="32" x="253" y="3" rx="10"/><rect width="118" height="32" x="251" y="1" class="terminal" rx="10"/><text x="261" y="21" class="terminal">microseconds</text><rect width="106" height="32" x="253" y="47" rx="10"/><rect width="106" height="32" x="251" y="45" class="terminal" rx="10"/><text x="261" y="65" class="terminal">milliseconds</text><rect width="70" height="32" x="253" y="91" rx="10"/><rect width="70" height="32" x="251" y="89" class="terminal" rx="10"/><text x="261" y="109" class="terminal">second</text><rect width="68" height="32" x="253" y="135" rx="10"/><rect width="68" height="32" x="251" y="133" class="terminal" rx="10"/><text x="261" y="153" class="terminal">minute</text><rect width="52" height="32" x="253" y="179" rx="10"/><rect width="52" height="32" x="251" y="177" class="terminal" rx="10"/><text x="261" y="197" class="terminal">hour</text><rect width="44" height="32" x="253" y="223" rx="10"/><rect width="44" height="32" x="251" y="221" class="terminal" rx="10"/><text x="261" y="241" class="terminal">day</text><rect width="56" height="32" x="253" y="267" rx="10"/><rect width="56" height="32" x="251" y="265" class="terminal" rx="10"/><text x="261" y="285" class="terminal">week</text><rect width="64" height="32" x="253" y="311" rx="10"/><rect width="64" height="32" x="251" y="309" class="terminal" rx="10"/><text x="261" y="329" class="terminal">month</text><rect width="70" height="32" x="253" y="355" rx="10"/><rect width="70" height="32" x="251" y="353" class="terminal" rx="10"/><text x="261" y="373" class="terminal">quarter</text><rect width="50" height="32" x="253" y="399" rx="10"/><rect width="50" height="32" x="251" y="397" class="terminal" rx="10"/><text x="261" y="417" class="terminal">year</text><rect width="70" height="32" x="253" y="443" rx="10"/><rect width="70" height="32" x="251" y="441" class="terminal" rx="10"/><text x="261" y="461" class="terminal">decade</text><rect width="74" height="32" x="253" y="487" rx="10"/><rect width="74" height="32" x="251" y="485" class="terminal" rx="10"/><text x="261" y="505" class="terminal">century</text><rect width="86" height="32" x="253" y="531" rx="10"/><rect width="86" height="32" x="251" y="529" class="terminal" rx="10"/><text x="261" y="549" class="terminal">millenium</text><rect width="22" height="32" x="411" y="3" rx="10"/><rect width="22" height="32" x="409" y="1" class="terminal" rx="10"/><text x="419" y="21" class="terminal">&apos;</text><rect width="24" height="32" x="453" y="3" rx="10"/><rect width="24" height="32" x="451" y="1" class="terminal" rx="10"/><text x="461" y="21" class="terminal">,</text><rect width="38" height="32" x="497" y="3"/><rect width="38" height="32" x="495" y="1" class="nonterminal"/><text x="505" y="21" class="nonterminal">val</text><rect width="26" height="32" x="503" y="597" rx="10"/><rect width="26" height="32" x="501" y="595" class="terminal" rx="10"/><text x="511" y="615" class="terminal">)</text><path d="m17 17 h2 m0 0 h10 m94 0 h10 m0 0 h10 m26 0 h10 m0 0 h10 m22 0 h10 m20 0 h10 m118 0 h10 m-158 0 h20 m138 0 h20 m-178 0 q10 0 10 10 m158 0 q0 -10 10 -10 m-168 10 v24 m158 0 v-24 m-158 24 q0 10 10 10 m138 0 q10 0 10 -10 m-148 10 h10 m106 0 h10 m0 0 h12 m-148 -10 v20 m158 0 v-20 m-158 20 v24 m158 0 v-24 m-158 24 q0 10 10 10 m138 0 q10 0 10 -10 m-148 10 h10 m70 0 h10 m0 0 h48 m-148 -10 v20 m158 0 v-20 m-158 20 v24 m158 0 v-24 m-158 24 q0 10 10 10 m138 0 q10 0 10 -10 m-148 10 h10 m68 0 h10 m0 0 h50 m-148 -10 v20 m158 0 v-20 m-158 20 v24 m158 0 v-24 m-158 24 q0 10 10 10 m138 0 q10 0 10 -10 m-148 10 h10 m52 0 h10 m0 0 h66 m-148 -10 v20 m158 0 v-20 m-158 20 v24 m158 0 v-24 m-158 24 q0 10 10 10 m138 0 q10 0 10 -10 m-148 10 h10 m44 0 h10 m0 0 h74 m-148 -10 v20 m158 0 v-20 m-158 20 v24 m158 0 v-24 m-158 24 q0 10 10 10 m138 0 q10 0 10 -10 m-148 10 h10 m56 0 h10 m0 0 h62 m-148 -10 v20 m158 0 v-20 m-158 20 v24 m158 0 v-24 m-158 24 q0 10 10 10 m138 0 q10 0 10 -10 m-148 10 h10 m64 0 h10 m0 0 h54 m-148 -10 v20 m158 0 v-20 m-158 20 v24 m158 0 v-24 m-158 24 q0 10 10 10 m138 0 q10 0 10 -10 m-148 10 h10 m70 0 h10 m0 0 h48 m-148 -10 v20 m158 0 v-20 m-158 20 v24 m158 0 v-24 m-158 24 q0 10 10 10 m138 0 q10 0 10 -10 m-148 10 h10 m50 0 h10 m0 0 h68 m-148 -10 v20 m158 0 v-20 m-158 20 v24 m158 0 v-24 m-158 24 q0 10 10 10 m138 0 q10 0 10 -10 m-148 10 h10 m70 0 h10 m0 0 h48 m-148 -10 v20 m158 0 v-20 m-158 20 v24 m158 0 v-24 m-158 24 q0 10 10 10 m138 0 q10 0 10 -10 m-148 10 h10 m74 0 h10 m0 0 h44 m-148 -10 v20 m158 0 v-20 m-158 20 v24 m158 0 v-24 m-158 24 q0 10 10 10 m138 0 q10 0 10 -10 m-148 10 h10 m86 0 h10 m0 0 h32 m20 -528 h10 m22 0 h10 m0 0 h10 m24 0 h10 m0 0 h10 m38 0 h10 m2 0 l2 0 m2 0 l2 0 m2 0 l2 0 m-76 594 l2 0 m2 0 l2 0 m2 0 l2 0 m2 0 h10 m26 0 h10 m3 0 h-3" class="line"/><polygon points="547 611 555 607 555 615"/><polygon points="547 611 539 607 539 615"/></svg>