<svg xmlns="http://www.w3.org/2000/svg" width="553" height="135"><polygon points="9 17 1 13 1 21"/><polygon points="17 17 9 13 9 21"/><rect width="142" height="32" x="31" y="3" rx="10"/><rect width="142" height="32" x="29" y="1" class="terminal" rx="10"/><text x="39" y="21" class="terminal">date_bin_hopping</text><rect width="26" height="32" x="193" y="3" rx="10"/><rect width="26" height="32" x="191" y="1" class="terminal" rx="10"/><text x="201" y="21" class="terminal">(</text><rect width="44" height="32" x="239" y="3"/><rect width="44" height="32" x="237" y="1" class="nonterminal"/><text x="247" y="21" class="nonterminal">hop</text><rect width="24" height="32" x="303" y="3" rx="10"/><rect width="24" height="32" x="301" y="1" class="terminal" rx="10"/><text x="311" y="21" class="terminal">,</text><rect width="56" height="32" x="347" y="3"/><rect width="56" height="32" x="345" y="1" class="nonterminal"/><text x="355" y="21" class="nonterminal">width</text><rect width="24" height="32" x="423" y="3" rx="10"/><rect width="24" height="32" x="421" y="1" class="terminal" rx="10"/><text x="431" y="21" class="terminal">,</text><rect width="64" height="32" x="467" y="3"/><rect width="64" height="32" x="465" y="1" class="nonterminal"/><text x="475" y="21" class="nonterminal">source</text><rect width="24" height="32" x="359" y="101" rx="10"/><rect width="24" height="32" x="357" y="99" class="terminal" rx="10"/><text x="367" y="119" class="terminal">,</text><rect width="56" height="32" x="403" y="101"/><rect width="56" height="32" x="401" y="99" class="nonterminal"/><text x="411" y="119" class="nonterminal">origin</text><rect width="26" height="32" x="499" y="69" rx="10"/><rect width="26" height="32" x="497" y="67" class="terminal" rx="10"/><text x="507" y="87" class="terminal">)</text><path d="m17 17 h2 m0 0 h10 m142 0 h10 m0 0 h10 m26 0 h10 m0 0 h10 m44 0 h10 m0 0 h10 m24 0 h10 m0 0 h10 m56 0 h10 m0 0 h10 m24 0 h10 m0 0 h10 m64 0 h10 m2 0 l2 0 m2 0 l2 0 m2 0 l2 0 m-236 66 l2 0 m2 0 l2 0 m2 0 l2 0 m22 0 h10 m0 0 h110 m-140 0 h20 m120 0 h20 m-160 0 q10 0 10 10 m140 0 q0 -10 10 -10 m-150 10 v12 m140 0 v-12 m-140 12 q0 10 10 10 m120 0 q10 0 10 -10 m-130 10 h10 m24 0 h10 m0 0 h10 m56 0 h10 m20 -32 h10 m26 0 h10 m3 0 h-3" class="line"/><polygon points="543 83 551 79 551 87"/><polygon points="543 83 535 79 535 87"/></svg>