<svg xmlns="http://www.w3.org/2000/svg" width="341" height="37"><polygon points="9 17 1 13 1 21"/><polygon points="17 17 9 13 9 21"/><rect width="102" height="32" x="31" y="3" rx="10"/><rect width="102" height="32" x="29" y="1" class="terminal" rx="10"/><text x="39" y="21" class="terminal">justify_days</text><rect width="26" height="32" x="153" y="3" rx="10"/><rect width="26" height="32" x="151" y="1" class="terminal" rx="10"/><text x="161" y="21" class="terminal">(</text><rect width="68" height="32" x="199" y="3"/><rect width="68" height="32" x="197" y="1" class="nonterminal"/><text x="207" y="21" class="nonterminal">interval</text><rect width="26" height="32" x="287" y="3" rx="10"/><rect width="26" height="32" x="285" y="1" class="terminal" rx="10"/><text x="295" y="21" class="terminal">)</text><path d="m17 17 h2 m0 0 h10 m102 0 h10 m0 0 h10 m26 0 h10 m0 0 h10 m68 0 h10 m0 0 h10 m26 0 h10 m3 0 h-3" class="line"/><polygon points="331 17 339 13 339 21"/><polygon points="331 17 323 13 323 21"/></svg>