<svg xmlns="http://www.w3.org/2000/svg" width="583" height="69"><polygon points="9 17 1 13 1 21"/><polygon points="17 17 9 13 9 21"/><rect width="86" height="32" x="31" y="3" rx="10"/><rect width="86" height="32" x="29" y="1" class="terminal" rx="10"/><text x="39" y="21" class="terminal">substring</text><rect width="26" height="32" x="137" y="3" rx="10"/><rect width="26" height="32" x="135" y="1" class="terminal" rx="10"/><text x="145" y="21" class="terminal">(</text><rect width="38" height="32" x="183" y="3"/><rect width="38" height="32" x="181" y="1" class="nonterminal"/><text x="191" y="21" class="nonterminal">str</text><rect width="24" height="32" x="241" y="3" rx="10"/><rect width="24" height="32" x="239" y="1" class="terminal" rx="10"/><text x="249" y="21" class="terminal">,</text><rect width="80" height="32" x="285" y="3"/><rect width="80" height="32" x="283" y="1" class="nonterminal"/><text x="293" y="21" class="nonterminal">start_pos</text><rect width="24" height="32" x="405" y="35" rx="10"/><rect width="24" height="32" x="403" y="33" class="terminal" rx="10"/><text x="413" y="53" class="terminal">,</text><rect width="40" height="32" x="449" y="35"/><rect width="40" height="32" x="447" y="33" class="nonterminal"/><text x="457" y="53" class="nonterminal">len</text><rect width="26" height="32" x="529" y="3" rx="10"/><rect width="26" height="32" x="527" y="1" class="terminal" rx="10"/><text x="537" y="21" class="terminal">)</text><path d="m17 17 h2 m0 0 h10 m86 0 h10 m0 0 h10 m26 0 h10 m0 0 h10 m38 0 h10 m0 0 h10 m24 0 h10 m0 0 h10 m80 0 h10 m20 0 h10 m0 0 h94 m-124 0 h20 m104 0 h20 m-144 0 q10 0 10 10 m124 0 q0 -10 10 -10 m-134 10 v12 m124 0 v-12 m-124 12 q0 10 10 10 m104 0 q10 0 10 -10 m-114 10 h10 m24 0 h10 m0 0 h10 m40 0 h10 m20 -32 h10 m26 0 h10 m3 0 h-3" class="line"/><polygon points="573 17 581 13 581 21"/><polygon points="573 17 565 13 565 21"/></svg>