<svg xmlns="http://www.w3.org/2000/svg" width="555" height="37"><polygon points="9 17 1 13 1 21"/><polygon points="17 17 9 13 9 21"/><rect width="78" height="32" x="31" y="3" rx="10"/><rect width="78" height="32" x="29" y="1" class="terminal" rx="10"/><text x="39" y="21" class="terminal">date_bin</text><rect width="26" height="32" x="129" y="3" rx="10"/><rect width="26" height="32" x="127" y="1" class="terminal" rx="10"/><text x="137" y="21" class="terminal">(</text><rect width="58" height="32" x="175" y="3"/><rect width="58" height="32" x="173" y="1" class="nonterminal"/><text x="183" y="21" class="nonterminal">stride</text><rect width="24" height="32" x="253" y="3" rx="10"/><rect width="24" height="32" x="251" y="1" class="terminal" rx="10"/><text x="261" y="21" class="terminal">,</text><rect width="64" height="32" x="297" y="3"/><rect width="64" height="32" x="295" y="1" class="nonterminal"/><text x="305" y="21" class="nonterminal">source</text><rect width="24" height="32" x="381" y="3" rx="10"/><rect width="24" height="32" x="379" y="1" class="terminal" rx="10"/><text x="389" y="21" class="terminal">,</text><rect width="56" height="32" x="425" y="3"/><rect width="56" height="32" x="423" y="1" class="nonterminal"/><text x="433" y="21" class="nonterminal">origin</text><rect width="26" height="32" x="501" y="3" rx="10"/><rect width="26" height="32" x="499" y="1" class="terminal" rx="10"/><text x="509" y="21" class="terminal">)</text><path d="m17 17 h2 m0 0 h10 m78 0 h10 m0 0 h10 m26 0 h10 m0 0 h10 m58 0 h10 m0 0 h10 m24 0 h10 m0 0 h10 m64 0 h10 m0 0 h10 m24 0 h10 m0 0 h10 m56 0 h10 m0 0 h10 m26 0 h10 m3 0 h-3" class="line"/><polygon points="545 17 553 13 553 21"/><polygon points="545 17 537 13 537 21"/></svg>