<svg xmlns="http://www.w3.org/2000/svg" width="627" height="337"><polygon points="9 17 1 13 1 21"/><polygon points="17 17 9 13 9 21"/><rect width="82" height="32" x="31" y="3" rx="10"/><rect width="82" height="32" x="29" y="1" class="terminal" rx="10"/><text x="39" y="21" class="terminal">map_agg</text><rect width="26" height="32" x="133" y="3" rx="10"/><rect width="26" height="32" x="131" y="1" class="terminal" rx="10"/><text x="141" y="21" class="terminal">(</text><rect width="50" height="32" x="179" y="3"/><rect width="50" height="32" x="177" y="1" class="nonterminal"/><text x="187" y="21" class="nonterminal">keys</text><rect width="24" height="32" x="249" y="3" rx="10"/><rect width="24" height="32" x="247" y="1" class="terminal" rx="10"/><text x="257" y="21" class="terminal">,</text><rect width="62" height="32" x="293" y="3"/><rect width="62" height="32" x="291" y="1" class="nonterminal"/><text x="301" y="21" class="nonterminal">values</text><rect width="68" height="32" x="45" y="113" rx="10"/><rect width="68" height="32" x="43" y="111" class="terminal" rx="10"/><text x="53" y="131" class="terminal">ORDER</text><rect width="40" height="32" x="133" y="113" rx="10"/><rect width="40" height="32" x="131" y="111" class="terminal" rx="10"/><text x="141" y="131" class="terminal">BY</text><rect width="64" height="32" x="213" y="113"/><rect width="64" height="32" x="211" y="111" class="nonterminal"/><text x="221" y="131" class="nonterminal">col_ref</text><rect width="50" height="32" x="317" y="145" rx="10"/><rect width="50" height="32" x="315" y="143" class="terminal" rx="10"/><text x="325" y="163" class="terminal">ASC</text><rect width="58" height="32" x="317" y="189" rx="10"/><rect width="58" height="32" x="315" y="187" class="terminal" rx="10"/><text x="325" y="207" class="terminal">DESC</text><rect width="106" height="32" x="435" y="145" rx="10"/><rect width="106" height="32" x="433" y="143" class="terminal" rx="10"/><text x="443" y="163" class="terminal">NULLS LAST</text><rect width="110" height="32" x="435" y="189" rx="10"/><rect width="110" height="32" x="433" y="187" class="terminal" rx="10"/><text x="443" y="207" class="terminal">NULLS FIRST</text><rect width="24" height="32" x="213" y="69" rx="10"/><rect width="24" height="32" x="211" y="67" class="terminal" rx="10"/><text x="221" y="87" class="terminal">,</text><rect width="26" height="32" x="147" y="271" rx="10"/><rect width="26" height="32" x="145" y="269" class="terminal" rx="10"/><text x="155" y="289" class="terminal">)</text><rect width="66" height="32" x="213" y="303" rx="10"/><rect width="66" height="32" x="211" y="301" class="terminal" rx="10"/><text x="221" y="321" class="terminal">FILTER</text><rect width="26" height="32" x="299" y="303" rx="10"/><rect width="26" height="32" x="297" y="301" class="terminal" rx="10"/><text x="307" y="321" class="terminal">(</text><rect width="70" height="32" x="345" y="303" rx="10"/><rect width="70" height="32" x="343" y="301" class="terminal" rx="10"/><text x="353" y="321" class="terminal">WHERE</text><rect width="98" height="32" x="435" y="303"/><rect width="98" height="32" x="433" y="301" class="nonterminal"/><text x="443" y="321" class="nonterminal">filter_clause</text><rect width="26" height="32" x="553" y="303" rx="10"/><rect width="26" height="32" x="551" y="301" class="terminal" rx="10"/><text x="561" y="321" class="terminal">)</text><path d="m17 17 h2 m0 0 h10 m82 0 h10 m0 0 h10 m26 0 h10 m0 0 h10 m50 0 h10 m0 0 h10 m24 0 h10 m0 0 h10 m62 0 h10 m2 0 l2 0 m2 0 l2 0 m2 0 l2 0 m-374 110 l2 0 m2 0 l2 0 m2 0 l2 0 m22 0 h10 m68 0 h10 m0 0 h10 m40 0 h10 m20 0 h10 m64 0 h10 m20 0 h10 m0 0 h68 m-98 0 h20 m78 0 h20 m-118 0 q10 0 10 10 m98 0 q0 -10 10 -10 m-108 10 v12 m98 0 v-12 m-98 12 q0 10 10 10 m78 0 q10 0 10 -10 m-88 10 h10 m50 0 h10 m0 0 h8 m-88 -10 v20 m98 0 v-20 m-98 20 v24 m98 0 v-24 m-98 24 q0 10 10 10 m78 0 q10 0 10 -10 m-88 10 h10 m58 0 h10 m40 -76 h10 m0 0 h120 m-150 0 h20 m130 0 h20 m-170 0 q10 0 10 10 m150 0 q0 -10 10 -10 m-160 10 v12 m150 0 v-12 m-150 12 q0 10 10 10 m130 0 q10 0 10 -10 m-140 10 h10 m106 0 h10 m0 0 h4 m-140 -10 v20 m150 0 v-20 m-150 20 v24 m150 0 v-24 m-150 24 q0 10 10 10 m130 0 q10 0 10 -10 m-140 10 h10 m110 0 h10 m-372 -76 l20 0 m-1 0 q-9 0 -9 -10 l0 -24 q0 -10 10 -10 m372 44 l20 0 m-20 0 q10 0 10 -10 l0 -24 q0 -10 -10 -10 m-372 0 h10 m24 0 h10 m0 0 h328 m-560 44 h20 m560 0 h20 m-600 0 q10 0 10 10 m580 0 q0 -10 10 -10 m-590 10 v90 m580 0 v-90 m-580 90 q0 10 10 10 m560 0 q10 0 10 -10 m-570 10 h10 m0 0 h550 m22 -110 l2 0 m2 0 l2 0 m2 0 l2 0 m-502 158 l2 0 m2 0 l2 0 m2 0 l2 0 m2 0 h10 m26 0 h10 m20 0 h10 m0 0 h376 m-406 0 h20 m386 0 h20 m-426 0 q10 0 10 10 m406 0 q0 -10 10 -10 m-416 10 v12 m406 0 v-12 m-406 12 q0 10 10 10 m386 0 q10 0 10 -10 m-396 10 h10 m66 0 h10 m0 0 h10 m26 0 h10 m0 0 h10 m70 0 h10 m0 0 h10 m98 0 h10 m0 0 h10 m26 0 h10 m23 -32 h-3" class="line"/><polygon points="617 285 625 281 625 289"/><polygon points="617 285 609 281 609 289"/></svg>