<svg xmlns="http://www.w3.org/2000/svg" width="519" height="37"><polygon points="9 17 1 13 1 21"/><polygon points="17 17 9 13 9 21"/><rect width="100" height="32" x="31" y="3" rx="10"/><rect width="100" height="32" x="29" y="1" class="terminal" rx="10"/><text x="39" y="21" class="terminal">csv_extract</text><rect width="26" height="32" x="151" y="3" rx="10"/><rect width="26" height="32" x="149" y="1" class="terminal" rx="10"/><text x="159" y="21" class="terminal">(</text><rect width="102" height="32" x="197" y="3"/><rect width="102" height="32" x="195" y="1" class="nonterminal"/><text x="205" y="21" class="nonterminal">num_csv_col</text><rect width="24" height="32" x="319" y="3" rx="10"/><rect width="24" height="32" x="317" y="1" class="terminal" rx="10"/><text x="327" y="21" class="terminal">,</text><rect width="82" height="32" x="363" y="3"/><rect width="82" height="32" x="361" y="1" class="nonterminal"/><text x="371" y="21" class="nonterminal">col_name</text><rect width="26" height="32" x="465" y="3" rx="10"/><rect width="26" height="32" x="463" y="1" class="terminal" rx="10"/><text x="473" y="21" class="terminal">)</text><path d="m17 17 h2 m0 0 h10 m100 0 h10 m0 0 h10 m26 0 h10 m0 0 h10 m102 0 h10 m0 0 h10 m24 0 h10 m0 0 h10 m82 0 h10 m0 0 h10 m26 0 h10 m3 0 h-3" class="line"/><polygon points="509 17 517 13 517 21"/><polygon points="509 17 501 13 501 21"/></svg>