<svg xmlns="http://www.w3.org/2000/svg" width="331" height="81"><polygon points="9 61 1 57 1 65"/><polygon points="17 61 9 57 9 65"/><rect width="82" height="32" x="31" y="47" rx="10"/><rect width="82" height="32" x="29" y="45" class="terminal" rx="10"/><text x="39" y="65" class="terminal">coalesce</text><rect width="26" height="32" x="133" y="47" rx="10"/><rect width="26" height="32" x="131" y="45" class="terminal" rx="10"/><text x="141" y="65" class="terminal">(</text><rect width="38" height="32" x="199" y="47"/><rect width="38" height="32" x="197" y="45" class="nonterminal"/><text x="207" y="65" class="nonterminal">val</text><rect width="24" height="32" x="199" y="3" rx="10"/><rect width="24" height="32" x="197" y="1" class="terminal" rx="10"/><text x="207" y="21" class="terminal">,</text><rect width="26" height="32" x="277" y="47" rx="10"/><rect width="26" height="32" x="275" y="45" class="terminal" rx="10"/><text x="285" y="65" class="terminal">)</text><path d="m17 61 h2 m0 0 h10 m82 0 h10 m0 0 h10 m26 0 h10 m20 0 h10 m38 0 h10 m-78 0 l20 0 m-1 0 q-9 0 -9 -10 l0 -24 q0 -10 10 -10 m58 44 l20 0 m-20 0 q10 0 10 -10 l0 -24 q0 -10 -10 -10 m-58 0 h10 m24 0 h10 m0 0 h14 m20 44 h10 m26 0 h10 m3 0 h-3" class="line"/><polygon points="321 61 329 57 329 65"/><polygon points="321 61 313 57 313 65"/></svg>