<svg xmlns="http://www.w3.org/2000/svg" width="361" height="37"><polygon points="9 17 1 13 1 21"/><polygon points="17 17 9 13 9 21"/><rect width="122" height="32" x="31" y="3" rx="10"/><rect width="122" height="32" x="29" y="1" class="terminal" rx="10"/><text x="39" y="21" class="terminal">justify_interval</text><rect width="26" height="32" x="173" y="3" rx="10"/><rect width="26" height="32" x="171" y="1" class="terminal" rx="10"/><text x="181" y="21" class="terminal">(</text><rect width="68" height="32" x="219" y="3"/><rect width="68" height="32" x="217" y="1" class="nonterminal"/><text x="227" y="21" class="nonterminal">interval</text><rect width="26" height="32" x="307" y="3" rx="10"/><rect width="26" height="32" x="305" y="1" class="terminal" rx="10"/><text x="315" y="21" class="terminal">)</text><path d="m17 17 h2 m0 0 h10 m122 0 h10 m0 0 h10 m26 0 h10 m0 0 h10 m68 0 h10 m0 0 h10 m26 0 h10 m3 0 h-3" class="line"/><polygon points="351 17 359 13 359 21"/><polygon points="351 17 343 13 343 21"/></svg>