<svg xmlns="http://www.w3.org/2000/svg" width="727" height="1365"><polygon points="9 61 1 57 1 65"/><polygon points="17 61 9 57 9 65"/><rect width="70" height="32" x="31" y="47" rx="10"/><rect width="70" height="32" x="29" y="45" class="terminal" rx="10"/><text x="39" y="65" class="terminal">GRANT</text><rect width="76" height="32" x="161" y="47"/><rect width="76" height="32" x="159" y="45" class="nonterminal"/><text x="169" y="65" class="nonterminal">privilege</text><rect width="24" height="32" x="161" y="3" rx="10"/><rect width="24" height="32" x="159" y="1" class="terminal" rx="10"/><text x="169" y="21" class="terminal">,</text><rect width="46" height="32" x="141" y="91" rx="10"/><rect width="46" height="32" x="139" y="89" class="terminal" rx="10"/><text x="149" y="109" class="terminal">ALL</text><rect width="102" height="32" x="227" y="123" rx="10"/><rect width="102" height="32" x="225" y="121" class="terminal" rx="10"/><text x="235" y="141" class="terminal">PRIVILEGES</text><rect width="40" height="32" x="389" y="47" rx="10"/><rect width="40" height="32" x="387" y="45" class="terminal" rx="10"/><text x="397" y="65" class="terminal">ON</text><rect width="66" height="32" x="65" y="265" rx="10"/><rect width="66" height="32" x="63" y="263" class="terminal" rx="10"/><text x="73" y="283" class="terminal">TABLE</text><rect width="56" height="32" x="65" y="309" rx="10"/><rect width="56" height="32" x="63" y="307" class="terminal" rx="10"/><text x="73" y="327" class="terminal">TYPE</text><rect width="76" height="32" x="65" y="353" rx="10"/><rect width="76" height="32" x="63" y="351" class="terminal" rx="10"/><text x="73" y="371" class="terminal">SECRET</text><rect width="116" height="32" x="65" y="397" rx="10"/><rect width="116" height="32" x="63" y="395" class="terminal" rx="10"/><text x="73" y="415" class="terminal">CONNECTION</text><rect width="98" height="32" x="65" y="441" rx="10"/><rect width="98" height="32" x="63" y="439" class="terminal" rx="10"/><text x="73" y="459" class="terminal">DATABASE</text><rect width="82" height="32" x="65" y="485" rx="10"/><rect width="82" height="32" x="63" y="483" class="terminal" rx="10"/><text x="73" y="503" class="terminal">SCHEMA</text><rect width="84" height="32" x="65" y="529" rx="10"/><rect width="84" height="32" x="63" y="527" class="terminal" rx="10"/><text x="73" y="547" class="terminal">CLUSTER</text><rect width="104" height="32" x="241" y="233"/><rect width="104" height="32" x="239" y="231" class="nonterminal"/><text x="249" y="251" class="nonterminal">object_name</text><rect width="24" height="32" x="241" y="189" rx="10"/><rect width="24" height="32" x="239" y="187" class="terminal" rx="10"/><text x="249" y="207" class="terminal">,</text><rect width="78" height="32" x="45" y="573" rx="10"/><rect width="78" height="32" x="43" y="571" class="terminal" rx="10"/><text x="53" y="591" class="terminal">SYSTEM</text><rect width="46" height="32" x="45" y="661" rx="10"/><rect width="46" height="32" x="43" y="659" class="terminal" rx="10"/><text x="53" y="679" class="terminal">ALL</text><rect width="74" height="32" x="151" y="661" rx="10"/><rect width="74" height="32" x="149" y="659" class="terminal" rx="10"/><text x="159" y="679" class="terminal">TABLES</text><rect width="66" height="32" x="151" y="705" rx="10"/><rect width="66" height="32" x="149" y="703" class="terminal" rx="10"/><text x="159" y="723" class="terminal">TYPES</text><rect width="84" height="32" x="151" y="749" rx="10"/><rect width="84" height="32" x="149" y="747" class="terminal" rx="10"/><text x="159" y="767" class="terminal">SECRETS</text><rect width="124" height="32" x="151" y="793" rx="10"/><rect width="124" height="32" x="149" y="791" class="terminal" rx="10"/><text x="159" y="811" class="terminal">CONNECTIONS</text><rect width="34" height="32" x="335" y="661" rx="10"/><rect width="34" height="32" x="333" y="659" class="terminal" rx="10"/><text x="343" y="679" class="terminal">IN</text><rect width="82" height="32" x="389" y="661" rx="10"/><rect width="82" height="32" x="387" y="659" class="terminal" rx="10"/><text x="397" y="679" class="terminal">SCHEMA</text><rect width="114" height="32" x="511" y="661"/><rect width="114" height="32" x="509" y="659" class="nonterminal"/><text x="519" y="679" class="nonterminal">schema_name</text><rect width="24" height="32" x="511" y="617" rx="10"/><rect width="24" height="32" x="509" y="615" class="terminal" rx="10"/><text x="519" y="635" class="terminal">,</text><rect width="74" height="32" x="151" y="881" rx="10"/><rect width="74" height="32" x="149" y="879" class="terminal" rx="10"/><text x="159" y="899" class="terminal">TABLES</text><rect width="66" height="32" x="151" y="925" rx="10"/><rect width="66" height="32" x="149" y="923" class="terminal" rx="10"/><text x="159" y="943" class="terminal">TYPES</text><rect width="84" height="32" x="151" y="969" rx="10"/><rect width="84" height="32" x="149" y="967" class="terminal" rx="10"/><text x="159" y="987" class="terminal">SECRETS</text><rect width="124" height="32" x="151" y="1013" rx="10"/><rect width="124" height="32" x="149" y="1011" class="terminal" rx="10"/><text x="159" y="1031" class="terminal">CONNECTIONS</text><rect width="90" height="32" x="151" y="1057" rx="10"/><rect width="90" height="32" x="149" y="1055" class="terminal" rx="10"/><text x="159" y="1075" class="terminal">SCHEMAS</text><rect width="34" height="32" x="315" y="881" rx="10"/><rect width="34" height="32" x="313" y="879" class="terminal" rx="10"/><text x="323" y="899" class="terminal">IN</text><rect width="98" height="32" x="369" y="881" rx="10"/><rect width="98" height="32" x="367" y="879" class="terminal" rx="10"/><text x="377" y="899" class="terminal">DATABASE</text><rect width="124" height="32" x="507" y="881"/><rect width="124" height="32" x="505" y="879" class="nonterminal"/><text x="515" y="899" class="nonterminal">database_name</text><rect width="24" height="32" x="507" y="837" rx="10"/><rect width="24" height="32" x="505" y="835" class="terminal" rx="10"/><text x="515" y="855" class="terminal">,</text><rect width="106" height="32" x="131" y="1101" rx="10"/><rect width="106" height="32" x="129" y="1099" class="terminal" rx="10"/><text x="139" y="1119" class="terminal">DATABASES</text><rect width="90" height="32" x="131" y="1145" rx="10"/><rect width="90" height="32" x="129" y="1143" class="terminal" rx="10"/><text x="139" y="1163" class="terminal">SCHEMAS</text><rect width="94" height="32" x="131" y="1189" rx="10"/><rect width="94" height="32" x="129" y="1187" class="terminal" rx="10"/><text x="139" y="1207" class="terminal">CLUSTERS</text><rect width="40" height="32" x="381" y="1299" rx="10"/><rect width="40" height="32" x="379" y="1297" class="terminal" rx="10"/><text x="389" y="1317" class="terminal">TO</text><rect width="70" height="32" x="481" y="1331" rx="10"/><rect width="70" height="32" x="479" y="1329" class="terminal" rx="10"/><text x="489" y="1349" class="terminal">GROUP</text><rect width="88" height="32" x="591" y="1299"/><rect width="88" height="32" x="589" y="1297" class="nonterminal"/><text x="599" y="1317" class="nonterminal">role_name</text><rect width="24" height="32" x="461" y="1255" rx="10"/><rect width="24" height="32" x="459" y="1253" class="terminal" rx="10"/><text x="469" y="1273" class="terminal">,</text><path d="m17 61 h2 m0 0 h10 m70 0 h10 m40 0 h10 m76 0 h10 m-116 0 l20 0 m-1 0 q-9 0 -9 -10 l0 -24 q0 -10 10 -10 m96 44 l20 0 m-20 0 q10 0 10 -10 l0 -24 q0 -10 -10 -10 m-96 0 h10 m24 0 h10 m0 0 h52 m20 44 h92 m-248 0 h20 m228 0 h20 m-268 0 q10 0 10 10 m248 0 q0 -10 10 -10 m-258 10 v24 m248 0 v-24 m-248 24 q0 10 10 10 m228 0 q10 0 10 -10 m-238 10 h10 m46 0 h10 m20 0 h10 m0 0 h112 m-142 0 h20 m122 0 h20 m-162 0 q10 0 10 10 m142 0 q0 -10 10 -10 m-152 10 v12 m142 0 v-12 m-142 12 q0 10 10 10 m122 0 q10 0 10 -10 m-132 10 h10 m102 0 h10 m40 -76 h10 m40 0 h10 m2 0 l2 0 m2 0 l2 0 m2 0 l2 0 m-448 186 l2 0 m2 0 l2 0 m2 0 l2 0 m42 0 h10 m0 0 h126 m-156 0 h20 m136 0 h20 m-176 0 q10 0 10 10 m156 0 q0 -10 10 -10 m-166 10 v12 m156 0 v-12 m-156 12 q0 10 10 10 m136 0 q10 0 10 -10 m-146 10 h10 m66 0 h10 m0 0 h50 m-146 -10 v20 m156 0 v-20 m-156 20 v24 m156 0 v-24 m-156 24 q0 10 10 10 m136 0 q10 0 10 -10 m-146 10 h10 m56 0 h10 m0 0 h60 m-146 -10 v20 m156 0 v-20 m-156 20 v24 m156 0 v-24 m-156 24 q0 10 10 10 m136 0 q10 0 10 -10 m-146 10 h10 m76 0 h10 m0 0 h40 m-146 -10 v20 m156 0 v-20 m-156 20 v24 m156 0 v-24 m-156 24 q0 10 10 10 m136 0 q10 0 10 -10 m-146 10 h10 m116 0 h10 m-146 -10 v20 m156 0 v-20 m-156 20 v24 m156 0 v-24 m-156 24 q0 10 10 10 m136 0 q10 0 10 -10 m-146 10 h10 m98 0 h10 m0 0 h18 m-146 -10 v20 m156 0 v-20 m-156 20 v24 m156 0 v-24 m-156 24 q0 10 10 10 m136 0 q10 0 10 -10 m-146 10 h10 m82 0 h10 m0 0 h34 m-146 -10 v20 m156 0 v-20 m-156 20 v24 m156 0 v-24 m-156 24 q0 10 10 10 m136 0 q10 0 10 -10 m-146 10 h10 m84 0 h10 m0 0 h32 m40 -296 h10 m104 0 h10 m-144 0 l20 0 m-1 0 q-9 0 -9 -10 l0 -24 q0 -10 10 -10 m124 44 l20 0 m-20 0 q10 0 10 -10 l0 -24 q0 -10 -10 -10 m-124 0 h10 m24 0 h10 m0 0 h80 m20 44 h320 m-680 0 h20 m660 0 h20 m-700 0 q10 0 10 10 m680 0 q0 -10 10 -10 m-690 10 v320 m680 0 v-320 m-680 320 q0 10 10 10 m660 0 q10 0 10 -10 m-670 10 h10 m78 0 h10 m0 0 h562 m-670 -10 v20 m680 0 v-20 m-680 20 v68 m680 0 v-68 m-680 68 q0 10 10 10 m660 0 q10 0 10 -10 m-670 10 h10 m46 0 h10 m40 0 h10 m74 0 h10 m0 0 h50 m-164 0 h20 m144 0 h20 m-184 0 q10 0 10 10 m164 0 q0 -10 10 -10 m-174 10 v24 m164 0 v-24 m-164 24 q0 10 10 10 m144 0 q10 0 10 -10 m-154 10 h10 m66 0 h10 m0 0 h58 m-154 -10 v20 m164 0 v-20 m-164 20 v24 m164 0 v-24 m-164 24 q0 10 10 10 m144 0 q10 0 10 -10 m-154 10 h10 m84 0 h10 m0 0 h40 m-154 -10 v20 m164 0 v-20 m-164 20 v24 m164 0 v-24 m-164 24 q0 10 10 10 m144 0 q10 0 10 -10 m-154 10 h10 m124 0 h10 m40 -132 h10 m34 0 h10 m0 0 h10 m82 0 h10 m20 0 h10 m114 0 h10 m-154 0 l20 0 m-1 0 q-9 0 -9 -10 l0 -24 q0 -10 10 -10 m134 44 l20 0 m-20 0 q10 0 10 -10 l0 -24 q0 -10 -10 -10 m-134 0 h10 m24 0 h10 m0 0 h90 m-330 44 h20 m330 0 h20 m-370 0 q10 0 10 10 m350 0 q0 -10 10 -10 m-360 10 v14 m350 0 v-14 m-350 14 q0 10 10 10 m330 0 q10 0 10 -10 m-340 10 h10 m0 0 h320 m-554 -34 h20 m554 0 h20 m-594 0 q10 0 10 10 m574 0 q0 -10 10 -10 m-584 10 v200 m574 0 v-200 m-574 200 q0 10 10 10 m554 0 q10 0 10 -10 m-544 10 h10 m74 0 h10 m0 0 h50 m-164 0 h20 m144 0 h20 m-184 0 q10 0 10 10 m164 0 q0 -10 10 -10 m-174 10 v24 m164 0 v-24 m-164 24 q0 10 10 10 m144 0 q10 0 10 -10 m-154 10 h10 m66 0 h10 m0 0 h58 m-154 -10 v20 m164 0 v-20 m-164 20 v24 m164 0 v-24 m-164 24 q0 10 10 10 m144 0 q10 0 10 -10 m-154 10 h10 m84 0 h10 m0 0 h40 m-154 -10 v20 m164 0 v-20 m-164 20 v24 m164 0 v-24 m-164 24 q0 10 10 10 m144 0 q10 0 10 -10 m-154 10 h10 m124 0 h10 m-154 -10 v20 m164 0 v-20 m-164 20 v24 m164 0 v-24 m-164 24 q0 10 10 10 m144 0 q10 0 10 -10 m-154 10 h10 m90 0 h10 m0 0 h34 m20 -176 h10 m34 0 h10 m0 0 h10 m98 0 h10 m20 0 h10 m124 0 h10 m-164 0 l20 0 m-1 0 q-9 0 -9 -10 l0 -24 q0 -10 10 -10 m144 44 l20 0 m-20 0 q10 0 10 -10 l0 -24 q0 -10 -10 -10 m-144 0 h10 m24 0 h10 m0 0 h100 m20 44 h14 m-564 -10 v20 m574 0 v-20 m-574 20 v200 m574 0 v-200 m-574 200 q0 10 10 10 m554 0 q10 0 10 -10 m-564 10 h10 m106 0 h10 m0 0 h428 m-564 -10 v20 m574 0 v-20 m-574 20 v24 m574 0 v-24 m-574 24 q0 10 10 10 m554 0 q10 0 10 -10 m-564 10 h10 m90 0 h10 m0 0 h444 m-564 -10 v20 m574 0 v-20 m-574 20 v24 m574 0 v-24 m-574 24 q0 10 10 10 m554 0 q10 0 10 -10 m-564 10 h10 m94 0 h10 m0 0 h440 m42 -956 l2 0 m2 0 l2 0 m2 0 l2 0 m-368 1066 l2 0 m2 0 l2 0 m2 0 l2 0 m2 0 h10 m40 0 h10 m40 0 h10 m0 0 h80 m-110 0 h20 m90 0 h20 m-130 0 q10 0 10 10 m110 0 q0 -10 10 -10 m-120 10 v12 m110 0 v-12 m-110 12 q0 10 10 10 m90 0 q10 0 10 -10 m-100 10 h10 m70 0 h10 m20 -32 h10 m88 0 h10 m-258 0 l20 0 m-1 0 q-9 0 -9 -10 l0 -24 q0 -10 10 -10 m238 44 l20 0 m-20 0 q10 0 10 -10 l0 -24 q0 -10 -10 -10 m-238 0 h10 m24 0 h10 m0 0 h194 m23 44 h-3" class="line"/><polygon points="717 1313 725 1309 725 1317"/><polygon points="717 1313 709 1309 709 1317"/></svg>