<svg xmlns="http://www.w3.org/2000/svg" width="339" height="223"><polygon points="11 61 3 57 3 65"/><polygon points="19 61 11 57 11 65"/><rect width="70" height="32" x="33" y="47" rx="10"/><rect width="70" height="32" x="31" y="45" class="terminal" rx="10"/><text x="41" y="65" class="terminal">GRANT</text><rect width="88" height="32" x="143" y="47"/><rect width="88" height="32" x="141" y="45" class="nonterminal"/><text x="151" y="65" class="nonterminal">role_name</text><rect width="24" height="32" x="143" y="3" rx="10"/><rect width="24" height="32" x="141" y="1" class="terminal" rx="10"/><text x="151" y="21" class="terminal">,</text><rect width="40" height="32" x="271" y="47" rx="10"/><rect width="40" height="32" x="269" y="45" class="terminal" rx="10"/><text x="279" y="65" class="terminal">TO</text><rect width="70" height="32" x="65" y="189" rx="10"/><rect width="70" height="32" x="63" y="187" class="terminal" rx="10"/><text x="73" y="207" class="terminal">GROUP</text><rect width="116" height="32" x="175" y="157"/><rect width="116" height="32" x="173" y="155" class="nonterminal"/><text x="183" y="175" class="nonterminal">member_name</text><rect width="24" height="32" x="45" y="113" rx="10"/><rect width="24" height="32" x="43" y="111" class="terminal" rx="10"/><text x="53" y="131" class="terminal">,</text><path d="m19 61 h2 m0 0 h10 m70 0 h10 m20 0 h10 m88 0 h10 m-128 0 l20 0 m-1 0 q-9 0 -9 -10 l0 -24 q0 -10 10 -10 m108 44 l20 0 m-20 0 q10 0 10 -10 l0 -24 q0 -10 -10 -10 m-108 0 h10 m24 0 h10 m0 0 h64 m20 44 h10 m40 0 h10 m2 0 l2 0 m2 0 l2 0 m2 0 l2 0 m-330 110 l2 0 m2 0 l2 0 m2 0 l2 0 m42 0 h10 m0 0 h80 m-110 0 h20 m90 0 h20 m-130 0 q10 0 10 10 m110 0 q0 -10 10 -10 m-120 10 v12 m110 0 v-12 m-110 12 q0 10 10 10 m90 0 q10 0 10 -10 m-100 10 h10 m70 0 h10 m20 -32 h10 m116 0 h10 m-286 0 l20 0 m-1 0 q-9 0 -9 -10 l0 -24 q0 -10 10 -10 m266 44 l20 0 m-20 0 q10 0 10 -10 l0 -24 q0 -10 -10 -10 m-266 0 h10 m24 0 h10 m0 0 h222 m23 44 h-3" class="line"/><polygon points="329 171 337 167 337 175"/><polygon points="329 171 321 167 321 175"/></svg>