<svg xmlns="http://www.w3.org/2000/svg" width="699" height="627"><polygon points="11 17 3 13 3 21"/><polygon points="19 17 11 13 11 21"/><rect width="70" height="32" x="33" y="3" rx="10"/><rect width="70" height="32" x="31" y="1" class="terminal" rx="10"/><text x="41" y="21" class="terminal">INSERT</text><rect width="54" height="32" x="123" y="3" rx="10"/><rect width="54" height="32" x="121" y="1" class="terminal" rx="10"/><text x="131" y="21" class="terminal">INTO</text><rect width="96" height="32" x="197" y="3"/><rect width="96" height="32" x="195" y="1" class="nonterminal"/><text x="205" y="21" class="nonterminal">table_name</text><rect width="40" height="32" x="333" y="35" rx="10"/><rect width="40" height="32" x="331" y="33" class="terminal" rx="10"/><text x="341" y="53" class="terminal">AS</text><rect width="50" height="32" x="413" y="3"/><rect width="50" height="32" x="411" y="1" class="nonterminal"/><text x="421" y="21" class="nonterminal">alias</text><rect width="26" height="32" x="245" y="145" rx="10"/><rect width="26" height="32" x="243" y="143" class="terminal" rx="10"/><text x="253" y="163" class="terminal">(</text><rect width="82" height="32" x="311" y="145"/><rect width="82" height="32" x="309" y="143" class="nonterminal"/><text x="319" y="163" class="nonterminal">col_name</text><rect width="24" height="32" x="311" y="101" rx="10"/><rect width="24" height="32" x="309" y="99" class="terminal" rx="10"/><text x="319" y="119" class="terminal">,</text><rect width="26" height="32" x="433" y="145" rx="10"/><rect width="26" height="32" x="431" y="143" class="terminal" rx="10"/><text x="441" y="163" class="terminal">)</text><rect width="76" height="32" x="194" y="315" rx="10"/><rect width="76" height="32" x="192" y="313" class="terminal" rx="10"/><text x="202" y="333" class="terminal">VALUES</text><rect width="26" height="32" x="310" y="315" rx="10"/><rect width="26" height="32" x="308" y="313" class="terminal" rx="10"/><text x="318" y="333" class="terminal">(</text><rect width="48" height="32" x="376" y="315"/><rect width="48" height="32" x="374" y="313" class="nonterminal"/><text x="384" y="333" class="nonterminal">expr</text><rect width="24" height="32" x="376" y="271" rx="10"/><rect width="24" height="32" x="374" y="269" class="terminal" rx="10"/><text x="384" y="289" class="terminal">,</text><rect width="26" height="32" x="464" y="315" rx="10"/><rect width="26" height="32" x="462" y="313" class="terminal" rx="10"/><text x="472" y="333" class="terminal">)</text><rect width="24" height="32" x="310" y="227" rx="10"/><rect width="24" height="32" x="308" y="225" class="terminal" rx="10"/><text x="318" y="245" class="terminal">,</text><rect width="58" height="32" x="194" y="359"/><rect width="58" height="32" x="192" y="357" class="nonterminal"/><text x="202" y="377" class="nonterminal">query</text><rect width="102" height="32" x="45" y="469" rx="10"/><rect width="102" height="32" x="43" y="467" class="terminal" rx="10"/><text x="53" y="487" class="terminal">RETURNING</text><rect width="28" height="32" x="207" y="469" rx="10"/><rect width="28" height="32" x="205" y="467" class="terminal" rx="10"/><text x="215" y="487" class="terminal">*</text><rect width="140" height="32" x="207" y="513"/><rect width="140" height="32" x="205" y="511" class="nonterminal"/><text x="215" y="531" class="nonterminal">output_expression</text><rect width="38" height="32" x="407" y="577"/><rect width="38" height="32" x="405" y="575" class="nonterminal"/><text x="415" y="595" class="nonterminal">AS</text><rect width="106" height="32" x="485" y="545"/><rect width="106" height="32" x="483" y="543" class="nonterminal"/><text x="493" y="563" class="nonterminal">output_name</text><rect width="24" height="32" x="187" y="425" rx="10"/><rect width="24" height="32" x="185" y="423" class="terminal" rx="10"/><text x="195" y="443" class="terminal">,</text><path d="m19 17 h2 m0 0 h10 m70 0 h10 m0 0 h10 m54 0 h10 m0 0 h10 m96 0 h10 m20 0 h10 m0 0 h50 m-80 0 h20 m60 0 h20 m-100 0 q10 0 10 10 m80 0 q0 -10 10 -10 m-90 10 v12 m80 0 v-12 m-80 12 q0 10 10 10 m60 0 q10 0 10 -10 m-70 10 h10 m40 0 h10 m20 -32 h10 m50 0 h10 m2 0 l2 0 m2 0 l2 0 m2 0 l2 0 m-282 142 l2 0 m2 0 l2 0 m2 0 l2 0 m22 0 h10 m26 0 h10 m20 0 h10 m82 0 h10 m-122 0 l20 0 m-1 0 q-9 0 -9 -10 l0 -24 q0 -10 10 -10 m102 44 l20 0 m-20 0 q10 0 10 -10 l0 -24 q0 -10 -10 -10 m-102 0 h10 m24 0 h10 m0 0 h58 m20 44 h10 m26 0 h10 m-254 0 h20 m234 0 h20 m-274 0 q10 0 10 10 m254 0 q0 -10 10 -10 m-264 10 v14 m254 0 v-14 m-254 14 q0 10 10 10 m234 0 q10 0 10 -10 m-244 10 h10 m0 0 h224 m22 -34 l2 0 m2 0 l2 0 m2 0 l2 0 m-349 170 l2 0 m2 0 l2 0 m2 0 l2 0 m22 0 h10 m76 0 h10 m20 0 h10 m26 0 h10 m20 0 h10 m48 0 h10 m-88 0 l20 0 m-1 0 q-9 0 -9 -10 l0 -24 q0 -10 10 -10 m68 44 l20 0 m-20 0 q10 0 10 -10 l0 -24 q0 -10 -10 -10 m-68 0 h10 m24 0 h10 m0 0 h24 m20 44 h10 m26 0 h10 m-220 0 l20 0 m-1 0 q-9 0 -9 -10 l0 -68 q0 -10 10 -10 m200 88 l20 0 m-20 0 q10 0 10 -10 l0 -68 q0 -10 -10 -10 m-200 0 h10 m24 0 h10 m0 0 h156 m-336 88 h20 m336 0 h20 m-376 0 q10 0 10 10 m356 0 q0 -10 10 -10 m-366 10 v24 m356 0 v-24 m-356 24 q0 10 10 10 m336 0 q10 0 10 -10 m-346 10 h10 m58 0 h10 m0 0 h258 m22 -44 l2 0 m2 0 l2 0 m2 0 l2 0 m-549 154 l2 0 m2 0 l2 0 m2 0 l2 0 m22 0 h10 m102 0 h10 m40 0 h10 m28 0 h10 m0 0 h376 m-444 0 h20 m424 0 h20 m-464 0 q10 0 10 10 m444 0 q0 -10 10 -10 m-454 10 v24 m444 0 v-24 m-444 24 q0 10 10 10 m424 0 q10 0 10 -10 m-434 10 h10 m140 0 h10 m20 0 h10 m0 0 h214 m-244 0 h20 m224 0 h20 m-264 0 q10 0 10 10 m244 0 q0 -10 10 -10 m-254 10 v12 m244 0 v-12 m-244 12 q0 10 10 10 m224 0 q10 0 10 -10 m-214 10 h10 m0 0 h48 m-78 0 h20 m58 0 h20 m-98 0 q10 0 10 10 m78 0 q0 -10 10 -10 m-88 10 v12 m78 0 v-12 m-78 12 q0 10 10 10 m58 0 q10 0 10 -10 m-68 10 h10 m38 0 h10 m20 -32 h10 m106 0 h10 m-444 -76 l20 0 m-1 0 q-9 0 -9 -10 l0 -24 q0 -10 10 -10 m464 44 l20 0 m-20 0 q10 0 10 -10 l0 -24 q0 -10 -10 -10 m-464 0 h10 m24 0 h10 m0 0 h420 m-626 44 h20 m626 0 h20 m-666 0 q10 0 10 10 m646 0 q0 -10 10 -10 m-656 10 v122 m646 0 v-122 m-646 122 q0 10 10 10 m626 0 q10 0 10 -10 m-636 10 h10 m0 0 h616 m23 -142 h-3" class="line"/><polygon points="689 483 697 479 697 487"/><polygon points="689 483 681 479 681 487"/></svg>