<svg xmlns="http://www.w3.org/2000/svg" width="331" height="189"><polygon points="9 5 1 1 1 9"/><polygon points="17 5 9 1 9 9"/><rect width="54" height="32" x="71" y="23" rx="10"/><rect width="54" height="32" x="69" y="21" class="terminal" rx="10"/><text x="79" y="41" class="terminal">FULL</text><rect width="54" height="32" x="71" y="67" rx="10"/><rect width="54" height="32" x="69" y="65" class="terminal" rx="10"/><text x="79" y="85" class="terminal">LEFT</text><rect width="64" height="32" x="71" y="111" rx="10"/><rect width="64" height="32" x="69" y="109" class="terminal" rx="10"/><text x="79" y="129" class="terminal">RIGHT</text><rect width="68" height="32" x="195" y="55" rx="10"/><rect width="68" height="32" x="193" y="53" class="terminal" rx="10"/><text x="203" y="73" class="terminal">OUTER</text><rect width="62" height="32" x="51" y="155" rx="10"/><rect width="62" height="32" x="49" y="153" class="terminal" rx="10"/><text x="59" y="173" class="terminal">INNER</text><path d="m17 5 h2 m20 0 h10 m0 0 h242 m-272 0 h20 m252 0 h20 m-292 0 q10 0 10 10 m272 0 q0 -10 10 -10 m-282 10 v12 m272 0 v-12 m-272 12 q0 10 10 10 m252 0 q10 0 10 -10 m-242 10 h10 m54 0 h10 m0 0 h10 m-104 0 h20 m84 0 h20 m-124 0 q10 0 10 10 m104 0 q0 -10 10 -10 m-114 10 v24 m104 0 v-24 m-104 24 q0 10 10 10 m84 0 q10 0 10 -10 m-94 10 h10 m54 0 h10 m0 0 h10 m-94 -10 v20 m104 0 v-20 m-104 20 v24 m104 0 v-24 m-104 24 q0 10 10 10 m84 0 q10 0 10 -10 m-94 10 h10 m64 0 h10 m40 -88 h10 m0 0 h78 m-108 0 h20 m88 0 h20 m-128 0 q10 0 10 10 m108 0 q0 -10 10 -10 m-118 10 v12 m108 0 v-12 m-108 12 q0 10 10 10 m88 0 q10 0 10 -10 m-98 10 h10 m68 0 h10 m-242 -42 v20 m272 0 v-20 m-272 20 v112 m272 0 v-112 m-272 112 q0 10 10 10 m252 0 q10 0 10 -10 m-262 10 h10 m62 0 h10 m0 0 h170 m23 -164 h-3" class="line"/><polygon points="321 5 329 1 329 9"/><polygon points="321 5 313 1 313 9"/></svg>