<svg xmlns="http://www.w3.org/2000/svg" width="543" height="135"><polygon points="9 17 1 13 1 21"/><polygon points="17 17 9 13 9 21"/><rect width="68" height="32" x="31" y="3" rx="10"/><rect width="68" height="32" x="29" y="1" class="terminal" rx="10"/><text x="39" y="21" class="terminal">KAFKA</text><rect width="116" height="32" x="119" y="3" rx="10"/><rect width="116" height="32" x="117" y="1" class="terminal" rx="10"/><text x="127" y="21" class="terminal">CONNECTION</text><rect width="136" height="32" x="255" y="3"/><rect width="136" height="32" x="253" y="1" class="nonterminal"/><text x="263" y="21" class="nonterminal">connection_name</text><rect width="26" height="32" x="411" y="3" rx="10"/><rect width="26" height="32" x="409" y="1" class="terminal" rx="10"/><text x="419" y="21" class="terminal">(</text><rect width="64" height="32" x="457" y="3" rx="10"/><rect width="64" height="32" x="455" y="1" class="terminal" rx="10"/><text x="465" y="21" class="terminal">TOPIC</text><rect width="52" height="32" x="173" y="69"/><rect width="52" height="32" x="171" y="67" class="nonterminal"/><text x="181" y="87" class="nonterminal">topic</text><rect width="24" height="32" x="265" y="101" rx="10"/><rect width="24" height="32" x="263" y="99" class="terminal" rx="10"/><text x="273" y="119" class="terminal">,</text><rect width="140" height="32" x="309" y="101"/><rect width="140" height="32" x="307" y="99" class="nonterminal"/><text x="317" y="119" class="nonterminal">connection_option</text><rect width="26" height="32" x="489" y="69" rx="10"/><rect width="26" height="32" x="487" y="67" class="terminal" rx="10"/><text x="497" y="87" class="terminal">)</text><path d="m17 17 h2 m0 0 h10 m68 0 h10 m0 0 h10 m116 0 h10 m0 0 h10 m136 0 h10 m0 0 h10 m26 0 h10 m0 0 h10 m64 0 h10 m2 0 l2 0 m2 0 l2 0 m2 0 l2 0 m-392 66 l2 0 m2 0 l2 0 m2 0 l2 0 m2 0 h10 m52 0 h10 m20 0 h10 m0 0 h194 m-224 0 h20 m204 0 h20 m-244 0 q10 0 10 10 m224 0 q0 -10 10 -10 m-234 10 v12 m224 0 v-12 m-224 12 q0 10 10 10 m204 0 q10 0 10 -10 m-214 10 h10 m24 0 h10 m0 0 h10 m140 0 h10 m20 -32 h10 m26 0 h10 m3 0 h-3" class="line"/><polygon points="533 83 541 79 541 87"/><polygon points="533 83 525 79 525 87"/></svg>