<svg xmlns="http://www.w3.org/2000/svg" width="259" height="37"><polygon points="9 17 1 13 1 21"/><polygon points="17 17 9 13 9 21"/><rect width="130" height="32" x="31" y="3" rx="10"/><rect width="130" height="32" x="29" y="1" class="terminal" rx="10"/><text x="39" y="21" class="terminal">KEY STRATEGY</text><rect width="50" height="32" x="181" y="3"/><rect width="50" height="32" x="179" y="1" class="nonterminal"/><text x="189" y="21" class="nonterminal">strat</text><path d="m17 17 h2 m0 0 h10 m130 0 h10 m0 0 h10 m50 0 h10 m3 0 h-3" class="line"/><polygon points="249 17 257 13 257 21"/><polygon points="249 17 241 13 241 21"/></svg>