<svg xmlns="http://www.w3.org/2000/svg" width="167" height="37"><polygon points="9 17 1 13 1 21"/><polygon points="17 17 9 13 9 21"/><rect width="50" height="32" x="31" y="3"/><rect width="50" height="32" x="29" y="1" class="nonterminal"/><text x="39" y="21" class="nonterminal">type</text><rect width="38" height="32" x="101" y="3"/><rect width="38" height="32" x="99" y="1" class="nonterminal"/><text x="109" y="21" class="nonterminal">val</text><path d="m17 17 h2 m0 0 h10 m50 0 h10 m0 0 h10 m38 0 h10 m3 0 h-3" class="line"/><polygon points="157 17 165 13 165 21"/><polygon points="157 17 149 13 149 21"/></svg>