<svg xmlns="http://www.w3.org/2000/svg" width="395" height="125"><polygon points="9 17 1 13 1 21"/><polygon points="17 17 9 13 9 21"/><rect width="128" height="32" x="51" y="3" rx="10"/><rect width="128" height="32" x="49" y="1" class="terminal" rx="10"/><text x="59" y="21" class="terminal">TICK INTERVAL</text><rect width="68" height="32" x="199" y="3"/><rect width="68" height="32" x="197" y="1" class="nonterminal"/><text x="207" y="21" class="nonterminal">interval</text><rect width="130" height="32" x="51" y="47" rx="10"/><rect width="130" height="32" x="49" y="45" class="terminal" rx="10"/><text x="59" y="65" class="terminal">SCALE FACTOR</text><rect width="100" height="32" x="201" y="47"/><rect width="100" height="32" x="199" y="45" class="nonterminal"/><text x="209" y="65" class="nonterminal">scale_factor</text><rect width="154" height="32" x="51" y="91" rx="10"/><rect width="154" height="32" x="49" y="89" class="terminal" rx="10"/><text x="59" y="109" class="terminal">MAX CARDINALITY</text><rect width="122" height="32" x="225" y="91"/><rect width="122" height="32" x="223" y="89" class="nonterminal"/><text x="233" y="109" class="nonterminal">max_cardinality</text><path d="m17 17 h2 m20 0 h10 m128 0 h10 m0 0 h10 m68 0 h10 m0 0 h80 m-336 0 h20 m316 0 h20 m-356 0 q10 0 10 10 m336 0 q0 -10 10 -10 m-346 10 v24 m336 0 v-24 m-336 24 q0 10 10 10 m316 0 q10 0 10 -10 m-326 10 h10 m130 0 h10 m0 0 h10 m100 0 h10 m0 0 h46 m-326 -10 v20 m336 0 v-20 m-336 20 v24 m336 0 v-24 m-336 24 q0 10 10 10 m316 0 q10 0 10 -10 m-326 10 h10 m154 0 h10 m0 0 h10 m122 0 h10 m23 -88 h-3" class="line"/><polygon points="385 17 393 13 393 21"/><polygon points="385 17 377 13 377 21"/></svg>