<svg xmlns="http://www.w3.org/2000/svg" width="517" height="521"><polygon points="9 17 1 13 1 21"/><polygon points="17 17 9 13 9 21"/><rect width="128" height="32" x="51" y="3" rx="10"/><rect width="128" height="32" x="49" y="1" class="terminal" rx="10"/><text x="59" y="21" class="terminal">TICK INTERVAL</text><rect width="68" height="32" x="199" y="3"/><rect width="68" height="32" x="197" y="1" class="nonterminal"/><text x="207" y="21" class="nonterminal">interval</text><rect width="62" height="32" x="71" y="47" rx="10"/><rect width="62" height="32" x="69" y="45" class="terminal" rx="10"/><text x="79" y="65" class="terminal">AS OF</text><rect width="64" height="32" x="71" y="91" rx="10"/><rect width="64" height="32" x="69" y="89" class="terminal" rx="10"/><text x="79" y="109" class="terminal">UP TO</text><rect width="44" height="32" x="175" y="47"/><rect width="44" height="32" x="173" y="45" class="nonterminal"/><text x="183" y="65" class="nonterminal">tick</text><rect width="130" height="32" x="51" y="135" rx="10"/><rect width="130" height="32" x="49" y="133" class="terminal" rx="10"/><text x="59" y="153" class="terminal">SCALE FACTOR</text><rect width="100" height="32" x="201" y="135"/><rect width="100" height="32" x="199" y="133" class="nonterminal"/><text x="209" y="153" class="nonterminal">scale_factor</text><rect width="154" height="32" x="51" y="179" rx="10"/><rect width="154" height="32" x="49" y="177" class="terminal" rx="10"/><text x="59" y="197" class="terminal">MAX CARDINALITY</text><rect width="122" height="32" x="225" y="179"/><rect width="122" height="32" x="223" y="177" class="nonterminal"/><text x="233" y="197" class="nonterminal">max_cardinality</text><rect width="58" height="32" x="51" y="223" rx="10"/><rect width="58" height="32" x="49" y="221" class="terminal" rx="10"/><text x="59" y="241" class="terminal">KEYS</text><rect width="50" height="32" x="129" y="223"/><rect width="50" height="32" x="127" y="221" class="nonterminal"/><text x="137" y="241" class="nonterminal">keys</text><rect width="162" height="32" x="51" y="267" rx="10"/><rect width="162" height="32" x="49" y="265" class="terminal" rx="10"/><text x="59" y="285" class="terminal">SNAPSHOT ROUNDS</text><rect width="132" height="32" x="233" y="267"/><rect width="132" height="32" x="231" y="265" class="nonterminal"/><text x="241" y="285" class="nonterminal">snapshot_rounds</text><rect width="226" height="32" x="51" y="311" rx="10"/><rect width="226" height="32" x="49" y="309" class="terminal" rx="10"/><text x="59" y="329" class="terminal">TRANSACTIONAL SNAPSHOT</text><rect width="172" height="32" x="297" y="311"/><rect width="172" height="32" x="295" y="309" class="nonterminal"/><text x="305" y="329" class="nonterminal">transactional_snapshot</text><rect width="102" height="32" x="51" y="355" rx="10"/><rect width="102" height="32" x="49" y="353" class="terminal" rx="10"/><text x="59" y="373" class="terminal">VALUE SIZE</text><rect width="88" height="32" x="173" y="355"/><rect width="88" height="32" x="171" y="353" class="nonterminal"/><text x="181" y="373" class="nonterminal">value_size</text><rect width="56" height="32" x="51" y="399" rx="10"/><rect width="56" height="32" x="49" y="397" class="terminal" rx="10"/><text x="59" y="417" class="terminal">SEED</text><rect width="52" height="32" x="127" y="399"/><rect width="52" height="32" x="125" y="397" class="nonterminal"/><text x="135" y="417" class="nonterminal">seed</text><rect width="106" height="32" x="51" y="443" rx="10"/><rect width="106" height="32" x="49" y="441" class="terminal" rx="10"/><text x="59" y="461" class="terminal">PARTITIONS</text><rect width="82" height="32" x="177" y="443"/><rect width="82" height="32" x="175" y="441" class="nonterminal"/><text x="185" y="461" class="nonterminal">partitions</text><rect width="106" height="32" x="51" y="487" rx="10"/><rect width="106" height="32" x="49" y="485" class="terminal" rx="10"/><text x="59" y="505" class="terminal">BATCH SIZE</text><rect width="90" height="32" x="177" y="487"/><rect width="90" height="32" x="175" y="485" class="nonterminal"/><text x="185" y="505" class="nonterminal">batch_size</text><path d="m17 17 h2 m20 0 h10 m128 0 h10 m0 0 h10 m68 0 h10 m0 0 h202 m-458 0 h20 m438 0 h20 m-478 0 q10 0 10 10 m458 0 q0 -10 10 -10 m-468 10 v24 m458 0 v-24 m-458 24 q0 10 10 10 m438 0 q10 0 10 -10 m-428 10 h10 m62 0 h10 m0 0 h2 m-104 0 h20 m84 0 h20 m-124 0 q10 0 10 10 m104 0 q0 -10 10 -10 m-114 10 v24 m104 0 v-24 m-104 24 q0 10 10 10 m84 0 q10 0 10 -10 m-94 10 h10 m64 0 h10 m20 -44 h10 m44 0 h10 m0 0 h250 m-448 -10 v20 m458 0 v-20 m-458 20 v68 m458 0 v-68 m-458 68 q0 10 10 10 m438 0 q10 0 10 -10 m-448 10 h10 m130 0 h10 m0 0 h10 m100 0 h10 m0 0 h168 m-448 -10 v20 m458 0 v-20 m-458 20 v24 m458 0 v-24 m-458 24 q0 10 10 10 m438 0 q10 0 10 -10 m-448 10 h10 m154 0 h10 m0 0 h10 m122 0 h10 m0 0 h122 m-448 -10 v20 m458 0 v-20 m-458 20 v24 m458 0 v-24 m-458 24 q0 10 10 10 m438 0 q10 0 10 -10 m-448 10 h10 m58 0 h10 m0 0 h10 m50 0 h10 m0 0 h290 m-448 -10 v20 m458 0 v-20 m-458 20 v24 m458 0 v-24 m-458 24 q0 10 10 10 m438 0 q10 0 10 -10 m-448 10 h10 m162 0 h10 m0 0 h10 m132 0 h10 m0 0 h104 m-448 -10 v20 m458 0 v-20 m-458 20 v24 m458 0 v-24 m-458 24 q0 10 10 10 m438 0 q10 0 10 -10 m-448 10 h10 m226 0 h10 m0 0 h10 m172 0 h10 m-448 -10 v20 m458 0 v-20 m-458 20 v24 m458 0 v-24 m-458 24 q0 10 10 10 m438 0 q10 0 10 -10 m-448 10 h10 m102 0 h10 m0 0 h10 m88 0 h10 m0 0 h208 m-448 -10 v20 m458 0 v-20 m-458 20 v24 m458 0 v-24 m-458 24 q0 10 10 10 m438 0 q10 0 10 -10 m-448 10 h10 m56 0 h10 m0 0 h10 m52 0 h10 m0 0 h290 m-448 -10 v20 m458 0 v-20 m-458 20 v24 m458 0 v-24 m-458 24 q0 10 10 10 m438 0 q10 0 10 -10 m-448 10 h10 m106 0 h10 m0 0 h10 m82 0 h10 m0 0 h210 m-448 -10 v20 m458 0 v-20 m-458 20 v24 m458 0 v-24 m-458 24 q0 10 10 10 m438 0 q10 0 10 -10 m-448 10 h10 m106 0 h10 m0 0 h10 m90 0 h10 m0 0 h202 m23 -484 h-3" class="line"/><polygon points="507 17 515 13 515 21"/><polygon points="507 17 499 13 499 21"/></svg>