<svg xmlns="http://www.w3.org/2000/svg" width="215" height="37"><polygon points="9 17 1 13 1 21"/><polygon points="17 17 9 13 9 21"/><rect width="38" height="32" x="31" y="3"/><rect width="38" height="32" x="29" y="1" class="nonterminal"/><text x="39" y="21" class="nonterminal">val</text><rect width="28" height="32" x="89" y="3" rx="10"/><rect width="28" height="32" x="87" y="1" class="terminal" rx="10"/><text x="97" y="21" class="terminal">::</text><rect width="50" height="32" x="137" y="3"/><rect width="50" height="32" x="135" y="1" class="nonterminal"/><text x="145" y="21" class="nonterminal">type</text><path d="m17 17 h2 m0 0 h10 m38 0 h10 m0 0 h10 m28 0 h10 m0 0 h10 m50 0 h10 m3 0 h-3" class="line"/><polygon points="205 17 213 13 213 21"/><polygon points="205 17 197 13 197 21"/></svg>