<svg xmlns="http://www.w3.org/2000/svg" width="385" height="37"><polygon points="9 17 1 13 1 21"/><polygon points="17 17 9 13 9 21"/><rect width="84" height="32" x="31" y="3" rx="10"/><rect width="84" height="32" x="29" y="1" class="terminal" rx="10"/><text x="39" y="21" class="terminal">PREPARE</text><rect width="56" height="32" x="135" y="3"/><rect width="56" height="32" x="133" y="1" class="nonterminal"/><text x="143" y="21" class="nonterminal">name</text><rect width="40" height="32" x="211" y="3" rx="10"/><rect width="40" height="32" x="209" y="1" class="terminal" rx="10"/><text x="219" y="21" class="terminal">AS</text><rect width="86" height="32" x="271" y="3"/><rect width="86" height="32" x="269" y="1" class="nonterminal"/><text x="279" y="21" class="nonterminal">statement</text><path d="m17 17 h2 m0 0 h10 m84 0 h10 m0 0 h10 m56 0 h10 m0 0 h10 m40 0 h10 m0 0 h10 m86 0 h10 m3 0 h-3" class="line"/><polygon points="375 17 383 13 383 21"/><polygon points="375 17 367 13 367 21"/></svg>