<svg xmlns="http://www.w3.org/2000/svg" width="301" height="433"><polygon points="9 17 1 13 1 21"/><polygon points="17 17 9 13 9 21"/><rect width="74" height="32" x="51" y="3" rx="10"/><rect width="74" height="32" x="49" y="1" class="terminal" rx="10"/><text x="59" y="21" class="terminal">SELECT</text><rect width="70" height="32" x="51" y="47" rx="10"/><rect width="70" height="32" x="49" y="45" class="terminal" rx="10"/><text x="59" y="65" class="terminal">INSERT</text><rect width="78" height="32" x="51" y="91" rx="10"/><rect width="78" height="32" x="49" y="89" class="terminal" rx="10"/><text x="59" y="109" class="terminal">UPDATE</text><rect width="72" height="32" x="51" y="135" rx="10"/><rect width="72" height="32" x="49" y="133" class="terminal" rx="10"/><text x="59" y="153" class="terminal">DELETE</text><rect width="76" height="32" x="51" y="179" rx="10"/><rect width="76" height="32" x="49" y="177" class="terminal" rx="10"/><text x="59" y="197" class="terminal">CREATE</text><rect width="68" height="32" x="51" y="223" rx="10"/><rect width="68" height="32" x="49" y="221" class="terminal" rx="10"/><text x="59" y="241" class="terminal">USAGE</text><rect width="114" height="32" x="51" y="267" rx="10"/><rect width="114" height="32" x="49" y="265" class="terminal" rx="10"/><text x="59" y="285" class="terminal">CREATEROLE</text><rect width="96" height="32" x="51" y="311" rx="10"/><rect width="96" height="32" x="49" y="309" class="terminal" rx="10"/><text x="59" y="329" class="terminal">CREATEDB</text><rect width="142" height="32" x="51" y="355" rx="10"/><rect width="142" height="32" x="49" y="353" class="terminal" rx="10"/><text x="59" y="373" class="terminal">CREATECLUSTER</text><rect width="202" height="32" x="51" y="399" rx="10"/><rect width="202" height="32" x="49" y="397" class="terminal" rx="10"/><text x="59" y="417" class="terminal">CREATENETWORKPOLICY</text><path d="m17 17 h2 m20 0 h10 m74 0 h10 m0 0 h128 m-242 0 h20 m222 0 h20 m-262 0 q10 0 10 10 m242 0 q0 -10 10 -10 m-252 10 v24 m242 0 v-24 m-242 24 q0 10 10 10 m222 0 q10 0 10 -10 m-232 10 h10 m70 0 h10 m0 0 h132 m-232 -10 v20 m242 0 v-20 m-242 20 v24 m242 0 v-24 m-242 24 q0 10 10 10 m222 0 q10 0 10 -10 m-232 10 h10 m78 0 h10 m0 0 h124 m-232 -10 v20 m242 0 v-20 m-242 20 v24 m242 0 v-24 m-242 24 q0 10 10 10 m222 0 q10 0 10 -10 m-232 10 h10 m72 0 h10 m0 0 h130 m-232 -10 v20 m242 0 v-20 m-242 20 v24 m242 0 v-24 m-242 24 q0 10 10 10 m222 0 q10 0 10 -10 m-232 10 h10 m76 0 h10 m0 0 h126 m-232 -10 v20 m242 0 v-20 m-242 20 v24 m242 0 v-24 m-242 24 q0 10 10 10 m222 0 q10 0 10 -10 m-232 10 h10 m68 0 h10 m0 0 h134 m-232 -10 v20 m242 0 v-20 m-242 20 v24 m242 0 v-24 m-242 24 q0 10 10 10 m222 0 q10 0 10 -10 m-232 10 h10 m114 0 h10 m0 0 h88 m-232 -10 v20 m242 0 v-20 m-242 20 v24 m242 0 v-24 m-242 24 q0 10 10 10 m222 0 q10 0 10 -10 m-232 10 h10 m96 0 h10 m0 0 h106 m-232 -10 v20 m242 0 v-20 m-242 20 v24 m242 0 v-24 m-242 24 q0 10 10 10 m222 0 q10 0 10 -10 m-232 10 h10 m142 0 h10 m0 0 h60 m-232 -10 v20 m242 0 v-20 m-242 20 v24 m242 0 v-24 m-242 24 q0 10 10 10 m222 0 q10 0 10 -10 m-232 10 h10 m202 0 h10 m23 -396 h-3" class="line"/><polygon points="291 17 299 13 299 21"/><polygon points="291 17 283 13 283 21"/></svg>