<svg xmlns="http://www.w3.org/2000/svg" width="241" height="389"><polygon points="9 17 1 13 1 21"/><polygon points="17 17 9 13 9 21"/><rect width="74" height="32" x="51" y="3" rx="10"/><rect width="74" height="32" x="49" y="1" class="terminal" rx="10"/><text x="59" y="21" class="terminal">SELECT</text><rect width="70" height="32" x="51" y="47" rx="10"/><rect width="70" height="32" x="49" y="45" class="terminal" rx="10"/><text x="59" y="65" class="terminal">INSERT</text><rect width="78" height="32" x="51" y="91" rx="10"/><rect width="78" height="32" x="49" y="89" class="terminal" rx="10"/><text x="59" y="109" class="terminal">UPDATE</text><rect width="72" height="32" x="51" y="135" rx="10"/><rect width="72" height="32" x="49" y="133" class="terminal" rx="10"/><text x="59" y="153" class="terminal">DELETE</text><rect width="76" height="32" x="51" y="179" rx="10"/><rect width="76" height="32" x="49" y="177" class="terminal" rx="10"/><text x="59" y="197" class="terminal">CREATE</text><rect width="68" height="32" x="51" y="223" rx="10"/><rect width="68" height="32" x="49" y="221" class="terminal" rx="10"/><text x="59" y="241" class="terminal">USAGE</text><rect width="114" height="32" x="51" y="267" rx="10"/><rect width="114" height="32" x="49" y="265" class="terminal" rx="10"/><text x="59" y="285" class="terminal">CREATEROLE</text><rect width="96" height="32" x="51" y="311" rx="10"/><rect width="96" height="32" x="49" y="309" class="terminal" rx="10"/><text x="59" y="329" class="terminal">CREATEDB</text><rect width="142" height="32" x="51" y="355" rx="10"/><rect width="142" height="32" x="49" y="353" class="terminal" rx="10"/><text x="59" y="373" class="terminal">CREATECLUSTER</text><path d="m17 17 h2 m20 0 h10 m74 0 h10 m0 0 h68 m-182 0 h20 m162 0 h20 m-202 0 q10 0 10 10 m182 0 q0 -10 10 -10 m-192 10 v24 m182 0 v-24 m-182 24 q0 10 10 10 m162 0 q10 0 10 -10 m-172 10 h10 m70 0 h10 m0 0 h72 m-172 -10 v20 m182 0 v-20 m-182 20 v24 m182 0 v-24 m-182 24 q0 10 10 10 m162 0 q10 0 10 -10 m-172 10 h10 m78 0 h10 m0 0 h64 m-172 -10 v20 m182 0 v-20 m-182 20 v24 m182 0 v-24 m-182 24 q0 10 10 10 m162 0 q10 0 10 -10 m-172 10 h10 m72 0 h10 m0 0 h70 m-172 -10 v20 m182 0 v-20 m-182 20 v24 m182 0 v-24 m-182 24 q0 10 10 10 m162 0 q10 0 10 -10 m-172 10 h10 m76 0 h10 m0 0 h66 m-172 -10 v20 m182 0 v-20 m-182 20 v24 m182 0 v-24 m-182 24 q0 10 10 10 m162 0 q10 0 10 -10 m-172 10 h10 m68 0 h10 m0 0 h74 m-172 -10 v20 m182 0 v-20 m-182 20 v24 m182 0 v-24 m-182 24 q0 10 10 10 m162 0 q10 0 10 -10 m-172 10 h10 m114 0 h10 m0 0 h28 m-172 -10 v20 m182 0 v-20 m-182 20 v24 m182 0 v-24 m-182 24 q0 10 10 10 m162 0 q10 0 10 -10 m-172 10 h10 m96 0 h10 m0 0 h46 m-172 -10 v20 m182 0 v-20 m-182 20 v24 m182 0 v-24 m-182 24 q0 10 10 10 m162 0 q10 0 10 -10 m-172 10 h10 m142 0 h10 m23 -352 h-3" class="line"/><polygon points="231 17 239 13 239 21"/><polygon points="231 17 223 13 223 21"/></svg>