<svg xmlns="http://www.w3.org/2000/svg" width="491" height="147"><polygon points="9 61 1 57 1 65"/><polygon points="17 61 9 57 9 65"/><rect width="92" height="32" x="31" y="47" rx="10"/><rect width="92" height="32" x="29" y="45" class="terminal" rx="10"/><text x="39" y="65" class="terminal">REASSIGN</text><rect width="74" height="32" x="143" y="47" rx="10"/><rect width="74" height="32" x="141" y="45" class="terminal" rx="10"/><text x="151" y="65" class="terminal">OWNED</text><rect width="40" height="32" x="237" y="47" rx="10"/><rect width="40" height="32" x="235" y="45" class="terminal" rx="10"/><text x="245" y="65" class="terminal">BY</text><rect width="72" height="32" x="317" y="47"/><rect width="72" height="32" x="315" y="45" class="nonterminal"/><text x="325" y="65" class="nonterminal">old_role</text><rect width="24" height="32" x="317" y="3" rx="10"/><rect width="24" height="32" x="315" y="1" class="terminal" rx="10"/><text x="325" y="21" class="terminal">,</text><rect width="40" height="32" x="429" y="47" rx="10"/><rect width="40" height="32" x="427" y="45" class="terminal" rx="10"/><text x="437" y="65" class="terminal">TO</text><rect width="78" height="32" x="385" y="113"/><rect width="78" height="32" x="383" y="111" class="nonterminal"/><text x="393" y="131" class="nonterminal">new_role</text><path d="m17 61 h2 m0 0 h10 m92 0 h10 m0 0 h10 m74 0 h10 m0 0 h10 m40 0 h10 m20 0 h10 m72 0 h10 m-112 0 l20 0 m-1 0 q-9 0 -9 -10 l0 -24 q0 -10 10 -10 m92 44 l20 0 m-20 0 q10 0 10 -10 l0 -24 q0 -10 -10 -10 m-92 0 h10 m24 0 h10 m0 0 h48 m20 44 h10 m40 0 h10 m2 0 l2 0 m2 0 l2 0 m2 0 l2 0 m-128 66 l2 0 m2 0 l2 0 m2 0 l2 0 m2 0 h10 m78 0 h10 m3 0 h-3" class="line"/><polygon points="481 127 489 123 489 131"/><polygon points="481 127 473 123 473 131"/></svg>