<svg xmlns="http://www.w3.org/2000/svg" width="257" height="37"><polygon points="9 17 1 13 1 21"/><polygon points="17 17 9 13 9 21"/><rect width="64" height="32" x="31" y="3" rx="10"/><rect width="64" height="32" x="29" y="1" class="terminal" rx="10"/><text x="39" y="21" class="terminal">RESET</text><rect width="114" height="32" x="115" y="3"/><rect width="114" height="32" x="113" y="1" class="nonterminal"/><text x="123" y="21" class="nonterminal">variable_name</text><path d="m17 17 h2 m0 0 h10 m64 0 h10 m0 0 h10 m114 0 h10 m3 0 h-3" class="line"/><polygon points="247 17 255 13 255 21"/><polygon points="247 17 239 13 239 21"/></svg>