<svg xmlns="http://www.w3.org/2000/svg" width="273" height="37"><polygon points="9 17 1 13 1 21"/><polygon points="17 17 9 13 9 21"/><rect width="64" height="32" x="31" y="3" rx="10"/><rect width="64" height="32" x="29" y="1" class="terminal" rx="10"/><text x="39" y="21" class="terminal">RESET</text><rect width="130" height="32" x="115" y="3"/><rect width="130" height="32" x="113" y="1" class="nonterminal"/><text x="123" y="21" class="nonterminal">parameter_name</text><path d="m17 17 h2 m0 0 h10 m64 0 h10 m0 0 h10 m130 0 h10 m3 0 h-3" class="line"/><polygon points="263 17 271 13 271 21"/><polygon points="263 17 255 13 255 21"/></svg>