<svg xmlns="http://www.w3.org/2000/svg" width="359" height="223"><polygon points="9 61 1 57 1 65"/><polygon points="17 61 9 57 9 65"/><rect width="78" height="32" x="31" y="47" rx="10"/><rect width="78" height="32" x="29" y="45" class="terminal" rx="10"/><text x="39" y="65" class="terminal">REVOKE</text><rect width="88" height="32" x="149" y="47"/><rect width="88" height="32" x="147" y="45" class="nonterminal"/><text x="157" y="65" class="nonterminal">role_name</text><rect width="24" height="32" x="149" y="3" rx="10"/><rect width="24" height="32" x="147" y="1" class="terminal" rx="10"/><text x="157" y="21" class="terminal">,</text><rect width="60" height="32" x="277" y="47" rx="10"/><rect width="60" height="32" x="275" y="45" class="terminal" rx="10"/><text x="285" y="65" class="terminal">FROM</text><rect width="70" height="32" x="85" y="189" rx="10"/><rect width="70" height="32" x="83" y="187" class="terminal" rx="10"/><text x="93" y="207" class="terminal">GROUP</text><rect width="116" height="32" x="195" y="157"/><rect width="116" height="32" x="193" y="155" class="nonterminal"/><text x="203" y="175" class="nonterminal">member_name</text><rect width="24" height="32" x="65" y="113" rx="10"/><rect width="24" height="32" x="63" y="111" class="terminal" rx="10"/><text x="73" y="131" class="terminal">,</text><path d="m17 61 h2 m0 0 h10 m78 0 h10 m20 0 h10 m88 0 h10 m-128 0 l20 0 m-1 0 q-9 0 -9 -10 l0 -24 q0 -10 10 -10 m108 44 l20 0 m-20 0 q10 0 10 -10 l0 -24 q0 -10 -10 -10 m-108 0 h10 m24 0 h10 m0 0 h64 m20 44 h10 m60 0 h10 m2 0 l2 0 m2 0 l2 0 m2 0 l2 0 m-336 110 l2 0 m2 0 l2 0 m2 0 l2 0 m42 0 h10 m0 0 h80 m-110 0 h20 m90 0 h20 m-130 0 q10 0 10 10 m110 0 q0 -10 10 -10 m-120 10 v12 m110 0 v-12 m-110 12 q0 10 10 10 m90 0 q10 0 10 -10 m-100 10 h10 m70 0 h10 m20 -32 h10 m116 0 h10 m-286 0 l20 0 m-1 0 q-9 0 -9 -10 l0 -24 q0 -10 10 -10 m266 44 l20 0 m-20 0 q10 0 10 -10 l0 -24 q0 -10 -10 -10 m-266 0 h10 m24 0 h10 m0 0 h222 m23 44 h-3" class="line"/><polygon points="349 171 357 167 357 175"/><polygon points="349 171 341 167 341 175"/></svg>