<svg xmlns="http://www.w3.org/2000/svg" width="295" height="125"><polygon points="9 17 1 13 1 21"/><polygon points="17 17 9 13 9 21"/><rect width="128" height="32" x="51" y="3"/><rect width="128" height="32" x="49" y="1" class="nonterminal"/><text x="59" y="21" class="nonterminal">select_with_ctes</text><rect width="196" height="32" x="51" y="47"/><rect width="196" height="32" x="49" y="45" class="nonterminal"/><text x="59" y="65" class="nonterminal">select_with_recursive_ctes</text><rect width="144" height="32" x="51" y="91"/><rect width="144" height="32" x="49" y="89" class="nonterminal"/><text x="59" y="109" class="nonterminal">simple_select_stmt</text><path d="m17 17 h2 m20 0 h10 m128 0 h10 m0 0 h68 m-236 0 h20 m216 0 h20 m-256 0 q10 0 10 10 m236 0 q0 -10 10 -10 m-246 10 v24 m236 0 v-24 m-236 24 q0 10 10 10 m216 0 q10 0 10 -10 m-226 10 h10 m196 0 h10 m-226 -10 v20 m236 0 v-20 m-236 20 v24 m236 0 v-24 m-236 24 q0 10 10 10 m216 0 q10 0 10 -10 m-226 10 h10 m144 0 h10 m0 0 h52 m23 -88 h-3" class="line"/><polygon points="285 17 293 13 293 21"/><polygon points="285 17 277 13 277 21"/></svg>