<svg xmlns="http://www.w3.org/2000/svg" width="567" height="113"><polygon points="9 17 1 13 1 21"/><polygon points="17 17 9 13 9 21"/><rect width="46" height="32" x="31" y="3" rx="10"/><rect width="46" height="32" x="29" y="1" class="terminal" rx="10"/><text x="39" y="21" class="terminal">SET</text><rect width="82" height="32" x="117" y="35" rx="10"/><rect width="82" height="32" x="115" y="33" class="terminal" rx="10"/><text x="125" y="53" class="terminal">SESSION</text><rect width="68" height="32" x="117" y="79" rx="10"/><rect width="68" height="32" x="115" y="77" class="terminal" rx="10"/><text x="125" y="97" class="terminal">LOCAL</text><rect width="56" height="32" x="239" y="3"/><rect width="56" height="32" x="237" y="1" class="nonterminal"/><text x="247" y="21" class="nonterminal">name</text><rect width="40" height="32" x="335" y="3" rx="10"/><rect width="40" height="32" x="333" y="1" class="terminal" rx="10"/><text x="343" y="21" class="terminal">TO</text><rect width="28" height="32" x="335" y="47" rx="10"/><rect width="28" height="32" x="333" y="45" class="terminal" rx="10"/><text x="343" y="65" class="terminal">=</text><rect width="54" height="32" x="435" y="3"/><rect width="54" height="32" x="433" y="1" class="nonterminal"/><text x="443" y="21" class="nonterminal">value</text><rect width="84" height="32" x="435" y="47" rx="10"/><rect width="84" height="32" x="433" y="45" class="terminal" rx="10"/><text x="443" y="65" class="terminal">DEFAULT</text><path d="m17 17 h2 m0 0 h10 m46 0 h10 m20 0 h10 m0 0 h92 m-122 0 h20 m102 0 h20 m-142 0 q10 0 10 10 m122 0 q0 -10 10 -10 m-132 10 v12 m122 0 v-12 m-122 12 q0 10 10 10 m102 0 q10 0 10 -10 m-112 10 h10 m82 0 h10 m-112 -10 v20 m122 0 v-20 m-122 20 v24 m122 0 v-24 m-122 24 q0 10 10 10 m102 0 q10 0 10 -10 m-112 10 h10 m68 0 h10 m0 0 h14 m20 -76 h10 m56 0 h10 m20 0 h10 m40 0 h10 m-80 0 h20 m60 0 h20 m-100 0 q10 0 10 10 m80 0 q0 -10 10 -10 m-90 10 v24 m80 0 v-24 m-80 24 q0 10 10 10 m60 0 q10 0 10 -10 m-70 10 h10 m28 0 h10 m0 0 h12 m40 -44 h10 m54 0 h10 m0 0 h30 m-124 0 h20 m104 0 h20 m-144 0 q10 0 10 10 m124 0 q0 -10 10 -10 m-134 10 v24 m124 0 v-24 m-124 24 q0 10 10 10 m104 0 q10 0 10 -10 m-114 10 h10 m84 0 h10 m23 -44 h-3" class="line"/><polygon points="557 17 565 13 565 21"/><polygon points="557 17 549 13 549 21"/></svg>