<svg xmlns="http://www.w3.org/2000/svg" width="523" height="463"><polygon points="9 17 1 13 1 21"/><polygon points="17 17 9 13 9 21"/><rect width="64" height="32" x="31" y="3" rx="10"/><rect width="64" height="32" x="29" y="1" class="terminal" rx="10"/><text x="39" y="21" class="terminal">SHOW</text><rect width="102" height="32" x="115" y="3" rx="10"/><rect width="102" height="32" x="113" y="1" class="terminal" rx="10"/><text x="123" y="21" class="terminal">PRIVILEGES</text><rect width="40" height="32" x="257" y="35" rx="10"/><rect width="40" height="32" x="255" y="33" class="terminal" rx="10"/><text x="265" y="53" class="terminal">ON</text><rect width="74" height="32" x="337" y="35" rx="10"/><rect width="74" height="32" x="335" y="33" class="terminal" rx="10"/><text x="345" y="53" class="terminal">TABLES</text><rect width="66" height="32" x="337" y="79" rx="10"/><rect width="66" height="32" x="335" y="77" class="terminal" rx="10"/><text x="345" y="97" class="terminal">TYPES</text><rect width="84" height="32" x="337" y="123" rx="10"/><rect width="84" height="32" x="335" y="121" class="terminal" rx="10"/><text x="345" y="141" class="terminal">SECRETS</text><rect width="124" height="32" x="337" y="167" rx="10"/><rect width="124" height="32" x="335" y="165" class="terminal" rx="10"/><text x="345" y="185" class="terminal">CONNECTIONS</text><rect width="106" height="32" x="337" y="211" rx="10"/><rect width="106" height="32" x="335" y="209" class="terminal" rx="10"/><text x="345" y="229" class="terminal">DATABASES</text><rect width="90" height="32" x="337" y="255" rx="10"/><rect width="90" height="32" x="335" y="253" class="terminal" rx="10"/><text x="345" y="273" class="terminal">SCHEMAS</text><rect width="94" height="32" x="337" y="299" rx="10"/><rect width="94" height="32" x="335" y="297" class="terminal" rx="10"/><text x="345" y="317" class="terminal">CLUSTERS</text><rect width="78" height="32" x="337" y="343" rx="10"/><rect width="78" height="32" x="335" y="341" class="terminal" rx="10"/><text x="345" y="361" class="terminal">SYSTEM</text><rect width="48" height="32" x="319" y="429" rx="10"/><rect width="48" height="32" x="317" y="427" class="terminal" rx="10"/><text x="327" y="447" class="terminal">FOR</text><rect width="88" height="32" x="387" y="429"/><rect width="88" height="32" x="385" y="427" class="nonterminal"/><text x="395" y="447" class="nonterminal">role_name</text><path d="m17 17 h2 m0 0 h10 m64 0 h10 m0 0 h10 m102 0 h10 m20 0 h10 m0 0 h234 m-264 0 h20 m244 0 h20 m-284 0 q10 0 10 10 m264 0 q0 -10 10 -10 m-274 10 v12 m264 0 v-12 m-264 12 q0 10 10 10 m244 0 q10 0 10 -10 m-254 10 h10 m40 0 h10 m20 0 h10 m74 0 h10 m0 0 h50 m-164 0 h20 m144 0 h20 m-184 0 q10 0 10 10 m164 0 q0 -10 10 -10 m-174 10 v24 m164 0 v-24 m-164 24 q0 10 10 10 m144 0 q10 0 10 -10 m-154 10 h10 m66 0 h10 m0 0 h58 m-154 -10 v20 m164 0 v-20 m-164 20 v24 m164 0 v-24 m-164 24 q0 10 10 10 m144 0 q10 0 10 -10 m-154 10 h10 m84 0 h10 m0 0 h40 m-154 -10 v20 m164 0 v-20 m-164 20 v24 m164 0 v-24 m-164 24 q0 10 10 10 m144 0 q10 0 10 -10 m-154 10 h10 m124 0 h10 m-154 -10 v20 m164 0 v-20 m-164 20 v24 m164 0 v-24 m-164 24 q0 10 10 10 m144 0 q10 0 10 -10 m-154 10 h10 m106 0 h10 m0 0 h18 m-154 -10 v20 m164 0 v-20 m-164 20 v24 m164 0 v-24 m-164 24 q0 10 10 10 m144 0 q10 0 10 -10 m-154 10 h10 m90 0 h10 m0 0 h34 m-154 -10 v20 m164 0 v-20 m-164 20 v24 m164 0 v-24 m-164 24 q0 10 10 10 m144 0 q10 0 10 -10 m-154 10 h10 m94 0 h10 m0 0 h30 m-154 -10 v20 m164 0 v-20 m-164 20 v24 m164 0 v-24 m-164 24 q0 10 10 10 m144 0 q10 0 10 -10 m-154 10 h10 m78 0 h10 m0 0 h46 m42 -340 l2 0 m2 0 l2 0 m2 0 l2 0 m-246 394 l2 0 m2 0 l2 0 m2 0 l2 0 m22 0 h10 m0 0 h166 m-196 0 h20 m176 0 h20 m-216 0 q10 0 10 10 m196 0 q0 -10 10 -10 m-206 10 v12 m196 0 v-12 m-196 12 q0 10 10 10 m176 0 q10 0 10 -10 m-186 10 h10 m48 0 h10 m0 0 h10 m88 0 h10 m23 -32 h-3" class="line"/><polygon points="513 411 521 407 521 415"/><polygon points="513 411 505 407 505 415"/></svg>