<svg xmlns="http://www.w3.org/2000/svg" width="463" height="69"><polygon points="9 17 1 13 1 21"/><polygon points="17 17 9 13 9 21"/><rect width="64" height="32" x="31" y="3" rx="10"/><rect width="64" height="32" x="29" y="1" class="terminal" rx="10"/><text x="39" y="21" class="terminal">SHOW</text><rect width="66" height="32" x="115" y="3" rx="10"/><rect width="66" height="32" x="113" y="1" class="terminal" rx="10"/><text x="123" y="21" class="terminal">VIEWS</text><rect width="60" height="32" x="221" y="35" rx="10"/><rect width="60" height="32" x="219" y="33" class="terminal" rx="10"/><text x="229" y="53" class="terminal">FROM</text><rect width="114" height="32" x="301" y="35"/><rect width="114" height="32" x="299" y="33" class="nonterminal"/><text x="309" y="53" class="nonterminal">schema_name</text><path d="m17 17 h2 m0 0 h10 m64 0 h10 m0 0 h10 m66 0 h10 m20 0 h10 m0 0 h204 m-234 0 h20 m214 0 h20 m-254 0 q10 0 10 10 m234 0 q0 -10 10 -10 m-244 10 v12 m234 0 v-12 m-234 12 q0 10 10 10 m214 0 q10 0 10 -10 m-224 10 h10 m60 0 h10 m0 0 h10 m114 0 h10 m23 -32 h-3" class="line"/><polygon points="453 17 461 13 461 21"/><polygon points="453 17 445 13 445 21"/></svg>