<svg xmlns="http://www.w3.org/2000/svg" width="409" height="37"><polygon points="9 17 1 13 1 21"/><polygon points="17 17 9 13 9 21"/><rect width="64" height="32" x="31" y="3" rx="10"/><rect width="64" height="32" x="29" y="1" class="terminal" rx="10"/><text x="39" y="21" class="terminal">SHOW</text><rect width="76" height="32" x="115" y="3" rx="10"/><rect width="76" height="32" x="113" y="1" class="terminal" rx="10"/><text x="123" y="21" class="terminal">CREATE</text><rect width="58" height="32" x="211" y="3" rx="10"/><rect width="58" height="32" x="209" y="1" class="terminal" rx="10"/><text x="219" y="21" class="terminal">VIEW</text><rect width="92" height="32" x="289" y="3"/><rect width="92" height="32" x="287" y="1" class="nonterminal"/><text x="297" y="21" class="nonterminal">view_name</text><path d="m17 17 h2 m0 0 h10 m64 0 h10 m0 0 h10 m76 0 h10 m0 0 h10 m58 0 h10 m0 0 h10 m92 0 h10 m3 0 h-3" class="line"/><polygon points="399 17 407 13 407 21"/><polygon points="399 17 391 13 391 21"/></svg>