<svg xmlns="http://www.w3.org/2000/svg" width="437" height="113"><polygon points="9 17 1 13 1 21"/><polygon points="17 17 9 13 9 21"/><rect width="64" height="32" x="31" y="3" rx="10"/><rect width="64" height="32" x="29" y="1" class="terminal" rx="10"/><text x="39" y="21" class="terminal">SHOW</text><rect width="94" height="32" x="115" y="3" rx="10"/><rect width="94" height="32" x="113" y="1" class="terminal" rx="10"/><text x="123" y="21" class="terminal">CLUSTERS</text><rect width="50" height="32" x="249" y="35" rx="10"/><rect width="50" height="32" x="247" y="33" class="terminal" rx="10"/><text x="257" y="53" class="terminal">LIKE</text><rect width="70" height="32" x="319" y="35" rx="10"/><rect width="70" height="32" x="317" y="33" class="terminal" rx="10"/><text x="327" y="53" class="terminal">pattern</text><rect width="70" height="32" x="249" y="79" rx="10"/><rect width="70" height="32" x="247" y="77" class="terminal" rx="10"/><text x="257" y="97" class="terminal">WHERE</text><rect width="48" height="32" x="339" y="79"/><rect width="48" height="32" x="337" y="77" class="nonterminal"/><text x="347" y="97" class="nonterminal">expr</text><path d="m17 17 h2 m0 0 h10 m64 0 h10 m0 0 h10 m94 0 h10 m20 0 h10 m0 0 h150 m-180 0 h20 m160 0 h20 m-200 0 q10 0 10 10 m180 0 q0 -10 10 -10 m-190 10 v12 m180 0 v-12 m-180 12 q0 10 10 10 m160 0 q10 0 10 -10 m-170 10 h10 m50 0 h10 m0 0 h10 m70 0 h10 m-170 -10 v20 m180 0 v-20 m-180 20 v24 m180 0 v-24 m-180 24 q0 10 10 10 m160 0 q10 0 10 -10 m-170 10 h10 m70 0 h10 m0 0 h10 m48 0 h10 m0 0 h2 m23 -76 h-3" class="line"/><polygon points="427 17 435 13 435 21"/><polygon points="427 17 419 13 419 21"/></svg>