<svg xmlns="http://www.w3.org/2000/svg" width="399" height="37"><polygon points="9 17 1 13 1 21"/><polygon points="17 17 9 13 9 21"/><rect width="64" height="32" x="31" y="3" rx="10"/><rect width="64" height="32" x="29" y="1" class="terminal" rx="10"/><text x="39" y="21" class="terminal">SHOW</text><rect width="76" height="32" x="115" y="3" rx="10"/><rect width="76" height="32" x="113" y="1" class="terminal" rx="10"/><text x="123" y="21" class="terminal">CREATE</text><rect width="52" height="32" x="211" y="3" rx="10"/><rect width="52" height="32" x="209" y="1" class="terminal" rx="10"/><text x="219" y="21" class="terminal">SINK</text><rect width="88" height="32" x="283" y="3"/><rect width="88" height="32" x="281" y="1" class="nonterminal"/><text x="291" y="21" class="nonterminal">sink_name</text><path d="m17 17 h2 m0 0 h10 m64 0 h10 m0 0 h10 m76 0 h10 m0 0 h10 m52 0 h10 m0 0 h10 m88 0 h10 m3 0 h-3" class="line"/><polygon points="389 17 397 13 397 21"/><polygon points="389 17 381 13 381 21"/></svg>