<svg xmlns="http://www.w3.org/2000/svg" width="401" height="147"><polygon points="9 17 1 13 1 21"/><polygon points="17 17 9 13 9 21"/><rect width="64" height="32" x="31" y="3" rx="10"/><rect width="64" height="32" x="29" y="1" class="terminal" rx="10"/><text x="39" y="21" class="terminal">SHOW</text><rect width="92" height="32" x="115" y="3" rx="10"/><rect width="92" height="32" x="113" y="1" class="terminal" rx="10"/><text x="123" y="21" class="terminal">COLUMNS</text><rect width="60" height="32" x="227" y="3" rx="10"/><rect width="60" height="32" x="225" y="1" class="terminal" rx="10"/><text x="235" y="21" class="terminal">FROM</text><rect width="72" height="32" x="307" y="3"/><rect width="72" height="32" x="305" y="1" class="nonterminal"/><text x="315" y="21" class="nonterminal">item_ref</text><rect width="50" height="32" x="213" y="69" rx="10"/><rect width="50" height="32" x="211" y="67" class="terminal" rx="10"/><text x="221" y="87" class="terminal">LIKE</text><rect width="70" height="32" x="283" y="69" rx="10"/><rect width="70" height="32" x="281" y="67" class="terminal" rx="10"/><text x="291" y="87" class="terminal">pattern</text><rect width="70" height="32" x="213" y="113" rx="10"/><rect width="70" height="32" x="211" y="111" class="terminal" rx="10"/><text x="221" y="131" class="terminal">WHERE</text><rect width="48" height="32" x="303" y="113"/><rect width="48" height="32" x="301" y="111" class="nonterminal"/><text x="311" y="131" class="nonterminal">expr</text><path d="m17 17 h2 m0 0 h10 m64 0 h10 m0 0 h10 m92 0 h10 m0 0 h10 m60 0 h10 m0 0 h10 m72 0 h10 m2 0 l2 0 m2 0 l2 0 m2 0 l2 0 m-230 66 l2 0 m2 0 l2 0 m2 0 l2 0 m22 0 h10 m50 0 h10 m0 0 h10 m70 0 h10 m-180 0 h20 m160 0 h20 m-200 0 q10 0 10 10 m180 0 q0 -10 10 -10 m-190 10 v24 m180 0 v-24 m-180 24 q0 10 10 10 m160 0 q10 0 10 -10 m-170 10 h10 m70 0 h10 m0 0 h10 m48 0 h10 m0 0 h2 m23 -44 h-3" class="line"/><polygon points="391 83 399 79 399 87"/><polygon points="391 83 383 79 383 87"/></svg>