<svg xmlns="http://www.w3.org/2000/svg" width="475" height="199"><polygon points="9 17 1 13 1 21"/><polygon points="17 17 9 13 9 21"/><rect width="64" height="32" x="31" y="3" rx="10"/><rect width="64" height="32" x="29" y="1" class="terminal" rx="10"/><text x="39" y="21" class="terminal">SHOW</text><rect width="84" height="32" x="115" y="3" rx="10"/><rect width="84" height="32" x="113" y="1" class="terminal" rx="10"/><text x="123" y="21" class="terminal">SECRETS</text><rect width="60" height="32" x="239" y="35" rx="10"/><rect width="60" height="32" x="237" y="33" class="terminal" rx="10"/><text x="247" y="53" class="terminal">FROM</text><rect width="114" height="32" x="319" y="35"/><rect width="114" height="32" x="317" y="33" class="nonterminal"/><text x="327" y="53" class="nonterminal">schema_name</text><rect width="50" height="32" x="287" y="121" rx="10"/><rect width="50" height="32" x="285" y="119" class="terminal" rx="10"/><text x="295" y="139" class="terminal">LIKE</text><rect width="70" height="32" x="357" y="121" rx="10"/><rect width="70" height="32" x="355" y="119" class="terminal" rx="10"/><text x="365" y="139" class="terminal">pattern</text><rect width="70" height="32" x="287" y="165" rx="10"/><rect width="70" height="32" x="285" y="163" class="terminal" rx="10"/><text x="295" y="183" class="terminal">WHERE</text><rect width="48" height="32" x="377" y="165"/><rect width="48" height="32" x="375" y="163" class="nonterminal"/><text x="385" y="183" class="nonterminal">expr</text><path d="m17 17 h2 m0 0 h10 m64 0 h10 m0 0 h10 m84 0 h10 m20 0 h10 m0 0 h204 m-234 0 h20 m214 0 h20 m-254 0 q10 0 10 10 m234 0 q0 -10 10 -10 m-244 10 v12 m234 0 v-12 m-234 12 q0 10 10 10 m214 0 q10 0 10 -10 m-224 10 h10 m60 0 h10 m0 0 h10 m114 0 h10 m22 -32 l2 0 m2 0 l2 0 m2 0 l2 0 m-230 86 l2 0 m2 0 l2 0 m2 0 l2 0 m22 0 h10 m0 0 h150 m-180 0 h20 m160 0 h20 m-200 0 q10 0 10 10 m180 0 q0 -10 10 -10 m-190 10 v12 m180 0 v-12 m-180 12 q0 10 10 10 m160 0 q10 0 10 -10 m-170 10 h10 m50 0 h10 m0 0 h10 m70 0 h10 m-170 -10 v20 m180 0 v-20 m-180 20 v24 m180 0 v-24 m-180 24 q0 10 10 10 m160 0 q10 0 10 -10 m-170 10 h10 m70 0 h10 m0 0 h10 m48 0 h10 m0 0 h2 m23 -76 h-3" class="line"/><polygon points="465 103 473 99 473 107"/><polygon points="465 103 457 99 457 107"/></svg>