<svg xmlns="http://www.w3.org/2000/svg" width="483" height="69"><polygon points="9 17 1 13 1 21"/><polygon points="17 17 9 13 9 21"/><rect width="64" height="32" x="31" y="3" rx="10"/><rect width="64" height="32" x="29" y="1" class="terminal" rx="10"/><text x="39" y="21" class="terminal">SHOW</text><rect width="86" height="32" x="115" y="3" rx="10"/><rect width="86" height="32" x="113" y="1" class="terminal" rx="10"/><text x="123" y="21" class="terminal">OBJECTS</text><rect width="60" height="32" x="241" y="35" rx="10"/><rect width="60" height="32" x="239" y="33" class="terminal" rx="10"/><text x="249" y="53" class="terminal">FROM</text><rect width="114" height="32" x="321" y="35"/><rect width="114" height="32" x="319" y="33" class="nonterminal"/><text x="329" y="53" class="nonterminal">schema_name</text><path d="m17 17 h2 m0 0 h10 m64 0 h10 m0 0 h10 m86 0 h10 m20 0 h10 m0 0 h204 m-234 0 h20 m214 0 h20 m-254 0 q10 0 10 10 m234 0 q0 -10 10 -10 m-244 10 v12 m234 0 v-12 m-234 12 q0 10 10 10 m214 0 q10 0 10 -10 m-224 10 h10 m60 0 h10 m0 0 h10 m114 0 h10 m23 -32 h-3" class="line"/><polygon points="473 17 481 13 481 21"/><polygon points="473 17 465 13 465 21"/></svg>