<svg xmlns="http://www.w3.org/2000/svg" width="443" height="37"><polygon points="9 17 1 13 1 21"/><polygon points="17 17 9 13 9 21"/><rect width="64" height="32" x="31" y="3" rx="10"/><rect width="64" height="32" x="29" y="1" class="terminal" rx="10"/><text x="39" y="21" class="terminal">SHOW</text><rect width="76" height="32" x="115" y="3" rx="10"/><rect width="76" height="32" x="113" y="1" class="terminal" rx="10"/><text x="123" y="21" class="terminal">CREATE</text><rect width="78" height="32" x="211" y="3" rx="10"/><rect width="78" height="32" x="209" y="1" class="terminal" rx="10"/><text x="219" y="21" class="terminal">SOURCE</text><rect width="106" height="32" x="309" y="3"/><rect width="106" height="32" x="307" y="1" class="nonterminal"/><text x="317" y="21" class="nonterminal">source_name</text><path d="m17 17 h2 m0 0 h10 m64 0 h10 m0 0 h10 m76 0 h10 m0 0 h10 m78 0 h10 m0 0 h10 m106 0 h10 m3 0 h-3" class="line"/><polygon points="433 17 441 13 441 21"/><polygon points="433 17 425 13 425 21"/></svg>