<svg xmlns="http://www.w3.org/2000/svg" width="479" height="155"><polygon points="9 17 1 13 1 21"/><polygon points="17 17 9 13 9 21"/><rect width="64" height="32" x="31" y="3" rx="10"/><rect width="64" height="32" x="29" y="1" class="terminal" rx="10"/><text x="39" y="21" class="terminal">SHOW</text><rect width="88" height="32" x="115" y="3" rx="10"/><rect width="88" height="32" x="113" y="1" class="terminal" rx="10"/><text x="123" y="21" class="terminal">SOURCES</text><rect width="60" height="32" x="243" y="35" rx="10"/><rect width="60" height="32" x="241" y="33" class="terminal" rx="10"/><text x="251" y="53" class="terminal">FROM</text><rect width="114" height="32" x="323" y="35"/><rect width="114" height="32" x="321" y="33" class="nonterminal"/><text x="331" y="53" class="nonterminal">schema_name</text><rect width="104" height="32" x="199" y="121" rx="10"/><rect width="104" height="32" x="197" y="119" class="terminal" rx="10"/><text x="207" y="139" class="terminal">IN CLUSTER</text><rect width="108" height="32" x="323" y="121"/><rect width="108" height="32" x="321" y="119" class="nonterminal"/><text x="331" y="139" class="nonterminal">cluster_name</text><path d="m17 17 h2 m0 0 h10 m64 0 h10 m0 0 h10 m88 0 h10 m20 0 h10 m0 0 h204 m-234 0 h20 m214 0 h20 m-254 0 q10 0 10 10 m234 0 q0 -10 10 -10 m-244 10 v12 m234 0 v-12 m-234 12 q0 10 10 10 m214 0 q10 0 10 -10 m-224 10 h10 m60 0 h10 m0 0 h10 m114 0 h10 m22 -32 l2 0 m2 0 l2 0 m2 0 l2 0 m-322 86 l2 0 m2 0 l2 0 m2 0 l2 0 m22 0 h10 m0 0 h242 m-272 0 h20 m252 0 h20 m-292 0 q10 0 10 10 m272 0 q0 -10 10 -10 m-282 10 v12 m272 0 v-12 m-272 12 q0 10 10 10 m252 0 q10 0 10 -10 m-262 10 h10 m104 0 h10 m0 0 h10 m108 0 h10 m23 -32 h-3" class="line"/><polygon points="469 103 477 99 477 107"/><polygon points="469 103 461 99 461 107"/></svg>