<svg xmlns="http://www.w3.org/2000/svg" width="419" height="37"><polygon points="9 17 1 13 1 21"/><polygon points="17 17 9 13 9 21"/><rect width="64" height="32" x="31" y="3" rx="10"/><rect width="64" height="32" x="29" y="1" class="terminal" rx="10"/><text x="39" y="21" class="terminal">SHOW</text><rect width="76" height="32" x="115" y="3" rx="10"/><rect width="76" height="32" x="113" y="1" class="terminal" rx="10"/><text x="123" y="21" class="terminal">CREATE</text><rect width="62" height="32" x="211" y="3" rx="10"/><rect width="62" height="32" x="209" y="1" class="terminal" rx="10"/><text x="219" y="21" class="terminal">INDEX</text><rect width="98" height="32" x="293" y="3"/><rect width="98" height="32" x="291" y="1" class="nonterminal"/><text x="301" y="21" class="nonterminal">index_name</text><path d="m17 17 h2 m0 0 h10 m64 0 h10 m0 0 h10 m76 0 h10 m0 0 h10 m62 0 h10 m0 0 h10 m98 0 h10 m3 0 h-3" class="line"/><polygon points="409 17 417 13 417 21"/><polygon points="409 17 401 13 401 21"/></svg>