<svg xmlns="http://www.w3.org/2000/svg" width="421" height="37"><polygon points="9 17 1 13 1 21"/><polygon points="17 17 9 13 9 21"/><rect width="64" height="32" x="31" y="3" rx="10"/><rect width="64" height="32" x="29" y="1" class="terminal" rx="10"/><text x="39" y="21" class="terminal">SHOW</text><rect width="76" height="32" x="115" y="3" rx="10"/><rect width="76" height="32" x="113" y="1" class="terminal" rx="10"/><text x="123" y="21" class="terminal">CREATE</text><rect width="66" height="32" x="211" y="3" rx="10"/><rect width="66" height="32" x="209" y="1" class="terminal" rx="10"/><text x="219" y="21" class="terminal">TABLE</text><rect width="96" height="32" x="297" y="3"/><rect width="96" height="32" x="295" y="1" class="nonterminal"/><text x="305" y="21" class="nonterminal">table_name</text><path d="m17 17 h2 m0 0 h10 m64 0 h10 m0 0 h10 m76 0 h10 m0 0 h10 m66 0 h10 m0 0 h10 m96 0 h10 m3 0 h-3" class="line"/><polygon points="411 17 419 13 419 21"/><polygon points="411 17 403 13 403 21"/></svg>