<svg xmlns="http://www.w3.org/2000/svg" width="525" height="223"><polygon points="11 17 3 13 3 21"/><polygon points="19 17 11 13 11 21"/><rect width="64" height="32" x="33" y="3" rx="10"/><rect width="64" height="32" x="31" y="1" class="terminal" rx="10"/><text x="41" y="21" class="terminal">SHOW</text><rect width="80" height="32" x="117" y="3" rx="10"/><rect width="80" height="32" x="115" y="1" class="terminal" rx="10"/><text x="125" y="21" class="terminal">INDEXES</text><rect width="60" height="32" x="237" y="35" rx="10"/><rect width="60" height="32" x="235" y="33" class="terminal" rx="10"/><text x="245" y="53" class="terminal">FROM</text><rect width="114" height="32" x="317" y="35"/><rect width="114" height="32" x="315" y="33" class="nonterminal"/><text x="325" y="53" class="nonterminal">schema_name</text><rect width="40" height="32" x="237" y="79" rx="10"/><rect width="40" height="32" x="235" y="77" class="terminal" rx="10"/><text x="245" y="97" class="terminal">ON</text><rect width="78" height="32" x="297" y="79"/><rect width="78" height="32" x="295" y="77" class="nonterminal"/><text x="305" y="97" class="nonterminal">on_name</text><rect width="104" height="32" x="45" y="177" rx="10"/><rect width="104" height="32" x="43" y="175" class="terminal" rx="10"/><text x="53" y="195" class="terminal">IN CLUSTER</text><rect width="108" height="32" x="169" y="177"/><rect width="108" height="32" x="167" y="175" class="nonterminal"/><text x="177" y="195" class="nonterminal">cluster_name</text><rect width="50" height="32" x="337" y="145" rx="10"/><rect width="50" height="32" x="335" y="143" class="terminal" rx="10"/><text x="345" y="163" class="terminal">LIKE</text><rect width="70" height="32" x="407" y="145" rx="10"/><rect width="70" height="32" x="405" y="143" class="terminal" rx="10"/><text x="415" y="163" class="terminal">pattern</text><rect width="70" height="32" x="337" y="189" rx="10"/><rect width="70" height="32" x="335" y="187" class="terminal" rx="10"/><text x="345" y="207" class="terminal">WHERE</text><rect width="48" height="32" x="427" y="189"/><rect width="48" height="32" x="425" y="187" class="nonterminal"/><text x="435" y="207" class="nonterminal">expr</text><path d="m19 17 h2 m0 0 h10 m64 0 h10 m0 0 h10 m80 0 h10 m20 0 h10 m0 0 h204 m-234 0 h20 m214 0 h20 m-254 0 q10 0 10 10 m234 0 q0 -10 10 -10 m-244 10 v12 m234 0 v-12 m-234 12 q0 10 10 10 m214 0 q10 0 10 -10 m-224 10 h10 m60 0 h10 m0 0 h10 m114 0 h10 m-224 -10 v20 m234 0 v-20 m-234 20 v24 m234 0 v-24 m-234 24 q0 10 10 10 m214 0 q10 0 10 -10 m-224 10 h10 m40 0 h10 m0 0 h10 m78 0 h10 m0 0 h56 m22 -76 l2 0 m2 0 l2 0 m2 0 l2 0 m-470 142 l2 0 m2 0 l2 0 m2 0 l2 0 m22 0 h10 m0 0 h242 m-272 0 h20 m252 0 h20 m-292 0 q10 0 10 10 m272 0 q0 -10 10 -10 m-282 10 v12 m272 0 v-12 m-272 12 q0 10 10 10 m252 0 q10 0 10 -10 m-262 10 h10 m104 0 h10 m0 0 h10 m108 0 h10 m40 -32 h10 m50 0 h10 m0 0 h10 m70 0 h10 m-180 0 h20 m160 0 h20 m-200 0 q10 0 10 10 m180 0 q0 -10 10 -10 m-190 10 v24 m180 0 v-24 m-180 24 q0 10 10 10 m160 0 q10 0 10 -10 m-170 10 h10 m70 0 h10 m0 0 h10 m48 0 h10 m0 0 h2 m23 -44 h-3" class="line"/><polygon points="515 159 523 155 523 163"/><polygon points="515 159 507 155 507 163"/></svg>