<svg xmlns="http://www.w3.org/2000/svg" width="627" height="1123"><polygon points="9 17 1 13 1 21"/><polygon points="17 17 9 13 9 21"/><rect width="74" height="32" x="31" y="3" rx="10"/><rect width="74" height="32" x="29" y="1" class="terminal" rx="10"/><text x="39" y="21" class="terminal">SELECT</text><rect width="46" height="32" x="145" y="35" rx="10"/><rect width="46" height="32" x="143" y="33" class="terminal" rx="10"/><text x="153" y="53" class="terminal">ALL</text><rect width="86" height="32" x="145" y="123" rx="10"/><rect width="86" height="32" x="143" y="121" class="terminal" rx="10"/><text x="153" y="141" class="terminal">DISTINCT</text><rect width="40" height="32" x="271" y="123" rx="10"/><rect width="40" height="32" x="269" y="121" class="terminal" rx="10"/><text x="279" y="141" class="terminal">ON</text><rect width="26" height="32" x="331" y="123" rx="10"/><rect width="26" height="32" x="329" y="121" class="terminal" rx="10"/><text x="339" y="141" class="terminal">(</text><rect width="64" height="32" x="397" y="123"/><rect width="64" height="32" x="395" y="121" class="nonterminal"/><text x="405" y="141" class="nonterminal">col_ref</text><rect width="24" height="32" x="397" y="79" rx="10"/><rect width="24" height="32" x="395" y="77" class="terminal" rx="10"/><text x="405" y="97" class="terminal">,</text><rect width="26" height="32" x="501" y="123" rx="10"/><rect width="26" height="32" x="499" y="121" class="terminal" rx="10"/><text x="509" y="141" class="terminal">)</text><rect width="98" height="32" x="83" y="249"/><rect width="98" height="32" x="81" y="247" class="nonterminal"/><text x="91" y="267" class="nonterminal">target_elem</text><rect width="24" height="32" x="83" y="205" rx="10"/><rect width="24" height="32" x="81" y="203" class="terminal" rx="10"/><text x="91" y="223" class="terminal">,</text><rect width="60" height="32" x="221" y="249" rx="10"/><rect width="60" height="32" x="219" y="247" class="terminal" rx="10"/><text x="229" y="267" class="terminal">FROM</text><rect width="88" height="32" x="321" y="249"/><rect width="88" height="32" x="319" y="247" class="nonterminal"/><text x="329" y="267" class="nonterminal">table_expr</text><rect width="24" height="32" x="321" y="205" rx="10"/><rect width="24" height="32" x="319" y="203" class="terminal" rx="10"/><text x="329" y="223" class="terminal">,</text><rect width="78" height="32" x="469" y="281"/><rect width="78" height="32" x="467" y="279" class="nonterminal"/><text x="477" y="299" class="nonterminal">join_expr</text><rect width="70" height="32" x="89" y="423" rx="10"/><rect width="70" height="32" x="87" y="421" class="terminal" rx="10"/><text x="97" y="441" class="terminal">WHERE</text><rect width="48" height="32" x="179" y="423"/><rect width="48" height="32" x="177" y="421" class="nonterminal"/><text x="187" y="441" class="nonterminal">expr</text><rect width="70" height="32" x="287" y="391" rx="10"/><rect width="70" height="32" x="285" y="389" class="terminal" rx="10"/><text x="295" y="409" class="terminal">GROUP</text><rect width="40" height="32" x="377" y="391" rx="10"/><rect width="40" height="32" x="375" y="389" class="terminal" rx="10"/><text x="385" y="409" class="terminal">BY</text><rect width="64" height="32" x="457" y="391"/><rect width="64" height="32" x="455" y="389" class="nonterminal"/><text x="465" y="409" class="nonterminal">col_ref</text><rect width="24" height="32" x="457" y="347" rx="10"/><rect width="24" height="32" x="455" y="345" class="terminal" rx="10"/><text x="465" y="365" class="terminal">,</text><rect width="84" height="32" x="113" y="533" rx="10"/><rect width="84" height="32" x="111" y="531" class="terminal" rx="10"/><text x="121" y="551" class="terminal">OPTIONS</text><rect width="26" height="32" x="217" y="533" rx="10"/><rect width="26" height="32" x="215" y="531" class="terminal" rx="10"/><text x="225" y="551" class="terminal">(</text><rect width="62" height="32" x="283" y="533"/><rect width="62" height="32" x="281" y="531" class="nonterminal"/><text x="291" y="551" class="nonterminal">option</text><rect width="28" height="32" x="365" y="533" rx="10"/><rect width="28" height="32" x="363" y="531" class="terminal" rx="10"/><text x="373" y="551" class="terminal">=</text><rect width="38" height="32" x="413" y="533"/><rect width="38" height="32" x="411" y="531" class="nonterminal"/><text x="421" y="551" class="nonterminal">val</text><rect width="24" height="32" x="283" y="489" rx="10"/><rect width="24" height="32" x="281" y="487" class="terminal" rx="10"/><text x="291" y="507" class="terminal">,</text><rect width="26" height="32" x="491" y="533" rx="10"/><rect width="26" height="32" x="489" y="531" class="terminal" rx="10"/><text x="499" y="551" class="terminal">)</text><rect width="76" height="32" x="243" y="631" rx="10"/><rect width="76" height="32" x="241" y="629" class="terminal" rx="10"/><text x="251" y="649" class="terminal">HAVING</text><rect width="48" height="32" x="339" y="631"/><rect width="48" height="32" x="337" y="629" class="nonterminal"/><text x="347" y="649" class="nonterminal">expr</text><rect width="68" height="32" x="45" y="741" rx="10"/><rect width="68" height="32" x="43" y="739" class="terminal" rx="10"/><text x="53" y="759" class="terminal">ORDER</text><rect width="40" height="32" x="133" y="741" rx="10"/><rect width="40" height="32" x="131" y="739" class="terminal" rx="10"/><text x="141" y="759" class="terminal">BY</text><rect width="64" height="32" x="213" y="741"/><rect width="64" height="32" x="211" y="739" class="nonterminal"/><text x="221" y="759" class="nonterminal">col_ref</text><rect width="50" height="32" x="317" y="773" rx="10"/><rect width="50" height="32" x="315" y="771" class="terminal" rx="10"/><text x="325" y="791" class="terminal">ASC</text><rect width="58" height="32" x="317" y="817" rx="10"/><rect width="58" height="32" x="315" y="815" class="terminal" rx="10"/><text x="325" y="835" class="terminal">DESC</text><rect width="106" height="32" x="435" y="773" rx="10"/><rect width="106" height="32" x="433" y="771" class="terminal" rx="10"/><text x="443" y="791" class="terminal">NULLS LAST</text><rect width="110" height="32" x="435" y="817" rx="10"/><rect width="110" height="32" x="433" y="815" class="terminal" rx="10"/><text x="443" y="835" class="terminal">NULLS FIRST</text><rect width="24" height="32" x="213" y="697" rx="10"/><rect width="24" height="32" x="211" y="695" class="terminal" rx="10"/><text x="221" y="715" class="terminal">,</text><rect width="58" height="32" x="142" y="915" rx="10"/><rect width="58" height="32" x="140" y="913" class="terminal" rx="10"/><text x="150" y="933" class="terminal">LIMIT</text><rect width="48" height="32" x="220" y="915"/><rect width="48" height="32" x="218" y="913" class="nonterminal"/><text x="228" y="933" class="nonterminal">expr</text><rect width="74" height="32" x="328" y="915" rx="10"/><rect width="74" height="32" x="326" y="913" class="terminal" rx="10"/><text x="336" y="933" class="terminal">OFFSET</text><rect width="66" height="32" x="422" y="915"/><rect width="66" height="32" x="420" y="913" class="nonterminal"/><text x="430" y="933" class="nonterminal">integer</text><rect width="66" height="32" x="143" y="1001" rx="10"/><rect width="66" height="32" x="141" y="999" class="terminal" rx="10"/><text x="151" y="1019" class="terminal">UNION</text><rect width="98" height="32" x="143" y="1045" rx="10"/><rect width="98" height="32" x="141" y="1043" class="terminal" rx="10"/><text x="151" y="1063" class="terminal">INTERSECT</text><rect width="76" height="32" x="143" y="1089" rx="10"/><rect width="76" height="32" x="141" y="1087" class="terminal" rx="10"/><text x="151" y="1107" class="terminal">EXCEPT</text><rect width="46" height="32" x="301" y="1033" rx="10"/><rect width="46" height="32" x="299" y="1031" class="terminal" rx="10"/><text x="309" y="1051" class="terminal">ALL</text><rect width="86" height="32" x="301" y="1077" rx="10"/><rect width="86" height="32" x="299" y="1075" class="terminal" rx="10"/><text x="309" y="1095" class="terminal">DISTINCT</text><rect width="152" height="32" x="427" y="1001"/><rect width="152" height="32" x="425" y="999" class="nonterminal"/><text x="435" y="1019" class="nonterminal">another_select_stmt</text><path d="m17 17 h2 m0 0 h10 m74 0 h10 m20 0 h10 m0 0 h412 m-442 0 h20 m422 0 h20 m-462 0 q10 0 10 10 m442 0 q0 -10 10 -10 m-452 10 v12 m442 0 v-12 m-442 12 q0 10 10 10 m422 0 q10 0 10 -10 m-432 10 h10 m46 0 h10 m0 0 h356 m-432 -10 v20 m442 0 v-20 m-442 20 v68 m442 0 v-68 m-442 68 q0 10 10 10 m422 0 q10 0 10 -10 m-432 10 h10 m86 0 h10 m20 0 h10 m40 0 h10 m0 0 h10 m26 0 h10 m20 0 h10 m64 0 h10 m-104 0 l20 0 m-1 0 q-9 0 -9 -10 l0 -24 q0 -10 10 -10 m84 44 l20 0 m-20 0 q10 0 10 -10 l0 -24 q0 -10 -10 -10 m-84 0 h10 m24 0 h10 m0 0 h40 m20 44 h10 m26 0 h10 m-296 0 h20 m276 0 h20 m-316 0 q10 0 10 10 m296 0 q0 -10 10 -10 m-306 10 v14 m296 0 v-14 m-296 14 q0 10 10 10 m276 0 q10 0 10 -10 m-286 10 h10 m0 0 h266 m42 -154 l2 0 m2 0 l2 0 m2 0 l2 0 m-548 246 l2 0 m2 0 l2 0 m2 0 l2 0 m22 0 h10 m98 0 h10 m-138 0 l20 0 m-1 0 q-9 0 -9 -10 l0 -24 q0 -10 10 -10 m118 44 l20 0 m-20 0 q10 0 10 -10 l0 -24 q0 -10 -10 -10 m-118 0 h10 m24 0 h10 m0 0 h74 m20 44 h10 m60 0 h10 m20 0 h10 m88 0 h10 m-128 0 l20 0 m-1 0 q-9 0 -9 -10 l0 -24 q0 -10 10 -10 m108 44 l20 0 m-20 0 q10 0 10 -10 l0 -24 q0 -10 -10 -10 m-108 0 h10 m24 0 h10 m0 0 h64 m40 44 h10 m0 0 h88 m-118 0 h20 m98 0 h20 m-138 0 q10 0 10 10 m118 0 q0 -10 10 -10 m-128 10 v12 m118 0 v-12 m-118 12 q0 10 10 10 m98 0 q10 0 10 -10 m-108 10 h10 m78 0 h10 m22 -32 l2 0 m2 0 l2 0 m2 0 l2 0 m-542 142 l2 0 m2 0 l2 0 m2 0 l2 0 m22 0 h10 m0 0 h148 m-178 0 h20 m158 0 h20 m-198 0 q10 0 10 10 m178 0 q0 -10 10 -10 m-188 10 v12 m178 0 v-12 m-178 12 q0 10 10 10 m158 0 q10 0 10 -10 m-168 10 h10 m70 0 h10 m0 0 h10 m48 0 h10 m40 -32 h10 m70 0 h10 m0 0 h10 m40 0 h10 m20 0 h10 m64 0 h10 m-104 0 l20 0 m-1 0 q-9 0 -9 -10 l0 -24 q0 -10 10 -10 m84 44 l20 0 m-20 0 q10 0 10 -10 l0 -24 q0 -10 -10 -10 m-84 0 h10 m24 0 h10 m0 0 h40 m-274 44 h20 m274 0 h20 m-314 0 q10 0 10 10 m294 0 q0 -10 10 -10 m-304 10 v14 m294 0 v-14 m-294 14 q0 10 10 10 m274 0 q10 0 10 -10 m-284 10 h10 m0 0 h264 m22 -34 l2 0 m2 0 l2 0 m2 0 l2 0 m-512 142 l2 0 m2 0 l2 0 m2 0 l2 0 m22 0 h10 m84 0 h10 m0 0 h10 m26 0 h10 m20 0 h10 m62 0 h10 m0 0 h10 m28 0 h10 m0 0 h10 m38 0 h10 m-208 0 l20 0 m-1 0 q-9 0 -9 -10 l0 -24 q0 -10 10 -10 m188 44 l20 0 m-20 0 q10 0 10 -10 l0 -24 q0 -10 -10 -10 m-188 0 h10 m24 0 h10 m0 0 h144 m20 44 h10 m26 0 h10 m-444 0 h20 m424 0 h20 m-464 0 q10 0 10 10 m444 0 q0 -10 10 -10 m-454 10 v14 m444 0 v-14 m-444 14 q0 10 10 10 m424 0 q10 0 10 -10 m-434 10 h10 m0 0 h414 m22 -34 l2 0 m2 0 l2 0 m2 0 l2 0 m-358 66 l2 0 m2 0 l2 0 m2 0 l2 0 m22 0 h10 m0 0 h154 m-184 0 h20 m164 0 h20 m-204 0 q10 0 10 10 m184 0 q0 -10 10 -10 m-194 10 v12 m184 0 v-12 m-184 12 q0 10 10 10 m164 0 q10 0 10 -10 m-174 10 h10 m76 0 h10 m0 0 h10 m48 0 h10 m22 -32 l2 0 m2 0 l2 0 m2 0 l2 0 m-426 142 l2 0 m2 0 l2 0 m2 0 l2 0 m22 0 h10 m68 0 h10 m0 0 h10 m40 0 h10 m20 0 h10 m64 0 h10 m20 0 h10 m0 0 h68 m-98 0 h20 m78 0 h20 m-118 0 q10 0 10 10 m98 0 q0 -10 10 -10 m-108 10 v12 m98 0 v-12 m-98 12 q0 10 10 10 m78 0 q10 0 10 -10 m-88 10 h10 m50 0 h10 m0 0 h8 m-88 -10 v20 m98 0 v-20 m-98 20 v24 m98 0 v-24 m-98 24 q0 10 10 10 m78 0 q10 0 10 -10 m-88 10 h10 m58 0 h10 m40 -76 h10 m0 0 h120 m-150 0 h20 m130 0 h20 m-170 0 q10 0 10 10 m150 0 q0 -10 10 -10 m-160 10 v12 m150 0 v-12 m-150 12 q0 10 10 10 m130 0 q10 0 10 -10 m-140 10 h10 m106 0 h10 m0 0 h4 m-140 -10 v20 m150 0 v-20 m-150 20 v24 m150 0 v-24 m-150 24 q0 10 10 10 m130 0 q10 0 10 -10 m-140 10 h10 m110 0 h10 m-372 -76 l20 0 m-1 0 q-9 0 -9 -10 l0 -24 q0 -10 10 -10 m372 44 l20 0 m-20 0 q10 0 10 -10 l0 -24 q0 -10 -10 -10 m-372 0 h10 m24 0 h10 m0 0 h328 m-560 44 h20 m560 0 h20 m-600 0 q10 0 10 10 m580 0 q0 -10 10 -10 m-590 10 v90 m580 0 v-90 m-580 90 q0 10 10 10 m560 0 q10 0 10 -10 m-570 10 h10 m0 0 h550 m22 -110 l2 0 m2 0 l2 0 m2 0 l2 0 m-527 142 l2 0 m2 0 l2 0 m2 0 l2 0 m22 0 h10 m0 0 h136 m-166 0 h20 m146 0 h20 m-186 0 q10 0 10 10 m166 0 q0 -10 10 -10 m-176 10 v12 m166 0 v-12 m-166 12 q0 10 10 10 m146 0 q10 0 10 -10 m-156 10 h10 m58 0 h10 m0 0 h10 m48 0 h10 m40 -32 h10 m0 0 h170 m-200 0 h20 m180 0 h20 m-220 0 q10 0 10 10 m200 0 q0 -10 10 -10 m-210 10 v12 m200 0 v-12 m-200 12 q0 10 10 10 m180 0 q10 0 10 -10 m-190 10 h10 m74 0 h10 m0 0 h10 m66 0 h10 m22 -32 l2 0 m2 0 l2 0 m2 0 l2 0 m-449 86 l2 0 m2 0 l2 0 m2 0 l2 0 m22 0 h10 m0 0 h466 m-496 0 h20 m476 0 h20 m-516 0 q10 0 10 10 m496 0 q0 -10 10 -10 m-506 10 v12 m496 0 v-12 m-496 12 q0 10 10 10 m476 0 q10 0 10 -10 m-466 10 h10 m66 0 h10 m0 0 h32 m-138 0 h20 m118 0 h20 m-158 0 q10 0 10 10 m138 0 q0 -10 10 -10 m-148 10 v24 m138 0 v-24 m-138 24 q0 10 10 10 m118 0 q10 0 10 -10 m-128 10 h10 m98 0 h10 m-128 -10 v20 m138 0 v-20 m-138 20 v24 m138 0 v-24 m-138 24 q0 10 10 10 m118 0 q10 0 10 -10 m-128 10 h10 m76 0 h10 m0 0 h22 m40 -88 h10 m0 0 h96 m-126 0 h20 m106 0 h20 m-146 0 q10 0 10 10 m126 0 q0 -10 10 -10 m-136 10 v12 m126 0 v-12 m-126 12 q0 10 10 10 m106 0 q10 0 10 -10 m-116 10 h10 m46 0 h10 m0 0 h40 m-116 -10 v20 m126 0 v-20 m-126 20 v24 m126 0 v-24 m-126 24 q0 10 10 10 m106 0 q10 0 10 -10 m-116 10 h10 m86 0 h10 m20 -76 h10 m152 0 h10 m23 -32 h-3" class="line"/><polygon points="617 983 625 979 625 987"/><polygon points="617 983 609 979 609 987"/></svg>