<svg xmlns="http://www.w3.org/2000/svg" width="349" height="81"><polygon points="9 17 1 13 1 21"/><polygon points="17 17 9 13 9 21"/><rect width="110" height="32" x="51" y="3" rx="10"/><rect width="110" height="32" x="49" y="1" class="terminal" rx="10"/><text x="59" y="21" class="terminal">AVRO USING</text><rect width="120" height="32" x="181" y="3"/><rect width="120" height="32" x="179" y="1" class="nonterminal"/><text x="189" y="21" class="nonterminal">csr_connection</text><rect width="58" height="32" x="51" y="47" rx="10"/><rect width="58" height="32" x="49" y="45" class="terminal" rx="10"/><text x="59" y="65" class="terminal">JSON</text><path d="m17 17 h2 m20 0 h10 m110 0 h10 m0 0 h10 m120 0 h10 m-290 0 h20 m270 0 h20 m-310 0 q10 0 10 10 m290 0 q0 -10 10 -10 m-300 10 v24 m290 0 v-24 m-290 24 q0 10 10 10 m270 0 q10 0 10 -10 m-280 10 h10 m58 0 h10 m0 0 h192 m23 -44 h-3" class="line"/><polygon points="339 17 347 13 347 21"/><polygon points="339 17 331 13 331 21"/></svg>