<svg xmlns="http://www.w3.org/2000/svg" width="701" height="611"><polygon points="9 17 1 13 1 21"/><polygon points="17 17 9 13 9 21"/><rect width="104" height="32" x="51" y="35" rx="10"/><rect width="104" height="32" x="49" y="33" class="terminal" rx="10"/><text x="59" y="53" class="terminal">IN CLUSTER</text><rect width="108" height="32" x="175" y="35"/><rect width="108" height="32" x="173" y="33" class="nonterminal"/><text x="183" y="53" class="nonterminal">cluster_name</text><rect width="60" height="32" x="323" y="3" rx="10"/><rect width="60" height="32" x="321" y="1" class="terminal" rx="10"/><text x="331" y="21" class="terminal">FROM</text><rect width="90" height="32" x="403" y="3"/><rect width="90" height="32" x="401" y="1" class="nonterminal"/><text x="411" y="21" class="nonterminal">item_name</text><rect width="54" height="32" x="513" y="3" rx="10"/><rect width="54" height="32" x="511" y="1" class="terminal" rx="10"/><text x="521" y="21" class="terminal">INTO</text><rect width="168" height="32" x="268" y="101"/><rect width="168" height="32" x="266" y="99" class="nonterminal"/><text x="276" y="119" class="nonterminal">kafka_sink_connection</text><rect width="48" height="32" x="108" y="211" rx="10"/><rect width="48" height="32" x="106" y="209" class="terminal" rx="10"/><text x="116" y="229" class="terminal">KEY</text><rect width="26" height="32" x="176" y="211" rx="10"/><rect width="26" height="32" x="174" y="209" class="terminal" rx="10"/><text x="184" y="229" class="terminal">(</text><rect width="98" height="32" x="242" y="211"/><rect width="98" height="32" x="240" y="209" class="nonterminal"/><text x="250" y="229" class="nonterminal">key_column</text><rect width="24" height="32" x="242" y="167" rx="10"/><rect width="24" height="32" x="240" y="165" class="terminal" rx="10"/><text x="250" y="185" class="terminal">,</text><rect width="26" height="32" x="380" y="211" rx="10"/><rect width="26" height="32" x="378" y="209" class="terminal" rx="10"/><text x="388" y="229" class="terminal">)</text><rect width="130" height="32" x="446" y="243" rx="10"/><rect width="130" height="32" x="444" y="241" class="terminal" rx="10"/><text x="454" y="261" class="terminal">NOT ENFORCED</text><rect width="86" height="32" x="235" y="341" rx="10"/><rect width="86" height="32" x="233" y="339" class="terminal" rx="10"/><text x="243" y="359" class="terminal">HEADERS</text><rect width="128" height="32" x="341" y="341"/><rect width="128" height="32" x="339" y="339" class="nonterminal"/><text x="349" y="359" class="nonterminal">headers_column</text><rect width="80" height="32" x="65" y="423" rx="10"/><rect width="80" height="32" x="63" y="421" class="terminal" rx="10"/><text x="73" y="441" class="terminal">FORMAT</text><rect width="114" height="32" x="65" y="467" rx="10"/><rect width="114" height="32" x="63" y="465" class="terminal" rx="10"/><text x="73" y="485" class="terminal">KEY FORMAT</text><rect width="134" height="32" x="199" y="467"/><rect width="134" height="32" x="197" y="465" class="nonterminal"/><text x="207" y="485" class="nonterminal">sink_format_spec</text><rect width="132" height="32" x="353" y="467" rx="10"/><rect width="132" height="32" x="351" y="465" class="terminal" rx="10"/><text x="361" y="485" class="terminal">VALUE FORMAT</text><rect width="134" height="32" x="525" y="423"/><rect width="134" height="32" x="523" y="421" class="nonterminal"/><text x="533" y="441" class="nonterminal">sink_format_spec</text><rect width="94" height="32" x="187" y="533" rx="10"/><rect width="94" height="32" x="185" y="531" class="terminal" rx="10"/><text x="195" y="551" class="terminal">ENVELOPE</text><rect width="92" height="32" x="321" y="533" rx="10"/><rect width="92" height="32" x="319" y="531" class="terminal" rx="10"/><text x="329" y="551" class="terminal">DEBEZIUM</text><rect width="76" height="32" x="321" y="577" rx="10"/><rect width="76" height="32" x="319" y="575" class="terminal" rx="10"/><text x="329" y="595" class="terminal">UPSERT</text><rect width="58" height="32" x="473" y="565" rx="10"/><rect width="58" height="32" x="471" y="563" class="terminal" rx="10"/><text x="481" y="583" class="terminal">WITH</text><rect width="102" height="32" x="551" y="565"/><rect width="102" height="32" x="549" y="563" class="nonterminal"/><text x="559" y="583" class="nonterminal">with_options</text><path d="m17 17 h2 m20 0 h10 m0 0 h242 m-272 0 h20 m252 0 h20 m-292 0 q10 0 10 10 m272 0 q0 -10 10 -10 m-282 10 v12 m272 0 v-12 m-272 12 q0 10 10 10 m252 0 q10 0 10 -10 m-262 10 h10 m104 0 h10 m0 0 h10 m108 0 h10 m20 -32 h10 m60 0 h10 m0 0 h10 m90 0 h10 m0 0 h10 m54 0 h10 m2 0 l2 0 m2 0 l2 0 m2 0 l2 0 m-343 98 l2 0 m2 0 l2 0 m2 0 l2 0 m2 0 h10 m168 0 h10 m2 0 l2 0 m2 0 l2 0 m2 0 l2 0 m-392 110 l2 0 m2 0 l2 0 m2 0 l2 0 m22 0 h10 m48 0 h10 m0 0 h10 m26 0 h10 m20 0 h10 m98 0 h10 m-138 0 l20 0 m-1 0 q-9 0 -9 -10 l0 -24 q0 -10 10 -10 m118 44 l20 0 m-20 0 q10 0 10 -10 l0 -24 q0 -10 -10 -10 m-118 0 h10 m24 0 h10 m0 0 h74 m20 44 h10 m26 0 h10 m20 0 h10 m0 0 h140 m-170 0 h20 m150 0 h20 m-190 0 q10 0 10 10 m170 0 q0 -10 10 -10 m-180 10 v12 m170 0 v-12 m-170 12 q0 10 10 10 m150 0 q10 0 10 -10 m-160 10 h10 m130 0 h10 m-508 -32 h20 m508 0 h20 m-548 0 q10 0 10 10 m528 0 q0 -10 10 -10 m-538 10 v46 m528 0 v-46 m-528 46 q0 10 10 10 m508 0 q10 0 10 -10 m-518 10 h10 m0 0 h498 m22 -66 l2 0 m2 0 l2 0 m2 0 l2 0 m-445 98 l2 0 m2 0 l2 0 m2 0 l2 0 m22 0 h10 m0 0 h244 m-274 0 h20 m254 0 h20 m-294 0 q10 0 10 10 m274 0 q0 -10 10 -10 m-284 10 v12 m274 0 v-12 m-274 12 q0 10 10 10 m254 0 q10 0 10 -10 m-264 10 h10 m86 0 h10 m0 0 h10 m128 0 h10 m22 -32 l2 0 m2 0 l2 0 m2 0 l2 0 m-508 82 l2 0 m2 0 l2 0 m2 0 l2 0 m22 0 h10 m0 0 h624 m-654 0 h20 m634 0 h20 m-674 0 q10 0 10 10 m654 0 q0 -10 10 -10 m-664 10 v12 m654 0 v-12 m-654 12 q0 10 10 10 m634 0 q10 0 10 -10 m-624 10 h10 m80 0 h10 m0 0 h340 m-460 0 h20 m440 0 h20 m-480 0 q10 0 10 10 m460 0 q0 -10 10 -10 m-470 10 v24 m460 0 v-24 m-460 24 q0 10 10 10 m440 0 q10 0 10 -10 m-450 10 h10 m114 0 h10 m0 0 h10 m134 0 h10 m0 0 h10 m132 0 h10 m20 -44 h10 m134 0 h10 m22 -32 l2 0 m2 0 l2 0 m2 0 l2 0 m-536 142 l2 0 m2 0 l2 0 m2 0 l2 0 m2 0 h10 m94 0 h10 m20 0 h10 m92 0 h10 m-132 0 h20 m112 0 h20 m-152 0 q10 0 10 10 m132 0 q0 -10 10 -10 m-142 10 v24 m132 0 v-24 m-132 24 q0 10 10 10 m112 0 q10 0 10 -10 m-122 10 h10 m76 0 h10 m0 0 h16 m40 -44 h10 m0 0 h190 m-220 0 h20 m200 0 h20 m-240 0 q10 0 10 10 m220 0 q0 -10 10 -10 m-230 10 v12 m220 0 v-12 m-220 12 q0 10 10 10 m200 0 q10 0 10 -10 m-210 10 h10 m58 0 h10 m0 0 h10 m102 0 h10 m23 -32 h-3" class="line"/><polygon points="691 547 699 543 699 551"/><polygon points="691 547 683 543 683 551"/></svg>