<svg xmlns="http://www.w3.org/2000/svg" width="339" height="125"><polygon points="9 17 1 13 1 21"/><polygon points="17 17 9 13 9 21"/><rect width="64" height="32" x="51" y="3" rx="10"/><rect width="64" height="32" x="49" y="1" class="terminal" rx="10"/><text x="59" y="21" class="terminal">INLINE</text><rect width="156" height="32" x="135" y="3"/><rect width="156" height="32" x="133" y="1" class="nonterminal"/><text x="143" y="21" class="nonterminal">avro_reader_schema</text><rect width="34" height="32" x="51" y="47" rx="10"/><rect width="34" height="32" x="49" y="45" class="terminal" rx="10"/><text x="59" y="65" class="terminal">ID</text><rect width="146" height="32" x="105" y="47"/><rect width="146" height="32" x="103" y="45" class="nonterminal"/><text x="113" y="65" class="nonterminal">schema_registry_id</text><rect width="74" height="32" x="51" y="91" rx="10"/><rect width="74" height="32" x="49" y="89" class="terminal" rx="10"/><text x="59" y="109" class="terminal">LATEST</text><path d="m17 17 h2 m20 0 h10 m64 0 h10 m0 0 h10 m156 0 h10 m-280 0 h20 m260 0 h20 m-300 0 q10 0 10 10 m280 0 q0 -10 10 -10 m-290 10 v24 m280 0 v-24 m-280 24 q0 10 10 10 m260 0 q10 0 10 -10 m-270 10 h10 m34 0 h10 m0 0 h10 m146 0 h10 m0 0 h40 m-270 -10 v20 m280 0 v-20 m-280 20 v24 m280 0 v-24 m-280 24 q0 10 10 10 m260 0 q10 0 10 -10 m-270 10 h10 m74 0 h10 m0 0 h166 m23 -88 h-3" class="line"/><polygon points="329 17 337 13 337 21"/><polygon points="329 17 321 13 321 21"/></svg>