<svg xmlns="http://www.w3.org/2000/svg" width="851" height="889"><polygon points="11 17 3 13 3 21"/><polygon points="19 17 11 13 11 21"/><rect width="100" height="32" x="33" y="3" rx="10"/><rect width="100" height="32" x="31" y="1" class="terminal" rx="10"/><text x="41" y="21" class="terminal">SUBSCRIBE</text><rect width="40" height="32" x="173" y="35" rx="10"/><rect width="40" height="32" x="171" y="33" class="terminal" rx="10"/><text x="181" y="53" class="terminal">TO</text><rect width="104" height="32" x="273" y="3"/><rect width="104" height="32" x="271" y="1" class="nonterminal"/><text x="281" y="21" class="nonterminal">object_name</text><rect width="26" height="32" x="273" y="47" rx="10"/><rect width="26" height="32" x="271" y="45" class="terminal" rx="10"/><text x="281" y="65" class="terminal">(</text><rect width="96" height="32" x="319" y="47"/><rect width="96" height="32" x="317" y="45" class="nonterminal"/><text x="327" y="65" class="nonterminal">select_stmt</text><rect width="26" height="32" x="435" y="47" rx="10"/><rect width="26" height="32" x="433" y="45" class="terminal" rx="10"/><text x="443" y="65" class="terminal">)</text><rect width="58" height="32" x="166" y="189" rx="10"/><rect width="58" height="32" x="164" y="187" class="terminal" rx="10"/><text x="174" y="207" class="terminal">WITH</text><rect width="26" height="32" x="264" y="157" rx="10"/><rect width="26" height="32" x="262" y="155" class="terminal" rx="10"/><text x="272" y="175" class="terminal">(</text><rect width="104" height="32" x="330" y="157"/><rect width="104" height="32" x="328" y="155" class="nonterminal"/><text x="338" y="175" class="nonterminal">option_name</text><rect width="28" height="32" x="474" y="189" rx="10"/><rect width="28" height="32" x="472" y="187" class="terminal" rx="10"/><text x="482" y="207" class="terminal">=</text><rect width="102" height="32" x="522" y="189"/><rect width="102" height="32" x="520" y="187" class="nonterminal"/><text x="530" y="207" class="nonterminal">option_value</text><rect width="24" height="32" x="330" y="113" rx="10"/><rect width="24" height="32" x="328" y="111" class="terminal" rx="10"/><text x="338" y="131" class="terminal">,</text><rect width="26" height="32" x="684" y="157" rx="10"/><rect width="26" height="32" x="682" y="155" class="terminal" rx="10"/><text x="692" y="175" class="terminal">)</text><rect width="40" height="32" x="192" y="287" rx="10"/><rect width="40" height="32" x="190" y="285" class="terminal" rx="10"/><text x="200" y="305" class="terminal">AS</text><rect width="38" height="32" x="252" y="287" rx="10"/><rect width="38" height="32" x="250" y="285" class="terminal" rx="10"/><text x="260" y="305" class="terminal">OF</text><rect width="40" height="32" x="330" y="319" rx="10"/><rect width="40" height="32" x="328" y="317" class="terminal" rx="10"/><text x="338" y="337" class="terminal">AT</text><rect width="66" height="32" x="390" y="319" rx="10"/><rect width="66" height="32" x="388" y="317" class="terminal" rx="10"/><text x="398" y="337" class="terminal">LEAST</text><rect width="168" height="32" x="496" y="287"/><rect width="168" height="32" x="494" y="285" class="nonterminal"/><text x="504" y="305" class="nonterminal">timestamp_expression</text><rect width="38" height="32" x="285" y="401" rx="10"/><rect width="38" height="32" x="283" y="399" class="terminal" rx="10"/><text x="293" y="419" class="terminal">UP</text><rect width="40" height="32" x="343" y="401" rx="10"/><rect width="40" height="32" x="341" y="399" class="terminal" rx="10"/><text x="351" y="419" class="terminal">TO</text><rect width="168" height="32" x="403" y="401"/><rect width="168" height="32" x="401" y="399" class="nonterminal"/><text x="411" y="419" class="nonterminal">timestamp_expression</text><rect width="94" height="32" x="145" y="511" rx="10"/><rect width="94" height="32" x="143" y="509" class="terminal" rx="10"/><text x="153" y="529" class="terminal">ENVELOPE</text><rect width="76" height="32" x="259" y="511" rx="10"/><rect width="76" height="32" x="257" y="509" class="terminal" rx="10"/><text x="267" y="529" class="terminal">UPSERT</text><rect width="26" height="32" x="355" y="511" rx="10"/><rect width="26" height="32" x="353" y="509" class="terminal" rx="10"/><text x="363" y="529" class="terminal">(</text><rect width="48" height="32" x="401" y="511" rx="10"/><rect width="48" height="32" x="399" y="509" class="terminal" rx="10"/><text x="409" y="529" class="terminal">KEY</text><rect width="26" height="32" x="469" y="511" rx="10"/><rect width="26" height="32" x="467" y="509" class="terminal" rx="10"/><text x="477" y="529" class="terminal">(</text><rect width="64" height="32" x="535" y="511"/><rect width="64" height="32" x="533" y="509" class="nonterminal"/><text x="543" y="529" class="nonterminal">col_ref</text><rect width="24" height="32" x="535" y="467" rx="10"/><rect width="24" height="32" x="533" y="465" class="terminal" rx="10"/><text x="543" y="485" class="terminal">,</text><rect width="26" height="32" x="639" y="511" rx="10"/><rect width="26" height="32" x="637" y="509" class="terminal" rx="10"/><text x="647" y="529" class="terminal">)</text><rect width="26" height="32" x="685" y="511" rx="10"/><rect width="26" height="32" x="683" y="509" class="terminal" rx="10"/><text x="693" y="529" class="terminal">)</text><rect width="94" height="32" x="137" y="637" rx="10"/><rect width="94" height="32" x="135" y="635" class="terminal" rx="10"/><text x="145" y="655" class="terminal">ENVELOPE</text><rect width="92" height="32" x="251" y="637" rx="10"/><rect width="92" height="32" x="249" y="635" class="terminal" rx="10"/><text x="259" y="655" class="terminal">DEBEZIUM</text><rect width="26" height="32" x="363" y="637" rx="10"/><rect width="26" height="32" x="361" y="635" class="terminal" rx="10"/><text x="371" y="655" class="terminal">(</text><rect width="48" height="32" x="409" y="637" rx="10"/><rect width="48" height="32" x="407" y="635" class="terminal" rx="10"/><text x="417" y="655" class="terminal">KEY</text><rect width="26" height="32" x="477" y="637" rx="10"/><rect width="26" height="32" x="475" y="635" class="terminal" rx="10"/><text x="485" y="655" class="terminal">(</text><rect width="64" height="32" x="543" y="637"/><rect width="64" height="32" x="541" y="635" class="nonterminal"/><text x="551" y="655" class="nonterminal">col_ref</text><rect width="24" height="32" x="543" y="593" rx="10"/><rect width="24" height="32" x="541" y="591" class="terminal" rx="10"/><text x="551" y="611" class="terminal">,</text><rect width="26" height="32" x="647" y="637" rx="10"/><rect width="26" height="32" x="645" y="635" class="terminal" rx="10"/><text x="655" y="655" class="terminal">)</text><rect width="26" height="32" x="693" y="637" rx="10"/><rect width="26" height="32" x="691" y="635" class="terminal" rx="10"/><text x="701" y="655" class="terminal">)</text><rect width="72" height="32" x="45" y="763" rx="10"/><rect width="72" height="32" x="43" y="761" class="terminal" rx="10"/><text x="53" y="781" class="terminal">WITHIN</text><rect width="106" height="32" x="137" y="763" rx="10"/><rect width="106" height="32" x="135" y="761" class="terminal" rx="10"/><text x="145" y="781" class="terminal">TIMESTAMP</text><rect width="68" height="32" x="263" y="763" rx="10"/><rect width="68" height="32" x="261" y="761" class="terminal" rx="10"/><text x="271" y="781" class="terminal">ORDER</text><rect width="40" height="32" x="351" y="763" rx="10"/><rect width="40" height="32" x="349" y="761" class="terminal" rx="10"/><text x="359" y="781" class="terminal">BY</text><rect width="64" height="32" x="431" y="763"/><rect width="64" height="32" x="429" y="761" class="nonterminal"/><text x="439" y="781" class="nonterminal">col_ref</text><rect width="50" height="32" x="535" y="795" rx="10"/><rect width="50" height="32" x="533" y="793" class="terminal" rx="10"/><text x="543" y="813" class="terminal">ASC</text><rect width="58" height="32" x="535" y="839" rx="10"/><rect width="58" height="32" x="533" y="837" class="terminal" rx="10"/><text x="543" y="857" class="terminal">DESC</text><rect width="106" height="32" x="653" y="795" rx="10"/><rect width="106" height="32" x="651" y="793" class="terminal" rx="10"/><text x="661" y="813" class="terminal">NULLS LAST</text><rect width="110" height="32" x="653" y="839" rx="10"/><rect width="110" height="32" x="651" y="837" class="terminal" rx="10"/><text x="661" y="857" class="terminal">NULLS FIRST</text><rect width="24" height="32" x="431" y="719" rx="10"/><rect width="24" height="32" x="429" y="717" class="terminal" rx="10"/><text x="439" y="737" class="terminal">,</text><path d="m19 17 h2 m0 0 h10 m100 0 h10 m20 0 h10 m0 0 h50 m-80 0 h20 m60 0 h20 m-100 0 q10 0 10 10 m80 0 q0 -10 10 -10 m-90 10 v12 m80 0 v-12 m-80 12 q0 10 10 10 m60 0 q10 0 10 -10 m-70 10 h10 m40 0 h10 m40 -32 h10 m104 0 h10 m0 0 h84 m-228 0 h20 m208 0 h20 m-248 0 q10 0 10 10 m228 0 q0 -10 10 -10 m-238 10 v24 m228 0 v-24 m-228 24 q0 10 10 10 m208 0 q10 0 10 -10 m-218 10 h10 m26 0 h10 m0 0 h10 m96 0 h10 m0 0 h10 m26 0 h10 m22 -44 l2 0 m2 0 l2 0 m2 0 l2 0 m-399 154 l2 0 m2 0 l2 0 m2 0 l2 0 m42 0 h10 m0 0 h68 m-98 0 h20 m78 0 h20 m-118 0 q10 0 10 10 m98 0 q0 -10 10 -10 m-108 10 v12 m98 0 v-12 m-98 12 q0 10 10 10 m78 0 q10 0 10 -10 m-88 10 h10 m58 0 h10 m20 -32 h10 m26 0 h10 m20 0 h10 m104 0 h10 m20 0 h10 m0 0 h160 m-190 0 h20 m170 0 h20 m-210 0 q10 0 10 10 m190 0 q0 -10 10 -10 m-200 10 v12 m190 0 v-12 m-190 12 q0 10 10 10 m170 0 q10 0 10 -10 m-180 10 h10 m28 0 h10 m0 0 h10 m102 0 h10 m-334 -32 l20 0 m-1 0 q-9 0 -9 -10 l0 -24 q0 -10 10 -10 m334 44 l20 0 m-20 0 q10 0 10 -10 l0 -24 q0 -10 -10 -10 m-334 0 h10 m24 0 h10 m0 0 h290 m20 44 h10 m26 0 h10 m-604 0 h20 m584 0 h20 m-624 0 q10 0 10 10 m604 0 q0 -10 10 -10 m-614 10 v46 m604 0 v-46 m-604 46 q0 10 10 10 m584 0 q10 0 10 -10 m-594 10 h10 m0 0 h574 m22 -66 l2 0 m2 0 l2 0 m2 0 l2 0 m-602 98 l2 0 m2 0 l2 0 m2 0 l2 0 m22 0 h10 m0 0 h482 m-512 0 h20 m492 0 h20 m-532 0 q10 0 10 10 m512 0 q0 -10 10 -10 m-522 10 v12 m512 0 v-12 m-512 12 q0 10 10 10 m492 0 q10 0 10 -10 m-502 10 h10 m40 0 h10 m0 0 h10 m38 0 h10 m20 0 h10 m0 0 h136 m-166 0 h20 m146 0 h20 m-186 0 q10 0 10 10 m166 0 q0 -10 10 -10 m-176 10 v12 m166 0 v-12 m-166 12 q0 10 10 10 m146 0 q10 0 10 -10 m-156 10 h10 m40 0 h10 m0 0 h10 m66 0 h10 m20 -32 h10 m168 0 h10 m22 -32 l2 0 m2 0 l2 0 m2 0 l2 0 m-463 114 l2 0 m2 0 l2 0 m2 0 l2 0 m22 0 h10 m0 0 h296 m-326 0 h20 m306 0 h20 m-346 0 q10 0 10 10 m326 0 q0 -10 10 -10 m-336 10 v12 m326 0 v-12 m-326 12 q0 10 10 10 m306 0 q10 0 10 -10 m-316 10 h10 m38 0 h10 m0 0 h10 m40 0 h10 m0 0 h10 m168 0 h10 m22 -32 l2 0 m2 0 l2 0 m2 0 l2 0 m-510 142 l2 0 m2 0 l2 0 m2 0 l2 0 m22 0 h10 m94 0 h10 m0 0 h10 m76 0 h10 m0 0 h10 m26 0 h10 m0 0 h10 m48 0 h10 m0 0 h10 m26 0 h10 m20 0 h10 m64 0 h10 m-104 0 l20 0 m-1 0 q-9 0 -9 -10 l0 -24 q0 -10 10 -10 m84 44 l20 0 m-20 0 q10 0 10 -10 l0 -24 q0 -10 -10 -10 m-84 0 h10 m24 0 h10 m0 0 h40 m20 44 h10 m26 0 h10 m0 0 h10 m26 0 h10 m-606 0 h20 m586 0 h20 m-626 0 q10 0 10 10 m606 0 q0 -10 10 -10 m-616 10 v14 m606 0 v-14 m-606 14 q0 10 10 10 m586 0 q10 0 10 -10 m-596 10 h10 m0 0 h576 m22 -34 l2 0 m2 0 l2 0 m2 0 l2 0 m-658 126 l2 0 m2 0 l2 0 m2 0 l2 0 m22 0 h10 m94 0 h10 m0 0 h10 m92 0 h10 m0 0 h10 m26 0 h10 m0 0 h10 m48 0 h10 m0 0 h10 m26 0 h10 m20 0 h10 m64 0 h10 m-104 0 l20 0 m-1 0 q-9 0 -9 -10 l0 -24 q0 -10 10 -10 m84 44 l20 0 m-20 0 q10 0 10 -10 l0 -24 q0 -10 -10 -10 m-84 0 h10 m24 0 h10 m0 0 h40 m20 44 h10 m26 0 h10 m0 0 h10 m26 0 h10 m-622 0 h20 m602 0 h20 m-642 0 q10 0 10 10 m622 0 q0 -10 10 -10 m-632 10 v14 m622 0 v-14 m-622 14 q0 10 10 10 m602 0 q10 0 10 -10 m-612 10 h10 m0 0 h592 m22 -34 l2 0 m2 0 l2 0 m2 0 l2 0 m-758 126 l2 0 m2 0 l2 0 m2 0 l2 0 m22 0 h10 m72 0 h10 m0 0 h10 m106 0 h10 m0 0 h10 m68 0 h10 m0 0 h10 m40 0 h10 m20 0 h10 m64 0 h10 m20 0 h10 m0 0 h68 m-98 0 h20 m78 0 h20 m-118 0 q10 0 10 10 m98 0 q0 -10 10 -10 m-108 10 v12 m98 0 v-12 m-98 12 q0 10 10 10 m78 0 q10 0 10 -10 m-88 10 h10 m50 0 h10 m0 0 h8 m-88 -10 v20 m98 0 v-20 m-98 20 v24 m98 0 v-24 m-98 24 q0 10 10 10 m78 0 q10 0 10 -10 m-88 10 h10 m58 0 h10 m40 -76 h10 m0 0 h120 m-150 0 h20 m130 0 h20 m-170 0 q10 0 10 10 m150 0 q0 -10 10 -10 m-160 10 v12 m150 0 v-12 m-150 12 q0 10 10 10 m130 0 q10 0 10 -10 m-140 10 h10 m106 0 h10 m0 0 h4 m-140 -10 v20 m150 0 v-20 m-150 20 v24 m150 0 v-24 m-150 24 q0 10 10 10 m130 0 q10 0 10 -10 m-140 10 h10 m110 0 h10 m-372 -76 l20 0 m-1 0 q-9 0 -9 -10 l0 -24 q0 -10 10 -10 m372 44 l20 0 m-20 0 q10 0 10 -10 l0 -24 q0 -10 -10 -10 m-372 0 h10 m24 0 h10 m0 0 h328 m-778 44 h20 m778 0 h20 m-818 0 q10 0 10 10 m798 0 q0 -10 10 -10 m-808 10 v90 m798 0 v-90 m-798 90 q0 10 10 10 m778 0 q10 0 10 -10 m-788 10 h10 m0 0 h768 m23 -110 h-3" class="line"/><polygon points="841 777 849 773 849 781"/><polygon points="841 777 833 773 833 781"/></svg>