<svg xmlns="http://www.w3.org/2000/svg" width="507" height="327"><polygon points="11 17 3 13 3 21"/><polygon points="19 17 11 13 11 21"/><rect width="96" height="32" x="53" y="3"/><rect width="96" height="32" x="51" y="1" class="nonterminal"/><text x="61" y="21" class="nonterminal">table_name</text><rect width="84" height="32" x="73" y="79" rx="10"/><rect width="84" height="32" x="71" y="77" class="terminal" rx="10"/><text x="81" y="97" class="terminal">LATERAL</text><rect width="26" height="32" x="217" y="47" rx="10"/><rect width="26" height="32" x="215" y="45" class="terminal" rx="10"/><text x="225" y="65" class="terminal">(</text><rect width="96" height="32" x="263" y="47"/><rect width="96" height="32" x="261" y="45" class="nonterminal"/><text x="271" y="65" class="nonterminal">select_stmt</text><rect width="26" height="32" x="379" y="47" rx="10"/><rect width="26" height="32" x="377" y="45" class="terminal" rx="10"/><text x="387" y="65" class="terminal">)</text><rect width="116" height="32" x="217" y="91"/><rect width="116" height="32" x="215" y="89" class="nonterminal"/><text x="225" y="109" class="nonterminal">table_func_call</text><rect width="26" height="32" x="53" y="135" rx="10"/><rect width="26" height="32" x="51" y="133" class="terminal" rx="10"/><text x="61" y="153" class="terminal">(</text><rect width="78" height="32" x="99" y="135"/><rect width="78" height="32" x="97" y="133" class="nonterminal"/><text x="107" y="153" class="nonterminal">join_expr</text><rect width="26" height="32" x="197" y="135" rx="10"/><rect width="26" height="32" x="195" y="133" class="terminal" rx="10"/><text x="205" y="153" class="terminal">)</text><rect width="40" height="32" x="65" y="277" rx="10"/><rect width="40" height="32" x="63" y="275" class="terminal" rx="10"/><text x="73" y="295" class="terminal">AS</text><rect width="88" height="32" x="145" y="245"/><rect width="88" height="32" x="143" y="243" class="nonterminal"/><text x="153" y="263" class="nonterminal">table_alias</text><rect width="26" height="32" x="253" y="245" rx="10"/><rect width="26" height="32" x="251" y="243" class="terminal" rx="10"/><text x="261" y="263" class="terminal">(</text><rect width="74" height="32" x="319" y="245"/><rect width="74" height="32" x="317" y="243" class="nonterminal"/><text x="327" y="263" class="nonterminal">col_alias</text><rect width="24" height="32" x="319" y="201" rx="10"/><rect width="24" height="32" x="317" y="199" class="terminal" rx="10"/><text x="327" y="219" class="terminal">,</text><rect width="26" height="32" x="433" y="245" rx="10"/><rect width="26" height="32" x="431" y="243" class="terminal" rx="10"/><text x="441" y="263" class="terminal">)</text><path d="m19 17 h2 m20 0 h10 m96 0 h10 m0 0 h276 m-412 0 h20 m392 0 h20 m-432 0 q10 0 10 10 m412 0 q0 -10 10 -10 m-422 10 v24 m412 0 v-24 m-412 24 q0 10 10 10 m392 0 q10 0 10 -10 m-382 10 h10 m0 0 h94 m-124 0 h20 m104 0 h20 m-144 0 q10 0 10 10 m124 0 q0 -10 10 -10 m-134 10 v12 m124 0 v-12 m-124 12 q0 10 10 10 m104 0 q10 0 10 -10 m-114 10 h10 m84 0 h10 m40 -32 h10 m26 0 h10 m0 0 h10 m96 0 h10 m0 0 h10 m26 0 h10 m-228 0 h20 m208 0 h20 m-248 0 q10 0 10 10 m228 0 q0 -10 10 -10 m-238 10 v24 m228 0 v-24 m-228 24 q0 10 10 10 m208 0 q10 0 10 -10 m-218 10 h10 m116 0 h10 m0 0 h72 m-382 -54 v20 m412 0 v-20 m-412 20 v68 m412 0 v-68 m-412 68 q0 10 10 10 m392 0 q10 0 10 -10 m-402 10 h10 m26 0 h10 m0 0 h10 m78 0 h10 m0 0 h10 m26 0 h10 m0 0 h202 m22 -132 l2 0 m2 0 l2 0 m2 0 l2 0 m-464 242 l2 0 m2 0 l2 0 m2 0 l2 0 m42 0 h10 m0 0 h50 m-80 0 h20 m60 0 h20 m-100 0 q10 0 10 10 m80 0 q0 -10 10 -10 m-90 10 v12 m80 0 v-12 m-80 12 q0 10 10 10 m60 0 q10 0 10 -10 m-70 10 h10 m40 0 h10 m20 -32 h10 m88 0 h10 m0 0 h10 m26 0 h10 m20 0 h10 m74 0 h10 m-114 0 l20 0 m-1 0 q-9 0 -9 -10 l0 -24 q0 -10 10 -10 m94 44 l20 0 m-20 0 q10 0 10 -10 l0 -24 q0 -10 -10 -10 m-94 0 h10 m24 0 h10 m0 0 h50 m20 44 h10 m26 0 h10 m-454 0 h20 m434 0 h20 m-474 0 q10 0 10 10 m454 0 q0 -10 10 -10 m-464 10 v46 m454 0 v-46 m-454 46 q0 10 10 10 m434 0 q10 0 10 -10 m-444 10 h10 m0 0 h424 m23 -66 h-3" class="line"/><polygon points="497 259 505 255 505 263"/><polygon points="497 259 489 255 489 263"/></svg>