<svg xmlns="http://www.w3.org/2000/svg" width="235" height="477"><polygon points="9 17 1 13 1 21"/><polygon points="17 17 9 13 9 21"/><rect width="108" height="32" x="51" y="3" rx="10"/><rect width="108" height="32" x="49" y="1" class="terminal" rx="10"/><text x="59" y="21" class="terminal">MILLENNIUM</text><rect width="88" height="32" x="51" y="47" rx="10"/><rect width="88" height="32" x="49" y="45" class="terminal" rx="10"/><text x="59" y="65" class="terminal">CENTURY</text><rect width="78" height="32" x="51" y="91" rx="10"/><rect width="78" height="32" x="49" y="89" class="terminal" rx="10"/><text x="59" y="109" class="terminal">DECADE</text><rect width="58" height="32" x="51" y="135" rx="10"/><rect width="58" height="32" x="49" y="133" class="terminal" rx="10"/><text x="59" y="153" class="terminal">YEAR</text><rect width="74" height="32" x="51" y="179" rx="10"/><rect width="74" height="32" x="49" y="177" class="terminal" rx="10"/><text x="59" y="197" class="terminal">MONTH</text><rect width="50" height="32" x="51" y="223" rx="10"/><rect width="50" height="32" x="49" y="221" class="terminal" rx="10"/><text x="59" y="241" class="terminal">DAY</text><rect width="60" height="32" x="51" y="267" rx="10"/><rect width="60" height="32" x="49" y="265" class="terminal" rx="10"/><text x="59" y="285" class="terminal">HOUR</text><rect width="74" height="32" x="51" y="311" rx="10"/><rect width="74" height="32" x="49" y="309" class="terminal" rx="10"/><text x="59" y="329" class="terminal">MINUTE</text><rect width="80" height="32" x="51" y="355" rx="10"/><rect width="80" height="32" x="49" y="353" class="terminal" rx="10"/><text x="59" y="373" class="terminal">SECOND</text><rect width="126" height="32" x="51" y="399" rx="10"/><rect width="126" height="32" x="49" y="397" class="terminal" rx="10"/><text x="59" y="417" class="terminal">MILLISECONDS</text><rect width="136" height="32" x="51" y="443" rx="10"/><rect width="136" height="32" x="49" y="441" class="terminal" rx="10"/><text x="59" y="461" class="terminal">MICROSECONDS</text><path d="m17 17 h2 m20 0 h10 m108 0 h10 m0 0 h28 m-176 0 h20 m156 0 h20 m-196 0 q10 0 10 10 m176 0 q0 -10 10 -10 m-186 10 v24 m176 0 v-24 m-176 24 q0 10 10 10 m156 0 q10 0 10 -10 m-166 10 h10 m88 0 h10 m0 0 h48 m-166 -10 v20 m176 0 v-20 m-176 20 v24 m176 0 v-24 m-176 24 q0 10 10 10 m156 0 q10 0 10 -10 m-166 10 h10 m78 0 h10 m0 0 h58 m-166 -10 v20 m176 0 v-20 m-176 20 v24 m176 0 v-24 m-176 24 q0 10 10 10 m156 0 q10 0 10 -10 m-166 10 h10 m58 0 h10 m0 0 h78 m-166 -10 v20 m176 0 v-20 m-176 20 v24 m176 0 v-24 m-176 24 q0 10 10 10 m156 0 q10 0 10 -10 m-166 10 h10 m74 0 h10 m0 0 h62 m-166 -10 v20 m176 0 v-20 m-176 20 v24 m176 0 v-24 m-176 24 q0 10 10 10 m156 0 q10 0 10 -10 m-166 10 h10 m50 0 h10 m0 0 h86 m-166 -10 v20 m176 0 v-20 m-176 20 v24 m176 0 v-24 m-176 24 q0 10 10 10 m156 0 q10 0 10 -10 m-166 10 h10 m60 0 h10 m0 0 h76 m-166 -10 v20 m176 0 v-20 m-176 20 v24 m176 0 v-24 m-176 24 q0 10 10 10 m156 0 q10 0 10 -10 m-166 10 h10 m74 0 h10 m0 0 h62 m-166 -10 v20 m176 0 v-20 m-176 20 v24 m176 0 v-24 m-176 24 q0 10 10 10 m156 0 q10 0 10 -10 m-166 10 h10 m80 0 h10 m0 0 h56 m-166 -10 v20 m176 0 v-20 m-176 20 v24 m176 0 v-24 m-176 24 q0 10 10 10 m156 0 q10 0 10 -10 m-166 10 h10 m126 0 h10 m0 0 h10 m-166 -10 v20 m176 0 v-20 m-176 20 v24 m176 0 v-24 m-176 24 q0 10 10 10 m156 0 q10 0 10 -10 m-166 10 h10 m136 0 h10 m23 -440 h-3" class="line"/><polygon points="225 17 233 13 233 21"/><polygon points="225 17 217 13 217 21"/></svg>