<svg xmlns="http://www.w3.org/2000/svg" width="297" height="37"><polygon points="9 17 1 13 1 21"/><polygon points="17 17 9 13 9 21"/><rect width="22" height="32" x="31" y="3" rx="10"/><rect width="22" height="32" x="29" y="1" class="terminal" rx="10"/><text x="39" y="21" class="terminal">&apos;</text><rect width="26" height="32" x="73" y="3" rx="10"/><rect width="26" height="32" x="71" y="1" class="terminal" rx="10"/><text x="81" y="21" class="terminal">\</text><rect width="108" height="32" x="119" y="3" rx="10"/><rect width="108" height="32" x="117" y="1" class="terminal" rx="10"/><text x="127" y="21" class="terminal">binary string</text><rect width="22" height="32" x="247" y="3" rx="10"/><rect width="22" height="32" x="245" y="1" class="terminal" rx="10"/><text x="255" y="21" class="terminal">&apos;</text><path d="m17 17 h2 m0 0 h10 m22 0 h10 m0 0 h10 m26 0 h10 m0 0 h10 m108 0 h10 m0 0 h10 m22 0 h10 m3 0 h-3" class="line"/><polygon points="287 17 295 13 295 21"/><polygon points="287 17 279 13 279 21"/></svg>