<svg xmlns="http://www.w3.org/2000/svg" width="515" height="157"><polygon points="9 17 1 13 1 21"/><polygon points="17 17 9 13 9 21"/><rect width="30" height="32" x="51" y="35" rx="10"/><rect width="30" height="32" x="49" y="33" class="terminal" rx="10"/><text x="59" y="53" class="terminal">+</text><rect width="26" height="32" x="51" y="79" rx="10"/><rect width="26" height="32" x="49" y="77" class="terminal" rx="10"/><text x="59" y="97" class="terminal">-</text><rect width="64" height="32" x="141" y="3"/><rect width="64" height="32" x="139" y="1" class="nonterminal"/><text x="149" y="21" class="nonterminal">ym_str</text><rect width="72" height="32" x="141" y="47"/><rect width="72" height="32" x="139" y="45" class="nonterminal"/><text x="149" y="65" class="nonterminal">time_str</text><rect width="36" height="32" x="141" y="91"/><rect width="36" height="32" x="139" y="89" class="nonterminal"/><text x="149" y="109" class="nonterminal">int</text><rect width="24" height="32" x="217" y="123" rx="10"/><rect width="24" height="32" x="215" y="121" class="terminal" rx="10"/><text x="225" y="141" class="terminal">.</text><rect width="46" height="32" x="261" y="123"/><rect width="46" height="32" x="259" y="121" class="nonterminal"/><text x="269" y="141" class="nonterminal">frac</text><rect width="80" height="32" x="367" y="123"/><rect width="80" height="32" x="365" y="121" class="nonterminal"/><text x="375" y="141" class="nonterminal">time_unit</text><path d="m17 17 h2 m20 0 h10 m0 0 h40 m-70 0 h20 m50 0 h20 m-90 0 q10 0 10 10 m70 0 q0 -10 10 -10 m-80 10 v12 m70 0 v-12 m-70 12 q0 10 10 10 m50 0 q10 0 10 -10 m-60 10 h10 m30 0 h10 m-60 -10 v20 m70 0 v-20 m-70 20 v24 m70 0 v-24 m-70 24 q0 10 10 10 m50 0 q10 0 10 -10 m-60 10 h10 m26 0 h10 m0 0 h4 m40 -76 h10 m64 0 h10 m0 0 h262 m-366 0 h20 m346 0 h20 m-386 0 q10 0 10 10 m366 0 q0 -10 10 -10 m-376 10 v24 m366 0 v-24 m-366 24 q0 10 10 10 m346 0 q10 0 10 -10 m-356 10 h10 m72 0 h10 m0 0 h254 m-356 -10 v20 m366 0 v-20 m-366 20 v24 m366 0 v-24 m-366 24 q0 10 10 10 m346 0 q10 0 10 -10 m-356 10 h10 m36 0 h10 m20 0 h10 m0 0 h100 m-130 0 h20 m110 0 h20 m-150 0 q10 0 10 10 m130 0 q0 -10 10 -10 m-140 10 v12 m130 0 v-12 m-130 12 q0 10 10 10 m110 0 q10 0 10 -10 m-120 10 h10 m24 0 h10 m0 0 h10 m46 0 h10 m40 -32 h10 m0 0 h90 m-120 0 h20 m100 0 h20 m-140 0 q10 0 10 10 m120 0 q0 -10 10 -10 m-130 10 v12 m120 0 v-12 m-120 12 q0 10 10 10 m100 0 q10 0 10 -10 m-110 10 h10 m80 0 h10 m43 -120 h-3" class="line"/><polygon points="505 17 513 13 513 21"/><polygon points="505 17 497 13 497 21"/></svg>