<svg xmlns="http://www.w3.org/2000/svg" width="529" height="103"><polygon points="9 17 1 13 1 21"/><polygon points="17 17 9 13 9 21"/><rect width="22" height="32" x="31" y="3" rx="10"/><rect width="22" height="32" x="29" y="1" class="terminal" rx="10"/><text x="39" y="21" class="terminal">&apos;</text><rect width="92" height="32" x="73" y="3"/><rect width="92" height="32" x="71" y="1" class="nonterminal"/><text x="81" y="21" class="nonterminal">map_string</text><rect width="22" height="32" x="185" y="3" rx="10"/><rect width="22" height="32" x="183" y="1" class="terminal" rx="10"/><text x="193" y="21" class="terminal">&apos;</text><rect width="28" height="32" x="227" y="3" rx="10"/><rect width="28" height="32" x="225" y="1" class="terminal" rx="10"/><text x="235" y="21" class="terminal">::</text><rect width="52" height="32" x="275" y="3" rx="10"/><rect width="52" height="32" x="273" y="1" class="terminal" rx="10"/><text x="283" y="21" class="terminal">MAP</text><rect width="26" height="32" x="347" y="3" rx="10"/><rect width="26" height="32" x="345" y="1" class="terminal" rx="10"/><text x="355" y="21" class="terminal">[</text><rect width="56" height="32" x="393" y="3" rx="10"/><rect width="56" height="32" x="391" y="1" class="terminal" rx="10"/><text x="401" y="21" class="terminal">TEXT</text><rect width="38" height="32" x="469" y="3" rx="10"/><rect width="38" height="32" x="467" y="1" class="terminal" rx="10"/><text x="477" y="21" class="terminal">=&gt;</text><rect width="90" height="32" x="365" y="69"/><rect width="90" height="32" x="363" y="67" class="nonterminal"/><text x="373" y="87" class="nonterminal">value_type</text><rect width="26" height="32" x="475" y="69" rx="10"/><rect width="26" height="32" x="473" y="67" class="terminal" rx="10"/><text x="483" y="87" class="terminal">]</text><path d="m17 17 h2 m0 0 h10 m22 0 h10 m0 0 h10 m92 0 h10 m0 0 h10 m22 0 h10 m0 0 h10 m28 0 h10 m0 0 h10 m52 0 h10 m0 0 h10 m26 0 h10 m0 0 h10 m56 0 h10 m0 0 h10 m38 0 h10 m2 0 l2 0 m2 0 l2 0 m2 0 l2 0 m-186 66 l2 0 m2 0 l2 0 m2 0 l2 0 m2 0 h10 m90 0 h10 m0 0 h10 m26 0 h10 m3 0 h-3" class="line"/><polygon points="519 83 527 79 527 87"/><polygon points="519 83 511 79 511 87"/></svg>