<svg xmlns="http://www.w3.org/2000/svg" width="289" height="37"><polygon points="9 17 1 13 1 21"/><polygon points="17 17 9 13 9 21"/><rect width="54" height="32" x="31" y="3"/><rect width="54" height="32" x="29" y="1" class="nonterminal"/><text x="39" y="21" class="nonterminal">UUID</text><rect width="22" height="32" x="105" y="3" rx="10"/><rect width="22" height="32" x="103" y="1" class="terminal" rx="10"/><text x="113" y="21" class="terminal">&apos;</text><rect width="72" height="32" x="147" y="3"/><rect width="72" height="32" x="145" y="1" class="nonterminal"/><text x="155" y="21" class="nonterminal">uuid_str</text><rect width="22" height="32" x="239" y="3" rx="10"/><rect width="22" height="32" x="237" y="1" class="terminal" rx="10"/><text x="247" y="21" class="terminal">&apos;</text><path d="m17 17 h2 m0 0 h10 m54 0 h10 m0 0 h10 m22 0 h10 m0 0 h10 m72 0 h10 m0 0 h10 m22 0 h10 m3 0 h-3" class="line"/><polygon points="279 17 287 13 287 21"/><polygon points="279 17 271 13 271 21"/></svg>