<svg xmlns="http://www.w3.org/2000/svg" width="467" height="243"><polygon points="9 17 1 13 1 21"/><polygon points="17 17 9 13 9 21"/><rect width="58" height="32" x="31" y="3" rx="10"/><rect width="58" height="32" x="29" y="1" class="terminal" rx="10"/><text x="39" y="21" class="terminal">DATE</text><rect width="22" height="32" x="109" y="3" rx="10"/><rect width="22" height="32" x="107" y="1" class="terminal" rx="10"/><text x="117" y="21" class="terminal">&apos;</text><rect width="74" height="32" x="151" y="3"/><rect width="74" height="32" x="149" y="1" class="nonterminal"/><text x="159" y="21" class="nonterminal">date_str</text><rect width="28" height="32" x="285" y="67" rx="10"/><rect width="28" height="32" x="283" y="65" class="terminal" rx="10"/><text x="293" y="85" class="terminal">T</text><rect width="72" height="32" x="353" y="35"/><rect width="72" height="32" x="351" y="33" class="nonterminal"/><text x="361" y="53" class="nonterminal">time_str</text><rect width="30" height="32" x="229" y="165" rx="10"/><rect width="30" height="32" x="227" y="163" class="terminal" rx="10"/><text x="237" y="183" class="terminal">+</text><rect width="26" height="32" x="229" y="209" rx="10"/><rect width="26" height="32" x="227" y="207" class="terminal" rx="10"/><text x="237" y="227" class="terminal">-</text><rect width="78" height="32" x="299" y="165"/><rect width="78" height="32" x="297" y="163" class="nonterminal"/><text x="307" y="183" class="nonterminal">tz_offset</text><rect width="22" height="32" x="417" y="133" rx="10"/><rect width="22" height="32" x="415" y="131" class="terminal" rx="10"/><text x="425" y="151" class="terminal">&apos;</text><path d="m17 17 h2 m0 0 h10 m58 0 h10 m0 0 h10 m22 0 h10 m0 0 h10 m74 0 h10 m20 0 h10 m0 0 h170 m-200 0 h20 m180 0 h20 m-220 0 q10 0 10 10 m200 0 q0 -10 10 -10 m-210 10 v12 m200 0 v-12 m-200 12 q0 10 10 10 m180 0 q10 0 10 -10 m-170 10 h10 m0 0 h38 m-68 0 h20 m48 0 h20 m-88 0 q10 0 10 10 m68 0 q0 -10 10 -10 m-78 10 v12 m68 0 v-12 m-68 12 q0 10 10 10 m48 0 q10 0 10 -10 m-58 10 h10 m28 0 h10 m20 -32 h10 m72 0 h10 m22 -32 l2 0 m2 0 l2 0 m2 0 l2 0 m-300 130 l2 0 m2 0 l2 0 m2 0 l2 0 m22 0 h10 m0 0 h178 m-208 0 h20 m188 0 h20 m-228 0 q10 0 10 10 m208 0 q0 -10 10 -10 m-218 10 v12 m208 0 v-12 m-208 12 q0 10 10 10 m188 0 q10 0 10 -10 m-178 10 h10 m30 0 h10 m-70 0 h20 m50 0 h20 m-90 0 q10 0 10 10 m70 0 q0 -10 10 -10 m-80 10 v24 m70 0 v-24 m-70 24 q0 10 10 10 m50 0 q10 0 10 -10 m-60 10 h10 m26 0 h10 m0 0 h4 m20 -44 h10 m78 0 h10 m20 -32 h10 m22 0 h10 m3 0 h-3" class="line"/><polygon points="457 147 465 143 465 151"/><polygon points="457 147 449 143 449 151"/></svg>