<svg xmlns="http://www.w3.org/2000/svg" width="329" height="37"><polygon points="9 17 1 13 1 21"/><polygon points="17 17 9 13 9 21"/><rect width="22" height="32" x="31" y="3" rx="10"/><rect width="22" height="32" x="29" y="1" class="terminal" rx="10"/><text x="39" y="21" class="terminal">&apos;</text><rect width="90" height="32" x="73" y="3"/><rect width="90" height="32" x="71" y="1" class="nonterminal"/><text x="81" y="21" class="nonterminal">json_string</text><rect width="22" height="32" x="183" y="3" rx="10"/><rect width="22" height="32" x="181" y="1" class="terminal" rx="10"/><text x="191" y="21" class="terminal">&apos;</text><rect width="76" height="32" x="225" y="3" rx="10"/><rect width="76" height="32" x="223" y="1" class="terminal" rx="10"/><text x="233" y="21" class="terminal">::JSONB</text><path d="m17 17 h2 m0 0 h10 m22 0 h10 m0 0 h10 m90 0 h10 m0 0 h10 m22 0 h10 m0 0 h10 m76 0 h10 m3 0 h-3" class="line"/><polygon points="319 17 327 13 327 21"/><polygon points="319 17 311 13 311 21"/></svg>