<svg xmlns="http://www.w3.org/2000/svg" width="189" height="37"><polygon points="9 17 1 13 1 21"/><polygon points="17 17 9 13 9 21"/><rect width="22" height="32" x="31" y="3" rx="10"/><rect width="22" height="32" x="29" y="1" class="terminal" rx="10"/><text x="39" y="21" class="terminal">&apos;</text><rect width="46" height="32" x="73" y="3"/><rect width="46" height="32" x="71" y="1" class="nonterminal"/><text x="81" y="21" class="nonterminal">text</text><rect width="22" height="32" x="139" y="3" rx="10"/><rect width="22" height="32" x="137" y="1" class="terminal" rx="10"/><text x="147" y="21" class="terminal">&apos;</text><path d="m17 17 h2 m0 0 h10 m22 0 h10 m0 0 h10 m46 0 h10 m0 0 h10 m22 0 h10 m3 0 h-3" class="line"/><polygon points="179 17 187 13 187 21"/><polygon points="179 17 171 13 171 21"/></svg>