<svg xmlns="http://www.w3.org/2000/svg" width="351" height="81"><polygon points="9 17 1 13 1 21"/><polygon points="17 17 9 13 9 21"/><rect width="28" height="32" x="51" y="3" rx="10"/><rect width="28" height="32" x="49" y="1" class="terminal" rx="10"/><text x="59" y="21" class="terminal">e</text><rect width="28" height="32" x="51" y="47" rx="10"/><rect width="28" height="32" x="49" y="45" class="terminal" rx="10"/><text x="59" y="65" class="terminal">E</text><rect width="22" height="32" x="119" y="3" rx="10"/><rect width="22" height="32" x="117" y="1" class="terminal" rx="10"/><text x="127" y="21" class="terminal">&apos;</text><rect width="120" height="32" x="161" y="3"/><rect width="120" height="32" x="159" y="1" class="nonterminal"/><text x="169" y="21" class="nonterminal">escapable_text</text><rect width="22" height="32" x="301" y="3" rx="10"/><rect width="22" height="32" x="299" y="1" class="terminal" rx="10"/><text x="309" y="21" class="terminal">&apos;</text><path d="m17 17 h2 m20 0 h10 m28 0 h10 m-68 0 h20 m48 0 h20 m-88 0 q10 0 10 10 m68 0 q0 -10 10 -10 m-78 10 v24 m68 0 v-24 m-68 24 q0 10 10 10 m48 0 q10 0 10 -10 m-58 10 h10 m28 0 h10 m20 -44 h10 m22 0 h10 m0 0 h10 m120 0 h10 m0 0 h10 m22 0 h10 m3 0 h-3" class="line"/><polygon points="341 17 349 13 349 21"/><polygon points="341 17 333 13 333 21"/></svg>