<svg xmlns="http://www.w3.org/2000/svg" width="769" height="473"><polygon points="9 17 1 13 1 21"/><polygon points="17 17 9 13 9 21"/><rect width="106" height="32" x="51" y="3" rx="10"/><rect width="106" height="32" x="49" y="1" class="terminal" rx="10"/><text x="59" y="21" class="terminal">TIMESTAMP</text><rect width="26" height="32" x="197" y="35" rx="10"/><rect width="26" height="32" x="195" y="33" class="terminal" rx="10"/><text x="205" y="53" class="terminal">(</text><rect width="80" height="32" x="243" y="35"/><rect width="80" height="32" x="241" y="33" class="nonterminal"/><text x="251" y="53" class="nonterminal">precision</text><rect width="26" height="32" x="343" y="35" rx="10"/><rect width="26" height="32" x="341" y="33" class="terminal" rx="10"/><text x="351" y="53" class="terminal">)</text><rect width="58" height="32" x="449" y="35" rx="10"/><rect width="58" height="32" x="447" y="33" class="terminal" rx="10"/><text x="457" y="53" class="terminal">WITH</text><rect width="88" height="32" x="449" y="79" rx="10"/><rect width="88" height="32" x="447" y="77" class="terminal" rx="10"/><text x="457" y="97" class="terminal">WITHOUT</text><rect width="52" height="32" x="577" y="35"/><rect width="52" height="32" x="575" y="33" class="nonterminal"/><text x="585" y="53" class="nonterminal">TIME</text><rect width="58" height="32" x="649" y="35"/><rect width="58" height="32" x="647" y="33" class="nonterminal"/><text x="657" y="53" class="nonterminal">ZONE</text><rect width="124" height="32" x="51" y="123" rx="10"/><rect width="124" height="32" x="49" y="121" class="terminal" rx="10"/><text x="59" y="141" class="terminal">TIMESTAMPTZ</text><rect width="26" height="32" x="215" y="155" rx="10"/><rect width="26" height="32" x="213" y="153" class="terminal" rx="10"/><text x="223" y="173" class="terminal">(</text><rect width="80" height="32" x="261" y="155"/><rect width="80" height="32" x="259" y="153" class="nonterminal"/><text x="269" y="173" class="nonterminal">precision</text><rect width="26" height="32" x="361" y="155" rx="10"/><rect width="26" height="32" x="359" y="153" class="terminal" rx="10"/><text x="369" y="173" class="terminal">)</text><rect width="22" height="32" x="218" y="221" rx="10"/><rect width="22" height="32" x="216" y="219" class="terminal" rx="10"/><text x="226" y="239" class="terminal">&apos;</text><rect width="74" height="32" x="260" y="221"/><rect width="74" height="32" x="258" y="219" class="nonterminal"/><text x="268" y="239" class="nonterminal">date_str</text><rect width="24" height="32" x="394" y="253" rx="10"/><rect width="24" height="32" x="392" y="251" class="terminal" rx="10"/><rect width="28" height="32" x="394" y="297" rx="10"/><rect width="28" height="32" x="392" y="295" class="terminal" rx="10"/><text x="402" y="315" class="terminal">T</text><rect width="72" height="32" x="462" y="253"/><rect width="72" height="32" x="460" y="251" class="nonterminal"/><text x="470" y="271" class="nonterminal">time_str</text><rect width="30" height="32" x="531" y="395" rx="10"/><rect width="30" height="32" x="529" y="393" class="terminal" rx="10"/><text x="539" y="413" class="terminal">+</text><rect width="26" height="32" x="531" y="439" rx="10"/><rect width="26" height="32" x="529" y="437" class="terminal" rx="10"/><text x="539" y="457" class="terminal">-</text><rect width="78" height="32" x="601" y="395"/><rect width="78" height="32" x="599" y="393" class="nonterminal"/><text x="609" y="413" class="nonterminal">tz_offset</text><rect width="22" height="32" x="719" y="363" rx="10"/><rect width="22" height="32" x="717" y="361" class="terminal" rx="10"/><text x="727" y="381" class="terminal">&apos;</text><path d="m17 17 h2 m20 0 h10 m106 0 h10 m20 0 h10 m0 0 h182 m-212 0 h20 m192 0 h20 m-232 0 q10 0 10 10 m212 0 q0 -10 10 -10 m-222 10 v12 m212 0 v-12 m-212 12 q0 10 10 10 m192 0 q10 0 10 -10 m-202 10 h10 m26 0 h10 m0 0 h10 m80 0 h10 m0 0 h10 m26 0 h10 m40 -32 h10 m0 0 h288 m-318 0 h20 m298 0 h20 m-338 0 q10 0 10 10 m318 0 q0 -10 10 -10 m-328 10 v12 m318 0 v-12 m-318 12 q0 10 10 10 m298 0 q10 0 10 -10 m-288 10 h10 m58 0 h10 m0 0 h30 m-128 0 h20 m108 0 h20 m-148 0 q10 0 10 10 m128 0 q0 -10 10 -10 m-138 10 v24 m128 0 v-24 m-128 24 q0 10 10 10 m108 0 q10 0 10 -10 m-118 10 h10 m88 0 h10 m20 -44 h10 m52 0 h10 m0 0 h10 m58 0 h10 m-696 -32 h20 m696 0 h20 m-736 0 q10 0 10 10 m716 0 q0 -10 10 -10 m-726 10 v100 m716 0 v-100 m-716 100 q0 10 10 10 m696 0 q10 0 10 -10 m-706 10 h10 m124 0 h10 m20 0 h10 m0 0 h182 m-212 0 h20 m192 0 h20 m-232 0 q10 0 10 10 m212 0 q0 -10 10 -10 m-222 10 v12 m212 0 v-12 m-212 12 q0 10 10 10 m192 0 q10 0 10 -10 m-202 10 h10 m26 0 h10 m0 0 h10 m80 0 h10 m0 0 h10 m26 0 h10 m20 -32 h320 m22 -120 l2 0 m2 0 l2 0 m2 0 l2 0 m-573 218 l2 0 m2 0 l2 0 m2 0 l2 0 m2 0 h10 m22 0 h10 m0 0 h10 m74 0 h10 m20 0 h10 m0 0 h170 m-200 0 h20 m180 0 h20 m-220 0 q10 0 10 10 m200 0 q0 -10 10 -10 m-210 10 v12 m200 0 v-12 m-200 12 q0 10 10 10 m180 0 q10 0 10 -10 m-170 10 h10 m24 0 h10 m0 0 h4 m-68 0 h20 m48 0 h20 m-88 0 q10 0 10 10 m68 0 q0 -10 10 -10 m-78 10 v24 m68 0 v-24 m-68 24 q0 10 10 10 m48 0 q10 0 10 -10 m-58 10 h10 m28 0 h10 m20 -44 h10 m72 0 h10 m22 -32 l2 0 m2 0 l2 0 m2 0 l2 0 m-107 142 l2 0 m2 0 l2 0 m2 0 l2 0 m22 0 h10 m0 0 h178 m-208 0 h20 m188 0 h20 m-228 0 q10 0 10 10 m208 0 q0 -10 10 -10 m-218 10 v12 m208 0 v-12 m-208 12 q0 10 10 10 m188 0 q10 0 10 -10 m-178 10 h10 m30 0 h10 m-70 0 h20 m50 0 h20 m-90 0 q10 0 10 10 m70 0 q0 -10 10 -10 m-80 10 v24 m70 0 v-24 m-70 24 q0 10 10 10 m50 0 q10 0 10 -10 m-60 10 h10 m26 0 h10 m0 0 h4 m20 -44 h10 m78 0 h10 m20 -32 h10 m22 0 h10 m3 0 h-3" class="line"/><polygon points="759 377 767 373 767 381"/><polygon points="759 377 751 373 751 381"/></svg>