<svg xmlns="http://www.w3.org/2000/svg" width="505" height="85"><polygon points="9 33 1 29 1 37"/><polygon points="17 33 9 29 9 37"/><rect width="54" height="32" x="31" y="19" rx="10"/><rect width="54" height="32" x="29" y="17" class="terminal" rx="10"/><text x="39" y="37" class="terminal">ROW</text><rect width="26" height="32" x="105" y="19" rx="10"/><rect width="26" height="32" x="103" y="17" class="terminal" rx="10"/><text x="113" y="37" class="terminal">(</text><rect width="48" height="32" x="171" y="51"/><rect width="48" height="32" x="169" y="49" class="nonterminal"/><text x="179" y="69" class="nonterminal">expr</text><rect width="24" height="32" x="299" y="19" rx="10"/><rect width="24" height="32" x="297" y="17" class="terminal" rx="10"/><text x="307" y="37" class="terminal">,</text><rect width="48" height="32" x="343" y="19"/><rect width="48" height="32" x="341" y="17" class="nonterminal"/><text x="351" y="37" class="nonterminal">expr</text><rect width="26" height="32" x="451" y="19" rx="10"/><rect width="26" height="32" x="449" y="17" class="terminal" rx="10"/><text x="459" y="37" class="terminal">)</text><path d="m17 33 h2 m0 0 h10 m54 0 h10 m0 0 h10 m26 0 h10 m20 0 h10 m0 0 h58 m-88 0 h20 m68 0 h20 m-108 0 q10 0 10 10 m88 0 q0 -10 10 -10 m-98 10 v12 m88 0 v-12 m-88 12 q0 10 10 10 m68 0 q10 0 10 -10 m-78 10 h10 m48 0 h10 m60 -32 h10 m24 0 h10 m0 0 h10 m48 0 h10 m-132 0 l20 0 m-1 0 q-9 0 -9 -10 l0 -12 q0 -10 10 -10 m112 32 l20 0 m-20 0 q10 0 10 -10 l0 -12 q0 -10 -10 -10 m-112 0 h10 m0 0 h102 m-152 32 h20 m152 0 h20 m-192 0 q10 0 10 10 m172 0 q0 -10 10 -10 m-182 10 v14 m172 0 v-14 m-172 14 q0 10 10 10 m152 0 q10 0 10 -10 m-162 10 h10 m0 0 h142 m20 -34 h10 m26 0 h10 m3 0 h-3" class="line"/><polygon points="495 33 503 29 503 37"/><polygon points="495 33 487 29 487 37"/></svg>