<svg xmlns="http://www.w3.org/2000/svg" width="305" height="37"><polygon points="9 17 1 13 1 21"/><polygon points="17 17 9 13 9 21"/><rect width="22" height="32" x="31" y="3" rx="10"/><rect width="22" height="32" x="29" y="1" class="terminal" rx="10"/><text x="39" y="21" class="terminal">&apos;</text><rect width="34" height="32" x="73" y="3" rx="10"/><rect width="34" height="32" x="71" y="1" class="terminal" rx="10"/><text x="81" y="21" class="terminal">\x</text><rect width="108" height="32" x="127" y="3" rx="10"/><rect width="108" height="32" x="125" y="1" class="terminal" rx="10"/><text x="135" y="21" class="terminal">binary string</text><rect width="22" height="32" x="255" y="3" rx="10"/><rect width="22" height="32" x="253" y="1" class="terminal" rx="10"/><text x="263" y="21" class="terminal">&apos;</text><path d="m17 17 h2 m0 0 h10 m22 0 h10 m0 0 h10 m34 0 h10 m0 0 h10 m108 0 h10 m0 0 h10 m22 0 h10 m3 0 h-3" class="line"/><polygon points="295 17 303 13 303 21"/><polygon points="295 17 287 13 287 21"/></svg>