<svg xmlns="http://www.w3.org/2000/svg" width="443" height="37"><polygon points="9 17 1 13 1 21"/><polygon points="17 17 9 13 9 21"/><rect width="92" height="32" x="31" y="3" rx="10"/><rect width="92" height="32" x="29" y="1" class="terminal" rx="10"/><text x="39" y="21" class="terminal">VALIDATE</text><rect width="116" height="32" x="143" y="3" rx="10"/><rect width="116" height="32" x="141" y="1" class="terminal" rx="10"/><text x="151" y="21" class="terminal">CONNECTION</text><rect width="136" height="32" x="279" y="3"/><rect width="136" height="32" x="277" y="1" class="nonterminal"/><text x="287" y="21" class="nonterminal">connection_name</text><path d="m17 17 h2 m0 0 h10 m92 0 h10 m0 0 h10 m116 0 h10 m0 0 h10 m136 0 h10 m3 0 h-3" class="line"/><polygon points="433 17 441 13 441 21"/><polygon points="433 17 425 13 425 21"/></svg>