<svg xmlns="http://www.w3.org/2000/svg" width="463" height="211"><polygon points="9 17 1 13 1 21"/><polygon points="17 17 9 13 9 21"/><rect width="60" height="32" x="51" y="3" rx="10"/><rect width="60" height="32" x="49" y="1" class="terminal" rx="10"/><text x="59" y="21" class="terminal">BODY</text><rect width="86" height="32" x="51" y="47" rx="10"/><rect width="86" height="32" x="49" y="45" class="terminal" rx="10"/><text x="59" y="65" class="terminal">HEADERS</text><rect width="76" height="32" x="51" y="91" rx="10"/><rect width="76" height="32" x="49" y="89" class="terminal" rx="10"/><text x="59" y="109" class="terminal">SECRET</text><rect width="104" height="32" x="147" y="91"/><rect width="104" height="32" x="145" y="89" class="nonterminal"/><text x="155" y="109" class="nonterminal">secret_name</text><rect width="40" height="32" x="311" y="35" rx="10"/><rect width="40" height="32" x="309" y="33" class="terminal" rx="10"/><text x="319" y="53" class="terminal">AS</text><rect width="50" height="32" x="371" y="35"/><rect width="50" height="32" x="369" y="33" class="nonterminal"/><text x="379" y="53" class="nonterminal">alias</text><rect width="66" height="32" x="349" y="177" rx="10"/><rect width="66" height="32" x="347" y="175" class="terminal" rx="10"/><text x="357" y="195" class="terminal">BYTES</text><path d="m17 17 h2 m20 0 h10 m60 0 h10 m0 0 h140 m-240 0 h20 m220 0 h20 m-260 0 q10 0 10 10 m240 0 q0 -10 10 -10 m-250 10 v24 m240 0 v-24 m-240 24 q0 10 10 10 m220 0 q10 0 10 -10 m-230 10 h10 m86 0 h10 m0 0 h114 m-230 -10 v20 m240 0 v-20 m-240 20 v24 m240 0 v-24 m-240 24 q0 10 10 10 m220 0 q10 0 10 -10 m-230 10 h10 m76 0 h10 m0 0 h10 m104 0 h10 m40 -88 h10 m0 0 h120 m-150 0 h20 m130 0 h20 m-170 0 q10 0 10 10 m150 0 q0 -10 10 -10 m-160 10 v12 m150 0 v-12 m-150 12 q0 10 10 10 m130 0 q10 0 10 -10 m-140 10 h10 m40 0 h10 m0 0 h10 m50 0 h10 m22 -32 l2 0 m2 0 l2 0 m2 0 l2 0 m-156 142 l2 0 m2 0 l2 0 m2 0 l2 0 m22 0 h10 m0 0 h76 m-106 0 h20 m86 0 h20 m-126 0 q10 0 10 10 m106 0 q0 -10 10 -10 m-116 10 v12 m106 0 v-12 m-106 12 q0 10 10 10 m86 0 q10 0 10 -10 m-96 10 h10 m66 0 h10 m23 -32 h-3" class="line"/><polygon points="453 159 461 155 461 163"/><polygon points="453 159 445 155 445 163"/></svg>