<svg xmlns="http://www.w3.org/2000/svg" width="565" height="185"><polygon points="9 33 1 29 1 37"/><polygon points="17 33 9 29 9 37"/><rect width="58" height="32" x="31" y="19" rx="10"/><rect width="58" height="32" x="29" y="17" class="terminal" rx="10"/><text x="39" y="37" class="terminal">WITH</text><rect width="26" height="32" x="109" y="19" rx="10"/><rect width="26" height="32" x="107" y="17" class="terminal" rx="10"/><text x="117" y="37" class="terminal">(</text><rect width="136" height="32" x="195" y="19"/><rect width="136" height="32" x="193" y="17" class="nonterminal"/><text x="203" y="37" class="nonterminal">static_credentials</text><rect width="110" height="32" x="215" y="63" rx="10"/><rect width="110" height="32" x="213" y="61" class="terminal" rx="10"/><text x="223" y="81" class="terminal">profile_name</text><rect width="76" height="32" x="215" y="107" rx="10"/><rect width="76" height="32" x="213" y="105" class="terminal" rx="10"/><text x="223" y="125" class="terminal">role_arn</text><rect width="64" height="32" x="215" y="151" rx="10"/><rect width="64" height="32" x="213" y="149" class="terminal" rx="10"/><text x="223" y="169" class="terminal">region</text><rect width="28" height="32" x="365" y="63" rx="10"/><rect width="28" height="32" x="363" y="61" class="terminal" rx="10"/><text x="373" y="81" class="terminal">=</text><rect width="38" height="32" x="413" y="63"/><rect width="38" height="32" x="411" y="61" class="nonterminal"/><text x="421" y="81" class="nonterminal">val</text><rect width="26" height="32" x="511" y="19" rx="10"/><rect width="26" height="32" x="509" y="17" class="terminal" rx="10"/><text x="519" y="37" class="terminal">)</text><path d="m17 33 h2 m0 0 h10 m58 0 h10 m0 0 h10 m26 0 h10 m40 0 h10 m136 0 h10 m0 0 h120 m-296 0 h20 m276 0 h20 m-316 0 q10 0 10 10 m296 0 q0 -10 10 -10 m-306 10 v24 m296 0 v-24 m-296 24 q0 10 10 10 m276 0 q10 0 10 -10 m-266 10 h10 m110 0 h10 m-150 0 h20 m130 0 h20 m-170 0 q10 0 10 10 m150 0 q0 -10 10 -10 m-160 10 v24 m150 0 v-24 m-150 24 q0 10 10 10 m130 0 q10 0 10 -10 m-140 10 h10 m76 0 h10 m0 0 h34 m-140 -10 v20 m150 0 v-20 m-150 20 v24 m150 0 v-24 m-150 24 q0 10 10 10 m130 0 q10 0 10 -10 m-140 10 h10 m64 0 h10 m0 0 h46 m20 -88 h10 m28 0 h10 m0 0 h10 m38 0 h10 m-316 -44 l20 0 m-1 0 q-9 0 -9 -10 l0 -12 q0 -10 10 -10 m316 32 l20 0 m-20 0 q10 0 10 -10 l0 -12 q0 -10 -10 -10 m-316 0 h10 m0 0 h306 m20 32 h10 m26 0 h10 m3 0 h-3" class="line"/><polygon points="555 33 563 29 563 37"/><polygon points="555 33 547 29 547 37"/></svg>