<svg xmlns="http://www.w3.org/2000/svg" width="463" height="97"><polygon points="9 61 1 57 1 65"/><polygon points="17 61 9 57 9 65"/><rect width="58" height="32" x="51" y="47" rx="10"/><rect width="58" height="32" x="49" y="45" class="terminal" rx="10"/><text x="59" y="65" class="terminal">WITH</text><rect width="26" height="32" x="129" y="47" rx="10"/><rect width="26" height="32" x="127" y="45" class="terminal" rx="10"/><text x="137" y="65" class="terminal">(</text><rect width="48" height="32" x="195" y="47"/><rect width="48" height="32" x="193" y="45" class="nonterminal"/><text x="203" y="65" class="nonterminal">field</text><rect width="28" height="32" x="263" y="47" rx="10"/><rect width="28" height="32" x="261" y="45" class="terminal" rx="10"/><text x="271" y="65" class="terminal">=</text><rect width="38" height="32" x="311" y="47"/><rect width="38" height="32" x="309" y="45" class="nonterminal"/><text x="319" y="65" class="nonterminal">val</text><rect width="24" height="32" x="195" y="3" rx="10"/><rect width="24" height="32" x="193" y="1" class="terminal" rx="10"/><text x="203" y="21" class="terminal">,</text><rect width="26" height="32" x="389" y="47" rx="10"/><rect width="26" height="32" x="387" y="45" class="terminal" rx="10"/><text x="397" y="65" class="terminal">)</text><path d="m17 61 h2 m20 0 h10 m58 0 h10 m0 0 h10 m26 0 h10 m20 0 h10 m48 0 h10 m0 0 h10 m28 0 h10 m0 0 h10 m38 0 h10 m-194 0 l20 0 m-1 0 q-9 0 -9 -10 l0 -24 q0 -10 10 -10 m174 44 l20 0 m-20 0 q10 0 10 -10 l0 -24 q0 -10 -10 -10 m-174 0 h10 m24 0 h10 m0 0 h130 m20 44 h10 m26 0 h10 m-404 0 h20 m384 0 h20 m-424 0 q10 0 10 10 m404 0 q0 -10 10 -10 m-414 10 v14 m404 0 v-14 m-404 14 q0 10 10 10 m384 0 q10 0 10 -10 m-394 10 h10 m0 0 h374 m23 -34 h-3" class="line"/><polygon points="453 61 461 57 461 65"/><polygon points="453 61 445 57 445 65"/></svg>