<svg xmlns="http://www.w3.org/2000/svg" width="389" height="81"><polygon points="9 61 1 57 1 65"/><polygon points="17 61 9 57 9 65"/><rect width="58" height="32" x="31" y="47" rx="10"/><rect width="58" height="32" x="29" y="45" class="terminal" rx="10"/><text x="39" y="65" class="terminal">WITH</text><rect width="96" height="32" x="129" y="47"/><rect width="96" height="32" x="127" y="45" class="nonterminal"/><text x="137" y="65" class="nonterminal">cte_binding</text><rect width="24" height="32" x="129" y="3" rx="10"/><rect width="24" height="32" x="127" y="1" class="terminal" rx="10"/><text x="137" y="21" class="terminal">,</text><rect width="96" height="32" x="265" y="47"/><rect width="96" height="32" x="263" y="45" class="nonterminal"/><text x="273" y="65" class="nonterminal">select_stmt</text><path d="m17 61 h2 m0 0 h10 m58 0 h10 m20 0 h10 m96 0 h10 m-136 0 l20 0 m-1 0 q-9 0 -9 -10 l0 -24 q0 -10 10 -10 m116 44 l20 0 m-20 0 q10 0 10 -10 l0 -24 q0 -10 -10 -10 m-116 0 h10 m24 0 h10 m0 0 h72 m20 44 h10 m96 0 h10 m3 0 h-3" class="line"/><polygon points="379 61 387 57 387 65"/><polygon points="379 61 371 57 371 65"/></svg>