<svg xmlns="http://www.w3.org/2000/svg" width="503" height="129"><polygon points="9 61 1 57 1 65"/><polygon points="17 61 9 57 9 65"/><rect width="58" height="32" x="51" y="47" rx="10"/><rect width="58" height="32" x="49" y="45" class="terminal" rx="10"/><text x="59" y="65" class="terminal">WITH</text><rect width="26" height="32" x="129" y="47" rx="10"/><rect width="26" height="32" x="127" y="45" class="terminal" rx="10"/><text x="137" y="65" class="terminal">(</text><rect width="48" height="32" x="195" y="47"/><rect width="48" height="32" x="193" y="45" class="nonterminal"/><text x="203" y="65" class="nonterminal">field</text><rect width="28" height="32" x="283" y="79" rx="10"/><rect width="28" height="32" x="281" y="77" class="terminal" rx="10"/><text x="291" y="97" class="terminal">=</text><rect width="38" height="32" x="351" y="47"/><rect width="38" height="32" x="349" y="45" class="nonterminal"/><text x="359" y="65" class="nonterminal">val</text><rect width="24" height="32" x="195" y="3" rx="10"/><rect width="24" height="32" x="193" y="1" class="terminal" rx="10"/><text x="203" y="21" class="terminal">,</text><rect width="26" height="32" x="429" y="47" rx="10"/><rect width="26" height="32" x="427" y="45" class="terminal" rx="10"/><text x="437" y="65" class="terminal">)</text><path d="m17 61 h2 m20 0 h10 m58 0 h10 m0 0 h10 m26 0 h10 m20 0 h10 m48 0 h10 m20 0 h10 m0 0 h38 m-68 0 h20 m48 0 h20 m-88 0 q10 0 10 10 m68 0 q0 -10 10 -10 m-78 10 v12 m68 0 v-12 m-68 12 q0 10 10 10 m48 0 q10 0 10 -10 m-58 10 h10 m28 0 h10 m20 -32 h10 m38 0 h10 m-234 0 l20 0 m-1 0 q-9 0 -9 -10 l0 -24 q0 -10 10 -10 m214 44 l20 0 m-20 0 q10 0 10 -10 l0 -24 q0 -10 -10 -10 m-214 0 h10 m24 0 h10 m0 0 h170 m20 44 h10 m26 0 h10 m-444 0 h20 m424 0 h20 m-464 0 q10 0 10 10 m444 0 q0 -10 10 -10 m-454 10 v46 m444 0 v-46 m-444 46 q0 10 10 10 m424 0 q10 0 10 -10 m-434 10 h10 m0 0 h414 m23 -66 h-3" class="line"/><polygon points="493 61 501 57 501 65"/><polygon points="493 61 485 57 485 65"/></svg>