<svg xmlns="http://www.w3.org/2000/svg" width="601" height="123"><polygon points="9 17 1 13 1 21"/><polygon points="17 17 9 13 9 21"/><rect width="120" height="32" x="31" y="3" rx="10"/><rect width="120" height="32" x="29" y="1" class="terminal" rx="10"/><text x="39" y="21" class="terminal">access_key_id</text><rect width="28" height="32" x="171" y="3" rx="10"/><rect width="28" height="32" x="169" y="1" class="terminal" rx="10"/><text x="179" y="21" class="terminal">=</text><rect width="38" height="32" x="219" y="3"/><rect width="38" height="32" x="217" y="1" class="nonterminal"/><text x="227" y="21" class="nonterminal">val</text><rect width="24" height="32" x="277" y="3" rx="10"/><rect width="24" height="32" x="275" y="1" class="terminal" rx="10"/><text x="285" y="21" class="terminal">,</text><rect width="152" height="32" x="321" y="3" rx="10"/><rect width="152" height="32" x="319" y="1" class="terminal" rx="10"/><text x="329" y="21" class="terminal">secret_access_key</text><rect width="28" height="32" x="493" y="3" rx="10"/><rect width="28" height="32" x="491" y="1" class="terminal" rx="10"/><text x="501" y="21" class="terminal">=</text><rect width="38" height="32" x="541" y="3"/><rect width="38" height="32" x="539" y="1" class="nonterminal"/><text x="549" y="21" class="nonterminal">val</text><rect width="24" height="32" x="345" y="89" rx="10"/><rect width="24" height="32" x="343" y="87" class="terminal" rx="10"/><text x="353" y="107" class="terminal">,</text><rect width="58" height="32" x="389" y="89" rx="10"/><rect width="58" height="32" x="387" y="87" class="terminal" rx="10"/><text x="397" y="107" class="terminal">token</text><rect width="28" height="32" x="467" y="89" rx="10"/><rect width="28" height="32" x="465" y="87" class="terminal" rx="10"/><text x="475" y="107" class="terminal">=</text><rect width="38" height="32" x="515" y="89"/><rect width="38" height="32" x="513" y="87" class="nonterminal"/><text x="523" y="107" class="nonterminal">val</text><path d="m17 17 h2 m0 0 h10 m120 0 h10 m0 0 h10 m28 0 h10 m0 0 h10 m38 0 h10 m0 0 h10 m24 0 h10 m0 0 h10 m152 0 h10 m0 0 h10 m28 0 h10 m0 0 h10 m38 0 h10 m2 0 l2 0 m2 0 l2 0 m2 0 l2 0 m-298 54 l2 0 m2 0 l2 0 m2 0 l2 0 m22 0 h10 m0 0 h218 m-248 0 h20 m228 0 h20 m-268 0 q10 0 10 10 m248 0 q0 -10 10 -10 m-258 10 v12 m248 0 v-12 m-248 12 q0 10 10 10 m228 0 q10 0 10 -10 m-238 10 h10 m24 0 h10 m0 0 h10 m58 0 h10 m0 0 h10 m28 0 h10 m0 0 h10 m38 0 h10 m23 -32 h-3" class="line"/><polygon points="591 71 599 67 599 75"/><polygon points="591 71 583 67 583 75"/></svg>