<svg xmlns="http://www.w3.org/2000/svg" xmlns:xlink="http://www.w3.org/1999/xlink" width="821pt" height="584pt" viewBox="0 0 821 583.68"><g id="graph0" class="graph" transform="scale(1 1) rotate(0) translate(4 579.68)"><title>G</title><polygon fill="#fff" stroke="transparent" points="-4 4 -4 -579.68 817 -579.68 817 4 -4 4"/><text x="166.5" y="-7.8" font-family="Times,serif" font-size="14" text-anchor="middle">select a from a group by a; (before rewrites)</text><g id="clust1" class="cluster"><title>cluster3</title><polygon fill="none" stroke="#000" points="399 -454.59 399 -567.68 805 -567.68 805 -454.59 399 -454.59"/><text x="449.5" y="-552.48" font-family="Times,serif" font-size="14" text-anchor="middle">Box3:Select</text></g><g id="clust3" class="cluster"><title>cluster2</title><polygon fill="none" stroke="#000" points="195 -314.59 195 -446.59 601 -446.59 601 -314.59 195 -314.59"/><text x="257" y="-431.39" font-family="Times,serif" font-size="14" text-anchor="middle">Box2:Grouping</text></g><g id="clust5" class="cluster"><title>cluster0</title><polygon fill="none" stroke="#000" points="21 -148 21 -306.59 321 -306.59 321 -148 21 -148"/><text x="71.5" y="-291.39" font-family="Times,serif" font-size="14" text-anchor="middle">Box0:Select</text></g><g id="clust7" class="cluster"><title>cluster1</title><polygon fill="none" stroke="#000" points="8 -31 8 -140 170 -140 170 -31 8 -31"/><text x="80" y="-124.8" font-family="Times,serif" font-size="14" text-anchor="middle">Box1:BaseTable A</text></g><g id="node1" class="node"><title>boxhead3</title><polygon fill="none" stroke="#000" points="499.5 -465.14 499.5 -534.14 796.5 -534.14 796.5 -465.14 499.5 -465.14"/><text x="648" y="-518.94" font-family="Times,serif" font-size="14" text-anchor="middle">Distinct: Preserve</text><polyline fill="none" stroke="#000" points="499.5 -511.14 796.5 -511.14"/><text x="648" y="-495.94" font-family="Times,serif" font-size="14" text-anchor="middle">0: Q2.c0 as A</text><polyline fill="none" stroke="#000" points="499.5 -488.14 796.5 -488.14"/><text x="648" y="-472.94" font-family="Times,serif" font-size="14" text-anchor="middle">UNIQUE KEY [0]</text></g><g id="node2" class="node"><title>Q2</title><ellipse cx="444" cy="-499.64" fill="none" stroke="#000" rx="37.09" ry="37.09"/><text x="444" y="-495.94" font-family="Times,serif" font-size="14" text-anchor="middle">Q2(F)</text></g><g id="node3" class="node"><title>boxhead2</title><polygon fill="none" stroke="#000" points="295.5 -323.09 295.5 -415.09 592.5 -415.09 592.5 -323.09 295.5 -323.09"/><text x="444" y="-399.89" font-family="Times,serif" font-size="14" text-anchor="middle">Distinct: Preserve</text><polyline fill="none" stroke="#000" points="295.5 -392.09 592.5 -392.09"/><text x="444" y="-376.89" font-family="Times,serif" font-size="14" text-anchor="middle">0: Q1.c0 as A</text><polyline fill="none" stroke="#000" points="295.5 -369.09 592.5 -369.09"/><text x="444" y="-353.89" font-family="Times,serif" font-size="14" text-anchor="middle">GROUP Q1.c0 Ascending</text><polyline fill="none" stroke="#000" points="295.5 -346.09 592.5 -346.09"/><text x="444" y="-330.89" font-family="Times,serif" font-size="14" text-anchor="middle">UNIQUE KEY [0]</text></g><g id="edge1" class="edge"><title>Q2-&gt;boxhead2</title><path fill="none" stroke="#000" stroke-dasharray="5 2" d="M444,-462.49C444,-457.42 444,-452.07 444,-446.59"/></g><g id="node4" class="node"><title>Q1</title><ellipse cx="240" cy="-369.09" fill="none" stroke="#000" rx="37.09" ry="37.09"/><text x="240" y="-365.39" font-family="Times,serif" font-size="14" text-anchor="middle">Q1(F)</text></g><g id="node5" class="node"><title>boxhead0</title><polygon fill="none" stroke="#000" points="167 -181.29 167 -250.29 313 -250.29 313 -181.29 167 -181.29"/><text x="240" y="-235.09" font-family="Times,serif" font-size="14" text-anchor="middle">Distinct: Preserve</text><polyline fill="none" stroke="#000" points="167 -227.29 313 -227.29"/><text x="240" y="-212.09" font-family="Times,serif" font-size="14" text-anchor="middle">0: Q0.c0 as A</text><polyline fill="none" stroke="#000" points="167 -204.29 313 -204.29"/><text x="240" y="-189.09" font-family="Times,serif" font-size="14" text-anchor="middle">1: Q0.c1 as B</text></g><g id="edge2" class="edge"><title>Q1-&gt;boxhead0</title><path fill="none" stroke="#000" stroke-dasharray="5 2" d="M240,-331.85C240,-324.04 240,-315.45 240,-306.59"/></g><g id="node6" class="node"><title>Q0</title><ellipse cx="89" cy="-215.79" fill="none" stroke="#000" rx="59.59" ry="59.59"/><text x="89" y="-212.09" font-family="Times,serif" font-size="14" text-anchor="middle">Q0(F) as A</text></g><g id="node7" class="node"><title>boxhead1</title><polygon fill="none" stroke="#000" points="16 -39.5 16 -108.5 162 -108.5 162 -39.5 16 -39.5"/><text x="89" y="-93.3" font-family="Times,serif" font-size="14" text-anchor="middle">Distinct: Preserve</text><polyline fill="none" stroke="#000" points="16 -85.5 162 -85.5"/><text x="89" y="-70.3" font-family="Times,serif" font-size="14" text-anchor="middle">0: c0 as A</text><polyline fill="none" stroke="#000" points="16 -62.5 162 -62.5"/><text x="89" y="-47.3" font-family="Times,serif" font-size="14" text-anchor="middle">1: c1 as B</text></g><g id="edge3" class="edge"><title>Q0-&gt;boxhead1</title><path fill="none" stroke="#000" stroke-dasharray="5 2" d="M89,-155.91C89,-150.65 89,-145.31 89,-140"/></g></g></svg>