<svg xmlns="http://www.w3.org/2000/svg" xmlns:xlink="http://www.w3.org/1999/xlink" width="479pt" height="400" viewBox="0 0 479 299.59"><g id="graph0" class="graph" transform="scale(1 1) rotate(0) translate(4 295.59)"><title>G</title><polygon fill="#fff" stroke="transparent" points="-4 4 -4 -295.59 475 -295.59 475 4 -4 4"/><text x="161" y="-7.8" font-family="Times,serif" font-size="14" text-anchor="middle">select a from a group by a; (after rewrites)</text><g id="clust1" class="cluster"><title>cluster3</title><polygon fill="none" stroke="#000" points="21 -125 21 -283.59 463 -283.59 463 -125 21 -125"/><text x="71.5" y="-268.39" font-family="Times,serif" font-size="14" text-anchor="middle">Box3:Select</text></g><g id="clust3" class="cluster"><title>cluster1</title><polygon fill="none" stroke="#000" points="8 -31 8 -117 170 -117 170 -31 8 -31"/><text x="80" y="-101.8" font-family="Times,serif" font-size="14" text-anchor="middle">Box1:BaseTable A</text></g><g id="node1" class="node"><title>boxhead3</title><polygon fill="none" stroke="#000" points="166.5 -158.29 166.5 -227.29 455.5 -227.29 455.5 -158.29 166.5 -158.29"/><text x="311" y="-212.09" font-family="Times,serif" font-size="14" text-anchor="middle">Distinct: Enforce</text><polyline fill="none" stroke="#000" points="166.5 -204.29 455.5 -204.29"/><text x="311" y="-189.09" font-family="Times,serif" font-size="14" text-anchor="middle">0: Q0.c0 as A</text><polyline fill="none" stroke="#000" points="166.5 -181.29 455.5 -181.29"/><text x="311" y="-166.09" font-family="Times,serif" font-size="14" text-anchor="middle">UNIQUE KEY [0]</text></g><g id="node2" class="node"><title>Q0</title><ellipse cx="89" cy="-192.79" fill="none" stroke="#000" rx="59.59" ry="59.59"/><text x="89" y="-189.09" font-family="Times,serif" font-size="14" text-anchor="middle">Q0(F) as A</text></g><g id="node3" class="node"><title>boxhead1</title><polygon fill="none" stroke="#000" points="16 -39.5 16 -85.5 162 -85.5 162 -39.5 16 -39.5"/><text x="89" y="-70.3" font-family="Times,serif" font-size="14" text-anchor="middle">Distinct: Preserve</text><polyline fill="none" stroke="#000" points="16 -62.5 162 -62.5"/><text x="89" y="-47.3" font-family="Times,serif" font-size="14" text-anchor="middle">0: c0 as A</text></g><g id="edge1" class="edge"><title>Q0-&gt;boxhead1</title><path fill="none" stroke="#000" stroke-dasharray="5 2" d="M89,-132.9C89,-127.6 89,-122.25 89,-117"/></g></g></svg>