<svg xmlns="http://www.w3.org/2000/svg" xmlns:xlink="http://www.w3.org/1999/xlink" width="1096" height="670pt" viewBox="0 0 822 669.99"><g id="graph0" class="graph" transform="scale(1 1) rotate(0) translate(4 665.99)"><title>G</title><polygon fill="#fff" stroke="transparent" points="-4 4 -4 -665.99 818 -665.99 818 4 -4 4"/><text x="372" y="-7.8" font-family="Times,serif" font-size="14" text-anchor="middle">select * from t1 left join t3 on t1.f1 = t3.f1 left join t2 on t1.f1 = t2.f1; (with normalized outer joins)</text><g id="clust1" class="cluster"><title>cluster0</title><polygon fill="none" stroke="#000" points="245 -383.99 245 -653.99 683 -653.99 683 -383.99 245 -383.99"/><text x="295.5" y="-638.79" font-family="Times,serif" font-size="14" text-anchor="middle">Box0:Select</text></g><g id="clust3" class="cluster"><title>cluster1</title><polygon fill="none" stroke="#000" points="8 -182 8 -350.99 318 -350.99 318 -182 8 -182"/><text x="70.5" y="-335.79" font-family="Times,serif" font-size="14" text-anchor="middle">Box1:OuterJoin</text></g><g id="clust5" class="cluster"><title>cluster5</title><polygon fill="none" stroke="#000" points="164 -31 164 -163 326 -163 326 -31 164 -31"/><text x="240" y="-147.8" font-family="Times,serif" font-size="14" text-anchor="middle">Box5:BaseTable T2</text></g><g id="clust7" class="cluster"><title>cluster2</title><polygon fill="none" stroke="#000" points="326 -182 326 -350.99 636 -350.99 636 -182 326 -182"/><text x="388.5" y="-335.79" font-family="Times,serif" font-size="14" text-anchor="middle">Box2:OuterJoin</text></g><g id="clust9" class="cluster"><title>cluster4</title><polygon fill="none" stroke="#000" points="482 -31 482 -163 644 -163 644 -31 482 -31"/><text x="558" y="-147.8" font-family="Times,serif" font-size="14" text-anchor="middle">Box4:BaseTable T3</text></g><g id="clust11" class="cluster"><title>cluster3</title><polygon fill="none" stroke="#000" points="644 -200.49 644 -332.49 806 -332.49 806 -200.49 644 -200.49"/><text x="720" y="-317.29" font-family="Times,serif" font-size="14" text-anchor="middle">Box3:BaseTable T1</text></g><g id="node1" class="node"><title>boxhead0</title><polygon fill="none" stroke="#000" points="529 -392.49 529 -622.49 675 -622.49 675 -392.49 529 -392.49"/><text x="602" y="-607.29" font-family="Times,serif" font-size="14" text-anchor="middle">Distinct: Preserve</text><polyline fill="none" stroke="#000" points="529 -599.49 675 -599.49"/><text x="602" y="-584.29" font-family="Times,serif" font-size="14" text-anchor="middle">0: Q4.c0 as F1</text><polyline fill="none" stroke="#000" points="529 -576.49 675 -576.49"/><text x="602" y="-561.29" font-family="Times,serif" font-size="14" text-anchor="middle">1: Q4.c1 as F2</text><polyline fill="none" stroke="#000" points="529 -553.49 675 -553.49"/><text x="602" y="-538.29" font-family="Times,serif" font-size="14" text-anchor="middle">2: Q4.c2 as F3</text><polyline fill="none" stroke="#000" points="529 -530.49 675 -530.49"/><text x="602" y="-515.29" font-family="Times,serif" font-size="14" text-anchor="middle">3: Q0.c0 as F1</text><polyline fill="none" stroke="#000" points="529 -507.49 675 -507.49"/><text x="602" y="-492.29" font-family="Times,serif" font-size="14" text-anchor="middle">4: Q0.c1 as F2</text><polyline fill="none" stroke="#000" points="529 -484.49 675 -484.49"/><text x="602" y="-469.29" font-family="Times,serif" font-size="14" text-anchor="middle">5: Q0.c2 as F3</text><polyline fill="none" stroke="#000" points="529 -461.49 675 -461.49"/><text x="602" y="-446.29" font-family="Times,serif" font-size="14" text-anchor="middle">6: Q2.c0 as F1</text><polyline fill="none" stroke="#000" points="529 -438.49 675 -438.49"/><text x="602" y="-423.29" font-family="Times,serif" font-size="14" text-anchor="middle">7: Q2.c1 as F2</text><polyline fill="none" stroke="#000" points="529 -415.49 675 -415.49"/><text x="602" y="-400.29" font-family="Times,serif" font-size="14" text-anchor="middle">8: Q2.c2 as F3</text></g><g id="node2" class="node"><title>Q0</title><ellipse cx="290" cy="-507.49" fill="none" stroke="#000" rx="37.09" ry="37.09"/><text x="290" y="-503.79" font-family="Times,serif" font-size="14" text-anchor="middle">Q0(F)</text></g><g id="node5" class="node"><title>boxhead1</title><polygon fill="none" stroke="#000" points="16 -208.99 16 -300.99 162 -300.99 162 -208.99 16 -208.99"/><text x="89" y="-285.79" font-family="Times,serif" font-size="14" text-anchor="middle">Distinct: Preserve</text><polyline fill="none" stroke="#000" points="16 -277.99 162 -277.99"/><text x="89" y="-262.79" font-family="Times,serif" font-size="14" text-anchor="middle">0: Q3.c0 as F1</text><polyline fill="none" stroke="#000" points="16 -254.99 162 -254.99"/><text x="89" y="-239.79" font-family="Times,serif" font-size="14" text-anchor="middle">1: Q3.c1 as F2</text><polyline fill="none" stroke="#000" points="16 -231.99 162 -231.99"/><text x="89" y="-216.79" font-family="Times,serif" font-size="14" text-anchor="middle">3: Q3.c2 as F3</text></g><g id="edge6" class="edge"><title>Q0-&gt;boxhead1</title><path fill="none" stroke="#000" stroke-dasharray="5 2" d="M266.94,-477.75C242.17,-446.88 201.45,-396.14 165.22,-350.98"/></g><g id="node3" class="node"><title>Q2</title><ellipse cx="382" cy="-507.49" fill="none" stroke="#000" rx="37.09" ry="37.09"/><text x="382" y="-503.79" font-family="Times,serif" font-size="14" text-anchor="middle">Q2(F)</text></g><g id="node8" class="node"><title>boxhead2</title><polygon fill="none" stroke="#000" points="334 -208.99 334 -300.99 480 -300.99 480 -208.99 334 -208.99"/><text x="407" y="-285.79" font-family="Times,serif" font-size="14" text-anchor="middle">Distinct: Preserve</text><polyline fill="none" stroke="#000" points="334 -277.99 480 -277.99"/><text x="407" y="-262.79" font-family="Times,serif" font-size="14" text-anchor="middle">0: Q1.c0 as F1</text><polyline fill="none" stroke="#000" points="334 -254.99 480 -254.99"/><text x="407" y="-239.79" font-family="Times,serif" font-size="14" text-anchor="middle">1: Q1.c1 as F2</text><polyline fill="none" stroke="#000" points="334 -231.99 480 -231.99"/><text x="407" y="-216.79" font-family="Times,serif" font-size="14" text-anchor="middle">2: Q1.c2 as F3</text></g><g id="edge7" class="edge"><title>Q2-&gt;boxhead2</title><path fill="none" stroke="#000" stroke-dasharray="5 2" d="M385.31,-470.41C388.07,-440.54 392.17,-396.99 396,-358.99 396.27,-356.35 396.54,-353.68 396.81,-350.98"/></g><g id="node4" class="node"><title>Q4</title><ellipse cx="474" cy="-507.49" fill="none" stroke="#000" rx="37.09" ry="37.09"/><text x="474" y="-503.79" font-family="Times,serif" font-size="14" text-anchor="middle">Q4(F)</text></g><g id="node6" class="node"><title>Q3</title><ellipse cx="245" cy="-254.99" fill="none" stroke="#000" rx="64.99" ry="64.99"/><text x="245" y="-251.29" font-family="Times,serif" font-size="14" text-anchor="middle">Q3(F) as T2</text></g><g id="edge1" class="edge"><title>Q4-&gt;Q3</title><path fill="none" stroke="#000" d="M469.18,-470.69C463.69,-443.4 452.12,-406.76 428,-383.99 410.06,-367.05 342.42,-364.83 322,-350.99 306.01,-340.15 291.66,-325.01 279.8,-310"/><text x="469.5" y="-362.79" font-family="Times,serif" font-size="14" text-anchor="middle">(Q4.c0) = (Q3.c0)</text></g><g id="node9" class="node"><title>Q1</title><ellipse cx="563" cy="-254.99" fill="none" stroke="#000" rx="64.99" ry="64.99"/><text x="563" y="-251.29" font-family="Times,serif" font-size="14" text-anchor="middle">Q1(F) as T3</text></g><g id="edge2" class="edge"><title>Q4-&gt;Q1</title><path fill="none" stroke="#000" d="M479.94,-470.78C486,-444.08 497.8,-408.17 520,-383.99 526.99,-376.37 534.7,-382.18 541,-373.99 552.75,-358.71 558.88,-339.06 561.92,-320.21"/><text x="611.5" y="-362.79" font-family="Times,serif" font-size="14" text-anchor="middle">(Q4.c0) = (Q1.c0)</text></g><g id="node11" class="node"><title>boxhead3</title><polygon fill="none" stroke="#000" points="652 -208.99 652 -300.99 798 -300.99 798 -208.99 652 -208.99"/><text x="725" y="-285.79" font-family="Times,serif" font-size="14" text-anchor="middle">Distinct: Preserve</text><polyline fill="none" stroke="#000" points="652 -277.99 798 -277.99"/><text x="725" y="-262.79" font-family="Times,serif" font-size="14" text-anchor="middle">0: c0 as F1</text><polyline fill="none" stroke="#000" points="652 -254.99 798 -254.99"/><text x="725" y="-239.79" font-family="Times,serif" font-size="14" text-anchor="middle">1: c1 as F2</text><polyline fill="none" stroke="#000" points="652 -231.99 798 -231.99"/><text x="725" y="-216.79" font-family="Times,serif" font-size="14" text-anchor="middle">2: c2 as F3</text></g><g id="edge4" class="edge"><title>Q4-&gt;boxhead3</title><path fill="none" stroke="#000" stroke-dasharray="5 2" d="M477.18,-470.45C481.75,-442.07 492.89,-404.06 520,-383.99 548.27,-363.05 649.52,-394.64 678,-373.99 692.12,-363.75 702,-348.57 708.91,-332.49"/></g><g id="node7" class="node"><title>boxhead5</title><polygon fill="none" stroke="#000" points="172 -39.5 172 -131.5 318 -131.5 318 -39.5 172 -39.5"/><text x="245" y="-116.3" font-family="Times,serif" font-size="14" text-anchor="middle">Distinct: Preserve</text><polyline fill="none" stroke="#000" points="172 -108.5 318 -108.5"/><text x="245" y="-93.3" font-family="Times,serif" font-size="14" text-anchor="middle">0: c0 as F1</text><polyline fill="none" stroke="#000" points="172 -85.5 318 -85.5"/><text x="245" y="-70.3" font-family="Times,serif" font-size="14" text-anchor="middle">1: c1 as F2</text><polyline fill="none" stroke="#000" points="172 -62.5 318 -62.5"/><text x="245" y="-47.3" font-family="Times,serif" font-size="14" text-anchor="middle">2: c2 as F3</text></g><g id="edge3" class="edge"><title>Q3-&gt;boxhead5</title><path fill="none" stroke="#000" stroke-dasharray="5 2" d="M245,-189.72C245,-180.97 245,-171.93 245,-163"/></g><g id="node10" class="node"><title>boxhead4</title><polygon fill="none" stroke="#000" points="490 -39.5 490 -131.5 636 -131.5 636 -39.5 490 -39.5"/><text x="563" y="-116.3" font-family="Times,serif" font-size="14" text-anchor="middle">Distinct: Preserve</text><polyline fill="none" stroke="#000" points="490 -108.5 636 -108.5"/><text x="563" y="-93.3" font-family="Times,serif" font-size="14" text-anchor="middle">0: c0 as F1</text><polyline fill="none" stroke="#000" points="490 -85.5 636 -85.5"/><text x="563" y="-70.3" font-family="Times,serif" font-size="14" text-anchor="middle">1: c1 as F2</text><polyline fill="none" stroke="#000" points="490 -62.5 636 -62.5"/><text x="563" y="-47.3" font-family="Times,serif" font-size="14" text-anchor="middle">2: c2 as F3</text></g><g id="edge5" class="edge"><title>Q1-&gt;boxhead4</title><path fill="none" stroke="#000" stroke-dasharray="5 2" d="M563,-189.72C563,-180.97 563,-171.93 563,-163"/></g></g></svg>