<svg xmlns="http://www.w3.org/2000/svg" xmlns:xlink="http://www.w3.org/1999/xlink" width="820pt" height="605pt" viewBox="0 0 820 605.38"><g id="graph0" class="graph" transform="scale(1 1) rotate(0) translate(4 601.38)"><title>G</title><polygon fill="#fff" stroke="transparent" points="-4 4 -4 -601.38 816 -601.38 816 4 -4 4"/><text x="171.5" y="-7.8" font-family="Times,serif" font-size="14" text-anchor="middle">select f1 from t group by f1; (before rewrites)</text><g id="clust1" class="cluster"><title>cluster3</title><polygon fill="none" stroke="#000" points="398 -476.29 398 -589.38 804 -589.38 804 -476.29 398 -476.29"/><text x="448.5" y="-574.18" font-family="Times,serif" font-size="14" text-anchor="middle">Box3:Select</text></g><g id="clust3" class="cluster"><title>cluster2</title><polygon fill="none" stroke="#000" points="194 -336.29 194 -468.29 600 -468.29 600 -336.29 194 -336.29"/><text x="256" y="-453.09" font-family="Times,serif" font-size="14" text-anchor="middle">Box2:Grouping</text></g><g id="clust5" class="cluster"><title>cluster0</title><polygon fill="none" stroke="#000" points="22 -171 22 -328.29 320 -328.29 320 -171 22 -171"/><text x="72.5" y="-313.09" font-family="Times,serif" font-size="14" text-anchor="middle">Box0:Select</text></g><g id="clust7" class="cluster"><title>cluster1</title><polygon fill="none" stroke="#000" points="8 -31 8 -163 170 -163 170 -31 8 -31"/><text x="79.5" y="-147.8" font-family="Times,serif" font-size="14" text-anchor="middle">Box1:BaseTable T</text></g><g id="node1" class="node"><title>boxhead3</title><polygon fill="none" stroke="#000" points="498.5 -486.84 498.5 -555.84 795.5 -555.84 795.5 -486.84 498.5 -486.84"/><text x="647" y="-540.64" font-family="Times,serif" font-size="14" text-anchor="middle">Distinct: Preserve</text><polyline fill="none" stroke="#000" points="498.5 -532.84 795.5 -532.84"/><text x="647" y="-517.64" font-family="Times,serif" font-size="14" text-anchor="middle">0: Q2.c0 as F1</text><polyline fill="none" stroke="#000" points="498.5 -509.84 795.5 -509.84"/><text x="647" y="-494.64" font-family="Times,serif" font-size="14" text-anchor="middle">UNIQUE KEY [0]</text></g><g id="node2" class="node"><title>Q2</title><ellipse cx="443" cy="-521.34" fill="none" stroke="#000" rx="37.09" ry="37.09"/><text x="443" y="-517.64" font-family="Times,serif" font-size="14" text-anchor="middle">Q2(F)</text></g><g id="node3" class="node"><title>boxhead2</title><polygon fill="none" stroke="#000" points="294.5 -344.79 294.5 -436.79 591.5 -436.79 591.5 -344.79 294.5 -344.79"/><text x="443" y="-421.59" font-family="Times,serif" font-size="14" text-anchor="middle">Distinct: Preserve</text><polyline fill="none" stroke="#000" points="294.5 -413.79 591.5 -413.79"/><text x="443" y="-398.59" font-family="Times,serif" font-size="14" text-anchor="middle">0: Q1.c0 as F1</text><polyline fill="none" stroke="#000" points="294.5 -390.79 591.5 -390.79"/><text x="443" y="-375.59" font-family="Times,serif" font-size="14" text-anchor="middle">GROUP Q1.c0 Ascending</text><polyline fill="none" stroke="#000" points="294.5 -367.79 591.5 -367.79"/><text x="443" y="-352.59" font-family="Times,serif" font-size="14" text-anchor="middle">UNIQUE KEY [0]</text></g><g id="edge1" class="edge"><title>Q2-&gt;boxhead2</title><path fill="none" stroke="#000" stroke-dasharray="5 2" d="M443,-484.19C443,-479.12 443,-473.77 443,-468.29"/></g><g id="node4" class="node"><title>Q1</title><ellipse cx="239" cy="-390.79" fill="none" stroke="#000" rx="37.09" ry="37.09"/><text x="239" y="-387.09" font-family="Times,serif" font-size="14" text-anchor="middle">Q1(F)</text></g><g id="node5" class="node"><title>boxhead0</title><polygon fill="none" stroke="#000" points="166 -192.14 166 -284.14 312 -284.14 312 -192.14 166 -192.14"/><text x="239" y="-268.94" font-family="Times,serif" font-size="14" text-anchor="middle">Distinct: Preserve</text><polyline fill="none" stroke="#000" points="166 -261.14 312 -261.14"/><text x="239" y="-245.94" font-family="Times,serif" font-size="14" text-anchor="middle">0: Q0.c0 as F1</text><polyline fill="none" stroke="#000" points="166 -238.14 312 -238.14"/><text x="239" y="-222.94" font-family="Times,serif" font-size="14" text-anchor="middle">1: Q0.c1 as F2</text><polyline fill="none" stroke="#000" points="166 -215.14 312 -215.14"/><text x="239" y="-199.94" font-family="Times,serif" font-size="14" text-anchor="middle">2: Q0.c2 as F3</text></g><g id="edge2" class="edge"><title>Q1-&gt;boxhead0</title><path fill="none" stroke="#000" stroke-dasharray="5 2" d="M239,-353.71C239,-345.85 239,-337.2 239,-328.29"/></g><g id="node6" class="node"><title>Q0</title><ellipse cx="89" cy="-238.14" fill="none" stroke="#000" rx="59.29" ry="59.29"/><text x="89" y="-234.44" font-family="Times,serif" font-size="14" text-anchor="middle">Q0(F) as T</text></g><g id="node7" class="node"><title>boxhead1</title><polygon fill="none" stroke="#000" points="16 -39.5 16 -131.5 162 -131.5 162 -39.5 16 -39.5"/><text x="89" y="-116.3" font-family="Times,serif" font-size="14" text-anchor="middle">Distinct: Preserve</text><polyline fill="none" stroke="#000" points="16 -108.5 162 -108.5"/><text x="89" y="-93.3" font-family="Times,serif" font-size="14" text-anchor="middle">0: c0 as F1</text><polyline fill="none" stroke="#000" points="16 -85.5 162 -85.5"/><text x="89" y="-70.3" font-family="Times,serif" font-size="14" text-anchor="middle">1: c1 as F2</text><polyline fill="none" stroke="#000" points="16 -62.5 162 -62.5"/><text x="89" y="-47.3" font-family="Times,serif" font-size="14" text-anchor="middle">2: c2 as F3</text></g><g id="edge3" class="edge"><title>Q0-&gt;boxhead1</title><path fill="none" stroke="#000" stroke-dasharray="5 2" d="M89,-178.9C89,-173.68 89,-168.34 89,-163"/></g></g></svg>