<svg xmlns="http://www.w3.org/2000/svg" xmlns:xlink="http://www.w3.org/1999/xlink" width="940pt" height="638pt" viewBox="0 0 940 638.38"><g id="graph0" class="graph" transform="scale(1 1) rotate(0) translate(4 634.38)"><title>G</title><polygon fill="#fff" stroke="transparent" points="-4 4 -4 -634.38 936 -634.38 936 4 -4 4"/><text x="226.5" y="-7.8" font-family="Times,serif" font-size="14" text-anchor="middle">select f1 from t group by f1 having f1 &gt; 10; (before rewrites)</text><g id="clust1" class="cluster"><title>cluster3</title><polygon fill="none" stroke="#000" points="398 -509.29 398 -622.38 924 -622.38 924 -509.29 398 -509.29"/><text x="448.5" y="-607.18" font-family="Times,serif" font-size="14" text-anchor="middle">Box3:Select</text></g><g id="clust3" class="cluster"><title>cluster2</title><polygon fill="none" stroke="#000" points="194 -358.29 194 -490.29 600 -490.29 600 -358.29 194 -358.29"/><text x="256" y="-475.09" font-family="Times,serif" font-size="14" text-anchor="middle">Box2:Grouping</text></g><g id="clust5" class="cluster"><title>cluster0</title><polygon fill="none" stroke="#000" points="22 -182 22 -339.29 320 -339.29 320 -182 22 -182"/><text x="72.5" y="-324.09" font-family="Times,serif" font-size="14" text-anchor="middle">Box0:Select</text></g><g id="clust7" class="cluster"><title>cluster1</title><polygon fill="none" stroke="#000" points="8 -31 8 -163 170 -163 170 -31 8 -31"/><text x="79.5" y="-147.8" font-family="Times,serif" font-size="14" text-anchor="middle">Box1:BaseTable T</text></g><g id="node1" class="node"><title>boxhead3</title><polygon fill="none" stroke="#000" points="618.5 -519.84 618.5 -588.84 915.5 -588.84 915.5 -519.84 618.5 -519.84"/><text x="767" y="-573.64" font-family="Times,serif" font-size="14" text-anchor="middle">Distinct: Preserve</text><polyline fill="none" stroke="#000" points="618.5 -565.84 915.5 -565.84"/><text x="767" y="-550.64" font-family="Times,serif" font-size="14" text-anchor="middle">0: Q2.c0 as F1</text><polyline fill="none" stroke="#000" points="618.5 -542.84 915.5 -542.84"/><text x="767" y="-527.64" font-family="Times,serif" font-size="14" text-anchor="middle">UNIQUE KEY [0]</text></g><g id="node2" class="node"><title>Q2</title><ellipse cx="443" cy="-554.34" fill="none" stroke="#000" rx="37.09" ry="37.09"/><text x="443" y="-550.64" font-family="Times,serif" font-size="14" text-anchor="middle">Q2(F)</text></g><g id="edge1" class="edge"><title>Q2-&gt;Q2</title><path fill="none" stroke="#000" d="M478.74,-564.45C489.58,-564.19 498.05,-560.82 498.05,-554.34 498.05,-547.85 489.58,-544.48 478.74,-544.23"/><text x="549.05" y="-550.64" font-family="Times,serif" font-size="14" text-anchor="middle">(Q2.c0) &gt; (10)</text></g><g id="node3" class="node"><title>boxhead2</title><polygon fill="none" stroke="#000" points="294.5 -366.79 294.5 -458.79 591.5 -458.79 591.5 -366.79 294.5 -366.79"/><text x="443" y="-443.59" font-family="Times,serif" font-size="14" text-anchor="middle">Distinct: Preserve</text><polyline fill="none" stroke="#000" points="294.5 -435.79 591.5 -435.79"/><text x="443" y="-420.59" font-family="Times,serif" font-size="14" text-anchor="middle">0: Q1.c0 as F1</text><polyline fill="none" stroke="#000" points="294.5 -412.79 591.5 -412.79"/><text x="443" y="-397.59" font-family="Times,serif" font-size="14" text-anchor="middle">GROUP Q1.c0 Ascending</text><polyline fill="none" stroke="#000" points="294.5 -389.79 591.5 -389.79"/><text x="443" y="-374.59" font-family="Times,serif" font-size="14" text-anchor="middle">UNIQUE KEY [0]</text></g><g id="edge2" class="edge"><title>Q2-&gt;boxhead2</title><path fill="none" stroke="#000" stroke-dasharray="5 2" d="M443,-517.04C443,-508.73 443,-499.59 443,-490.29"/></g><g id="node4" class="node"><title>Q1</title><ellipse cx="239" cy="-412.79" fill="none" stroke="#000" rx="37.09" ry="37.09"/><text x="239" y="-409.09" font-family="Times,serif" font-size="14" text-anchor="middle">Q1(F)</text></g><g id="node5" class="node"><title>boxhead0</title><polygon fill="none" stroke="#000" points="166 -203.14 166 -295.14 312 -295.14 312 -203.14 166 -203.14"/><text x="239" y="-279.94" font-family="Times,serif" font-size="14" text-anchor="middle">Distinct: Preserve</text><polyline fill="none" stroke="#000" points="166 -272.14 312 -272.14"/><text x="239" y="-256.94" font-family="Times,serif" font-size="14" text-anchor="middle">0: Q0.c0 as F1</text><polyline fill="none" stroke="#000" points="166 -249.14 312 -249.14"/><text x="239" y="-233.94" font-family="Times,serif" font-size="14" text-anchor="middle">1: Q0.c1 as F2</text><polyline fill="none" stroke="#000" points="166 -226.14 312 -226.14"/><text x="239" y="-210.94" font-family="Times,serif" font-size="14" text-anchor="middle">2: Q0.c2 as F3</text></g><g id="edge3" class="edge"><title>Q1-&gt;boxhead0</title><path fill="none" stroke="#000" stroke-dasharray="5 2" d="M239,-375.51C239,-364.59 239,-352.08 239,-339.29"/></g><g id="node6" class="node"><title>Q0</title><ellipse cx="89" cy="-249.14" fill="none" stroke="#000" rx="59.29" ry="59.29"/><text x="89" y="-245.44" font-family="Times,serif" font-size="14" text-anchor="middle">Q0(F) as T</text></g><g id="node7" class="node"><title>boxhead1</title><polygon fill="none" stroke="#000" points="16 -39.5 16 -131.5 162 -131.5 162 -39.5 16 -39.5"/><text x="89" y="-116.3" font-family="Times,serif" font-size="14" text-anchor="middle">Distinct: Preserve</text><polyline fill="none" stroke="#000" points="16 -108.5 162 -108.5"/><text x="89" y="-93.3" font-family="Times,serif" font-size="14" text-anchor="middle">0: c0 as F1</text><polyline fill="none" stroke="#000" points="16 -85.5 162 -85.5"/><text x="89" y="-70.3" font-family="Times,serif" font-size="14" text-anchor="middle">1: c1 as F2</text><polyline fill="none" stroke="#000" points="16 -62.5 162 -62.5"/><text x="89" y="-47.3" font-family="Times,serif" font-size="14" text-anchor="middle">2: c2 as F3</text></g><g id="edge4" class="edge"><title>Q0-&gt;boxhead1</title><path fill="none" stroke="#000" stroke-dasharray="5 2" d="M89,-189.79C89,-181.08 89,-172.01 89,-163"/></g></g></svg>