<svg xmlns="http://www.w3.org/2000/svg" xmlns:xlink="http://www.w3.org/1999/xlink" width="479pt" height="323pt" viewBox="0 0 479 322.59"><g id="graph0" class="graph" transform="scale(1 1) rotate(0) translate(4 318.59)"><title>G</title><polygon fill="#fff" stroke="transparent" points="-4 4 -4 -318.59 475 -318.59 475 4 -4 4"/><text x="155.5" y="-7.8" font-family="Times,serif" font-size="14" text-anchor="middle">select distinct a from a; (before rewrites)</text><g id="clust1" class="cluster"><title>cluster0</title><polygon fill="none" stroke="#000" points="21 -148 21 -306.59 463 -306.59 463 -148 21 -148"/><text x="71.5" y="-291.39" font-family="Times,serif" font-size="14" text-anchor="middle">Box0:Select</text></g><g id="clust3" class="cluster"><title>cluster1</title><polygon fill="none" stroke="#000" points="8 -31 8 -140 170 -140 170 -31 8 -31"/><text x="80" y="-124.8" font-family="Times,serif" font-size="14" text-anchor="middle">Box1:BaseTable A</text></g><g id="node1" class="node"><title>boxhead0</title><polygon fill="none" stroke="#000" points="166.5 -181.29 166.5 -250.29 455.5 -250.29 455.5 -181.29 166.5 -181.29"/><text x="311" y="-235.09" font-family="Times,serif" font-size="14" text-anchor="middle">Distinct: Enforce</text><polyline fill="none" stroke="#000" points="166.5 -227.29 455.5 -227.29"/><text x="311" y="-212.09" font-family="Times,serif" font-size="14" text-anchor="middle">0: Q0.c0 as A</text><polyline fill="none" stroke="#000" points="166.5 -204.29 455.5 -204.29"/><text x="311" y="-189.09" font-family="Times,serif" font-size="14" text-anchor="middle">UNIQUE KEY [0]</text></g><g id="node2" class="node"><title>Q0</title><ellipse cx="89" cy="-215.79" fill="none" stroke="#000" rx="59.59" ry="59.59"/><text x="89" y="-212.09" font-family="Times,serif" font-size="14" text-anchor="middle">Q0(F) as A</text></g><g id="node3" class="node"><title>boxhead1</title><polygon fill="none" stroke="#000" points="16 -39.5 16 -108.5 162 -108.5 162 -39.5 16 -39.5"/><text x="89" y="-93.3" font-family="Times,serif" font-size="14" text-anchor="middle">Distinct: Preserve</text><polyline fill="none" stroke="#000" points="16 -85.5 162 -85.5"/><text x="89" y="-70.3" font-family="Times,serif" font-size="14" text-anchor="middle">0: c0 as A</text><polyline fill="none" stroke="#000" points="16 -62.5 162 -62.5"/><text x="89" y="-47.3" font-family="Times,serif" font-size="14" text-anchor="middle">1: c1 as B</text></g><g id="edge1" class="edge"><title>Q0-&gt;boxhead1</title><path fill="none" stroke="#000" stroke-dasharray="5 2" d="M89,-155.91C89,-150.65 89,-145.31 89,-140"/></g></g></svg>