<svg xmlns="http://www.w3.org/2000/svg" xmlns:xlink="http://www.w3.org/1999/xlink" width="391pt" height="323pt" viewBox="0 0 391 323.09"><g id="graph0" class="graph" transform="scale(1 1) rotate(0) translate(4 319.09)"><title>G</title><polygon fill="#fff" stroke="transparent" points="-4 4 -4 -319.09 387 -319.09 387 4 -4 4"/><text x="191.5" y="-7.8" font-family="Times,serif" font-size="14" text-anchor="middle">select * from (values(1, 2), (3, 4)); (before rewrites)</text><g id="clust1" class="cluster"><title>cluster0</title><polygon fill="none" stroke="#000" points="68.5 -194 68.5 -307.09 354.5 -307.09 354.5 -194 68.5 -194"/><text x="119" y="-291.89" font-family="Times,serif" font-size="14" text-anchor="middle">Box0:Select</text></g><g id="clust3" class="cluster"><title>cluster1</title><polygon fill="none" stroke="#000" points="28.5 -31 28.5 -186 198.5 -186 198.5 -31 28.5 -31"/><text x="80.5" y="-170.8" font-family="Times,serif" font-size="14" text-anchor="middle">Box1:Values</text></g><g id="node1" class="node"><title>boxhead0</title><polygon fill="none" stroke="#000" points="168.5 -204.55 168.5 -273.55 346.5 -273.55 346.5 -204.55 168.5 -204.55"/><text x="257.5" y="-258.35" font-family="Times,serif" font-size="14" text-anchor="middle">Distinct: Preserve</text><polyline fill="none" stroke="#000" points="168.5 -250.55 346.5 -250.55"/><text x="257.5" y="-235.35" font-family="Times,serif" font-size="14" text-anchor="middle">0: Q0.c0 as COLUMN1</text><polyline fill="none" stroke="#000" points="168.5 -227.55 346.5 -227.55"/><text x="257.5" y="-212.35" font-family="Times,serif" font-size="14" text-anchor="middle">1: Q0.c1 as COLUMN2</text></g><g id="node2" class="node"><title>Q0</title><ellipse cx="113.5" cy="-239.05" fill="none" stroke="#000" rx="37.09" ry="37.09"/><text x="113.5" y="-235.35" font-family="Times,serif" font-size="14" text-anchor="middle">Q0(F)</text></g><g id="node3" class="node"><title>boxhead1</title><polygon fill="none" stroke="#000" points="37 -39.5 37 -154.5 190 -154.5 190 -39.5 37 -39.5"/><text x="113.5" y="-139.3" font-family="Times,serif" font-size="14" text-anchor="middle">Distinct: Preserve</text><polyline fill="none" stroke="#000" points="37 -131.5 190 -131.5"/><text x="113.5" y="-116.3" font-family="Times,serif" font-size="14" text-anchor="middle">0: c0 as COLUMN1</text><polyline fill="none" stroke="#000" points="37 -108.5 190 -108.5"/><text x="113.5" y="-93.3" font-family="Times,serif" font-size="14" text-anchor="middle">1: c1 as COLUMN2</text><polyline fill="none" stroke="#000" points="37 -85.5 190 -85.5"/><text x="113.5" y="-70.3" font-family="Times,serif" font-size="14" text-anchor="middle">1, 2</text><polyline fill="none" stroke="#000" points="37 -62.5 190 -62.5"/><text x="113.5" y="-47.3" font-family="Times,serif" font-size="14" text-anchor="middle">3, 4</text></g><g id="edge1" class="edge"><title>Q0-&gt;boxhead1</title><path fill="none" stroke="#000" stroke-dasharray="5 2" d="M113.5,-201.98C113.5,-196.91 113.5,-191.54 113.5,-186"/></g></g></svg>