<svg xmlns="http://www.w3.org/2000/svg" width="903" height="147"><defs><style type="text/css">@namespace &quot;http://www.w3.org/2000/svg&quot;;.line{fill:none}text.nonterminal,text.terminal{font-family:Verdana,Sans-serif;font-size:12px}text.terminal{fill:#141000;font-weight:700}text.nonterminal{fill:#1a1400;font-weight:400}polygon,rect{fill:#332900;stroke:#332900}.line,rect.nonterminal,rect.terminal{stroke:#332900;stroke-width:1}rect.terminal{fill:#ffdb4d}rect.nonterminal{fill:#ffec9e}</style></defs><polygon points="9 61 1 57 1 65"/><polygon points="17 61 9 57 9 65"/><rect width="88" height="32" x="31" y="47" rx="10"/><rect width="88" height="32" x="29" y="45" class="terminal" rx="10"/><text x="39" y="65" class="terminal">CSV WITH</text><rect width="76" height="32" x="159" y="47" rx="10"/><rect width="76" height="32" x="157" y="45" class="terminal" rx="10"/><text x="167" y="65" class="terminal">HEADER</text><rect width="90" height="32" x="275" y="47" rx="10"/><rect width="90" height="32" x="273" y="45" class="terminal" rx="10"/><text x="283" y="65" class="terminal">COLUMNS</text><rect width="24" height="32" x="385" y="47" rx="10"/><rect width="24" height="32" x="383" y="45" class="terminal" rx="10"/><text x="393" y="65" class="terminal">(</text><rect width="80" height="32" x="449" y="47"/><rect width="80" height="32" x="447" y="45" class="nonterminal"/><text x="457" y="65" class="nonterminal">col_name</text><rect width="24" height="32" x="449" y="3" rx="10"/><rect width="24" height="32" x="447" y="1" class="terminal" rx="10"/><text x="457" y="21" class="terminal">,</text><rect width="24" height="32" x="569" y="47" rx="10"/><rect width="24" height="32" x="567" y="45" class="terminal" rx="10"/><text x="577" y="65" class="terminal">)</text><rect width="28" height="32" x="159" y="113"/><rect width="28" height="32" x="157" y="111" class="nonterminal"/><text x="167" y="131" class="nonterminal">n</text><rect width="90" height="32" x="207" y="113" rx="10"/><rect width="90" height="32" x="205" y="111" class="terminal" rx="10"/><text x="215" y="131" class="terminal">COLUMNS</text><rect width="116" height="32" x="673" y="79" rx="10"/><rect width="116" height="32" x="671" y="77" class="terminal" rx="10"/><text x="681" y="97" class="terminal">DELIMITED BY</text><rect width="46" height="32" x="809" y="79"/><rect width="46" height="32" x="807" y="77" class="nonterminal"/><text x="817" y="97" class="nonterminal">char</text><path d="m17 61 h2 m0 0 h10 m88 0 h10 m20 0 h10 m76 0 h10 m20 0 h10 m90 0 h10 m0 0 h10 m24 0 h10 m20 0 h10 m80 0 h10 m-120 0 l20 0 m-1 0 q-9 0 -9 -10 l0 -24 q0 -10 10 -10 m100 44 l20 0 m-20 0 q10 0 10 -10 l0 -24 q0 -10 -10 -10 m-100 0 h10 m24 0 h10 m0 0 h56 m20 44 h10 m24 0 h10 m-358 0 h20 m338 0 h20 m-378 0 q10 0 10 10 m358 0 q0 -10 10 -10 m-368 10 v14 m358 0 v-14 m-358 14 q0 10 10 10 m338 0 q10 0 10 -10 m-348 10 h10 m0 0 h328 m-474 -34 h20 m474 0 h20 m-514 0 q10 0 10 10 m494 0 q0 -10 10 -10 m-504 10 v46 m494 0 v-46 m-494 46 q0 10 10 10 m474 0 q10 0 10 -10 m-484 10 h10 m28 0 h10 m0 0 h10 m90 0 h10 m0 0 h316 m40 -66 h10 m0 0 h192 m-222 0 h20 m202 0 h20 m-242 0 q10 0 10 10 m222 0 q0 -10 10 -10 m-232 10 v12 m222 0 v-12 m-222 12 q0 10 10 10 m202 0 q10 0 10 -10 m-212 10 h10 m116 0 h10 m0 0 h10 m46 0 h10 m23 -32 h-3" class="line"/><polygon points="893 61 901 57 901 65"/><polygon points="893 61 885 57 885 65"/></svg>